%TF.GenerationSoftware,KiCad,Pcbnew,9.0.5*%
%TF.CreationDate,2025-11-20T11:05:52+01:00*%
%TF.ProjectId,mainboard,6d61696e-626f-4617-9264-2e6b69636164,rev?*%
%TF.SameCoordinates,Original*%
%TF.FileFunction,Legend,Bot*%
%TF.FilePolarity,Positive*%
%FSLAX46Y46*%
G04 Gerber Fmt 4.6, Leading zero omitted, Abs format (unit mm)*
G04 Created by KiCad (PCBNEW 9.0.5) date 2025-11-20 11:05:52*
%MOMM*%
%LPD*%
G01*
G04 APERTURE LIST*
G04 Aperture macros list*
%AMRoundRect*
0 Rectangle with rounded corners*
0 $1 Rounding radius*
0 $2 $3 $4 $5 $6 $7 $8 $9 X,Y pos of 4 corners*
0 Add a 4 corners polygon primitive as box body*
4,1,4,$2,$3,$4,$5,$6,$7,$8,$9,$2,$3,0*
0 Add four circle primitives for the rounded corners*
1,1,$1+$1,$2,$3*
1,1,$1+$1,$4,$5*
1,1,$1+$1,$6,$7*
1,1,$1+$1,$8,$9*
0 Add four rect primitives between the rounded corners*
20,1,$1+$1,$2,$3,$4,$5,0*
20,1,$1+$1,$4,$5,$6,$7,0*
20,1,$1+$1,$6,$7,$8,$9,0*
20,1,$1+$1,$8,$9,$2,$3,0*%
G04 Aperture macros list end*
%ADD10C,0.150000*%
%ADD11C,0.120000*%
%ADD12RoundRect,0.250000X-0.625000X0.350000X-0.625000X-0.350000X0.625000X-0.350000X0.625000X0.350000X0*%
%ADD13O,1.750000X1.200000*%
%ADD14C,2.500000*%
%ADD15C,0.500000*%
%ADD16C,0.900000*%
%ADD17C,1.300000*%
%ADD18C,0.650000*%
%ADD19O,1.000000X2.100000*%
%ADD20O,1.000000X1.800000*%
%ADD21C,1.600000*%
%ADD22C,1.100000*%
%ADD23R,1.700000X1.700000*%
%ADD24C,1.700000*%
%ADD25RoundRect,0.250000X-0.350000X-0.625000X0.350000X-0.625000X0.350000X0.625000X-0.350000X0.625000X0*%
%ADD26O,1.200000X1.750000*%
G04 APERTURE END LIST*
D10*
X127933333Y-255254819D02*
X127933333Y-255969104D01*
X127933333Y-255969104D02*
X127980952Y-256111961D01*
X127980952Y-256111961D02*
X128076190Y-256207200D01*
X128076190Y-256207200D02*
X128219047Y-256254819D01*
X128219047Y-256254819D02*
X128314285Y-256254819D01*
X127028571Y-255588152D02*
X127028571Y-256254819D01*
X127266666Y-255207200D02*
X127504761Y-255921485D01*
X127504761Y-255921485D02*
X126885714Y-255921485D01*
D11*
%TO.C,J4*%
X124540000Y-246890000D02*
X130660000Y-246890000D01*
X124540000Y-253110000D02*
X125460000Y-253110000D01*
X124540000Y-254710000D02*
X124540000Y-246890000D01*
X125300000Y-249150000D02*
X126300000Y-249150000D01*
X125300000Y-250750000D02*
X125300000Y-249150000D01*
X125460000Y-253110000D02*
X125460000Y-254710000D01*
X125460000Y-254710000D02*
X124540000Y-254710000D01*
X125740000Y-253110000D02*
X125460000Y-253110000D01*
X125740000Y-253110000D02*
X125740000Y-254325000D01*
X125800000Y-249150000D02*
X125800000Y-246890000D01*
X126300000Y-249150000D02*
X126300000Y-246890000D01*
X126300000Y-249150000D02*
X126300000Y-250750000D01*
X126300000Y-250750000D02*
X125300000Y-250750000D01*
X127100000Y-246890000D02*
X127100000Y-251250000D01*
X127100000Y-251250000D02*
X128100000Y-251250000D01*
X128100000Y-251250000D02*
X128100000Y-246890000D01*
X128900000Y-249150000D02*
X128900000Y-250750000D01*
X128900000Y-250750000D02*
X129900000Y-250750000D01*
X129740000Y-253110000D02*
X129460000Y-253110000D01*
X129740000Y-254710000D02*
X129740000Y-253110000D01*
X129900000Y-249150000D02*
X128900000Y-249150000D01*
X129900000Y-250750000D02*
X129900000Y-249150000D01*
X130660000Y-246890000D02*
X130660000Y-254710000D01*
X130660000Y-253110000D02*
X129740000Y-253110000D01*
X130660000Y-254710000D02*
X129740000Y-254710000D01*
%TD*%
%LPC*%
D12*
%TO.C,J6*%
X188150000Y-258400000D03*
D13*
X188150000Y-260400000D03*
%TD*%
D14*
%TO.C,H7*%
X130500000Y-271500000D03*
%TD*%
%TO.C,H2*%
X179675000Y-105766000D03*
%TD*%
%TO.C,H3*%
X121675000Y-154766000D03*
%TD*%
D15*
%TO.C,U6*%
X138425000Y-244300000D03*
%TD*%
D16*
%TO.C,S1*%
X200300000Y-137100000D03*
X200300000Y-134100000D03*
%TD*%
D14*
%TO.C,H5*%
X130500000Y-94000000D03*
%TD*%
%TO.C,H8*%
X180000000Y-271500000D03*
%TD*%
D17*
%TO.C,J1*%
X134250000Y-123600000D03*
X134250000Y-146000000D03*
%TD*%
D18*
%TO.C,J3*%
X165862500Y-275695000D03*
X171642500Y-275695000D03*
D19*
X164432500Y-275195000D03*
D20*
X164432500Y-279375000D03*
D19*
X173072500Y-275195000D03*
D20*
X173072500Y-279375000D03*
%TD*%
D21*
%TO.C,P1*%
X123450000Y-194900000D03*
D22*
X190250000Y-194900000D03*
%TD*%
D23*
%TO.C,J7*%
X115100000Y-188750000D03*
D24*
X115100000Y-191290000D03*
X115100000Y-193830000D03*
X115100000Y-196370000D03*
X115100000Y-198910000D03*
X115100000Y-201450000D03*
%TD*%
D14*
%TO.C,H6*%
X180000000Y-94000000D03*
%TD*%
D23*
%TO.C,J2*%
X126550000Y-107036000D03*
D24*
X126550000Y-104496000D03*
X129090000Y-107036000D03*
X129090000Y-104496000D03*
X131630000Y-107036000D03*
X131630000Y-104496000D03*
X134170000Y-107036000D03*
X134170000Y-104496000D03*
X136710000Y-107036000D03*
X136710000Y-104496000D03*
X139250000Y-107036000D03*
X139250000Y-104496000D03*
X141790000Y-107036000D03*
X141790000Y-104496000D03*
X144330000Y-107036000D03*
X144330000Y-104496000D03*
X146870000Y-107036000D03*
X146870000Y-104496000D03*
X149410000Y-107036000D03*
X149410000Y-104496000D03*
X151950000Y-107036000D03*
X151950000Y-104496000D03*
X154490000Y-107036000D03*
X154490000Y-104496000D03*
X157030000Y-107036000D03*
X157030000Y-104496000D03*
X159570000Y-107036000D03*
X159570000Y-104496000D03*
X162110000Y-107036000D03*
X162110000Y-104496000D03*
X164650000Y-107036000D03*
X164650000Y-104496000D03*
X167190000Y-107036000D03*
X167190000Y-104496000D03*
X169730000Y-107036000D03*
X169730000Y-104496000D03*
X172270000Y-107036000D03*
X172270000Y-104496000D03*
X174810000Y-107036000D03*
X174810000Y-104496000D03*
%TD*%
D14*
%TO.C,H1*%
X121675000Y-105766000D03*
%TD*%
%TO.C,H4*%
X179675000Y-154766000D03*
%TD*%
D25*
%TO.C,J4*%
X126600000Y-253250000D03*
D26*
X128600000Y-253250000D03*
%TD*%
%LPD*%
M02*
