%TF.GenerationSoftware,KiCad,Pcbnew,9.0.5*%
%TF.CreationDate,2025-11-20T11:05:52+01:00*%
%TF.ProjectId,mainboard,6d61696e-626f-4617-9264-2e6b69636164,rev?*%
%TF.SameCoordinates,Original*%
%TF.FileFunction,Profile,NP*%
%FSLAX46Y46*%
G04 Gerber Fmt 4.6, Leading zero omitted, Abs format (unit mm)*
G04 Created by KiCad (PCBNEW 9.0.5) date 2025-11-20 11:05:52*
%MOMM*%
%LPD*%
G01*
G04 APERTURE LIST*
%TA.AperFunction,Profile*%
%ADD10C,0.100000*%
%TD*%
%TA.AperFunction,Profile*%
%ADD11C,0.050000*%
%TD*%
G04 APERTURE END LIST*
D10*
X115500000Y-216500000D02*
X111000000Y-216500000D01*
X190000000Y-271500000D02*
G75*
G02*
X194000000Y-267500000I4000000J0D01*
G01*
X194000000Y-98000000D02*
X199500000Y-98000000D01*
X111000000Y-110500000D02*
G75*
G02*
X106000000Y-115500000I-5000000J0D01*
G01*
X199500000Y-110000000D02*
X199500000Y-98000000D01*
D11*
X120500000Y-88500000D02*
X190000000Y-88500000D01*
D10*
X106000000Y-115500000D02*
X106000000Y-156000000D01*
X199500000Y-206500000D02*
X199500000Y-161000000D01*
X204500000Y-115000000D02*
G75*
G02*
X199500000Y-110000000I0J5000000D01*
G01*
X116500000Y-267500000D02*
G75*
G02*
X120500000Y-271500000I0J-4000000D01*
G01*
X195000000Y-216500000D02*
X199500000Y-216500000D01*
X120500000Y-94000000D02*
G75*
G02*
X116500000Y-98000000I-4000000J0D01*
G01*
X194000000Y-98000000D02*
G75*
G02*
X190000000Y-94000000I0J4000000D01*
G01*
X120500000Y-94000000D02*
X120500000Y-88500000D01*
X111000000Y-110500000D02*
X111000000Y-98000000D01*
X111000000Y-98000000D02*
X116500000Y-98000000D01*
X195000000Y-216500000D02*
G75*
G02*
X195000000Y-206500000I0J5000000D01*
G01*
X204500000Y-156000000D02*
X204500000Y-115000000D01*
X115500000Y-206500000D02*
G75*
G02*
X115500000Y-216500000I0J-5000000D01*
G01*
X106000001Y-156000000D02*
G75*
G02*
X111000000Y-161000000I-1J-5000000D01*
G01*
X194000000Y-267500000D02*
X199500000Y-267500000D01*
X125500000Y-282000000D02*
G75*
G02*
X120500000Y-277000000I0J5000000D01*
G01*
D11*
X199500000Y-216500000D02*
X199500000Y-267500000D01*
D10*
X195000000Y-206500000D02*
X199500000Y-206500000D01*
X116500000Y-267500000D02*
X111000000Y-267500000D01*
X190000000Y-94000000D02*
X190000000Y-88500000D01*
X190000000Y-277000000D02*
G75*
G02*
X185000000Y-282000000I-5000000J0D01*
G01*
X111000000Y-216500000D02*
X111000000Y-267500000D01*
X111000000Y-206500000D02*
X111000000Y-161000000D01*
X199500000Y-161000000D02*
G75*
G02*
X204500000Y-156000000I5000000J0D01*
G01*
X125500000Y-282000000D02*
X185000000Y-282000000D01*
X115500000Y-206500000D02*
X111000000Y-206500000D01*
X120500000Y-277000000D02*
X120500000Y-271500000D01*
X190000000Y-271500000D02*
X190000000Y-277000000D01*
D11*
%TO.C,U11*%
X143650000Y-272700000D02*
G75*
G02*
X142350000Y-272700000I-650000J0D01*
G01*
X142350000Y-272700000D02*
G75*
G02*
X143650000Y-272700000I650000J0D01*
G01*
X143650000Y-278700000D02*
G75*
G02*
X142350000Y-278700000I-650000J0D01*
G01*
X142350000Y-278700000D02*
G75*
G02*
X143650000Y-278700000I650000J0D01*
G01*
%TD*%
M02*
