%TF.GenerationSoftware,KiCad,Pcbnew,9.0.2*%
%TF.CreationDate,2025-06-13T11:39:57+02:00*%
%TF.ProjectId,mainboard,6d61696e-626f-4617-9264-2e6b69636164,rev?*%
%TF.SameCoordinates,Original*%
%TF.FileFunction,Copper,L4,Bot*%
%TF.FilePolarity,Positive*%
%FSLAX46Y46*%
G04 Gerber Fmt 4.6, Leading zero omitted, Abs format (unit mm)*
G04 Created by KiCad (PCBNEW 9.0.2) date 2025-06-13 11:39:57*
%MOMM*%
%LPD*%
G01*
G04 APERTURE LIST*
G04 Aperture macros list*
%AMRoundRect*
0 Rectangle with rounded corners*
0 $1 Rounding radius*
0 $2 $3 $4 $5 $6 $7 $8 $9 X,Y pos of 4 corners*
0 Add a 4 corners polygon primitive as box body*
4,1,4,$2,$3,$4,$5,$6,$7,$8,$9,$2,$3,0*
0 Add four circle primitives for the rounded corners*
1,1,$1+$1,$2,$3*
1,1,$1+$1,$4,$5*
1,1,$1+$1,$6,$7*
1,1,$1+$1,$8,$9*
0 Add four rect primitives between the rounded corners*
20,1,$1+$1,$2,$3,$4,$5,0*
20,1,$1+$1,$4,$5,$6,$7,0*
20,1,$1+$1,$6,$7,$8,$9,0*
20,1,$1+$1,$8,$9,$2,$3,0*%
G04 Aperture macros list end*
%TA.AperFunction,ComponentPad*%
%ADD10RoundRect,0.250000X-0.625000X0.350000X-0.625000X-0.350000X0.625000X-0.350000X0.625000X0.350000X0*%
%TD*%
%TA.AperFunction,ComponentPad*%
%ADD11O,1.750000X1.200000*%
%TD*%
%TA.AperFunction,HeatsinkPad*%
%ADD12C,0.500000*%
%TD*%
%TA.AperFunction,HeatsinkPad*%
%ADD13O,1.000000X2.100000*%
%TD*%
%TA.AperFunction,HeatsinkPad*%
%ADD14O,1.000000X1.800000*%
%TD*%
%TA.AperFunction,ComponentPad*%
%ADD15R,1.700000X1.700000*%
%TD*%
%TA.AperFunction,ComponentPad*%
%ADD16C,1.700000*%
%TD*%
%TA.AperFunction,ComponentPad*%
%ADD17R,1.900000X1.900000*%
%TD*%
%TA.AperFunction,ComponentPad*%
%ADD18C,1.900000*%
%TD*%
%TA.AperFunction,ComponentPad*%
%ADD19RoundRect,0.250000X-0.350000X-0.625000X0.350000X-0.625000X0.350000X0.625000X-0.350000X0.625000X0*%
%TD*%
%TA.AperFunction,ComponentPad*%
%ADD20O,1.200000X1.750000*%
%TD*%
%TA.AperFunction,ViaPad*%
%ADD21C,0.800000*%
%TD*%
%TA.AperFunction,ViaPad*%
%ADD22C,0.500000*%
%TD*%
%TA.AperFunction,Conductor*%
%ADD23C,0.300000*%
%TD*%
%TA.AperFunction,Conductor*%
%ADD24C,0.200000*%
%TD*%
G04 APERTURE END LIST*
D10*
%TO.P,J6,1,Pin_1*%
%TO.N,Net-(J6-Pin_1)*%
X188150000Y-258400000D03*
D11*
%TO.P,J6,2,Pin_2*%
%TO.N,Net-(J6-Pin_2)*%
X188150000Y-260400000D03*
%TD*%
D12*
%TO.P,U6,11,PGND*%
%TO.N,GND*%
X138650000Y-244550000D03*
X139225000Y-243600000D03*
X139225000Y-245500000D03*
X139800000Y-244550000D03*
%TD*%
D13*
%TO.P,J3,S1,SHIELD*%
%TO.N,GND*%
X164432500Y-275195000D03*
D14*
X164432500Y-279375000D03*
D13*
X173072500Y-275195000D03*
D14*
X173072500Y-279375000D03*
%TD*%
D15*
%TO.P,J2,1,Pin_1*%
%TO.N,3V3_LCD*%
X126550000Y-107036000D03*
D16*
%TO.P,J2,2,Pin_2*%
%TO.N,5V0*%
X126550000Y-104496000D03*
%TO.P,J2,3,Pin_3*%
%TO.N,LCD_VSYNC*%
X129090000Y-107036000D03*
%TO.P,J2,4,Pin_4*%
%TO.N,5V0*%
X129090000Y-104496000D03*
%TO.P,J2,5,Pin_5*%
%TO.N,LCD_HSYNC*%
X131630000Y-107036000D03*
%TO.P,J2,6,Pin_6*%
%TO.N,GND*%
X131630000Y-104496000D03*
%TO.P,J2,7,Pin_7*%
%TO.N,LCD_B0*%
X134170000Y-107036000D03*
%TO.P,J2,8,Pin_8*%
%TO.N,LCD_G2*%
X134170000Y-104496000D03*
%TO.P,J2,9,Pin_9*%
%TO.N,GND*%
X136710000Y-107036000D03*
%TO.P,J2,10,Pin_10*%
%TO.N,LCD_G3*%
X136710000Y-104496000D03*
%TO.P,J2,11,Pin_11*%
%TO.N,LCD_G5*%
X139250000Y-107036000D03*
%TO.P,J2,12,Pin_12*%
%TO.N,LCD_CS*%
X139250000Y-104496000D03*
%TO.P,J2,13,Pin_13*%
%TO.N,LCD_TOUCH_INTERRUPT*%
X141790000Y-107036000D03*
%TO.P,J2,14,Pin_14*%
%TO.N,GND*%
X141790000Y-104496000D03*
%TO.P,J2,15,Pin_15*%
%TO.N,LCD_R2*%
X144330000Y-107036000D03*
%TO.P,J2,16,Pin_16*%
%TO.N,LCD_R3*%
X144330000Y-104496000D03*
%TO.P,J2,17,Pin_17*%
%TO.N,3V3_LCD*%
X146870000Y-107036000D03*
%TO.P,J2,18,Pin_18*%
%TO.N,LCD_R4*%
X146870000Y-104496000D03*
%TO.P,J2,19,Pin_19*%
%TO.N,LCD_TOUCH_DATA*%
X149410000Y-107036000D03*
%TO.P,J2,20,Pin_20*%
%TO.N,GND*%
X149410000Y-104496000D03*
%TO.P,J2,21,Pin_21*%
%TO.N,LCD_B5*%
X151950000Y-107036000D03*
%TO.P,J2,22,Pin_22*%
%TO.N,LCD_R5*%
X151950000Y-104496000D03*
%TO.P,J2,23,Pin_23*%
%TO.N,LCD_TOUCH_CLK*%
X154490000Y-107036000D03*
%TO.P,J2,24,Pin_24*%
%TO.N,LCD_B4*%
X154490000Y-104496000D03*
%TO.P,J2,25,Pin_25*%
%TO.N,GND*%
X157030000Y-107036000D03*
%TO.P,J2,26,Pin_26*%
%TO.N,LCD_B3*%
X157030000Y-104496000D03*
%TO.P,J2,27,Pin_27*%
%TO.N,LCD_CLK*%
X159570000Y-107036000D03*
%TO.P,J2,28,Pin_28*%
%TO.N,LCD_ENABLE*%
X159570000Y-104496000D03*
%TO.P,J2,29,Pin_29*%
%TO.N,LCD_B1*%
X162110000Y-107036000D03*
%TO.P,J2,30,Pin_30*%
%TO.N,GND*%
X162110000Y-104496000D03*
%TO.P,J2,31,Pin_31*%
%TO.N,LCD_B2*%
X164650000Y-107036000D03*
%TO.P,J2,32,Pin_32*%
%TO.N,LCD_G0*%
X164650000Y-104496000D03*
%TO.P,J2,33,Pin_33*%
%TO.N,LCD_G1*%
X167190000Y-107036000D03*
%TO.P,J2,34,Pin_34*%
%TO.N,GND*%
X167190000Y-104496000D03*
%TO.P,J2,35,Pin_35*%
%TO.N,LCD_BACKLIGHT_CTRL*%
X169730000Y-107036000D03*
%TO.P,J2,36,Pin_36*%
%TO.N,LCD_G4*%
X169730000Y-104496000D03*
%TO.P,J2,37,Pin_37*%
%TO.N,LCD_PROG_DATA*%
X172270000Y-107036000D03*
%TO.P,J2,38,Pin_38*%
%TO.N,LCD_R0*%
X172270000Y-104496000D03*
%TO.P,J2,39,Pin_39*%
%TO.N,GND*%
X174810000Y-107036000D03*
%TO.P,J2,40,Pin_40*%
%TO.N,LCD_R1*%
X174810000Y-104496000D03*
%TD*%
D17*
%TO.P,J9,R*%
%TO.N,Net-(U8-HPR)*%
X140750000Y-271000000D03*
D18*
%TO.P,J9,S*%
%TO.N,GND*%
X145250000Y-271000000D03*
%TO.P,J9,T*%
%TO.N,Net-(U8-HPL)*%
X140100000Y-278500000D03*
X145900000Y-278500000D03*
%TD*%
D19*
%TO.P,J4,1,Pin_1*%
%TO.N,BAT+*%
X126600000Y-253300000D03*
D20*
%TO.P,J4,2,Pin_2*%
%TO.N,GND*%
X128600000Y-253300000D03*
%TD*%
D21*
%TO.N,GND*%
X155850000Y-241400000D03*
X154350000Y-244200000D03*
D22*
%TO.N,I2C_SCL*%
X181125000Y-202725000D03*
X146500000Y-193000000D03*
X134400000Y-215700000D03*
%TO.N,I2C_SDA*%
X145900000Y-192400000D03*
X180500000Y-202100000D03*
X133500000Y-215700000D03*
%TO.N,TRACKBALL_INTERRUPT*%
X187975000Y-221900000D03*
X147100000Y-192400000D03*
D21*
%TO.N,5V0*%
X180100000Y-252000000D03*
X180100000Y-246600000D03*
X136400000Y-237500000D03*
X137300000Y-207700000D03*
X134900000Y-239050000D03*
X179000000Y-136700000D03*
X182200000Y-252700000D03*
X125800000Y-189000000D03*
X180100000Y-248400000D03*
X128200000Y-189000000D03*
X179000000Y-142300000D03*
X134900000Y-240600000D03*
D22*
X182600000Y-245700000D03*
D21*
X179000000Y-138500000D03*
X136400000Y-239050000D03*
X138800000Y-207700000D03*
X136400000Y-240600000D03*
X180100000Y-250200000D03*
X134900000Y-237500000D03*
X179000000Y-140400000D03*
X127000000Y-189000000D03*
D22*
%TO.N,LCD_TOUCH_INTERRUPT*%
X157900000Y-187500000D03*
X143700000Y-110700000D03*
%TO.N,LCD_TOUCH_CLK*%
X159100000Y-187500000D03*
%TO.N,LCD_TOUCH_DATA*%
X158500000Y-186700000D03*
X151300000Y-110800000D03*
%TO.N,LCD_PROG_DATA*%
X159700000Y-186700000D03*
%TO.N,SRAM_A6*%
X166600000Y-197000000D03*
X165000000Y-220800000D03*
%TO.N,SRAM_A5*%
X167800000Y-218200000D03*
X167800000Y-197000000D03*
%TO.N,SRAM_A10*%
X159400000Y-218000000D03*
X159400000Y-197000000D03*
%TO.N,SRAM_A14*%
X154600000Y-197000000D03*
X154600000Y-218000000D03*
%TO.N,SRAM_A12*%
X157000000Y-218000000D03*
X157000000Y-197000000D03*
%TO.N,SRAM_A13*%
X155800000Y-197000000D03*
X155400000Y-220000000D03*
%TO.N,SRAM_A8*%
X164200000Y-218000000D03*
X164200000Y-197000000D03*
%TO.N,SRAM_A9*%
X163000000Y-197000000D03*
X162600000Y-220000000D03*
%TO.N,SRAM_A11*%
X158200000Y-197000000D03*
X157000000Y-220000000D03*
%TO.N,SRAM_A7*%
X164200000Y-220000000D03*
X165400000Y-197000000D03*
%TO.N,SRAM_D8*%
X169000000Y-197030603D03*
X169000000Y-218200000D03*
%TO.N,SRAM_D11*%
X172600000Y-218200000D03*
X172596641Y-197000000D03*
%TO.N,SRAM_D4*%
X149800000Y-219943793D03*
X149800000Y-197000000D03*
%TO.N,SRAM_D9*%
X170200000Y-197000000D03*
X170200000Y-218200000D03*
%TO.N,SRAM_D5*%
X151400000Y-219915174D03*
X151000000Y-197000000D03*
%TO.N,SRAM_D6*%
X152200000Y-197000000D03*
X152200000Y-218000000D03*
%TO.N,SRAM_D7*%
X153400000Y-197000000D03*
X153800000Y-220000000D03*
%TO.N,SRAM_D10*%
X171400000Y-218200000D03*
X171400000Y-197030603D03*
%TO.N,3V3*%
X133400000Y-233800000D03*
X155550000Y-234200000D03*
%TO.N,Net-(U7-EN2)*%
X134900000Y-262000000D03*
X137800000Y-258800000D03*
X145400000Y-255400000D03*
X196600000Y-143000000D03*
X130100000Y-257000000D03*
D21*
%TO.N,GND*%
X180400000Y-238900000D03*
X189775000Y-140300000D03*
X180400000Y-120200000D03*
X143500000Y-134025000D03*
X126600000Y-239550000D03*
X172600000Y-244800000D03*
X131900000Y-257400000D03*
X179200000Y-126000000D03*
X164952500Y-272700000D03*
X125250000Y-209500000D03*
X131250000Y-203100000D03*
X145000000Y-197000000D03*
X136400000Y-244550000D03*
X175900000Y-192800000D03*
X190850000Y-246400000D03*
D22*
X181775000Y-205825000D03*
D21*
X125250000Y-207000000D03*
X140887500Y-203550000D03*
X188500000Y-192700000D03*
X160900000Y-206500000D03*
X128200000Y-239550000D03*
X145300000Y-188400000D03*
X174200000Y-267800000D03*
X126700000Y-197100000D03*
X160600000Y-192700000D03*
X136900000Y-192800000D03*
X139000000Y-136500000D03*
X125250000Y-214500000D03*
X145400000Y-257600000D03*
X171952500Y-272800000D03*
X139000000Y-129000000D03*
X135350000Y-214800000D03*
X160300000Y-197000000D03*
D22*
X150400000Y-213200000D03*
D21*
X160200000Y-225000000D03*
X158100000Y-251800000D03*
D22*
X176000000Y-201925000D03*
D21*
X134850000Y-259050000D03*
X111000000Y-124000000D03*
D22*
X158800000Y-213200000D03*
D21*
X175600000Y-197000000D03*
X135450000Y-207700000D03*
X138200000Y-253800000D03*
X127900000Y-197100000D03*
X141500000Y-241000000D03*
X142800000Y-242050000D03*
X179200000Y-131700000D03*
X190850000Y-250100000D03*
X173246641Y-210500000D03*
X186000000Y-208600000D03*
X132800000Y-219700000D03*
X129700000Y-124000000D03*
X129700000Y-147000000D03*
X113700000Y-112800000D03*
X150300000Y-260500000D03*
X143700000Y-255400000D03*
X179200000Y-128800000D03*
X153000000Y-225000000D03*
X161000000Y-213400000D03*
X136600000Y-197000000D03*
X152200000Y-237300000D03*
D22*
X167200000Y-213400000D03*
D21*
X179200000Y-123300000D03*
X133100000Y-207800000D03*
X148500000Y-222900000D03*
D22*
X186150000Y-229150000D03*
D21*
X166800000Y-236000000D03*
X131500000Y-220800000D03*
X140100000Y-262400000D03*
X129700000Y-239550000D03*
X188200000Y-197100000D03*
X190850000Y-248300000D03*
X140937500Y-205950000D03*
X173450000Y-242900000D03*
X130200000Y-209300000D03*
X137947500Y-232000000D03*
X158600000Y-225000000D03*
X111000000Y-147000000D03*
X141500000Y-239000000D03*
X125250000Y-212000000D03*
X186250000Y-221050000D03*
X189775000Y-142050000D03*
X169800000Y-225000000D03*
X164000000Y-267875000D03*
X140887500Y-218550000D03*
X180800000Y-208725000D03*
X147600000Y-209300000D03*
X132800000Y-222000000D03*
X166800000Y-244200000D03*
X189775000Y-143800000D03*
X125500000Y-197100000D03*
X130100000Y-261700000D03*
X130200000Y-222000000D03*
X132600000Y-261300000D03*
X135450000Y-201900000D03*
X130200000Y-219700000D03*
D22*
%TO.N,~{SRAM_OE}*%
X161800000Y-218000000D03*
X161800000Y-197000000D03*
%TO.N,Net-(D1-K)*%
X148600000Y-266100000D03*
X151062500Y-277812500D03*
%TO.N,Net-(D3-K)*%
X157462500Y-277900000D03*
X152800000Y-266800000D03*
%TO.N,Net-(U8-HPR)*%
X132800000Y-209700000D03*
%TO.N,Net-(U8-HPL)*%
X134200000Y-209700000D03*
%TO.N,AUDIO_WCLK*%
X130000000Y-212350000D03*
X138300000Y-195100000D03*
%TO.N,AUDIO_MCLK*%
X138300000Y-193900000D03*
X130000000Y-214200000D03*
%TO.N,AUDIO_DIN*%
X130000000Y-211400000D03*
X135900000Y-195700000D03*
%TO.N,AUDIO_INTERRUPT*%
X131300000Y-207950000D03*
X138300000Y-196300000D03*
%TO.N,AUDIO_BCLK*%
X135900000Y-194500000D03*
X130000000Y-213300000D03*
%TO.N,Net-(U10-IO0_2)*%
X180800000Y-229450000D03*
X183100000Y-212200000D03*
%TO.N,Net-(J6-Pin_2)*%
X137300000Y-209600000D03*
X137300000Y-212600000D03*
%TO.N,Net-(J6-Pin_1)*%
X137300000Y-210650000D03*
%TO.N,Net-(U10-IO0_4)*%
X184375000Y-212275000D03*
X180800000Y-226050000D03*
%TO.N,Net-(U10-IO0_1)*%
X180800000Y-231150000D03*
X182400000Y-212800000D03*
%TO.N,Net-(U10-IO0_3)*%
X180800000Y-227750000D03*
X183750000Y-212900000D03*
%TO.N,Net-(U10-IO0_0)*%
X181750000Y-212250000D03*
X180800000Y-232850000D03*
%TO.N,Net-(U10-IO0_6)*%
X185675000Y-212275000D03*
X180800000Y-222650000D03*
%TO.N,Net-(U10-IO0_7)*%
X186325000Y-212900000D03*
X180800000Y-220950000D03*
%TO.N,Net-(U10-IO0_5)*%
X185025000Y-212900000D03*
X180800000Y-224350000D03*
%TO.N,Net-(U10-IO1_0)*%
X180800000Y-219250000D03*
X186975000Y-205850000D03*
%TO.N,Net-(U10-IO1_1)*%
X186325000Y-206825000D03*
X180800000Y-217550000D03*
%TO.N,Net-(U9-ON)*%
X145400000Y-259000000D03*
X197200000Y-143800000D03*
%TD*%
D23*
%TO.N,3V3*%
X155550000Y-234200000D02*
X133800000Y-234200000D01*
X133800000Y-234200000D02*
X133400000Y-233800000D01*
D24*
%TO.N,I2C_SCL*%
X146500000Y-193000000D02*
X146500000Y-194000000D01*
X147100000Y-194600000D02*
X179800000Y-194600000D01*
X145950000Y-191450000D02*
X142850000Y-191450000D01*
X134800000Y-210800000D02*
X134400000Y-211200000D01*
X181125000Y-195925000D02*
X181125000Y-202725000D01*
X134800000Y-204400000D02*
X134800000Y-210800000D01*
X142850000Y-191450000D02*
X142300000Y-192000000D01*
X146500000Y-193000000D02*
X146500000Y-192000000D01*
X146500000Y-192000000D02*
X145950000Y-191450000D01*
X179800000Y-194600000D02*
X181125000Y-195925000D01*
X142300000Y-192000000D02*
X142300000Y-196900000D01*
X146500000Y-194000000D02*
X147100000Y-194600000D01*
X142300000Y-196900000D02*
X134800000Y-204400000D01*
X134400000Y-211200000D02*
X134400000Y-215700000D01*
%TO.N,I2C_SDA*%
X180500000Y-196000000D02*
X180500000Y-202100000D01*
X143000000Y-192400000D02*
X145900000Y-192400000D01*
X136200000Y-203600000D02*
X142700000Y-197100000D01*
X142700000Y-192700000D02*
X143000000Y-192400000D01*
X133500000Y-216000000D02*
X133800000Y-216300000D01*
X142700000Y-197100000D02*
X142700000Y-192700000D01*
X145900000Y-192400000D02*
X145900000Y-194000000D01*
X146900000Y-195000000D02*
X179500000Y-195000000D01*
X135700000Y-216300000D02*
X136200000Y-215800000D01*
X136200000Y-215800000D02*
X136200000Y-203600000D01*
X179500000Y-195000000D02*
X180500000Y-196000000D01*
X145900000Y-194000000D02*
X146900000Y-195000000D01*
X133500000Y-215700000D02*
X133500000Y-216000000D01*
X133800000Y-216300000D02*
X135700000Y-216300000D01*
%TO.N,TRACKBALL_INTERRUPT*%
X182000000Y-194200000D02*
X187975000Y-200175000D01*
X147100000Y-192400000D02*
X147100000Y-193900000D01*
X147400000Y-194200000D02*
X182000000Y-194200000D01*
X187975000Y-200175000D02*
X187975000Y-221900000D01*
X147100000Y-193900000D02*
X147400000Y-194200000D01*
%TO.N,LCD_TOUCH_INTERRUPT*%
X157900000Y-124900000D02*
X143700000Y-110700000D01*
X157900000Y-187500000D02*
X157900000Y-124900000D01*
%TO.N,LCD_TOUCH_CLK*%
X159700000Y-117297776D02*
X159700000Y-117187776D01*
X158850000Y-117942776D02*
X158850000Y-117642776D01*
X158500000Y-115647776D02*
X158500000Y-115537776D01*
X159100000Y-114547776D02*
X159100000Y-114100000D01*
X158720000Y-115867776D02*
X159480000Y-115867776D01*
X154500000Y-107046000D02*
X154490000Y-107036000D01*
X158975000Y-118067776D02*
X159480000Y-118067776D01*
X158975000Y-119167776D02*
X159480000Y-119167776D01*
X159480000Y-114767776D02*
X159320000Y-114767776D01*
X158975000Y-117517776D02*
X159480000Y-117517776D01*
X159700000Y-118397776D02*
X159700000Y-118287776D01*
X158720000Y-115317776D02*
X159480000Y-115317776D01*
X159700000Y-116197776D02*
X159700000Y-116087776D01*
X158975000Y-118617776D02*
X159480000Y-118617776D01*
X159320000Y-119717776D02*
X159480000Y-119717776D01*
X158720000Y-116417776D02*
X159480000Y-116417776D01*
X159100000Y-187500000D02*
X159100000Y-119937776D01*
X159700000Y-119497776D02*
X159700000Y-119387776D01*
X158500000Y-116747776D02*
X158500000Y-116637776D01*
X158720000Y-116967776D02*
X159480000Y-116967776D01*
X158850000Y-119042776D02*
X158850000Y-118742776D01*
X159100000Y-114100000D02*
X154500000Y-109500000D01*
X159700000Y-115097776D02*
X159700000Y-114987776D01*
X154500000Y-109500000D02*
X154500000Y-107046000D01*
X159700000Y-119387776D02*
G75*
G03*
X159480000Y-119167800I-220000J-24D01*
G01*
X159480000Y-117517776D02*
G75*
G03*
X159699976Y-117297776I0J219976D01*
G01*
X158720000Y-115867776D02*
G75*
G02*
X158500024Y-115647776I0J219976D01*
G01*
X159100000Y-119937776D02*
G75*
G02*
X159320000Y-119717800I220000J-24D01*
G01*
X159700000Y-118287776D02*
G75*
G03*
X159480000Y-118067800I-220000J-24D01*
G01*
X158500000Y-115537776D02*
G75*
G02*
X158720000Y-115317800I220000J-24D01*
G01*
X158975000Y-118067776D02*
G75*
G02*
X158850024Y-117942776I0J124976D01*
G01*
X158500000Y-116637776D02*
G75*
G02*
X158720000Y-116417800I220000J-24D01*
G01*
X158850000Y-117642776D02*
G75*
G02*
X158975000Y-117517800I125000J-24D01*
G01*
X159480000Y-118617776D02*
G75*
G03*
X159699976Y-118397776I0J219976D01*
G01*
X158850000Y-118742776D02*
G75*
G02*
X158975000Y-118617800I125000J-24D01*
G01*
X159480000Y-115317776D02*
G75*
G03*
X159699976Y-115097776I0J219976D01*
G01*
X158720000Y-116967776D02*
G75*
G02*
X158500024Y-116747776I0J219976D01*
G01*
X159700000Y-117187776D02*
G75*
G03*
X159480000Y-116967800I-220000J-24D01*
G01*
X158975000Y-119167776D02*
G75*
G02*
X158850024Y-119042776I0J124976D01*
G01*
X159480000Y-119717776D02*
G75*
G03*
X159699976Y-119497776I0J219976D01*
G01*
X159320000Y-114767776D02*
G75*
G02*
X159100024Y-114547776I0J219976D01*
G01*
X159700000Y-114987776D02*
G75*
G03*
X159480000Y-114767800I-220000J-24D01*
G01*
X159700000Y-116087776D02*
G75*
G03*
X159480000Y-115867800I-220000J-24D01*
G01*
X159480000Y-116417776D02*
G75*
G03*
X159699976Y-116197776I0J219976D01*
G01*
%TO.N,LCD_TOUCH_DATA*%
X155332243Y-115468640D02*
X155226176Y-115362573D01*
X156233808Y-115733808D02*
X156392907Y-115574708D01*
X158500000Y-118000000D02*
X157241440Y-116741440D01*
X155809542Y-115309542D02*
X155650441Y-115468640D01*
X151300000Y-110800000D02*
X155226177Y-114726177D01*
X156180775Y-116317172D02*
X156074708Y-116211105D01*
X156392907Y-115256510D02*
X156286840Y-115150443D01*
X158500000Y-186700000D02*
X158500000Y-118000000D01*
X156498973Y-116317172D02*
X156817175Y-115998975D01*
X156074708Y-115892907D02*
X156233808Y-115733808D01*
X157241440Y-116105042D02*
X157135373Y-115998975D01*
X155968642Y-115150443D02*
X155809542Y-115309542D01*
X156392907Y-115574708D02*
G75*
G03*
X156392916Y-115256501I-159107J159108D01*
G01*
X155226176Y-115044375D02*
G75*
G03*
X155226153Y-114726202I-159076J159075D01*
G01*
X156286840Y-115150443D02*
G75*
G03*
X155968642Y-115150443I-159099J-159099D01*
G01*
X157241440Y-116741440D02*
G75*
G02*
X157241399Y-116423200I159060J159140D01*
G01*
X155226176Y-115362573D02*
G75*
G02*
X155226202Y-115044401I159124J159073D01*
G01*
X155650441Y-115468640D02*
G75*
G02*
X155332243Y-115468640I-159099J159099D01*
G01*
X157241440Y-116423241D02*
G75*
G03*
X157241482Y-116105001I-159140J159141D01*
G01*
X156498973Y-116317172D02*
G75*
G02*
X156180775Y-116317172I-159099J159099D01*
G01*
X156074708Y-116211105D02*
G75*
G02*
X156074702Y-115892901I159092J159105D01*
G01*
X157135373Y-115998975D02*
G75*
G03*
X156817175Y-115998975I-159099J-159099D01*
G01*
%TO.N,LCD_PROG_DATA*%
X163626919Y-117783081D02*
X163443072Y-117599234D01*
X159700000Y-121710000D02*
X163032949Y-118377051D01*
X159700000Y-186700000D02*
X159700000Y-121710000D01*
X163725913Y-118391193D02*
X163810765Y-118306340D01*
X164574444Y-117542662D02*
X164659296Y-117457809D01*
X165507827Y-116269866D02*
X165493684Y-116255723D01*
X164051185Y-117358815D02*
X164235032Y-117542662D01*
X165493684Y-115916312D02*
X165578538Y-115831461D01*
X164715869Y-116326438D02*
X164899717Y-116510286D01*
X163867338Y-117174969D02*
X164051186Y-117358817D01*
X163626917Y-117783080D02*
X163810765Y-117966928D01*
X172270000Y-109130000D02*
X172270000Y-107036000D01*
X164051186Y-117358817D02*
X164051185Y-117358815D01*
X163443072Y-117259822D02*
X163527926Y-117174969D01*
X165578538Y-115821462D02*
X172270000Y-109130000D01*
X164659296Y-117118397D02*
X164475448Y-116934549D01*
X164475448Y-116934549D02*
X164475450Y-116934550D01*
X164899717Y-116510286D02*
X164899716Y-116510284D01*
X165422975Y-116694131D02*
X165507827Y-116609278D01*
X165578538Y-115831461D02*
X165578538Y-115821462D01*
X163626917Y-117783080D02*
X163626919Y-117783081D01*
X163372360Y-118377051D02*
X163386502Y-118391193D01*
X164291603Y-116411291D02*
X164376457Y-116326438D01*
X164475450Y-116934550D02*
X164291603Y-116750703D01*
X164899716Y-116510284D02*
X165083563Y-116694131D01*
X165507827Y-116609278D02*
G75*
G03*
X165507799Y-116269894I-169727J169678D01*
G01*
X165083563Y-116694131D02*
G75*
G03*
X165422975Y-116694131I169706J169704D01*
G01*
X164659296Y-117457809D02*
G75*
G03*
X164659299Y-117118394I-169696J169709D01*
G01*
X164291603Y-116750703D02*
G75*
G02*
X164291606Y-116411294I169697J169703D01*
G01*
X163443072Y-117599234D02*
G75*
G02*
X163443044Y-117259794I169728J169734D01*
G01*
X163386502Y-118391193D02*
G75*
G03*
X163725913Y-118391194I169706J169707D01*
G01*
X163527926Y-117174969D02*
G75*
G02*
X163867338Y-117174969I169706J-169708D01*
G01*
X163032949Y-118377051D02*
G75*
G02*
X163372360Y-118377050I169706J-169707D01*
G01*
X164376457Y-116326438D02*
G75*
G02*
X164715869Y-116326438I169706J-169708D01*
G01*
X164235032Y-117542662D02*
G75*
G03*
X164574444Y-117542662I169706J169704D01*
G01*
X165493684Y-116255723D02*
G75*
G02*
X165493666Y-115916295I169716J169723D01*
G01*
X163810765Y-118306340D02*
G75*
G03*
X163810799Y-117966894I-169665J169740D01*
G01*
%TO.N,SRAM_A6*%
X166600000Y-197000000D02*
X166600000Y-219200000D01*
X166600000Y-219200000D02*
X165000000Y-220800000D01*
%TO.N,SRAM_A5*%
X167800000Y-197000000D02*
X167800000Y-218200000D01*
%TO.N,SRAM_A10*%
X159400000Y-197000000D02*
X159400000Y-218000000D01*
%TO.N,SRAM_A14*%
X154600000Y-197000000D02*
X154600000Y-218000000D01*
%TO.N,SRAM_A12*%
X157000000Y-197000000D02*
X157000000Y-218000000D01*
%TO.N,SRAM_A13*%
X155800000Y-219600000D02*
X155400000Y-220000000D01*
X155800000Y-197000000D02*
X155800000Y-219600000D01*
%TO.N,SRAM_A8*%
X164200000Y-197000000D02*
X164200000Y-218000000D01*
%TO.N,SRAM_A9*%
X163000000Y-219600000D02*
X162600000Y-220000000D01*
X163000000Y-197000000D02*
X163000000Y-219600000D01*
%TO.N,SRAM_A11*%
X158200000Y-197000000D02*
X158200000Y-218800000D01*
X158200000Y-218800000D02*
X157000000Y-220000000D01*
%TO.N,SRAM_A7*%
X165400000Y-197000000D02*
X165400000Y-218800000D01*
X165400000Y-218800000D02*
X164200000Y-220000000D01*
%TO.N,SRAM_D8*%
X169000000Y-197030603D02*
X169000000Y-218200000D01*
%TO.N,SRAM_D11*%
X172596641Y-197000000D02*
X172596641Y-218196641D01*
X172596641Y-218196641D02*
X172600000Y-218200000D01*
%TO.N,SRAM_D4*%
X149800000Y-197000000D02*
X149800000Y-219943793D01*
%TO.N,SRAM_D9*%
X170200000Y-197000000D02*
X170200000Y-218200000D01*
%TO.N,SRAM_D5*%
X151000000Y-197000000D02*
X151000000Y-219515174D01*
X151000000Y-219515174D02*
X151400000Y-219915174D01*
%TO.N,SRAM_D6*%
X152200000Y-197000000D02*
X152200000Y-218000000D01*
%TO.N,SRAM_D7*%
X153400000Y-197000000D02*
X153400000Y-219600000D01*
X153400000Y-219600000D02*
X153800000Y-220000000D01*
%TO.N,SRAM_D10*%
X171400000Y-197030603D02*
X171400000Y-218200000D01*
%TO.N,Net-(U7-EN2)*%
X192600000Y-219000000D02*
X192600000Y-262600000D01*
X188800000Y-206600000D02*
X188800000Y-215200000D01*
X196600000Y-143000000D02*
X196600000Y-198800000D01*
X132200000Y-262000000D02*
X131200000Y-261000000D01*
X131200000Y-261000000D02*
X131200000Y-258100000D01*
X137800000Y-258800000D02*
X137100000Y-258100000D01*
X188800000Y-215200000D02*
X192600000Y-219000000D01*
X176600000Y-265400000D02*
X166600000Y-255400000D01*
X131200000Y-258100000D02*
X130100000Y-257000000D01*
X192600000Y-262600000D02*
X189800000Y-265400000D01*
X166600000Y-255400000D02*
X145400000Y-255400000D01*
X189800000Y-265400000D02*
X176600000Y-265400000D01*
X196600000Y-198800000D02*
X188800000Y-206600000D01*
X137100000Y-258100000D02*
X131200000Y-258100000D01*
X134900000Y-262000000D02*
X132200000Y-262000000D01*
%TO.N,~{SRAM_OE}*%
X161800000Y-197000000D02*
X161800000Y-218000000D01*
%TO.N,Net-(D1-K)*%
X149900000Y-266100000D02*
X148600000Y-266100000D01*
X151062500Y-277812500D02*
X151050000Y-267250000D01*
X151050000Y-267250000D02*
X149900000Y-266100000D01*
%TO.N,Net-(D3-K)*%
X157450000Y-268002630D02*
X156247370Y-266800000D01*
X157462500Y-277900000D02*
X157450000Y-268002630D01*
X156247370Y-266800000D02*
X152800000Y-266800000D01*
%TO.N,Net-(U8-HPR)*%
X142400000Y-271000000D02*
X140750000Y-271000000D01*
X143000000Y-271600000D02*
X142400000Y-271000000D01*
X141700000Y-280300000D02*
X143000000Y-279000000D01*
X131800000Y-215700000D02*
X122900000Y-224600000D01*
X143000000Y-279000000D02*
X143000000Y-271600000D01*
X122900000Y-270100000D02*
X133100000Y-280300000D01*
X131800000Y-210700000D02*
X131800000Y-215700000D01*
X133100000Y-280300000D02*
X141700000Y-280300000D01*
X132800000Y-209700000D02*
X131800000Y-210700000D01*
X122900000Y-224600000D02*
X122900000Y-270100000D01*
%TO.N,Net-(U8-HPL)*%
X131900000Y-278500000D02*
X123300000Y-269900000D01*
X140100000Y-278500000D02*
X131900000Y-278500000D01*
X123300000Y-269900000D02*
X123300000Y-224800000D01*
X132200000Y-215900000D02*
X132200000Y-211700000D01*
X123300000Y-224800000D02*
X132200000Y-215900000D01*
X132200000Y-211700000D02*
X134200000Y-209700000D01*
%TO.N,AUDIO_WCLK*%
X129350000Y-212350000D02*
X130000000Y-212350000D01*
X128100000Y-211100000D02*
X129350000Y-212350000D01*
X138300000Y-195100000D02*
X134818069Y-195100000D01*
X128100000Y-201818069D02*
X128100000Y-211100000D01*
X134818069Y-195100000D02*
X128100000Y-201818069D01*
%TO.N,AUDIO_MCLK*%
X138300000Y-193900000D02*
X134800000Y-193900000D01*
X127300000Y-201400000D02*
X127300000Y-211900000D01*
X134800000Y-193900000D02*
X127300000Y-201400000D01*
X129600000Y-214200000D02*
X130000000Y-214200000D01*
X127300000Y-211900000D02*
X129600000Y-214200000D01*
%TO.N,AUDIO_DIN*%
X135900000Y-195700000D02*
X134800000Y-195700000D01*
X128500000Y-202000000D02*
X128500000Y-210900000D01*
X134800000Y-195700000D02*
X128500000Y-202000000D01*
X128500000Y-210900000D02*
X129000000Y-211400000D01*
X129000000Y-211400000D02*
X130000000Y-211400000D01*
%TO.N,AUDIO_INTERRUPT*%
X138300000Y-200300000D02*
X131300000Y-207300000D01*
X138300000Y-196300000D02*
X138300000Y-200300000D01*
X131300000Y-207300000D02*
X131300000Y-207950000D01*
%TO.N,AUDIO_BCLK*%
X127700000Y-201600000D02*
X127700000Y-211400000D01*
X127700000Y-211400000D02*
X129600000Y-213300000D01*
X134800000Y-194500000D02*
X127700000Y-201600000D01*
X129600000Y-213300000D02*
X130000000Y-213300000D01*
X135900000Y-194500000D02*
X134800000Y-194500000D01*
%TO.N,Net-(U10-IO0_2)*%
X183100000Y-212200000D02*
X183100000Y-213400000D01*
X178200000Y-216200000D02*
X178200000Y-227300000D01*
X180000000Y-214400000D02*
X178200000Y-216200000D01*
X178200000Y-227300000D02*
X180350000Y-229450000D01*
X180350000Y-229450000D02*
X180800000Y-229450000D01*
X182100000Y-214400000D02*
X180000000Y-214400000D01*
X183100000Y-213400000D02*
X182100000Y-214400000D01*
%TO.N,Net-(J6-Pin_2)*%
X169450000Y-231700000D02*
X139700000Y-231700000D01*
X136719000Y-212019000D02*
X137300000Y-212600000D01*
X137300000Y-229300000D02*
X137300000Y-212600000D01*
X176200000Y-258450000D02*
X178150000Y-260400000D01*
X137300000Y-209600000D02*
X136719000Y-210181000D01*
X139700000Y-231700000D02*
X137300000Y-229300000D01*
X178150000Y-260400000D02*
X188150000Y-260400000D01*
X176200000Y-258450000D02*
X176200000Y-238450000D01*
X136719000Y-210181000D02*
X136719000Y-212019000D01*
X176200000Y-238450000D02*
X169450000Y-231700000D01*
%TO.N,Net-(J6-Pin_1)*%
X137881000Y-211231000D02*
X137881000Y-213069000D01*
X137300000Y-210650000D02*
X137881000Y-211231000D01*
X137700000Y-229100000D02*
X139900000Y-231300000D01*
X139900000Y-231300000D02*
X169650000Y-231300000D01*
X176600000Y-238250000D02*
X176600000Y-256600000D01*
X176600000Y-256600000D02*
X178400000Y-258400000D01*
X178400000Y-258400000D02*
X188150000Y-258400000D01*
X137700000Y-213250000D02*
X137700000Y-229100000D01*
X137881000Y-213069000D02*
X137700000Y-213250000D01*
X169650000Y-231300000D02*
X176600000Y-238250000D01*
%TO.N,Net-(U10-IO0_4)*%
X179000000Y-216600000D02*
X180400000Y-215200000D01*
X179000000Y-224700000D02*
X179000000Y-216600000D01*
X180350000Y-226050000D02*
X179000000Y-224700000D01*
X180400000Y-215200000D02*
X182700000Y-215200000D01*
X182700000Y-215200000D02*
X184375000Y-213525000D01*
X180800000Y-226050000D02*
X180350000Y-226050000D01*
X184375000Y-213525000D02*
X184375000Y-212275000D01*
%TO.N,Net-(U10-IO0_1)*%
X180321582Y-231150000D02*
X180800000Y-231150000D01*
X177800000Y-216000000D02*
X177800000Y-228628418D01*
X179800000Y-214000000D02*
X177800000Y-216000000D01*
X177800000Y-228628418D02*
X180321582Y-231150000D01*
X182400000Y-212800000D02*
X182400000Y-213400000D01*
X182400000Y-213400000D02*
X181800000Y-214000000D01*
X181800000Y-214000000D02*
X179800000Y-214000000D01*
%TO.N,Net-(U10-IO0_3)*%
X178600000Y-226000000D02*
X180350000Y-227750000D01*
X183750000Y-212900000D02*
X183750000Y-213450000D01*
X180200000Y-214800000D02*
X178600000Y-216400000D01*
X180350000Y-227750000D02*
X180800000Y-227750000D01*
X178600000Y-216400000D02*
X178600000Y-226000000D01*
X183750000Y-213450000D02*
X182400000Y-214800000D01*
X182400000Y-214800000D02*
X180200000Y-214800000D01*
%TO.N,Net-(U10-IO0_0)*%
X180350000Y-232850000D02*
X177400000Y-229900000D01*
X179600000Y-213600000D02*
X181500000Y-213600000D01*
X177400000Y-215800000D02*
X179600000Y-213600000D01*
X181500000Y-213600000D02*
X181750000Y-213350000D01*
X180800000Y-232850000D02*
X180350000Y-232850000D01*
X177400000Y-229900000D02*
X177400000Y-215800000D01*
X181750000Y-213350000D02*
X181750000Y-212250000D01*
%TO.N,Net-(U10-IO0_6)*%
X183275000Y-216000000D02*
X185675000Y-213600000D01*
X180800000Y-222650000D02*
X180350000Y-222650000D01*
X180350000Y-222650000D02*
X179800000Y-222100000D01*
X185675000Y-213600000D02*
X185675000Y-212275000D01*
X180800000Y-216000000D02*
X183275000Y-216000000D01*
X179800000Y-217000000D02*
X180800000Y-216000000D01*
X179800000Y-222100000D02*
X179800000Y-217000000D01*
%TO.N,Net-(U10-IO0_7)*%
X180200000Y-220800000D02*
X180350000Y-220950000D01*
X186325000Y-212900000D02*
X186325000Y-213650000D01*
X180350000Y-220950000D02*
X180800000Y-220950000D01*
X180200000Y-217200000D02*
X180200000Y-220800000D01*
X186325000Y-213650000D02*
X183575000Y-216400000D01*
X183575000Y-216400000D02*
X181000000Y-216400000D01*
X181000000Y-216400000D02*
X180200000Y-217200000D01*
%TO.N,Net-(U10-IO0_5)*%
X179400000Y-216800000D02*
X179400000Y-223400000D01*
X183000000Y-215600000D02*
X180600000Y-215600000D01*
X185025000Y-212900000D02*
X185025000Y-213575000D01*
X185025000Y-213575000D02*
X183000000Y-215600000D01*
X180350000Y-224350000D02*
X180800000Y-224350000D01*
X179400000Y-223400000D02*
X180350000Y-224350000D01*
X180600000Y-215600000D02*
X179400000Y-216800000D01*
%TO.N,Net-(U10-IO1_0)*%
X180800000Y-218400000D02*
X182000000Y-217200000D01*
X180800000Y-219250000D02*
X180800000Y-218400000D01*
X184200000Y-217200000D02*
X187500000Y-213900000D01*
X182000000Y-217200000D02*
X184200000Y-217200000D01*
X187500000Y-206350000D02*
X187000000Y-205850000D01*
X187500000Y-213900000D02*
X187500000Y-206350000D01*
X187000000Y-205850000D02*
X186975000Y-205850000D01*
%TO.N,Net-(U10-IO1_1)*%
X187000000Y-207500000D02*
X186325000Y-206825000D01*
X183900000Y-216800000D02*
X187000000Y-213700000D01*
X181550000Y-216800000D02*
X183900000Y-216800000D01*
X180800000Y-217550000D02*
X181550000Y-216800000D01*
X187000000Y-213700000D02*
X187000000Y-207500000D01*
%TO.N,Net-(U9-ON)*%
X189200000Y-206800000D02*
X189200000Y-215000000D01*
X197200000Y-143800000D02*
X197200000Y-144200000D01*
X146800000Y-259000000D02*
X145400000Y-259000000D01*
X193000000Y-218800000D02*
X193000000Y-262800000D01*
X166400000Y-255800000D02*
X150000000Y-255800000D01*
X150000000Y-255800000D02*
X146800000Y-259000000D01*
X197000000Y-199000000D02*
X189200000Y-206800000D01*
X176400000Y-265800000D02*
X166400000Y-255800000D01*
X193000000Y-262800000D02*
X190000000Y-265800000D01*
X197200000Y-144200000D02*
X197000000Y-144400000D01*
X189200000Y-215000000D02*
X193000000Y-218800000D01*
X190000000Y-265800000D02*
X176400000Y-265800000D01*
X197000000Y-144400000D02*
X197000000Y-199000000D01*
%TD*%
M02*
