%TF.GenerationSoftware,KiCad,Pcbnew,9.0.2*%
%TF.CreationDate,2025-06-13T11:39:57+02:00*%
%TF.ProjectId,mainboard,6d61696e-626f-4617-9264-2e6b69636164,rev?*%
%TF.SameCoordinates,Original*%
%TF.FileFunction,Soldermask,Bot*%
%TF.FilePolarity,Negative*%
%FSLAX46Y46*%
G04 Gerber Fmt 4.6, Leading zero omitted, Abs format (unit mm)*
G04 Created by KiCad (PCBNEW 9.0.2) date 2025-06-13 11:39:57*
%MOMM*%
%LPD*%
G01*
G04 APERTURE LIST*
G04 Aperture macros list*
%AMRoundRect*
0 Rectangle with rounded corners*
0 $1 Rounding radius*
0 $2 $3 $4 $5 $6 $7 $8 $9 X,Y pos of 4 corners*
0 Add a 4 corners polygon primitive as box body*
4,1,4,$2,$3,$4,$5,$6,$7,$8,$9,$2,$3,0*
0 Add four circle primitives for the rounded corners*
1,1,$1+$1,$2,$3*
1,1,$1+$1,$4,$5*
1,1,$1+$1,$6,$7*
1,1,$1+$1,$8,$9*
0 Add four rect primitives between the rounded corners*
20,1,$1+$1,$2,$3,$4,$5,0*
20,1,$1+$1,$4,$5,$6,$7,0*
20,1,$1+$1,$6,$7,$8,$9,0*
20,1,$1+$1,$8,$9,$2,$3,0*%
G04 Aperture macros list end*
%ADD10RoundRect,0.250000X-0.625000X0.350000X-0.625000X-0.350000X0.625000X-0.350000X0.625000X0.350000X0*%
%ADD11O,1.750000X1.200000*%
%ADD12C,2.500000*%
%ADD13C,0.500000*%
%ADD14C,0.900000*%
%ADD15C,1.300000*%
%ADD16C,0.650000*%
%ADD17O,1.000000X2.100000*%
%ADD18O,1.000000X1.800000*%
%ADD19C,1.600000*%
%ADD20C,1.100000*%
%ADD21R,1.700000X1.700000*%
%ADD22C,1.700000*%
%ADD23C,1.000000*%
%ADD24R,1.900000X1.900000*%
%ADD25C,1.900000*%
%ADD26RoundRect,0.250000X-0.350000X-0.625000X0.350000X-0.625000X0.350000X0.625000X-0.350000X0.625000X0*%
%ADD27O,1.200000X1.750000*%
G04 APERTURE END LIST*
D10*
%TO.C,J6*%
X188150000Y-258400000D03*
D11*
X188150000Y-260400000D03*
%TD*%
D12*
%TO.C,H7*%
X130500000Y-271500000D03*
%TD*%
%TO.C,H2*%
X179675000Y-105766000D03*
%TD*%
%TO.C,H3*%
X121675000Y-154766000D03*
%TD*%
D13*
%TO.C,U6*%
X139225000Y-243600000D03*
%TD*%
D14*
%TO.C,S1*%
X200300000Y-137100000D03*
X200300000Y-134100000D03*
%TD*%
D12*
%TO.C,H5*%
X130500000Y-94000000D03*
%TD*%
%TO.C,H8*%
X180000000Y-271500000D03*
%TD*%
D15*
%TO.C,J1*%
X134250000Y-123600000D03*
X134250000Y-146000000D03*
%TD*%
D16*
%TO.C,J3*%
X165862500Y-275695000D03*
X171642500Y-275695000D03*
D17*
X164432500Y-275195000D03*
D18*
X164432500Y-279375000D03*
D17*
X173072500Y-275195000D03*
D18*
X173072500Y-279375000D03*
%TD*%
D19*
%TO.C,P1*%
X123450000Y-194900000D03*
D20*
X190250000Y-194900000D03*
%TD*%
D12*
%TO.C,H6*%
X180000000Y-94000000D03*
%TD*%
D21*
%TO.C,J2*%
X126550000Y-107036000D03*
D22*
X126550000Y-104496000D03*
X129090000Y-107036000D03*
X129090000Y-104496000D03*
X131630000Y-107036000D03*
X131630000Y-104496000D03*
X134170000Y-107036000D03*
X134170000Y-104496000D03*
X136710000Y-107036000D03*
X136710000Y-104496000D03*
X139250000Y-107036000D03*
X139250000Y-104496000D03*
X141790000Y-107036000D03*
X141790000Y-104496000D03*
X144330000Y-107036000D03*
X144330000Y-104496000D03*
X146870000Y-107036000D03*
X146870000Y-104496000D03*
X149410000Y-107036000D03*
X149410000Y-104496000D03*
X151950000Y-107036000D03*
X151950000Y-104496000D03*
X154490000Y-107036000D03*
X154490000Y-104496000D03*
X157030000Y-107036000D03*
X157030000Y-104496000D03*
X159570000Y-107036000D03*
X159570000Y-104496000D03*
X162110000Y-107036000D03*
X162110000Y-104496000D03*
X164650000Y-107036000D03*
X164650000Y-104496000D03*
X167190000Y-107036000D03*
X167190000Y-104496000D03*
X169730000Y-107036000D03*
X169730000Y-104496000D03*
X172270000Y-107036000D03*
X172270000Y-104496000D03*
X174810000Y-107036000D03*
X174810000Y-104496000D03*
%TD*%
D12*
%TO.C,H1*%
X121675000Y-105766000D03*
%TD*%
D23*
%TO.C,J9*%
X140500000Y-275000000D03*
X145500000Y-275000000D03*
D24*
X140750000Y-271000000D03*
D25*
X145250000Y-271000000D03*
X140100000Y-278500000D03*
X145900000Y-278500000D03*
%TD*%
D12*
%TO.C,H4*%
X179675000Y-154766000D03*
%TD*%
D26*
%TO.C,J4*%
X126600000Y-253300000D03*
D27*
X128600000Y-253300000D03*
%TD*%
M02*
