%TF.GenerationSoftware,KiCad,Pcbnew,9.0.4*%
%TF.CreationDate,2025-10-31T09:43:50+01:00*%
%TF.ProjectId,mainboard,6d61696e-626f-4617-9264-2e6b69636164,rev?*%
%TF.SameCoordinates,Original*%
%TF.FileFunction,Copper,L4,Bot*%
%TF.FilePolarity,Positive*%
%FSLAX46Y46*%
G04 Gerber Fmt 4.6, Leading zero omitted, Abs format (unit mm)*
G04 Created by KiCad (PCBNEW 9.0.4) date 2025-10-31 09:43:50*
%MOMM*%
%LPD*%
G01*
G04 APERTURE LIST*
G04 Aperture macros list*
%AMRoundRect*
0 Rectangle with rounded corners*
0 $1 Rounding radius*
0 $2 $3 $4 $5 $6 $7 $8 $9 X,Y pos of 4 corners*
0 Add a 4 corners polygon primitive as box body*
4,1,4,$2,$3,$4,$5,$6,$7,$8,$9,$2,$3,0*
0 Add four circle primitives for the rounded corners*
1,1,$1+$1,$2,$3*
1,1,$1+$1,$4,$5*
1,1,$1+$1,$6,$7*
1,1,$1+$1,$8,$9*
0 Add four rect primitives between the rounded corners*
20,1,$1+$1,$2,$3,$4,$5,0*
20,1,$1+$1,$4,$5,$6,$7,0*
20,1,$1+$1,$6,$7,$8,$9,0*
20,1,$1+$1,$8,$9,$2,$3,0*%
G04 Aperture macros list end*
%TA.AperFunction,ComponentPad*%
%ADD10RoundRect,0.250000X-0.625000X0.350000X-0.625000X-0.350000X0.625000X-0.350000X0.625000X0.350000X0*%
%TD*%
%TA.AperFunction,ComponentPad*%
%ADD11O,1.750000X1.200000*%
%TD*%
%TA.AperFunction,HeatsinkPad*%
%ADD12C,0.500000*%
%TD*%
%TA.AperFunction,HeatsinkPad*%
%ADD13O,1.000000X2.100000*%
%TD*%
%TA.AperFunction,HeatsinkPad*%
%ADD14O,1.000000X1.800000*%
%TD*%
%TA.AperFunction,ComponentPad*%
%ADD15R,1.700000X1.700000*%
%TD*%
%TA.AperFunction,ComponentPad*%
%ADD16C,1.700000*%
%TD*%
%TA.AperFunction,ComponentPad*%
%ADD17RoundRect,0.250000X-0.350000X-0.625000X0.350000X-0.625000X0.350000X0.625000X-0.350000X0.625000X0*%
%TD*%
%TA.AperFunction,ComponentPad*%
%ADD18O,1.200000X1.750000*%
%TD*%
%TA.AperFunction,ViaPad*%
%ADD19C,0.500000*%
%TD*%
%TA.AperFunction,ViaPad*%
%ADD20C,0.800000*%
%TD*%
%TA.AperFunction,Conductor*%
%ADD21C,0.200000*%
%TD*%
%TA.AperFunction,Conductor*%
%ADD22C,0.300000*%
%TD*%
G04 APERTURE END LIST*
D10*
%TO.P,J6,1,Pin_1*%
%TO.N,Net-(J6-Pin_1)*%
X188150000Y-258400000D03*
D11*
%TO.P,J6,2,Pin_2*%
%TO.N,Net-(J6-Pin_2)*%
X188150000Y-260400000D03*
%TD*%
D12*
%TO.P,U6,11,PGND*%
%TO.N,GND*%
X137850000Y-245250000D03*
X138425000Y-244300000D03*
X138425000Y-246200000D03*
X139000000Y-245250000D03*
%TD*%
D13*
%TO.P,J3,S1,SHIELD*%
%TO.N,GND*%
X164432500Y-275195000D03*
D14*
X164432500Y-279375000D03*
D13*
X173072500Y-275195000D03*
D14*
X173072500Y-279375000D03*
%TD*%
D15*
%TO.P,J7,1,Pin_1*%
%TO.N,GND*%
X115100000Y-183650000D03*
D16*
%TO.P,J7,2,Pin_2*%
%TO.N,Net-(J7-Pin_2)*%
X115100000Y-186190000D03*
%TO.P,J7,3,Pin_3*%
%TO.N,Net-(J7-Pin_3)*%
X115100000Y-188730000D03*
%TO.P,J7,4,Pin_4*%
%TO.N,Net-(J7-Pin_4)*%
X115100000Y-191270000D03*
%TO.P,J7,5,Pin_5*%
%TO.N,Net-(J7-Pin_5)*%
X115100000Y-193810000D03*
%TO.P,J7,6,Pin_6*%
%TO.N,Net-(J7-Pin_6)*%
X115100000Y-196350000D03*
%TD*%
D15*
%TO.P,J2,1,Pin_1*%
%TO.N,3V3_LCD*%
X126550000Y-107036000D03*
D16*
%TO.P,J2,2,Pin_2*%
%TO.N,5V0*%
X126550000Y-104496000D03*
%TO.P,J2,3,Pin_3*%
%TO.N,LCD_VSYNC*%
X129090000Y-107036000D03*
%TO.P,J2,4,Pin_4*%
%TO.N,5V0*%
X129090000Y-104496000D03*
%TO.P,J2,5,Pin_5*%
%TO.N,LCD_HSYNC*%
X131630000Y-107036000D03*
%TO.P,J2,6,Pin_6*%
%TO.N,GND*%
X131630000Y-104496000D03*
%TO.P,J2,7,Pin_7*%
%TO.N,LCD_B0*%
X134170000Y-107036000D03*
%TO.P,J2,8,Pin_8*%
%TO.N,LCD_G2*%
X134170000Y-104496000D03*
%TO.P,J2,9,Pin_9*%
%TO.N,GND*%
X136710000Y-107036000D03*
%TO.P,J2,10,Pin_10*%
%TO.N,LCD_G3*%
X136710000Y-104496000D03*
%TO.P,J2,11,Pin_11*%
%TO.N,LCD_G5*%
X139250000Y-107036000D03*
%TO.P,J2,12,Pin_12*%
%TO.N,LCD_CS*%
X139250000Y-104496000D03*
%TO.P,J2,13,Pin_13*%
%TO.N,unconnected-(J2-Pin_13-Pad13)*%
X141790000Y-107036000D03*
%TO.P,J2,14,Pin_14*%
%TO.N,GND*%
X141790000Y-104496000D03*
%TO.P,J2,15,Pin_15*%
%TO.N,LCD_R2*%
X144330000Y-107036000D03*
%TO.P,J2,16,Pin_16*%
%TO.N,LCD_R3*%
X144330000Y-104496000D03*
%TO.P,J2,17,Pin_17*%
%TO.N,3V3_LCD*%
X146870000Y-107036000D03*
%TO.P,J2,18,Pin_18*%
%TO.N,LCD_R4*%
X146870000Y-104496000D03*
%TO.P,J2,19,Pin_19*%
%TO.N,unconnected-(J2-Pin_19-Pad19)*%
X149410000Y-107036000D03*
%TO.P,J2,20,Pin_20*%
%TO.N,GND*%
X149410000Y-104496000D03*
%TO.P,J2,21,Pin_21*%
%TO.N,LCD_B5*%
X151950000Y-107036000D03*
%TO.P,J2,22,Pin_22*%
%TO.N,LCD_R5*%
X151950000Y-104496000D03*
%TO.P,J2,23,Pin_23*%
%TO.N,unconnected-(J2-Pin_23-Pad23)*%
X154490000Y-107036000D03*
%TO.P,J2,24,Pin_24*%
%TO.N,LCD_B4*%
X154490000Y-104496000D03*
%TO.P,J2,25,Pin_25*%
%TO.N,GND*%
X157030000Y-107036000D03*
%TO.P,J2,26,Pin_26*%
%TO.N,LCD_B3*%
X157030000Y-104496000D03*
%TO.P,J2,27,Pin_27*%
%TO.N,LCD_CLK*%
X159570000Y-107036000D03*
%TO.P,J2,28,Pin_28*%
%TO.N,LCD_ENABLE*%
X159570000Y-104496000D03*
%TO.P,J2,29,Pin_29*%
%TO.N,LCD_B1*%
X162110000Y-107036000D03*
%TO.P,J2,30,Pin_30*%
%TO.N,GND*%
X162110000Y-104496000D03*
%TO.P,J2,31,Pin_31*%
%TO.N,LCD_B2*%
X164650000Y-107036000D03*
%TO.P,J2,32,Pin_32*%
%TO.N,LCD_G0*%
X164650000Y-104496000D03*
%TO.P,J2,33,Pin_33*%
%TO.N,LCD_G1*%
X167190000Y-107036000D03*
%TO.P,J2,34,Pin_34*%
%TO.N,GND*%
X167190000Y-104496000D03*
%TO.P,J2,35,Pin_35*%
%TO.N,LCD_BACKLIGHT_CTRL*%
X169730000Y-107036000D03*
%TO.P,J2,36,Pin_36*%
%TO.N,LCD_G4*%
X169730000Y-104496000D03*
%TO.P,J2,37,Pin_37*%
%TO.N,unconnected-(J2-Pin_37-Pad37)*%
X172270000Y-107036000D03*
%TO.P,J2,38,Pin_38*%
%TO.N,LCD_R0*%
X172270000Y-104496000D03*
%TO.P,J2,39,Pin_39*%
%TO.N,GND*%
X174810000Y-107036000D03*
%TO.P,J2,40,Pin_40*%
%TO.N,LCD_R1*%
X174810000Y-104496000D03*
%TD*%
D17*
%TO.P,J4,1,Pin_1*%
%TO.N,BAT+*%
X126600000Y-253250000D03*
D18*
%TO.P,J4,2,Pin_2*%
%TO.N,GND*%
X128600000Y-253250000D03*
%TD*%
D19*
%TO.N,I2C_SCL*%
X181125000Y-202725000D03*
X122300000Y-252600000D03*
X146500000Y-193000000D03*
X132500000Y-216400000D03*
%TO.N,I2C_SDA*%
X123100000Y-253500000D03*
X145900000Y-192400000D03*
X180500000Y-202100000D03*
X131900000Y-217400000D03*
%TO.N,TRACKBALL_INTERRUPT*%
X187975000Y-221900000D03*
X147100000Y-192400000D03*
D20*
%TO.N,5V0*%
X180100000Y-252000000D03*
X180100000Y-246600000D03*
X135600000Y-238200000D03*
X137300000Y-207700000D03*
X134100000Y-239750000D03*
X179000000Y-136700000D03*
X182200000Y-252700000D03*
X125800000Y-189000000D03*
X180100000Y-248400000D03*
X128200000Y-189000000D03*
X179000000Y-142300000D03*
X134100000Y-241300000D03*
D19*
X182600000Y-245700000D03*
D20*
X179000000Y-138500000D03*
X135600000Y-239750000D03*
X138800000Y-207700000D03*
X135600000Y-241300000D03*
X180100000Y-250200000D03*
X134100000Y-238200000D03*
X179000000Y-140400000D03*
X127000000Y-189000000D03*
D19*
%TO.N,SRAM_A6*%
X166600000Y-197000000D03*
X165000000Y-220800000D03*
%TO.N,SRAM_A5*%
X167800000Y-218200000D03*
X167800000Y-197000000D03*
%TO.N,SRAM_A10*%
X159400000Y-218000000D03*
X159400000Y-197000000D03*
%TO.N,SRAM_A14*%
X154600000Y-197000000D03*
X154600000Y-218000000D03*
%TO.N,SRAM_A12*%
X157000000Y-218000000D03*
X157000000Y-197000000D03*
%TO.N,SRAM_A13*%
X155800000Y-197000000D03*
X155400000Y-220000000D03*
%TO.N,SRAM_A8*%
X164200000Y-218000000D03*
X164200000Y-197000000D03*
%TO.N,SRAM_A9*%
X163000000Y-197000000D03*
X162600000Y-220000000D03*
%TO.N,SRAM_A11*%
X158200000Y-197000000D03*
X157000000Y-220000000D03*
%TO.N,SRAM_A7*%
X164200000Y-220000000D03*
X165400000Y-197000000D03*
%TO.N,SRAM_D8*%
X169000000Y-197030603D03*
X169000000Y-218200000D03*
%TO.N,SRAM_D11*%
X172600000Y-218200000D03*
X172596641Y-197000000D03*
%TO.N,SRAM_D4*%
X149800000Y-219943793D03*
X149800000Y-197000000D03*
%TO.N,SRAM_D9*%
X170200000Y-197000000D03*
X170200000Y-218200000D03*
%TO.N,SRAM_D5*%
X151400000Y-219915174D03*
X151000000Y-197000000D03*
%TO.N,SRAM_D6*%
X152200000Y-197000000D03*
X152200000Y-218000000D03*
%TO.N,SRAM_D7*%
X153400000Y-197000000D03*
X153800000Y-220000000D03*
%TO.N,SRAM_D10*%
X171400000Y-218200000D03*
X171400000Y-197030603D03*
%TO.N,3V3*%
X133400000Y-233800000D03*
X155550000Y-234200000D03*
%TO.N,Net-(U7-EN2)*%
X134900000Y-262000000D03*
X137800000Y-258800000D03*
X145400000Y-255400000D03*
X196600000Y-143000000D03*
X130100000Y-257000000D03*
D20*
%TO.N,GND*%
X180400000Y-238900000D03*
X189775000Y-140300000D03*
X180400000Y-120200000D03*
X143500000Y-134025000D03*
X125800000Y-240250000D03*
X172600000Y-244800000D03*
X154350000Y-244200000D03*
X131900000Y-257400000D03*
X179200000Y-126000000D03*
X164952500Y-272700000D03*
X125250000Y-209500000D03*
X131250000Y-203100000D03*
X145000000Y-197000000D03*
X135600000Y-245250000D03*
X175900000Y-192800000D03*
X190850000Y-246400000D03*
D19*
X181775000Y-205825000D03*
D20*
X125250000Y-207000000D03*
X140887500Y-203550000D03*
X188500000Y-192700000D03*
X160900000Y-206500000D03*
X127400000Y-240250000D03*
X115500000Y-240900000D03*
X145300000Y-188400000D03*
X172400000Y-266500000D03*
X126700000Y-197100000D03*
X160600000Y-192700000D03*
X136900000Y-192800000D03*
X139000000Y-136500000D03*
X125250000Y-214500000D03*
X145400000Y-257600000D03*
X172500000Y-272700000D03*
X139000000Y-129000000D03*
X135350000Y-214800000D03*
X160300000Y-197000000D03*
X139500000Y-158500000D03*
D19*
X150400000Y-213200000D03*
D20*
X160200000Y-225000000D03*
X158100000Y-251800000D03*
D19*
X176000000Y-201925000D03*
D20*
X134850000Y-259050000D03*
X111000000Y-124000000D03*
X175600000Y-197000000D03*
X135450000Y-207700000D03*
X138200000Y-253800000D03*
X127900000Y-197100000D03*
X140700000Y-241700000D03*
X142000000Y-242750000D03*
X155850000Y-241400000D03*
X179200000Y-131700000D03*
X136000000Y-280000000D03*
X190850000Y-250100000D03*
X173246641Y-210500000D03*
X186000000Y-208600000D03*
X132800000Y-219700000D03*
X129700000Y-124000000D03*
X129700000Y-147000000D03*
X150300000Y-260500000D03*
X143700000Y-255400000D03*
X179200000Y-128800000D03*
X153000000Y-225000000D03*
X161000000Y-213400000D03*
X136600000Y-197000000D03*
X152200000Y-237300000D03*
D19*
X167200000Y-213400000D03*
D20*
X179200000Y-123300000D03*
X133100000Y-207800000D03*
X148500000Y-222900000D03*
X119500000Y-238100000D03*
D19*
X186150000Y-229150000D03*
D20*
X131500000Y-220800000D03*
X140100000Y-262400000D03*
X128900000Y-240250000D03*
X188200000Y-197100000D03*
X190850000Y-248300000D03*
X140937500Y-205950000D03*
X173450000Y-242900000D03*
X130200000Y-209300000D03*
X137947500Y-232000000D03*
X158600000Y-225000000D03*
X111000000Y-147000000D03*
X127600000Y-261500000D03*
X140700000Y-239700000D03*
X125250000Y-212000000D03*
X186250000Y-221050000D03*
X189775000Y-142050000D03*
X169800000Y-225000000D03*
X164000000Y-267875000D03*
X140887500Y-218550000D03*
X180800000Y-208725000D03*
X147600000Y-209300000D03*
X132800000Y-222000000D03*
X166800000Y-243500000D03*
X189775000Y-143800000D03*
X125500000Y-197100000D03*
X130100000Y-261700000D03*
X130200000Y-222000000D03*
X132600000Y-261300000D03*
X135450000Y-201900000D03*
X130200000Y-219700000D03*
D19*
%TO.N,~{SRAM_OE}*%
X161800000Y-218000000D03*
X161800000Y-197000000D03*
%TO.N,Net-(U8-HPR)*%
X132800000Y-209700000D03*
X129800000Y-278700000D03*
%TO.N,Net-(U8-HPL)*%
X129800000Y-276100000D03*
X134200000Y-209700000D03*
%TO.N,AUDIO_WCLK*%
X130000000Y-212350000D03*
X138300000Y-195100000D03*
%TO.N,AUDIO_MCLK*%
X138300000Y-193900000D03*
X130000000Y-214200000D03*
%TO.N,AUDIO_DIN*%
X130000000Y-211400000D03*
X135900000Y-195700000D03*
%TO.N,AUDIO_INTERRUPT*%
X131300000Y-207950000D03*
X138300000Y-196300000D03*
%TO.N,AUDIO_BCLK*%
X135900000Y-194500000D03*
X130000000Y-213300000D03*
%TO.N,Net-(U10-IO0_2)*%
X180800000Y-229450000D03*
X183100000Y-212200000D03*
%TO.N,Net-(J6-Pin_2)*%
X137300000Y-209600000D03*
X137300000Y-212600000D03*
%TO.N,Net-(J7-Pin_4)*%
X149200000Y-185200000D03*
%TO.N,Net-(J6-Pin_1)*%
X137300000Y-210650000D03*
%TO.N,Net-(U10-IO0_4)*%
X184375000Y-212275000D03*
X180800000Y-226050000D03*
%TO.N,Net-(U10-IO0_1)*%
X180800000Y-231150000D03*
X182400000Y-212800000D03*
%TO.N,Net-(U10-IO0_3)*%
X180800000Y-227750000D03*
X183750000Y-212900000D03*
%TO.N,Net-(U10-IO0_0)*%
X181750000Y-212250000D03*
X180800000Y-232850000D03*
%TO.N,Net-(U10-IO0_6)*%
X185675000Y-212275000D03*
X180800000Y-222650000D03*
%TO.N,Net-(U10-IO0_7)*%
X186325000Y-212900000D03*
X180800000Y-220950000D03*
%TO.N,Net-(U10-IO0_5)*%
X185025000Y-212900000D03*
X180800000Y-224350000D03*
%TO.N,Net-(U10-IO1_0)*%
X180800000Y-219250000D03*
X186975000Y-205850000D03*
%TO.N,Net-(U10-IO1_1)*%
X186325000Y-206825000D03*
X180800000Y-217550000D03*
%TO.N,Net-(J7-Pin_5)*%
X150300000Y-186000000D03*
%TO.N,Net-(J7-Pin_3)*%
X150300000Y-184400000D03*
%TO.N,Net-(J7-Pin_2)*%
X149200000Y-183600000D03*
%TO.N,Net-(U9-ON)*%
X145400000Y-259000000D03*
X197200000Y-143800000D03*
%TO.N,Net-(J7-Pin_6)*%
X149200000Y-186800000D03*
%TO.N,Net-(U11-DETECT_GND)*%
X147000000Y-276750000D03*
X135000000Y-218100000D03*
%TD*%
D21*
%TO.N,I2C_SCL*%
X146500000Y-193000000D02*
X146500000Y-194000000D01*
X146500000Y-192000000D02*
X146500000Y-193000000D01*
X147100000Y-194600000D02*
X179800000Y-194600000D01*
X181125000Y-195925000D02*
X181125000Y-202725000D01*
X142300000Y-196900000D02*
X142300000Y-192000000D01*
X134800000Y-213200000D02*
X134800000Y-204400000D01*
X134800000Y-204400000D02*
X142300000Y-196900000D01*
X133900000Y-215500000D02*
X133900000Y-214100000D01*
X145950000Y-191450000D02*
X146500000Y-192000000D01*
X179800000Y-194600000D02*
X181125000Y-195925000D01*
X146500000Y-194000000D02*
X147100000Y-194600000D01*
X142300000Y-192000000D02*
X142850000Y-191450000D01*
X142850000Y-191450000D02*
X145950000Y-191450000D01*
X133900000Y-214100000D02*
X134800000Y-213200000D01*
X122300000Y-224200000D02*
X130100000Y-216400000D01*
X130100000Y-216400000D02*
X132500000Y-216400000D01*
X122300000Y-252600000D02*
X122300000Y-224200000D01*
X132500000Y-216400000D02*
X133000000Y-216400000D01*
X133000000Y-216400000D02*
X133900000Y-215500000D01*
%TO.N,I2C_SDA*%
X180500000Y-196000000D02*
X180500000Y-202100000D01*
X136200000Y-203600000D02*
X142700000Y-197100000D01*
X134300000Y-217400000D02*
X136200000Y-215500000D01*
X142700000Y-197100000D02*
X142700000Y-192700000D01*
X131900000Y-217400000D02*
X134300000Y-217400000D01*
X145900000Y-192400000D02*
X145900000Y-194000000D01*
X146900000Y-195000000D02*
X179500000Y-195000000D01*
X123100000Y-253500000D02*
X123100000Y-224300000D01*
X130000000Y-217400000D02*
X131900000Y-217400000D01*
X142700000Y-192700000D02*
X143000000Y-192400000D01*
X123100000Y-224300000D02*
X130000000Y-217400000D01*
X136200000Y-215500000D02*
X136200000Y-203600000D01*
X143000000Y-192400000D02*
X145900000Y-192400000D01*
X179500000Y-195000000D02*
X180500000Y-196000000D01*
X145900000Y-194000000D02*
X146900000Y-195000000D01*
%TO.N,TRACKBALL_INTERRUPT*%
X182000000Y-194200000D02*
X187975000Y-200175000D01*
X147100000Y-192400000D02*
X147100000Y-193900000D01*
X147400000Y-194200000D02*
X182000000Y-194200000D01*
X187975000Y-200175000D02*
X187975000Y-221900000D01*
X147100000Y-193900000D02*
X147400000Y-194200000D01*
%TO.N,SRAM_A6*%
X166600000Y-197000000D02*
X166600000Y-219200000D01*
X166600000Y-219200000D02*
X165000000Y-220800000D01*
%TO.N,SRAM_A5*%
X167800000Y-197000000D02*
X167800000Y-218200000D01*
%TO.N,SRAM_A10*%
X159400000Y-197000000D02*
X159400000Y-218000000D01*
%TO.N,SRAM_A14*%
X154600000Y-197000000D02*
X154600000Y-218000000D01*
%TO.N,SRAM_A12*%
X157000000Y-197000000D02*
X157000000Y-218000000D01*
%TO.N,SRAM_A13*%
X155800000Y-219600000D02*
X155400000Y-220000000D01*
X155800000Y-197000000D02*
X155800000Y-219600000D01*
%TO.N,SRAM_A8*%
X164200000Y-197000000D02*
X164200000Y-218000000D01*
%TO.N,SRAM_A9*%
X163000000Y-219600000D02*
X162600000Y-220000000D01*
X163000000Y-197000000D02*
X163000000Y-219600000D01*
%TO.N,SRAM_A11*%
X158200000Y-197000000D02*
X158200000Y-218800000D01*
X158200000Y-218800000D02*
X157000000Y-220000000D01*
%TO.N,SRAM_A7*%
X165400000Y-197000000D02*
X165400000Y-218800000D01*
X165400000Y-218800000D02*
X164200000Y-220000000D01*
%TO.N,SRAM_D8*%
X169000000Y-197030603D02*
X169000000Y-218200000D01*
%TO.N,SRAM_D11*%
X172596641Y-197000000D02*
X172596641Y-218196641D01*
X172596641Y-218196641D02*
X172600000Y-218200000D01*
%TO.N,SRAM_D4*%
X149800000Y-197000000D02*
X149800000Y-219943793D01*
%TO.N,SRAM_D9*%
X170200000Y-197000000D02*
X170200000Y-218200000D01*
%TO.N,SRAM_D5*%
X151000000Y-197000000D02*
X151000000Y-219515174D01*
X151000000Y-219515174D02*
X151400000Y-219915174D01*
%TO.N,SRAM_D6*%
X152200000Y-197000000D02*
X152200000Y-218000000D01*
%TO.N,SRAM_D7*%
X153400000Y-197000000D02*
X153400000Y-219600000D01*
X153400000Y-219600000D02*
X153800000Y-220000000D01*
%TO.N,SRAM_D10*%
X171400000Y-197030603D02*
X171400000Y-218200000D01*
D22*
%TO.N,3V3*%
X133800000Y-234200000D02*
X133400000Y-233800000D01*
X155550000Y-234200000D02*
X133800000Y-234200000D01*
D21*
%TO.N,Net-(U7-EN2)*%
X188800000Y-215200000D02*
X192600000Y-219000000D01*
X188800000Y-206600000D02*
X188800000Y-215200000D01*
X134900000Y-262000000D02*
X131800000Y-262000000D01*
X174500000Y-263300000D02*
X166600000Y-255400000D01*
X137800000Y-258800000D02*
X137100000Y-258100000D01*
X131800000Y-262000000D02*
X131200000Y-261400000D01*
X131200000Y-258100000D02*
X130100000Y-257000000D01*
X196600000Y-143000000D02*
X196600000Y-198800000D01*
X192600000Y-219000000D02*
X192600000Y-261400000D01*
X137100000Y-258100000D02*
X131200000Y-258100000D01*
X192600000Y-261400000D02*
X190700000Y-263300000D01*
X190700000Y-263300000D02*
X174500000Y-263300000D01*
X166600000Y-255400000D02*
X145400000Y-255400000D01*
X196600000Y-198800000D02*
X188800000Y-206600000D01*
X131200000Y-261400000D02*
X131200000Y-258100000D01*
%TO.N,~{SRAM_OE}*%
X161800000Y-197000000D02*
X161800000Y-218000000D01*
%TO.N,Net-(U8-HPR)*%
X132800000Y-212200000D02*
X132800000Y-209700000D01*
X130219000Y-214781000D02*
X130240659Y-214781000D01*
X120700000Y-265400000D02*
X120700000Y-224300000D01*
X125000000Y-275200000D02*
X125000000Y-269700000D01*
X130581000Y-214419000D02*
X132800000Y-212200000D01*
X130581000Y-214440659D02*
X130581000Y-214419000D01*
X128500000Y-278700000D02*
X125000000Y-275200000D01*
X120700000Y-224300000D02*
X130219000Y-214781000D01*
X129800000Y-278700000D02*
X128500000Y-278700000D01*
X125000000Y-269700000D02*
X120700000Y-265400000D01*
X130240659Y-214781000D02*
X130581000Y-214440659D01*
%TO.N,Net-(U8-HPL)*%
X125600000Y-274100000D02*
X127600000Y-276100000D01*
X125600000Y-269300000D02*
X125600000Y-274100000D01*
X121300000Y-265000000D02*
X125600000Y-269300000D01*
X127600000Y-276100000D02*
X129800000Y-276100000D01*
X134200000Y-209700000D02*
X134200000Y-211600000D01*
X134200000Y-211600000D02*
X121300000Y-224500000D01*
X121300000Y-224500000D02*
X121300000Y-265000000D01*
%TO.N,AUDIO_WCLK*%
X129350000Y-212350000D02*
X130000000Y-212350000D01*
X128100000Y-211100000D02*
X129350000Y-212350000D01*
X138300000Y-195100000D02*
X134818069Y-195100000D01*
X128100000Y-201818069D02*
X128100000Y-211100000D01*
X134818069Y-195100000D02*
X128100000Y-201818069D01*
%TO.N,AUDIO_MCLK*%
X138300000Y-193900000D02*
X134800000Y-193900000D01*
X127300000Y-201400000D02*
X127300000Y-211900000D01*
X134800000Y-193900000D02*
X127300000Y-201400000D01*
X129600000Y-214200000D02*
X130000000Y-214200000D01*
X127300000Y-211900000D02*
X129600000Y-214200000D01*
%TO.N,AUDIO_DIN*%
X135900000Y-195700000D02*
X134800000Y-195700000D01*
X128500000Y-202000000D02*
X128500000Y-210900000D01*
X134800000Y-195700000D02*
X128500000Y-202000000D01*
X128500000Y-210900000D02*
X129000000Y-211400000D01*
X129000000Y-211400000D02*
X130000000Y-211400000D01*
%TO.N,AUDIO_INTERRUPT*%
X138300000Y-200300000D02*
X131300000Y-207300000D01*
X138300000Y-196300000D02*
X138300000Y-200300000D01*
X131300000Y-207300000D02*
X131300000Y-207950000D01*
%TO.N,AUDIO_BCLK*%
X127700000Y-201600000D02*
X127700000Y-211400000D01*
X127700000Y-211400000D02*
X129600000Y-213300000D01*
X134800000Y-194500000D02*
X127700000Y-201600000D01*
X129600000Y-213300000D02*
X130000000Y-213300000D01*
X135900000Y-194500000D02*
X134800000Y-194500000D01*
%TO.N,Net-(U10-IO0_2)*%
X183100000Y-212200000D02*
X183100000Y-213400000D01*
X178200000Y-216200000D02*
X178200000Y-227300000D01*
X180000000Y-214400000D02*
X178200000Y-216200000D01*
X178200000Y-227300000D02*
X180350000Y-229450000D01*
X180350000Y-229450000D02*
X180800000Y-229450000D01*
X182100000Y-214400000D02*
X180000000Y-214400000D01*
X183100000Y-213400000D02*
X182100000Y-214400000D01*
%TO.N,Net-(J6-Pin_2)*%
X137050000Y-212600000D02*
X137300000Y-212600000D01*
X136719000Y-212269000D02*
X137050000Y-212600000D01*
X169450000Y-231700000D02*
X139700000Y-231700000D01*
X137300000Y-229300000D02*
X137300000Y-212600000D01*
X176200000Y-258450000D02*
X178150000Y-260400000D01*
X136719000Y-209931000D02*
X136719000Y-212269000D01*
X139700000Y-231700000D02*
X137300000Y-229300000D01*
X178150000Y-260400000D02*
X188150000Y-260400000D01*
X176200000Y-258450000D02*
X176200000Y-238450000D01*
X137300000Y-209600000D02*
X137050000Y-209600000D01*
X176200000Y-238450000D02*
X169450000Y-231700000D01*
X137050000Y-209600000D02*
X136719000Y-209931000D01*
%TO.N,Net-(J7-Pin_4)*%
X121170000Y-185200000D02*
X131300000Y-185200000D01*
X115100000Y-191270000D02*
X121170000Y-185200000D01*
X131300000Y-185200000D02*
X149200000Y-185200000D01*
%TO.N,Net-(J6-Pin_1)*%
X137300000Y-210650000D02*
X137550000Y-210650000D01*
X176600000Y-238250000D02*
X176600000Y-256600000D01*
X139900000Y-231300000D02*
X169650000Y-231300000D01*
X137900000Y-211000000D02*
X137900000Y-214500000D01*
X176600000Y-256600000D02*
X178400000Y-258400000D01*
X178400000Y-258400000D02*
X188150000Y-258400000D01*
X137700000Y-214700000D02*
X137700000Y-229100000D01*
X137550000Y-210650000D02*
X137900000Y-211000000D01*
X137900000Y-214500000D02*
X137700000Y-214700000D01*
X137700000Y-229100000D02*
X139900000Y-231300000D01*
X169650000Y-231300000D02*
X176600000Y-238250000D01*
%TO.N,Net-(U10-IO0_4)*%
X179000000Y-216600000D02*
X180400000Y-215200000D01*
X179000000Y-224700000D02*
X179000000Y-216600000D01*
X180350000Y-226050000D02*
X179000000Y-224700000D01*
X180400000Y-215200000D02*
X182700000Y-215200000D01*
X182700000Y-215200000D02*
X184375000Y-213525000D01*
X180800000Y-226050000D02*
X180350000Y-226050000D01*
X184375000Y-213525000D02*
X184375000Y-212275000D01*
%TO.N,Net-(U10-IO0_1)*%
X180321582Y-231150000D02*
X180800000Y-231150000D01*
X177800000Y-216000000D02*
X177800000Y-228628418D01*
X179800000Y-214000000D02*
X177800000Y-216000000D01*
X177800000Y-228628418D02*
X180321582Y-231150000D01*
X182400000Y-212800000D02*
X182400000Y-213400000D01*
X182400000Y-213400000D02*
X181800000Y-214000000D01*
X181800000Y-214000000D02*
X179800000Y-214000000D01*
%TO.N,Net-(U10-IO0_3)*%
X178600000Y-226000000D02*
X180350000Y-227750000D01*
X183750000Y-212900000D02*
X183750000Y-213450000D01*
X180200000Y-214800000D02*
X178600000Y-216400000D01*
X180350000Y-227750000D02*
X180800000Y-227750000D01*
X178600000Y-216400000D02*
X178600000Y-226000000D01*
X183750000Y-213450000D02*
X182400000Y-214800000D01*
X182400000Y-214800000D02*
X180200000Y-214800000D01*
%TO.N,Net-(U10-IO0_0)*%
X180350000Y-232850000D02*
X177400000Y-229900000D01*
X179600000Y-213600000D02*
X181500000Y-213600000D01*
X177400000Y-215800000D02*
X179600000Y-213600000D01*
X181500000Y-213600000D02*
X181750000Y-213350000D01*
X180800000Y-232850000D02*
X180350000Y-232850000D01*
X177400000Y-229900000D02*
X177400000Y-215800000D01*
X181750000Y-213350000D02*
X181750000Y-212250000D01*
%TO.N,Net-(U10-IO0_6)*%
X183275000Y-216000000D02*
X185675000Y-213600000D01*
X180800000Y-222650000D02*
X180350000Y-222650000D01*
X180350000Y-222650000D02*
X179800000Y-222100000D01*
X185675000Y-213600000D02*
X185675000Y-212275000D01*
X180800000Y-216000000D02*
X183275000Y-216000000D01*
X179800000Y-217000000D02*
X180800000Y-216000000D01*
X179800000Y-222100000D02*
X179800000Y-217000000D01*
%TO.N,Net-(U10-IO0_7)*%
X180200000Y-220800000D02*
X180350000Y-220950000D01*
X186325000Y-212900000D02*
X186325000Y-213650000D01*
X180350000Y-220950000D02*
X180800000Y-220950000D01*
X180200000Y-217200000D02*
X180200000Y-220800000D01*
X186325000Y-213650000D02*
X183575000Y-216400000D01*
X183575000Y-216400000D02*
X181000000Y-216400000D01*
X181000000Y-216400000D02*
X180200000Y-217200000D01*
%TO.N,Net-(U10-IO0_5)*%
X179400000Y-216800000D02*
X179400000Y-223400000D01*
X183000000Y-215600000D02*
X180600000Y-215600000D01*
X185025000Y-212900000D02*
X185025000Y-213575000D01*
X185025000Y-213575000D02*
X183000000Y-215600000D01*
X180350000Y-224350000D02*
X180800000Y-224350000D01*
X179400000Y-223400000D02*
X180350000Y-224350000D01*
X180600000Y-215600000D02*
X179400000Y-216800000D01*
%TO.N,Net-(U10-IO1_0)*%
X180800000Y-218400000D02*
X182000000Y-217200000D01*
X180800000Y-219250000D02*
X180800000Y-218400000D01*
X184200000Y-217200000D02*
X187500000Y-213900000D01*
X182000000Y-217200000D02*
X184200000Y-217200000D01*
X187500000Y-206350000D02*
X187000000Y-205850000D01*
X187500000Y-213900000D02*
X187500000Y-206350000D01*
X187000000Y-205850000D02*
X186975000Y-205850000D01*
%TO.N,Net-(U10-IO1_1)*%
X187000000Y-207500000D02*
X186325000Y-206825000D01*
X183900000Y-216800000D02*
X187000000Y-213700000D01*
X181550000Y-216800000D02*
X183900000Y-216800000D01*
X180800000Y-217550000D02*
X181550000Y-216800000D01*
X187000000Y-213700000D02*
X187000000Y-207500000D01*
%TO.N,Net-(J7-Pin_5)*%
X122910000Y-186000000D02*
X150300000Y-186000000D01*
X115100000Y-193810000D02*
X122910000Y-186000000D01*
%TO.N,Net-(J7-Pin_3)*%
X119430000Y-184400000D02*
X125300000Y-184400000D01*
X115100000Y-188730000D02*
X119430000Y-184400000D01*
X125300000Y-184400000D02*
X150300000Y-184400000D01*
%TO.N,Net-(J7-Pin_2)*%
X117690000Y-183600000D02*
X125400000Y-183600000D01*
X125400000Y-183600000D02*
X149200000Y-183600000D01*
X115100000Y-186190000D02*
X117690000Y-183600000D01*
%TO.N,Net-(U9-ON)*%
X197200000Y-143800000D02*
X197200000Y-144200000D01*
X174400000Y-263800000D02*
X166400000Y-255800000D01*
X189200000Y-215000000D02*
X193000000Y-218800000D01*
X146800000Y-259000000D02*
X145400000Y-259000000D01*
X197200000Y-144200000D02*
X197000000Y-144400000D01*
X150000000Y-255800000D02*
X146800000Y-259000000D01*
X193000000Y-261600000D02*
X190800000Y-263800000D01*
X197000000Y-144400000D02*
X197000000Y-199000000D01*
X193000000Y-218800000D02*
X193000000Y-261600000D01*
X197000000Y-199000000D02*
X189200000Y-206800000D01*
X189200000Y-206800000D02*
X189200000Y-215000000D01*
X166400000Y-255800000D02*
X150000000Y-255800000D01*
X190800000Y-263800000D02*
X174400000Y-263800000D01*
%TO.N,Net-(J7-Pin_6)*%
X124650000Y-186800000D02*
X115100000Y-196350000D01*
X149200000Y-186800000D02*
X124650000Y-186800000D01*
%TO.N,Net-(U11-DETECT_GND)*%
X123700000Y-239000000D02*
X135000000Y-227700000D01*
X145700000Y-267200000D02*
X126200000Y-267200000D01*
X147000000Y-268500000D02*
X145700000Y-267200000D01*
X126200000Y-267200000D02*
X123700000Y-264700000D01*
X123700000Y-264700000D02*
X123700000Y-239000000D01*
X135000000Y-227700000D02*
X135000000Y-218100000D01*
X147000000Y-276750000D02*
X147000000Y-268500000D01*
%TD*%
M02*
