M48
; DRILL file {KiCad 9.0.2} date 2025-06-12T20:38:42+0200
; FORMAT={-:-/ absolute / inch / decimal}
; #@! TF.CreationDate,2025-06-12T20:38:42+02:00
; #@! TF.GenerationSoftware,Kicad,Pcbnew,9.0.2
; #@! TF.FileFunction,Plated,1,4,PTH
FMAT,2
INCH
; #@! TA.AperFunction,Plated,PTH,ComponentDrill
T1C0.0079
; #@! TA.AperFunction,Plated,PTH,ViaDrill
T2C0.0118
; #@! TA.AperFunction,Plated,PTH,ViaDrill
T3C0.0157
; #@! TA.AperFunction,Plated,PTH,ComponentDrill
T4C0.0236
; #@! TA.AperFunction,Plated,PTH,ComponentDrill
T5C0.0295
; #@! TA.AperFunction,Plated,PTH,ComponentDrill
T6C0.0394
; #@! TA.AperFunction,Plated,PTH,ComponentDrill
T7C0.0472
%
G90
G05
T1
X5.4587Y-9.628
X5.4813Y-9.5906
X5.4813Y-9.6654
X5.5039Y-9.628
T2
X5.1181Y-8.3228
X5.1181Y-8.3602
X5.1181Y-8.3976
X5.1181Y-8.4331
X5.122Y-10.1181
X5.1693Y-8.187
X5.2283Y-8.2559
X5.252Y-9.2047
X5.2559Y-8.4921
X5.2835Y-8.2559
X5.2913Y-8.4921
X5.311Y-10.315
X5.3504Y-7.6575
X5.3504Y-7.7047
X5.4055Y-8.252
X5.4055Y-8.2933
X5.4055Y-8.3701
X5.4252Y-10.189
X5.4449Y-7.6339
X5.4449Y-7.6811
X5.4449Y-7.7283
X5.6575Y-4.3583
X5.7244Y-10.0551
X5.7244Y-10.1969
X5.7441Y-7.5748
X5.7677Y-7.5984
X5.7913Y-7.5748
X5.8504Y-10.4764
X5.8976Y-7.7559
X5.8976Y-8.6592
X5.9213Y-8.3937
X5.9449Y-7.7559
X5.9473Y-10.9375
X5.9567Y-4.3622
X5.9606Y-8.6581
X5.9921Y-7.7559
X5.9921Y-8.5827
X6.0157Y-10.5039
X6.0394Y-7.7559
X6.0551Y-8.6614
X6.0866Y-7.7559
X6.0866Y-8.5827
X6.1181Y-8.6614
X6.1339Y-7.7559
X6.1811Y-7.7559
X6.1811Y-8.5827
X6.1811Y-8.6614
X6.1993Y-10.9409
X6.2165Y-7.3819
X6.2283Y-7.7559
X6.2402Y-7.3504
X6.2402Y-9.2205
X6.252Y-8.3937
X6.2638Y-7.3819
X6.2756Y-7.7559
X6.2756Y-8.5827
X6.2874Y-7.3504
X6.3701Y-7.7559
X6.3701Y-8.5827
X6.4016Y-8.6614
X6.4173Y-7.7559
X6.4646Y-7.7559
X6.4646Y-8.5827
X6.4646Y-8.6614
X6.4961Y-8.6929
X6.5118Y-7.7559
X6.5591Y-7.7559
X6.5827Y-8.4016
X6.6063Y-7.7559
X6.6063Y-8.5906
X6.6535Y-7.7571
X6.6535Y-8.5906
X6.7008Y-7.7559
X6.7008Y-8.5906
X6.748Y-7.7571
X6.748Y-8.5906
X6.7951Y-7.7559
X6.7953Y-8.5906
X6.9291Y-7.9498
X7.1063Y-7.9567
X7.1181Y-8.565
X7.1181Y-8.6319
X7.1181Y-8.6988
X7.1181Y-8.7657
X7.1181Y-8.8327
X7.1181Y-8.8996
X7.1181Y-8.9665
X7.1181Y-9.0335
X7.1181Y-9.1004
X7.1181Y-9.1673
X7.1309Y-7.9813
X7.1555Y-8.3563
X7.1565Y-8.1033
X7.1811Y-8.378
X7.189Y-9.6732
X7.2087Y-8.3543
X7.2343Y-8.3819
X7.2589Y-8.3573
X7.2844Y-8.3819
X7.31Y-8.3573
X7.3287Y-9.0217
X7.3356Y-8.1427
X7.3356Y-8.3819
X7.3612Y-8.1043
X7.4006Y-8.7362
X7.7402Y-5.6299
X7.7638Y-5.6614
T3
X4.3701Y-4.8819
X4.3701Y-5.7874
X4.4764Y-4.4409
X4.9311Y-8.1496
X4.9311Y-8.248
X4.9311Y-8.3465
X4.9311Y-8.4449
X4.9409Y-7.7598
X4.9528Y-7.4409
X4.9843Y-9.4311
X4.9882Y-7.7598
X5.0Y-7.4409
X5.0354Y-7.7598
X5.0472Y-7.4409
X5.0472Y-9.4311
X5.1063Y-4.8819
X5.1063Y-5.7874
X5.1063Y-9.4311
X5.122Y-10.3031
X5.126Y-8.2402
X5.126Y-8.6496
X5.126Y-8.7402
X5.1673Y-7.9961
X5.1772Y-8.6929
X5.1929Y-10.1339
X5.2205Y-10.2874
X5.2283Y-8.6496
X5.2283Y-8.7402
X5.2402Y-8.1811
X5.3091Y-10.1988
X5.311Y-9.3504
X5.311Y-9.4114
X5.311Y-9.4724
X5.3287Y-8.4567
X5.3327Y-7.9488
X5.3327Y-8.1772
X5.3701Y-9.3504
X5.3701Y-9.4114
X5.3701Y-9.4724
X5.3701Y-9.628
X5.378Y-7.7559
X5.3898Y-7.5906
X5.4055Y-8.1772
X5.431Y-9.1339
X5.4409Y-9.9921
X5.4646Y-8.1772
X5.4724Y-5.0787
X5.4724Y-5.374
X5.5157Y-10.3307
X5.5468Y-8.0138
X5.5468Y-8.6043
X5.5487Y-8.1083
X5.5709Y-9.4094
X5.5709Y-9.4882
X5.622Y-9.5295
X5.6496Y-5.2766
X5.6575Y-10.0551
X5.7087Y-7.7559
X5.7205Y-7.4173
X5.7244Y-10.1417
X5.811Y-8.2402
X5.8465Y-8.7756
X5.9173Y-10.2559
X6.0236Y-8.8583
X6.0472Y-9.7559
X6.0945Y-9.4016
X6.2441Y-8.8583
X6.2677Y-9.9134
X6.3071Y-8.8583
X6.311Y-7.7559
X6.3228Y-7.5866
X6.3346Y-8.1299
X6.3386Y-8.4016
X6.4567Y-10.5463
X6.4942Y-10.7362
X6.5669Y-9.2913
X6.5669Y-9.6142
X6.685Y-8.8583
X6.7698Y-10.7402
X6.7953Y-9.6378
X6.8207Y-8.2874
X6.8287Y-9.563
X6.8583Y-10.5433
X6.9134Y-7.7559
X6.9252Y-7.5906
X7.0472Y-5.3819
X7.0472Y-5.4528
X7.0472Y-5.5276
X7.0472Y-5.6024
X7.0551Y-4.8543
X7.0551Y-4.9606
X7.0551Y-5.0709
X7.0551Y-5.185
X7.0906Y-9.7087
X7.0906Y-9.7795
X7.0906Y-9.8504
X7.0906Y-9.9213
X7.1024Y-4.7323
X7.1024Y-9.4055
X7.1181Y-8.2175
X7.1732Y-9.9488
X7.3228Y-8.2126
X7.3327Y-8.7028
X7.4094Y-7.7598
X7.4213Y-7.5866
X7.4715Y-5.5236
X7.4715Y-5.5925
X7.4715Y-5.6614
X7.5138Y-9.7008
X7.5138Y-9.7756
X7.5138Y-9.8465
T5
X4.9843Y-9.9724
X5.063Y-9.9724
X7.4075Y-10.1732
X7.4075Y-10.252
T6
X4.9823Y-4.114
X4.9823Y-4.214
X5.0823Y-4.114
X5.0823Y-4.214
X5.1823Y-4.114
X5.1823Y-4.214
X5.2823Y-4.114
X5.2823Y-4.214
X5.3823Y-4.114
X5.3823Y-4.214
X5.4823Y-4.114
X5.4823Y-4.214
X5.5823Y-4.114
X5.5823Y-4.214
X5.6823Y-4.114
X5.6823Y-4.214
X5.7823Y-4.114
X5.7823Y-4.214
X5.8823Y-4.114
X5.8823Y-4.214
X5.9823Y-4.114
X5.9823Y-4.214
X6.0823Y-4.114
X6.0823Y-4.214
X6.1823Y-4.114
X6.1823Y-4.214
X6.2823Y-4.114
X6.2823Y-4.214
X6.3823Y-4.114
X6.3823Y-4.214
X6.4823Y-4.114
X6.4823Y-4.214
X6.5823Y-4.114
X6.5823Y-4.214
X6.6823Y-4.114
X6.6823Y-4.214
X6.7823Y-4.114
X6.7823Y-4.214
X6.8823Y-4.114
X6.8823Y-4.214
T7
X5.5157Y-10.9646
X5.5413Y-10.6693
X5.7185Y-10.6693
X5.7441Y-10.9646
T4
G00X6.4737Y-10.8128
M15
G01X6.4737Y-10.8561
M16
G05
G00X6.4737Y-10.9833
M15
G01X6.4737Y-11.0148
M16
G05
G00X6.8139Y-10.8128
M15
G01X6.8139Y-10.8561
M16
G05
G00X6.8139Y-10.9833
M15
G01X6.8139Y-11.0148
M16
G05
M30
