%TF.GenerationSoftware,KiCad,Pcbnew,9.0.2*%
%TF.CreationDate,2025-05-19T22:02:46+02:00*%
%TF.ProjectId,audio_eval01,61756469-6f5f-4657-9661-6c30312e6b69,rev?*%
%TF.SameCoordinates,Original*%
%TF.FileFunction,Copper,L2,Bot*%
%TF.FilePolarity,Positive*%
%FSLAX46Y46*%
G04 Gerber Fmt 4.6, Leading zero omitted, Abs format (unit mm)*
G04 Created by KiCad (PCBNEW 9.0.2) date 2025-05-19 22:02:46*
%MOMM*%
%LPD*%
G01*
G04 APERTURE LIST*
%TA.AperFunction,ComponentPad*%
%ADD10R,1.700000X1.700000*%
%TD*%
%TA.AperFunction,ComponentPad*%
%ADD11C,1.700000*%
%TD*%
%TA.AperFunction,ComponentPad*%
%ADD12R,1.900000X1.900000*%
%TD*%
%TA.AperFunction,ComponentPad*%
%ADD13C,1.900000*%
%TD*%
%TA.AperFunction,ViaPad*%
%ADD14C,0.500000*%
%TD*%
%TA.AperFunction,ViaPad*%
%ADD15C,0.800000*%
%TD*%
%TA.AperFunction,Conductor*%
%ADD16C,0.200000*%
%TD*%
%TA.AperFunction,Conductor*%
%ADD17C,0.400000*%
%TD*%
G04 APERTURE END LIST*
D10*
%TO.P,J3,1,Pin_1*%
%TO.N,Net-(J3-Pin_1)*%
X168800000Y-78460000D03*
D11*
%TO.P,J3,2,Pin_2*%
%TO.N,Net-(J3-Pin_2)*%
X168800000Y-81000000D03*
%TD*%
D10*
%TO.P,J1,1,Pin_1*%
%TO.N,GND*%
X124200000Y-75000000D03*
D11*
%TO.P,J1,2,Pin_2*%
%TO.N,GPIO1*%
X124200000Y-77540000D03*
%TO.P,J1,3,Pin_3*%
%TO.N,DIN*%
X124200000Y-80080000D03*
%TO.P,J1,4,Pin_4*%
%TO.N,WCLK*%
X124200000Y-82620000D03*
%TO.P,J1,5,Pin_5*%
%TO.N,BCLK*%
X124200000Y-85160000D03*
%TO.P,J1,6,Pin_6*%
%TO.N,MCLK*%
X124200000Y-87700000D03*
%TO.P,J1,7,Pin_7*%
%TO.N,SDA*%
X124200000Y-90240000D03*
%TO.P,J1,8,Pin_8*%
%TO.N,SCL*%
X124200000Y-92780000D03*
%TO.P,J1,9,Pin_9*%
%TO.N,3V3*%
X124200000Y-95320000D03*
%TO.P,J1,10,Pin_10*%
%TO.N,5V0*%
X124200000Y-97860000D03*
%TD*%
D12*
%TO.P,J2,R*%
%TO.N,Net-(U1-HPR)*%
X160400000Y-96500000D03*
D13*
%TO.P,J2,S*%
%TO.N,GND*%
X160400000Y-92000000D03*
%TO.P,J2,T*%
%TO.N,Net-(U1-HPL)*%
X167900000Y-97150000D03*
X167900000Y-91350000D03*
%TD*%
D14*
%TO.N,SCL*%
X146600000Y-88000000D03*
%TO.N,MCLK*%
X140600000Y-86400000D03*
%TO.N,GPIO1*%
X142400000Y-79400000D03*
%TO.N,WCLK*%
X140800000Y-84000000D03*
%TO.N,BCLK*%
X138400000Y-85600000D03*
%TO.N,SDA*%
X139800000Y-89000000D03*
%TO.N,GND*%
X142200000Y-74600000D03*
X142200000Y-76600000D03*
D15*
X148800000Y-84600000D03*
D14*
X142200000Y-75600000D03*
X136200000Y-98000000D03*
X138600000Y-91400000D03*
X148600000Y-80200000D03*
X151700000Y-86200000D03*
X138600000Y-93600000D03*
X152000000Y-76600000D03*
X140200000Y-91400000D03*
X153800000Y-76600000D03*
X135400000Y-98000000D03*
X135400000Y-96800000D03*
X140200000Y-93600000D03*
X150200000Y-76600000D03*
X139400000Y-94400000D03*
X142200000Y-77600000D03*
X135391896Y-99200000D03*
%TO.N,1V8*%
X146100000Y-96700000D03*
X139700000Y-96700000D03*
%TO.N,DIN*%
X141400000Y-83000000D03*
D15*
%TO.N,5V0*%
X154600000Y-80500000D03*
X154600000Y-83000000D03*
D14*
%TO.N,Net-(U1-HPR)*%
X144000000Y-79400000D03*
%TO.N,Net-(J3-Pin_1)*%
X148800000Y-82000000D03*
X148800000Y-83600000D03*
%TD*%
D16*
%TO.N,SCL*%
X145400000Y-92600000D02*
X146600000Y-91400000D01*
X124380000Y-92600000D02*
X145400000Y-92600000D01*
X124200000Y-92780000D02*
X124380000Y-92600000D01*
X146600000Y-91400000D02*
X146600000Y-88000000D01*
%TO.N,MCLK*%
X140256236Y-86400000D02*
X140600000Y-86400000D01*
X124200000Y-87700000D02*
X124380000Y-87520000D01*
X124380000Y-87520000D02*
X139136236Y-87520000D01*
X139136236Y-87520000D02*
X140256236Y-86400000D01*
%TO.N,GPIO1*%
X131360000Y-77360000D02*
X124380000Y-77360000D01*
X124380000Y-77360000D02*
X124200000Y-77540000D01*
X133400000Y-79400000D02*
X131360000Y-77360000D01*
X142400000Y-79400000D02*
X133400000Y-79400000D01*
%TO.N,WCLK*%
X131092515Y-82440000D02*
X124380000Y-82440000D01*
X124380000Y-82440000D02*
X124200000Y-82620000D01*
X140800000Y-84000000D02*
X132652515Y-84000000D01*
X132652515Y-84000000D02*
X131092515Y-82440000D01*
%TO.N,BCLK*%
X124380000Y-84980000D02*
X124200000Y-85160000D01*
X131200000Y-85600000D02*
X130580000Y-84980000D01*
X130580000Y-84980000D02*
X124380000Y-84980000D01*
X138400000Y-85600000D02*
X131200000Y-85600000D01*
%TO.N,SDA*%
X138740000Y-90060000D02*
X124380000Y-90060000D01*
X139800000Y-89000000D02*
X138740000Y-90060000D01*
X124380000Y-90060000D02*
X124200000Y-90240000D01*
D17*
%TO.N,1V8*%
X146100000Y-96700000D02*
X139700000Y-96700000D01*
D16*
%TO.N,DIN*%
X124380000Y-79900000D02*
X124200000Y-80080000D01*
X133600000Y-83000000D02*
X130500000Y-79900000D01*
X130500000Y-79900000D02*
X124380000Y-79900000D01*
X141400000Y-83000000D02*
X133600000Y-83000000D01*
D17*
%TO.N,5V0*%
X124200000Y-97860000D02*
X126540000Y-97860000D01*
X154600000Y-80500000D02*
X154600000Y-83000000D01*
X126540000Y-97860000D02*
X129000000Y-95400000D01*
X145800000Y-95400000D02*
X154600000Y-86600000D01*
X154600000Y-86600000D02*
X154600000Y-83000000D01*
X129000000Y-95400000D02*
X145800000Y-95400000D01*
D16*
%TO.N,Net-(U1-HPR)*%
X157600000Y-81500000D02*
X157600000Y-95600000D01*
X157600000Y-95600000D02*
X158500000Y-96500000D01*
X144000000Y-79400000D02*
X155500000Y-79400000D01*
X155500000Y-79400000D02*
X157600000Y-81500000D01*
X158500000Y-96500000D02*
X160400000Y-96500000D01*
%TO.N,Net-(J3-Pin_1)*%
X148800000Y-83600000D02*
X148800000Y-82000000D01*
%TD*%
%TA.AperFunction,Conductor*%
%TO.N,GND*%
G36*
X131126942Y-77980185D02*
G01*
X131147583Y-77996818D01*
X133031284Y-79880520D01*
X133031286Y-79880521D01*
X133031290Y-79880524D01*
X133082596Y-79910145D01*
X133168216Y-79959577D01*
X133320943Y-80000501D01*
X133320945Y-80000501D01*
X133486654Y-80000501D01*
X133486670Y-80000500D01*
X141910233Y-80000500D01*
X141977272Y-80020185D01*
X141979124Y-80021398D01*
X142044498Y-80065080D01*
X142044511Y-80065087D01*
X142177586Y-80120208D01*
X142181087Y-80121658D01*
X142181091Y-80121658D01*
X142181092Y-80121659D01*
X142326079Y-80150500D01*
X142326082Y-80150500D01*
X142473920Y-80150500D01*
X142571462Y-80131096D01*
X142618913Y-80121658D01*
X142755495Y-80065084D01*
X142878416Y-79982951D01*
X142982951Y-79878416D01*
X143065084Y-79755495D01*
X143085439Y-79706354D01*
X143129279Y-79651950D01*
X143195573Y-79629885D01*
X143263273Y-79647164D01*
X143310884Y-79698301D01*
X143314561Y-79706354D01*
X143334912Y-79755488D01*
X143334919Y-79755501D01*
X143417048Y-79878415D01*
X143417051Y-79878419D01*
X143521580Y-79982948D01*
X143521584Y-79982951D01*
X143644498Y-80065080D01*
X143644511Y-80065087D01*
X143777586Y-80120208D01*
X143781087Y-80121658D01*
X143781091Y-80121658D01*
X143781092Y-80121659D01*
X143926079Y-80150500D01*
X143926082Y-80150500D01*
X144073920Y-80150500D01*
X144171462Y-80131096D01*
X144218913Y-80121658D01*
X144355495Y-80065084D01*
X144420876Y-80021398D01*
X144487553Y-80000520D01*
X144489767Y-80000500D01*
X153646627Y-80000500D01*
X153713666Y-80020185D01*
X153759421Y-80072989D01*
X153769365Y-80142147D01*
X153761188Y-80171952D01*
X153734106Y-80237332D01*
X153734103Y-80237341D01*
X153699500Y-80411304D01*
X153699500Y-80588695D01*
X153734103Y-80762658D01*
X153734106Y-80762667D01*
X153801984Y-80926542D01*
X153801985Y-80926543D01*
X153801987Y-80926547D01*
X153878602Y-81041208D01*
X153899480Y-81107885D01*
X153899500Y-81110099D01*
X153899500Y-82389899D01*
X153879815Y-82456938D01*
X153878602Y-82458790D01*
X153801988Y-82573449D01*
X153801987Y-82573452D01*
X153734106Y-82737332D01*
X153734103Y-82737341D01*
X153699500Y-82911304D01*
X153699500Y-83088695D01*
X153734103Y-83262658D01*
X153734106Y-83262667D01*
X153801984Y-83426542D01*
X153801985Y-83426543D01*
X153801987Y-83426547D01*
X153868493Y-83526079D01*
X153878602Y-83541208D01*
X153899480Y-83607885D01*
X153899500Y-83610099D01*
X153899500Y-86258481D01*
X153879815Y-86325520D01*
X153863181Y-86346162D01*
X145546162Y-94663181D01*
X145484839Y-94696666D01*
X145458481Y-94699500D01*
X128931003Y-94699500D01*
X128822590Y-94721065D01*
X128822589Y-94721065D01*
X128809131Y-94723742D01*
X128795673Y-94726419D01*
X128795671Y-94726420D01*
X128742866Y-94748292D01*
X128742864Y-94748293D01*
X128742863Y-94748292D01*
X128668196Y-94779221D01*
X128668181Y-94779229D01*
X128634720Y-94801588D01*
X128553457Y-94855886D01*
X128553453Y-94855889D01*
X126286162Y-97123181D01*
X126224839Y-97156666D01*
X126198481Y-97159500D01*
X125423547Y-97159500D01*
X125356508Y-97139815D01*
X125323230Y-97108385D01*
X125270521Y-97035837D01*
X125230107Y-96980211D01*
X125079786Y-96829890D01*
X124907820Y-96704951D01*
X124907115Y-96704591D01*
X124899054Y-96700485D01*
X124848259Y-96652512D01*
X124831463Y-96584692D01*
X124853999Y-96518556D01*
X124899054Y-96479515D01*
X124907816Y-96475051D01*
X124979552Y-96422932D01*
X125079786Y-96350109D01*
X125079788Y-96350106D01*
X125079792Y-96350104D01*
X125230104Y-96199792D01*
X125230106Y-96199788D01*
X125230109Y-96199786D01*
X125355048Y-96027820D01*
X125355047Y-96027820D01*
X125355051Y-96027816D01*
X125451557Y-95838412D01*
X125517246Y-95636243D01*
X125550500Y-95426287D01*
X125550500Y-95213713D01*
X125517246Y-95003757D01*
X125451557Y-94801588D01*
X125355051Y-94612184D01*
X125355049Y-94612181D01*
X125355048Y-94612179D01*
X125230109Y-94440213D01*
X125079786Y-94289890D01*
X124907820Y-94164951D01*
X124907115Y-94164591D01*
X124899054Y-94160485D01*
X124848259Y-94112512D01*
X124831463Y-94044692D01*
X124853999Y-93978556D01*
X124899054Y-93939515D01*
X124907816Y-93935051D01*
X124929789Y-93919086D01*
X125079786Y-93810109D01*
X125079788Y-93810106D01*
X125079792Y-93810104D01*
X125230104Y-93659792D01*
X125230106Y-93659788D01*
X125230109Y-93659786D01*
X125355048Y-93487820D01*
X125355047Y-93487820D01*
X125355051Y-93487816D01*
X125451557Y-93298412D01*
X125455532Y-93286177D01*
X125494971Y-93228504D01*
X125559331Y-93201308D01*
X125573462Y-93200500D01*
X145313331Y-93200500D01*
X145313347Y-93200501D01*
X145320943Y-93200501D01*
X145479054Y-93200501D01*
X145479057Y-93200501D01*
X145631785Y-93159577D01*
X145681904Y-93130639D01*
X145768716Y-93080520D01*
X145880520Y-92968716D01*
X145880520Y-92968714D01*
X145890728Y-92958507D01*
X145890730Y-92958504D01*
X146968713Y-91880521D01*
X146968716Y-91880520D01*
X147080520Y-91768716D01*
X147130639Y-91681904D01*
X147159577Y-91631785D01*
X147200500Y-91479058D01*
X147200500Y-91320943D01*
X147200500Y-88489767D01*
X147220185Y-88422728D01*
X147221398Y-88420876D01*
X147265080Y-88355501D01*
X147265080Y-88355500D01*
X147265084Y-88355495D01*
X147321658Y-88218913D01*
X147335664Y-88148504D01*
X147350500Y-88073920D01*
X147350500Y-87926079D01*
X147321659Y-87781092D01*
X147321658Y-87781091D01*
X147321658Y-87781087D01*
X147321656Y-87781082D01*
X147265087Y-87644511D01*
X147265080Y-87644498D01*
X147182951Y-87521584D01*
X147182948Y-87521580D01*
X147078419Y-87417051D01*
X147078415Y-87417048D01*
X146955501Y-87334919D01*
X146955488Y-87334912D01*
X146818917Y-87278343D01*
X146818907Y-87278340D01*
X146673920Y-87249500D01*
X146673918Y-87249500D01*
X146526082Y-87249500D01*
X146526080Y-87249500D01*
X146381092Y-87278340D01*
X146381082Y-87278343D01*
X146244511Y-87334912D01*
X146244498Y-87334919D01*
X146121584Y-87417048D01*
X146121580Y-87417051D01*
X146017051Y-87521580D01*
X146017048Y-87521584D01*
X145934919Y-87644498D01*
X145934912Y-87644511D01*
X145878343Y-87781082D01*
X145878340Y-87781092D01*
X145849500Y-87926079D01*
X145849500Y-87926082D01*
X145849500Y-88073918D01*
X145849500Y-88073920D01*
X145849499Y-88073920D01*
X145878340Y-88218907D01*
X145878343Y-88218917D01*
X145934912Y-88355488D01*
X145934919Y-88355501D01*
X145978602Y-88420876D01*
X145999480Y-88487553D01*
X145999500Y-88489767D01*
X145999500Y-91099903D01*
X145979815Y-91166942D01*
X145963181Y-91187584D01*
X145187584Y-91963181D01*
X145126261Y-91996666D01*
X145099903Y-91999500D01*
X125365425Y-91999500D01*
X125298386Y-91979815D01*
X125265107Y-91948385D01*
X125230107Y-91900212D01*
X125230102Y-91900206D01*
X125079786Y-91749890D01*
X124907820Y-91624951D01*
X124907115Y-91624591D01*
X124899054Y-91620485D01*
X124848259Y-91572512D01*
X124831463Y-91504692D01*
X124853999Y-91438556D01*
X124899054Y-91399515D01*
X124907816Y-91395051D01*
X125025111Y-91309832D01*
X125079786Y-91270109D01*
X125079788Y-91270106D01*
X125079792Y-91270104D01*
X125230104Y-91119792D01*
X125230106Y-91119788D01*
X125230109Y-91119786D01*
X125355048Y-90947820D01*
X125355047Y-90947820D01*
X125355051Y-90947816D01*
X125451557Y-90758412D01*
X125455532Y-90746177D01*
X125494971Y-90688504D01*
X125559331Y-90661308D01*
X125573462Y-90660500D01*
X138653331Y-90660500D01*
X138653347Y-90660501D01*
X138660943Y-90660501D01*
X138819054Y-90660501D01*
X138819057Y-90660501D01*
X138971785Y-90619577D01*
X139023408Y-90589772D01*
X139108716Y-90540520D01*
X139220520Y-90428716D01*
X139220520Y-90428714D01*
X139230724Y-90418511D01*
X139230728Y-90418506D01*
X139878301Y-89770932D01*
X139939622Y-89737449D01*
X139941644Y-89737027D01*
X140018913Y-89721658D01*
X140155495Y-89665084D01*
X140278416Y-89582951D01*
X140382951Y-89478416D01*
X140465084Y-89355495D01*
X140521658Y-89218913D01*
X140531096Y-89171462D01*
X140550500Y-89073920D01*
X140550500Y-88926079D01*
X140521659Y-88781092D01*
X140521658Y-88781091D01*
X140521658Y-88781087D01*
X140521656Y-88781082D01*
X140465087Y-88644511D01*
X140465080Y-88644498D01*
X140382951Y-88521584D01*
X140382948Y-88521580D01*
X140278419Y-88417051D01*
X140278415Y-88417048D01*
X140155501Y-88334919D01*
X140155488Y-88334912D01*
X140018917Y-88278343D01*
X140018907Y-88278340D01*
X139873920Y-88249500D01*
X139873918Y-88249500D01*
X139726082Y-88249500D01*
X139726080Y-88249500D01*
X139581092Y-88278340D01*
X139581082Y-88278343D01*
X139444511Y-88334912D01*
X139444498Y-88334919D01*
X139321584Y-88417048D01*
X139321580Y-88417051D01*
X139217051Y-88521580D01*
X139217048Y-88521584D01*
X139134919Y-88644498D01*
X139134912Y-88644511D01*
X139078342Y-88781084D01*
X139078340Y-88781092D01*
X139063000Y-88858210D01*
X139030615Y-88920121D01*
X139029064Y-88921699D01*
X138527584Y-89423181D01*
X138466261Y-89456666D01*
X138439903Y-89459500D01*
X125365425Y-89459500D01*
X125298386Y-89439815D01*
X125265107Y-89408385D01*
X125230107Y-89360212D01*
X125230102Y-89360206D01*
X125079786Y-89209890D01*
X124907820Y-89084951D01*
X124907115Y-89084591D01*
X124899054Y-89080485D01*
X124848259Y-89032512D01*
X124831463Y-88964692D01*
X124853999Y-88898556D01*
X124899054Y-88859515D01*
X124907816Y-88855051D01*
X125009613Y-88781092D01*
X125079786Y-88730109D01*
X125079788Y-88730106D01*
X125079792Y-88730104D01*
X125230104Y-88579792D01*
X125230106Y-88579788D01*
X125230109Y-88579786D01*
X125355048Y-88407820D01*
X125355047Y-88407820D01*
X125355051Y-88407816D01*
X125451557Y-88218412D01*
X125455532Y-88206177D01*
X125494971Y-88148504D01*
X125559331Y-88121308D01*
X125573462Y-88120500D01*
X139049567Y-88120500D01*
X139049583Y-88120501D01*
X139057179Y-88120501D01*
X139215290Y-88120501D01*
X139215293Y-88120501D01*
X139368021Y-88079577D01*
X139418140Y-88050639D01*
X139504952Y-88000520D01*
X139616756Y-87888716D01*
X139616756Y-87888714D01*
X139626964Y-87878507D01*
X139626966Y-87878504D01*
X140336494Y-87168975D01*
X140397815Y-87135492D01*
X140448365Y-87135041D01*
X140526079Y-87150500D01*
X140526082Y-87150500D01*
X140673920Y-87150500D01*
X140771462Y-87131096D01*
X140818913Y-87121658D01*
X140955495Y-87065084D01*
X141078416Y-86982951D01*
X141182951Y-86878416D01*
X141265084Y-86755495D01*
X141321658Y-86618913D01*
X141336371Y-86544949D01*
X141350500Y-86473920D01*
X141350500Y-86326079D01*
X141321659Y-86181092D01*
X141321658Y-86181091D01*
X141321658Y-86181087D01*
X141280004Y-86080524D01*
X141265087Y-86044511D01*
X141265080Y-86044498D01*
X141182951Y-85921584D01*
X141182948Y-85921580D01*
X141078419Y-85817051D01*
X141078415Y-85817048D01*
X140955501Y-85734919D01*
X140955488Y-85734912D01*
X140818917Y-85678343D01*
X140818907Y-85678340D01*
X140673920Y-85649500D01*
X140673918Y-85649500D01*
X140526082Y-85649500D01*
X140526080Y-85649500D01*
X140381092Y-85678340D01*
X140381082Y-85678343D01*
X140244506Y-85734914D01*
X140244504Y-85734915D01*
X140145231Y-85801246D01*
X140121001Y-85813822D01*
X140114820Y-85816208D01*
X140024451Y-85840423D01*
X139977005Y-85867816D01*
X139968656Y-85872636D01*
X139968654Y-85872637D01*
X139887523Y-85919477D01*
X139887518Y-85919481D01*
X139775716Y-86031284D01*
X139775714Y-86031286D01*
X139333081Y-86473920D01*
X138923820Y-86883181D01*
X138862497Y-86916666D01*
X138836139Y-86919500D01*
X125365425Y-86919500D01*
X125298386Y-86899815D01*
X125265107Y-86868385D01*
X125230107Y-86820212D01*
X125230102Y-86820206D01*
X125079786Y-86669890D01*
X124907820Y-86544951D01*
X124907115Y-86544591D01*
X124899054Y-86540485D01*
X124848259Y-86492512D01*
X124831463Y-86424692D01*
X124853999Y-86358556D01*
X124899054Y-86319515D01*
X124907816Y-86315051D01*
X124976596Y-86265080D01*
X125079786Y-86190109D01*
X125079788Y-86190106D01*
X125079792Y-86190104D01*
X125230104Y-86039792D01*
X125230106Y-86039788D01*
X125230109Y-86039786D01*
X125355048Y-85867820D01*
X125355047Y-85867820D01*
X125355051Y-85867816D01*
X125451557Y-85678412D01*
X125455532Y-85666177D01*
X125494971Y-85608504D01*
X125559331Y-85581308D01*
X125573462Y-85580500D01*
X130279903Y-85580500D01*
X130346942Y-85600185D01*
X130367584Y-85616819D01*
X130715139Y-85964374D01*
X130715149Y-85964385D01*
X130719479Y-85968715D01*
X130719480Y-85968716D01*
X130831284Y-86080520D01*
X130831286Y-86080521D01*
X130831290Y-86080524D01*
X130968209Y-86159573D01*
X130968216Y-86159577D01*
X131080019Y-86189534D01*
X131120942Y-86200500D01*
X131120943Y-86200500D01*
X137910233Y-86200500D01*
X137977272Y-86220185D01*
X137979124Y-86221398D01*
X138044498Y-86265080D01*
X138044511Y-86265087D01*
X138152563Y-86309843D01*
X138181087Y-86321658D01*
X138181091Y-86321658D01*
X138181092Y-86321659D01*
X138326079Y-86350500D01*
X138326082Y-86350500D01*
X138473920Y-86350500D01*
X138571462Y-86331096D01*
X138618913Y-86321658D01*
X138755495Y-86265084D01*
X138878416Y-86182951D01*
X138982951Y-86078416D01*
X139065084Y-85955495D01*
X139121658Y-85818913D01*
X139138367Y-85734912D01*
X139150500Y-85673919D01*
X139150500Y-85526079D01*
X139121659Y-85381092D01*
X139121658Y-85381091D01*
X139121658Y-85381087D01*
X139121656Y-85381082D01*
X139065087Y-85244511D01*
X139065080Y-85244498D01*
X138982951Y-85121584D01*
X138982948Y-85121580D01*
X138878419Y-85017051D01*
X138878415Y-85017048D01*
X138755501Y-84934919D01*
X138755488Y-84934912D01*
X138618917Y-84878343D01*
X138618907Y-84878340D01*
X138473920Y-84849500D01*
X138473918Y-84849500D01*
X138326082Y-84849500D01*
X138326080Y-84849500D01*
X138181092Y-84878340D01*
X138181082Y-84878343D01*
X138044511Y-84934912D01*
X138044498Y-84934919D01*
X137979124Y-84978602D01*
X137912447Y-84999480D01*
X137910233Y-84999500D01*
X131500097Y-84999500D01*
X131433058Y-84979815D01*
X131412416Y-84963181D01*
X131067590Y-84618355D01*
X131067588Y-84618352D01*
X130948717Y-84499481D01*
X130948716Y-84499480D01*
X130861904Y-84449360D01*
X130861904Y-84449359D01*
X130861900Y-84449358D01*
X130811785Y-84420423D01*
X130659057Y-84379499D01*
X130500943Y-84379499D01*
X130493347Y-84379499D01*
X130493331Y-84379500D01*
X125365425Y-84379500D01*
X125298386Y-84359815D01*
X125265107Y-84328385D01*
X125230107Y-84280212D01*
X125230102Y-84280206D01*
X125079786Y-84129890D01*
X124907820Y-84004951D01*
X124907115Y-84004591D01*
X124899054Y-84000485D01*
X124848259Y-83952512D01*
X124831463Y-83884692D01*
X124853999Y-83818556D01*
X124899054Y-83779515D01*
X124907816Y-83775051D01*
X124958371Y-83738321D01*
X125079786Y-83650109D01*
X125079788Y-83650106D01*
X125079792Y-83650104D01*
X125230104Y-83499792D01*
X125230106Y-83499788D01*
X125230109Y-83499786D01*
X125355048Y-83327820D01*
X125355047Y-83327820D01*
X125355051Y-83327816D01*
X125451557Y-83138412D01*
X125455532Y-83126177D01*
X125494971Y-83068504D01*
X125559331Y-83041308D01*
X125573462Y-83040500D01*
X130792418Y-83040500D01*
X130859457Y-83060185D01*
X130880099Y-83076819D01*
X132167654Y-84364374D01*
X132167664Y-84364385D01*
X132171994Y-84368715D01*
X132171995Y-84368716D01*
X132283799Y-84480520D01*
X132283801Y-84480521D01*
X132283805Y-84480524D01*
X132356018Y-84522216D01*
X132356022Y-84522217D01*
X132356023Y-84522218D01*
X132388376Y-84540897D01*
X132420727Y-84559576D01*
X132420729Y-84559576D01*
X132420730Y-84559577D01*
X132573458Y-84600500D01*
X132731572Y-84600500D01*
X140310233Y-84600500D01*
X140377272Y-84620185D01*
X140379124Y-84621398D01*
X140444498Y-84665080D01*
X140444511Y-84665087D01*
X140581082Y-84721656D01*
X140581087Y-84721658D01*
X140581091Y-84721658D01*
X140581092Y-84721659D01*
X140726079Y-84750500D01*
X140726082Y-84750500D01*
X140873920Y-84750500D01*
X140971462Y-84731096D01*
X141018913Y-84721658D01*
X141155495Y-84665084D01*
X141278416Y-84582951D01*
X141382951Y-84478416D01*
X141465084Y-84355495D01*
X141521658Y-84218913D01*
X141549605Y-84078419D01*
X141550500Y-84073920D01*
X141550500Y-83926079D01*
X141537970Y-83863090D01*
X141544197Y-83793499D01*
X141587059Y-83738321D01*
X141613755Y-83725121D01*
X141613286Y-83723989D01*
X141755488Y-83665087D01*
X141755488Y-83665086D01*
X141755495Y-83665084D01*
X141878416Y-83582951D01*
X141982951Y-83478416D01*
X142065084Y-83355495D01*
X142121658Y-83218913D01*
X142135794Y-83147847D01*
X142150500Y-83073920D01*
X142150500Y-82926079D01*
X142121659Y-82781092D01*
X142121658Y-82781091D01*
X142121658Y-82781087D01*
X142098959Y-82726286D01*
X142065087Y-82644511D01*
X142065080Y-82644498D01*
X141982951Y-82521584D01*
X141982948Y-82521580D01*
X141878419Y-82417051D01*
X141878415Y-82417048D01*
X141755501Y-82334919D01*
X141755488Y-82334912D01*
X141618917Y-82278343D01*
X141618907Y-82278340D01*
X141473920Y-82249500D01*
X141473918Y-82249500D01*
X141326082Y-82249500D01*
X141326080Y-82249500D01*
X141181092Y-82278340D01*
X141181082Y-82278343D01*
X141044511Y-82334912D01*
X141044498Y-82334919D01*
X140979124Y-82378602D01*
X140912447Y-82399480D01*
X140910233Y-82399500D01*
X133900097Y-82399500D01*
X133833058Y-82379815D01*
X133812416Y-82363181D01*
X133523155Y-82073920D01*
X148049499Y-82073920D01*
X148078340Y-82218907D01*
X148078343Y-82218917D01*
X148134912Y-82355488D01*
X148134919Y-82355501D01*
X148178602Y-82420876D01*
X148199480Y-82487553D01*
X148199500Y-82489767D01*
X148199500Y-83110232D01*
X148179815Y-83177271D01*
X148178603Y-83179122D01*
X148134914Y-83244508D01*
X148078343Y-83381082D01*
X148078340Y-83381092D01*
X148049500Y-83526079D01*
X148049500Y-83526082D01*
X148049500Y-83673918D01*
X148049500Y-83673920D01*
X148049499Y-83673920D01*
X148078340Y-83818907D01*
X148078343Y-83818917D01*
X148134912Y-83955488D01*
X148134919Y-83955501D01*
X148217048Y-84078415D01*
X148217051Y-84078419D01*
X148321580Y-84182948D01*
X148321584Y-84182951D01*
X148444498Y-84265080D01*
X148444511Y-84265087D01*
X148581082Y-84321656D01*
X148581087Y-84321658D01*
X148581091Y-84321658D01*
X148581092Y-84321659D01*
X148726079Y-84350500D01*
X148726082Y-84350500D01*
X148873920Y-84350500D01*
X148985095Y-84328385D01*
X149018913Y-84321658D01*
X149155495Y-84265084D01*
X149278416Y-84182951D01*
X149382951Y-84078416D01*
X149465084Y-83955495D01*
X149521658Y-83818913D01*
X149550500Y-83673918D01*
X149550500Y-83526082D01*
X149550500Y-83526079D01*
X149521659Y-83381092D01*
X149521658Y-83381091D01*
X149521658Y-83381087D01*
X149465084Y-83244505D01*
X149421396Y-83179121D01*
X149400520Y-83112444D01*
X149400500Y-83110232D01*
X149400500Y-82489767D01*
X149420185Y-82422728D01*
X149421398Y-82420876D01*
X149465080Y-82355501D01*
X149465080Y-82355500D01*
X149465084Y-82355495D01*
X149521658Y-82218913D01*
X149550500Y-82073918D01*
X149550500Y-81926082D01*
X149550500Y-81926079D01*
X149521659Y-81781092D01*
X149521658Y-81781091D01*
X149521658Y-81781087D01*
X149518614Y-81773739D01*
X149465087Y-81644511D01*
X149465080Y-81644498D01*
X149382951Y-81521584D01*
X149382948Y-81521580D01*
X149278419Y-81417051D01*
X149278415Y-81417048D01*
X149155501Y-81334919D01*
X149155488Y-81334912D01*
X149018917Y-81278343D01*
X149018907Y-81278340D01*
X148873920Y-81249500D01*
X148873918Y-81249500D01*
X148726082Y-81249500D01*
X148726080Y-81249500D01*
X148581092Y-81278340D01*
X148581082Y-81278343D01*
X148444511Y-81334912D01*
X148444498Y-81334919D01*
X148321584Y-81417048D01*
X148321580Y-81417051D01*
X148217051Y-81521580D01*
X148217048Y-81521584D01*
X148134919Y-81644498D01*
X148134912Y-81644511D01*
X148078343Y-81781082D01*
X148078340Y-81781092D01*
X148049500Y-81926079D01*
X148049500Y-81926082D01*
X148049500Y-82073918D01*
X148049500Y-82073920D01*
X148049499Y-82073920D01*
X133523155Y-82073920D01*
X130987590Y-79538355D01*
X130987588Y-79538352D01*
X130868717Y-79419481D01*
X130868716Y-79419480D01*
X130762007Y-79357872D01*
X130762006Y-79357871D01*
X130731783Y-79340422D01*
X130675881Y-79325443D01*
X130579057Y-79299499D01*
X130420943Y-79299499D01*
X130413347Y-79299499D01*
X130413331Y-79299500D01*
X125365425Y-79299500D01*
X125298386Y-79279815D01*
X125265107Y-79248385D01*
X125230107Y-79200212D01*
X125230102Y-79200206D01*
X125079786Y-79049890D01*
X124907820Y-78924951D01*
X124907115Y-78924591D01*
X124899054Y-78920485D01*
X124848259Y-78872512D01*
X124831463Y-78804692D01*
X124853999Y-78738556D01*
X124899054Y-78699515D01*
X124907816Y-78695051D01*
X124970512Y-78649500D01*
X125079786Y-78570109D01*
X125079788Y-78570106D01*
X125079792Y-78570104D01*
X125230104Y-78419792D01*
X125230106Y-78419788D01*
X125230109Y-78419786D01*
X125355048Y-78247820D01*
X125355047Y-78247820D01*
X125355051Y-78247816D01*
X125451557Y-78058412D01*
X125455532Y-78046177D01*
X125494971Y-77988504D01*
X125559331Y-77961308D01*
X125573462Y-77960500D01*
X131059903Y-77960500D01*
X131126942Y-77980185D01*
G37*
%TD.AperFunction*%
%TA.AperFunction,Conductor*%
G36*
X174442539Y-70220185D02*
G01*
X174488294Y-70272989D01*
X174499500Y-70324500D01*
X174499500Y-103675500D01*
X174479815Y-103742539D01*
X174427011Y-103788294D01*
X174375500Y-103799500D01*
X121524500Y-103799500D01*
X121457461Y-103779815D01*
X121411706Y-103727011D01*
X121400500Y-103675500D01*
X121400500Y-77433713D01*
X122849500Y-77433713D01*
X122849500Y-77646287D01*
X122882754Y-77856243D01*
X122925728Y-77988504D01*
X122948444Y-78058414D01*
X123044951Y-78247820D01*
X123169890Y-78419786D01*
X123320213Y-78570109D01*
X123492182Y-78695050D01*
X123500946Y-78699516D01*
X123551742Y-78747491D01*
X123568536Y-78815312D01*
X123545998Y-78881447D01*
X123500946Y-78920484D01*
X123492182Y-78924949D01*
X123320213Y-79049890D01*
X123169890Y-79200213D01*
X123044951Y-79372179D01*
X122948444Y-79561585D01*
X122882753Y-79763760D01*
X122849500Y-79973713D01*
X122849500Y-80186286D01*
X122866272Y-80292184D01*
X122882754Y-80396243D01*
X122945284Y-80588691D01*
X122948444Y-80598414D01*
X123044951Y-80787820D01*
X123169890Y-80959786D01*
X123320213Y-81110109D01*
X123492182Y-81235050D01*
X123500946Y-81239516D01*
X123551742Y-81287491D01*
X123568536Y-81355312D01*
X123545998Y-81421447D01*
X123500946Y-81460484D01*
X123492182Y-81464949D01*
X123320213Y-81589890D01*
X123169890Y-81740213D01*
X123044951Y-81912179D01*
X122948444Y-82101585D01*
X122882753Y-82303760D01*
X122849500Y-82513713D01*
X122849500Y-82726286D01*
X122881144Y-82926082D01*
X122882754Y-82936243D01*
X122940005Y-83112444D01*
X122948444Y-83138414D01*
X123044951Y-83327820D01*
X123169890Y-83499786D01*
X123320213Y-83650109D01*
X123492182Y-83775050D01*
X123500946Y-83779516D01*
X123551742Y-83827491D01*
X123568536Y-83895312D01*
X123545998Y-83961447D01*
X123500946Y-84000484D01*
X123492182Y-84004949D01*
X123320213Y-84129890D01*
X123169890Y-84280213D01*
X123044951Y-84452179D01*
X122948444Y-84641585D01*
X122882753Y-84843760D01*
X122855307Y-85017048D01*
X122849500Y-85053713D01*
X122849500Y-85266287D01*
X122882754Y-85476243D01*
X122948420Y-85678342D01*
X122948444Y-85678414D01*
X123044951Y-85867820D01*
X123169890Y-86039786D01*
X123320213Y-86190109D01*
X123492182Y-86315050D01*
X123500946Y-86319516D01*
X123551742Y-86367491D01*
X123568536Y-86435312D01*
X123545998Y-86501447D01*
X123500946Y-86540484D01*
X123492182Y-86544949D01*
X123320213Y-86669890D01*
X123169890Y-86820213D01*
X123044951Y-86992179D01*
X122948444Y-87181585D01*
X122882753Y-87383760D01*
X122849500Y-87593713D01*
X122849500Y-87806286D01*
X122880263Y-88000520D01*
X122882754Y-88016243D01*
X122925728Y-88148504D01*
X122948444Y-88218414D01*
X123044951Y-88407820D01*
X123169890Y-88579786D01*
X123320213Y-88730109D01*
X123492182Y-88855050D01*
X123500946Y-88859516D01*
X123551742Y-88907491D01*
X123568536Y-88975312D01*
X123545998Y-89041447D01*
X123500946Y-89080484D01*
X123492182Y-89084949D01*
X123320213Y-89209890D01*
X123169890Y-89360213D01*
X123044951Y-89532179D01*
X122948444Y-89721585D01*
X122882753Y-89923760D01*
X122849500Y-90133713D01*
X122849500Y-90346286D01*
X122880263Y-90540520D01*
X122882754Y-90556243D01*
X122925728Y-90688504D01*
X122948444Y-90758414D01*
X123044951Y-90947820D01*
X123169890Y-91119786D01*
X123320213Y-91270109D01*
X123492182Y-91395050D01*
X123500946Y-91399516D01*
X123551742Y-91447491D01*
X123568536Y-91515312D01*
X123545998Y-91581447D01*
X123500946Y-91620484D01*
X123492182Y-91624949D01*
X123320213Y-91749890D01*
X123169890Y-91900213D01*
X123044951Y-92072179D01*
X122948444Y-92261585D01*
X122882753Y-92463760D01*
X122849500Y-92673713D01*
X122849500Y-92886286D01*
X122880263Y-93080520D01*
X122882754Y-93096243D01*
X122929512Y-93240150D01*
X122948444Y-93298414D01*
X123044951Y-93487820D01*
X123169890Y-93659786D01*
X123320213Y-93810109D01*
X123492182Y-93935050D01*
X123500946Y-93939516D01*
X123551742Y-93987491D01*
X123568536Y-94055312D01*
X123545998Y-94121447D01*
X123500946Y-94160484D01*
X123492182Y-94164949D01*
X123320213Y-94289890D01*
X123169890Y-94440213D01*
X123044951Y-94612179D01*
X122948444Y-94801585D01*
X122882753Y-95003760D01*
X122852867Y-95192452D01*
X122849500Y-95213713D01*
X122849500Y-95426287D01*
X122852071Y-95442517D01*
X122864491Y-95520939D01*
X122882754Y-95636243D01*
X122946290Y-95831787D01*
X122948444Y-95838414D01*
X123044951Y-96027820D01*
X123169890Y-96199786D01*
X123320213Y-96350109D01*
X123492182Y-96475050D01*
X123500946Y-96479516D01*
X123551742Y-96527491D01*
X123568536Y-96595312D01*
X123545998Y-96661447D01*
X123500946Y-96700484D01*
X123492182Y-96704949D01*
X123320213Y-96829890D01*
X123169890Y-96980213D01*
X123044951Y-97152179D01*
X122948444Y-97341585D01*
X122882753Y-97543760D01*
X122856930Y-97706803D01*
X122849500Y-97753713D01*
X122849500Y-97966287D01*
X122882754Y-98176243D01*
X122908791Y-98256377D01*
X122948444Y-98378414D01*
X123044951Y-98567820D01*
X123169890Y-98739786D01*
X123320213Y-98890109D01*
X123492179Y-99015048D01*
X123492181Y-99015049D01*
X123492184Y-99015051D01*
X123681588Y-99111557D01*
X123883757Y-99177246D01*
X124093713Y-99210500D01*
X124093714Y-99210500D01*
X124306286Y-99210500D01*
X124306287Y-99210500D01*
X124516243Y-99177246D01*
X124718412Y-99111557D01*
X124907816Y-99015051D01*
X124929789Y-98999086D01*
X125079786Y-98890109D01*
X125079788Y-98890106D01*
X125079792Y-98890104D01*
X125230104Y-98739792D01*
X125323229Y-98611614D01*
X125378558Y-98568949D01*
X125423547Y-98560500D01*
X126608996Y-98560500D01*
X126700040Y-98542389D01*
X126744328Y-98533580D01*
X126808069Y-98507177D01*
X126871807Y-98480777D01*
X126871808Y-98480776D01*
X126871811Y-98480775D01*
X126986543Y-98404114D01*
X129253837Y-96136818D01*
X129315160Y-96103334D01*
X129341518Y-96100500D01*
X138965967Y-96100500D01*
X139033006Y-96120185D01*
X139078761Y-96172989D01*
X139088705Y-96242147D01*
X139069069Y-96293391D01*
X139034919Y-96344498D01*
X139034912Y-96344511D01*
X138978343Y-96481082D01*
X138978340Y-96481092D01*
X138949500Y-96626079D01*
X138949500Y-96626082D01*
X138949500Y-96773918D01*
X138949500Y-96773920D01*
X138949499Y-96773920D01*
X138978340Y-96918907D01*
X138978343Y-96918917D01*
X139034912Y-97055488D01*
X139034919Y-97055501D01*
X139117048Y-97178415D01*
X139117051Y-97178419D01*
X139221580Y-97282948D01*
X139221584Y-97282951D01*
X139344498Y-97365080D01*
X139344511Y-97365087D01*
X139462507Y-97413962D01*
X139481087Y-97421658D01*
X139481091Y-97421658D01*
X139481092Y-97421659D01*
X139626079Y-97450500D01*
X139626082Y-97450500D01*
X139773920Y-97450500D01*
X139871462Y-97431096D01*
X139918913Y-97421658D01*
X139937493Y-97413962D01*
X139947206Y-97409939D01*
X139994658Y-97400500D01*
X145805342Y-97400500D01*
X145852794Y-97409939D01*
X145862514Y-97413965D01*
X145881087Y-97421658D01*
X145881091Y-97421658D01*
X145881092Y-97421659D01*
X146026079Y-97450500D01*
X146026082Y-97450500D01*
X146173920Y-97450500D01*
X146271462Y-97431096D01*
X146318913Y-97421658D01*
X146455495Y-97365084D01*
X146578416Y-97282951D01*
X146682951Y-97178416D01*
X146765084Y-97055495D01*
X146821658Y-96918913D01*
X146839366Y-96829890D01*
X146850500Y-96773920D01*
X146850500Y-96626079D01*
X146821659Y-96481092D01*
X146821658Y-96481091D01*
X146821658Y-96481087D01*
X146821007Y-96479516D01*
X146765087Y-96344511D01*
X146765080Y-96344498D01*
X146682951Y-96221584D01*
X146682948Y-96221580D01*
X146578419Y-96117051D01*
X146578415Y-96117048D01*
X146455501Y-96034919D01*
X146455488Y-96034912D01*
X146414990Y-96018138D01*
X146360586Y-95974298D01*
X146338521Y-95908004D01*
X146355800Y-95840304D01*
X146374761Y-95815896D01*
X148530871Y-93659786D01*
X155144113Y-87046543D01*
X155148833Y-87039480D01*
X155220775Y-86931811D01*
X155251707Y-86857134D01*
X155273580Y-86804329D01*
X155280664Y-86768716D01*
X155300500Y-86668993D01*
X155300500Y-83610099D01*
X155320185Y-83543060D01*
X155321398Y-83541208D01*
X155331507Y-83526079D01*
X155398013Y-83426547D01*
X155465894Y-83262666D01*
X155469507Y-83244505D01*
X155500499Y-83088695D01*
X155500500Y-83088693D01*
X155500500Y-82911306D01*
X155500499Y-82911304D01*
X155465896Y-82737341D01*
X155465893Y-82737332D01*
X155461318Y-82726286D01*
X155398013Y-82573453D01*
X155398011Y-82573451D01*
X155398011Y-82573449D01*
X155321398Y-82458790D01*
X155300520Y-82392112D01*
X155300500Y-82389899D01*
X155300500Y-81110099D01*
X155320185Y-81043060D01*
X155321398Y-81041208D01*
X155398013Y-80926547D01*
X155465894Y-80762666D01*
X155481590Y-80683760D01*
X155500499Y-80588695D01*
X155500500Y-80588693D01*
X155500500Y-80549097D01*
X155520185Y-80482058D01*
X155572989Y-80436303D01*
X155642147Y-80426359D01*
X155705703Y-80455384D01*
X155712181Y-80461416D01*
X156963181Y-81712416D01*
X156996666Y-81773739D01*
X156999500Y-81800097D01*
X156999500Y-95513330D01*
X156999499Y-95513348D01*
X156999499Y-95679054D01*
X156999498Y-95679054D01*
X156999499Y-95679057D01*
X157036511Y-95817187D01*
X157040424Y-95831787D01*
X157048942Y-95846540D01*
X157048943Y-95846542D01*
X157119477Y-95968712D01*
X157119481Y-95968717D01*
X157238349Y-96087585D01*
X157238355Y-96087590D01*
X158015139Y-96864374D01*
X158015149Y-96864385D01*
X158019479Y-96868715D01*
X158019480Y-96868716D01*
X158131284Y-96980520D01*
X158218095Y-97030639D01*
X158218097Y-97030641D01*
X158261133Y-97055488D01*
X158268215Y-97059577D01*
X158420942Y-97100500D01*
X158420943Y-97100500D01*
X158825501Y-97100500D01*
X158892540Y-97120185D01*
X158938295Y-97172989D01*
X158949501Y-97224500D01*
X158949501Y-97497876D01*
X158955908Y-97557483D01*
X159006202Y-97692328D01*
X159006206Y-97692335D01*
X159092452Y-97807544D01*
X159092455Y-97807547D01*
X159207664Y-97893793D01*
X159207671Y-97893797D01*
X159342517Y-97944091D01*
X159342516Y-97944091D01*
X159349444Y-97944835D01*
X159402127Y-97950500D01*
X161397872Y-97950499D01*
X161457483Y-97944091D01*
X161592331Y-97893796D01*
X161707546Y-97807546D01*
X161793796Y-97692331D01*
X161844091Y-97557483D01*
X161850500Y-97497873D01*
X161850499Y-96818010D01*
X163709499Y-96818010D01*
X163736034Y-96951405D01*
X163736037Y-96951415D01*
X163788083Y-97077067D01*
X163788090Y-97077080D01*
X163863653Y-97190167D01*
X163863656Y-97190171D01*
X163959828Y-97286343D01*
X163959832Y-97286346D01*
X164072919Y-97361909D01*
X164072932Y-97361916D01*
X164198584Y-97413962D01*
X164198589Y-97413964D01*
X164198593Y-97413964D01*
X164198594Y-97413965D01*
X164331989Y-97440500D01*
X164331992Y-97440500D01*
X164468010Y-97440500D01*
X164562741Y-97421656D01*
X164601411Y-97413964D01*
X164719411Y-97365087D01*
X164727067Y-97361916D01*
X164727067Y-97361915D01*
X164727074Y-97361913D01*
X164840168Y-97286346D01*
X164936346Y-97190168D01*
X165011913Y-97077074D01*
X165011916Y-97077067D01*
X165028994Y-97035837D01*
X166449500Y-97035837D01*
X166449500Y-97264162D01*
X166485215Y-97489660D01*
X166555770Y-97706803D01*
X166651047Y-97893793D01*
X166659421Y-97910228D01*
X166793621Y-98094937D01*
X166955063Y-98256379D01*
X167139772Y-98390579D01*
X167235884Y-98439550D01*
X167343196Y-98494229D01*
X167343198Y-98494229D01*
X167343201Y-98494231D01*
X167459592Y-98532049D01*
X167560339Y-98564784D01*
X167785838Y-98600500D01*
X167785843Y-98600500D01*
X168014162Y-98600500D01*
X168239660Y-98564784D01*
X168252845Y-98560500D01*
X168456799Y-98494231D01*
X168660228Y-98390579D01*
X168844937Y-98256379D01*
X169006379Y-98094937D01*
X169140579Y-97910228D01*
X169244231Y-97706799D01*
X169314784Y-97489660D01*
X169325554Y-97421659D01*
X169350500Y-97264162D01*
X169350500Y-97035837D01*
X169314784Y-96810339D01*
X169271102Y-96675900D01*
X169244231Y-96593201D01*
X169244229Y-96593198D01*
X169244229Y-96593196D01*
X169157475Y-96422932D01*
X169140579Y-96389772D01*
X169006379Y-96205063D01*
X168844937Y-96043621D01*
X168660228Y-95909421D01*
X168630899Y-95894477D01*
X168456803Y-95805770D01*
X168239660Y-95735215D01*
X168014162Y-95699500D01*
X168014157Y-95699500D01*
X167785843Y-95699500D01*
X167785838Y-95699500D01*
X167560339Y-95735215D01*
X167343196Y-95805770D01*
X167139771Y-95909421D01*
X166955061Y-96043622D01*
X166793622Y-96205061D01*
X166659421Y-96389771D01*
X166555770Y-96593196D01*
X166485215Y-96810339D01*
X166449500Y-97035837D01*
X165028994Y-97035837D01*
X165050665Y-96983519D01*
X165063962Y-96951415D01*
X165063964Y-96951411D01*
X165072647Y-96907755D01*
X165090500Y-96818010D01*
X165090500Y-96681989D01*
X165063965Y-96548594D01*
X165063964Y-96548593D01*
X165063964Y-96548589D01*
X165036002Y-96481082D01*
X165011916Y-96422932D01*
X165011909Y-96422919D01*
X164936346Y-96309832D01*
X164936343Y-96309828D01*
X164840171Y-96213656D01*
X164840167Y-96213653D01*
X164727080Y-96138090D01*
X164727067Y-96138083D01*
X164601415Y-96086037D01*
X164601405Y-96086034D01*
X164468010Y-96059500D01*
X164468008Y-96059500D01*
X164331992Y-96059500D01*
X164331990Y-96059500D01*
X164198594Y-96086034D01*
X164198584Y-96086037D01*
X164072932Y-96138083D01*
X164072919Y-96138090D01*
X163959832Y-96213653D01*
X163959828Y-96213656D01*
X163863656Y-96309828D01*
X163863653Y-96309832D01*
X163788090Y-96422919D01*
X163788083Y-96422932D01*
X163736037Y-96548584D01*
X163736034Y-96548594D01*
X163709500Y-96681989D01*
X163709500Y-96681992D01*
X163709500Y-96818008D01*
X163709500Y-96818010D01*
X163709499Y-96818010D01*
X161850499Y-96818010D01*
X161850499Y-96481092D01*
X161850499Y-95502129D01*
X161850498Y-95502123D01*
X161850497Y-95502116D01*
X161844091Y-95442517D01*
X161838037Y-95426286D01*
X161793797Y-95307671D01*
X161793793Y-95307664D01*
X161707547Y-95192455D01*
X161707544Y-95192452D01*
X161592335Y-95106206D01*
X161592328Y-95106202D01*
X161457482Y-95055908D01*
X161457483Y-95055908D01*
X161397883Y-95049501D01*
X161397881Y-95049500D01*
X161397873Y-95049500D01*
X161397864Y-95049500D01*
X159402129Y-95049500D01*
X159402123Y-95049501D01*
X159342516Y-95055908D01*
X159207671Y-95106202D01*
X159207664Y-95106206D01*
X159092455Y-95192452D01*
X159092452Y-95192455D01*
X159006206Y-95307664D01*
X159006202Y-95307671D01*
X158955908Y-95442517D01*
X158949501Y-95502116D01*
X158949501Y-95502123D01*
X158949500Y-95502135D01*
X158949500Y-95775500D01*
X158946949Y-95784185D01*
X158948238Y-95793147D01*
X158937259Y-95817187D01*
X158929815Y-95842539D01*
X158922974Y-95848466D01*
X158919213Y-95856703D01*
X158896978Y-95870992D01*
X158877011Y-95888294D01*
X158866496Y-95890581D01*
X158860435Y-95894477D01*
X158825500Y-95899500D01*
X158800097Y-95899500D01*
X158733058Y-95879815D01*
X158712416Y-95863181D01*
X158236819Y-95387584D01*
X158203334Y-95326261D01*
X158200500Y-95299903D01*
X158200500Y-91885883D01*
X158950000Y-91885883D01*
X158950000Y-92114116D01*
X158985704Y-92339544D01*
X159056230Y-92556604D01*
X159159851Y-92759969D01*
X159213135Y-92833309D01*
X159213137Y-92833309D01*
X159835387Y-92211059D01*
X159840889Y-92231591D01*
X159919881Y-92368408D01*
X160031592Y-92480119D01*
X160168409Y-92559111D01*
X160188939Y-92564612D01*
X159566688Y-93186862D01*
X159566689Y-93186863D01*
X159640030Y-93240148D01*
X159843395Y-93343769D01*
X160060455Y-93414295D01*
X160285884Y-93450000D01*
X160514116Y-93450000D01*
X160739544Y-93414295D01*
X160956604Y-93343769D01*
X161159966Y-93240150D01*
X161233309Y-93186862D01*
X161233310Y-93186862D01*
X160611059Y-92564612D01*
X160631591Y-92559111D01*
X160768408Y-92480119D01*
X160880119Y-92368408D01*
X160959111Y-92231591D01*
X160964612Y-92211060D01*
X161586862Y-92833310D01*
X161586862Y-92833309D01*
X161640150Y-92759966D01*
X161743769Y-92556604D01*
X161814295Y-92339544D01*
X161850000Y-92114116D01*
X161850000Y-91885883D01*
X161839250Y-91818010D01*
X163709499Y-91818010D01*
X163736034Y-91951405D01*
X163736037Y-91951415D01*
X163788083Y-92077067D01*
X163788090Y-92077080D01*
X163863653Y-92190167D01*
X163863656Y-92190171D01*
X163959828Y-92286343D01*
X163959832Y-92286346D01*
X164072919Y-92361909D01*
X164072932Y-92361916D01*
X164198584Y-92413962D01*
X164198589Y-92413964D01*
X164198593Y-92413964D01*
X164198594Y-92413965D01*
X164331989Y-92440500D01*
X164331992Y-92440500D01*
X164468010Y-92440500D01*
X164557755Y-92422647D01*
X164601411Y-92413964D01*
X164727074Y-92361913D01*
X164840168Y-92286346D01*
X164936346Y-92190168D01*
X165011913Y-92077074D01*
X165013939Y-92072184D01*
X165052199Y-91979815D01*
X165063964Y-91951411D01*
X165074149Y-91900208D01*
X165090500Y-91818010D01*
X165090500Y-91681989D01*
X165063965Y-91548594D01*
X165063964Y-91548593D01*
X165063964Y-91548589D01*
X165047980Y-91510000D01*
X165011916Y-91422932D01*
X165011909Y-91422919D01*
X164936345Y-91309830D01*
X164862352Y-91235837D01*
X166449500Y-91235837D01*
X166449500Y-91464162D01*
X166485215Y-91689660D01*
X166555770Y-91906803D01*
X166642528Y-92077074D01*
X166659421Y-92110228D01*
X166793621Y-92294937D01*
X166955063Y-92456379D01*
X167139772Y-92590579D01*
X167235884Y-92639550D01*
X167343196Y-92694229D01*
X167343198Y-92694229D01*
X167343201Y-92694231D01*
X167459592Y-92732049D01*
X167560339Y-92764784D01*
X167785838Y-92800500D01*
X167785843Y-92800500D01*
X168014162Y-92800500D01*
X168239660Y-92764784D01*
X168254488Y-92759966D01*
X168456799Y-92694231D01*
X168660228Y-92590579D01*
X168844937Y-92456379D01*
X169006379Y-92294937D01*
X169140579Y-92110228D01*
X169244231Y-91906799D01*
X169314784Y-91689660D01*
X169350500Y-91464162D01*
X169350500Y-91235837D01*
X169314784Y-91010339D01*
X169282049Y-90909592D01*
X169244231Y-90793201D01*
X169244229Y-90793198D01*
X169244229Y-90793196D01*
X169176617Y-90660501D01*
X169140579Y-90589772D01*
X169006379Y-90405063D01*
X168844937Y-90243621D01*
X168660228Y-90109421D01*
X168456803Y-90005770D01*
X168239660Y-89935215D01*
X168014162Y-89899500D01*
X168014157Y-89899500D01*
X167785843Y-89899500D01*
X167785838Y-89899500D01*
X167560339Y-89935215D01*
X167343196Y-90005770D01*
X167139771Y-90109421D01*
X166955061Y-90243622D01*
X166793622Y-90405061D01*
X166659421Y-90589771D01*
X166555770Y-90793196D01*
X166485215Y-91010339D01*
X166449500Y-91235837D01*
X164862352Y-91235837D01*
X164840171Y-91213656D01*
X164840167Y-91213653D01*
X164727080Y-91138090D01*
X164727067Y-91138083D01*
X164601415Y-91086037D01*
X164601405Y-91086034D01*
X164468010Y-91059500D01*
X164468008Y-91059500D01*
X164331992Y-91059500D01*
X164331990Y-91059500D01*
X164198594Y-91086034D01*
X164198584Y-91086037D01*
X164072932Y-91138083D01*
X164072919Y-91138090D01*
X163959832Y-91213653D01*
X163959828Y-91213656D01*
X163863656Y-91309828D01*
X163863653Y-91309832D01*
X163788090Y-91422919D01*
X163788083Y-91422932D01*
X163736037Y-91548584D01*
X163736034Y-91548594D01*
X163709500Y-91681989D01*
X163709500Y-91681992D01*
X163709500Y-91818008D01*
X163709500Y-91818010D01*
X163709499Y-91818010D01*
X161839250Y-91818010D01*
X161819814Y-91695302D01*
X161819813Y-91695297D01*
X161814294Y-91660450D01*
X161743769Y-91443395D01*
X161640148Y-91240030D01*
X161586863Y-91166689D01*
X161586862Y-91166688D01*
X160964612Y-91788939D01*
X160959111Y-91768409D01*
X160880119Y-91631592D01*
X160768408Y-91519881D01*
X160631591Y-91440889D01*
X160611058Y-91435387D01*
X161233309Y-90813137D01*
X161233309Y-90813135D01*
X161159969Y-90759851D01*
X160956604Y-90656230D01*
X160739544Y-90585704D01*
X160514116Y-90550000D01*
X160285884Y-90550000D01*
X160060455Y-90585704D01*
X159843395Y-90656230D01*
X159640035Y-90759848D01*
X159640033Y-90759849D01*
X159566689Y-90813135D01*
X159566689Y-90813136D01*
X160188941Y-91435387D01*
X160168409Y-91440889D01*
X160031592Y-91519881D01*
X159919881Y-91631592D01*
X159840889Y-91768409D01*
X159835387Y-91788940D01*
X159213136Y-91166689D01*
X159213135Y-91166689D01*
X159159849Y-91240033D01*
X159159848Y-91240035D01*
X159056230Y-91443395D01*
X158985704Y-91660455D01*
X158950000Y-91885883D01*
X158200500Y-91885883D01*
X158200500Y-81420943D01*
X158199457Y-81417051D01*
X158194754Y-81399500D01*
X158176549Y-81331557D01*
X158159577Y-81268216D01*
X158159573Y-81268209D01*
X158080524Y-81131290D01*
X158080521Y-81131286D01*
X158080520Y-81131284D01*
X157968716Y-81019480D01*
X157968715Y-81019479D01*
X157964385Y-81015149D01*
X157964374Y-81015139D01*
X155987590Y-79038355D01*
X155987588Y-79038352D01*
X155868717Y-78919481D01*
X155868712Y-78919477D01*
X155760923Y-78857246D01*
X155760921Y-78857245D01*
X155731787Y-78840424D01*
X155731786Y-78840423D01*
X155731785Y-78840423D01*
X155579057Y-78799499D01*
X155420943Y-78799499D01*
X155413347Y-78799499D01*
X155413331Y-78799500D01*
X144489767Y-78799500D01*
X144422728Y-78779815D01*
X144420876Y-78778602D01*
X144355501Y-78734919D01*
X144355488Y-78734912D01*
X144218917Y-78678343D01*
X144218907Y-78678340D01*
X144073920Y-78649500D01*
X144073918Y-78649500D01*
X143926082Y-78649500D01*
X143926080Y-78649500D01*
X143781092Y-78678340D01*
X143781082Y-78678343D01*
X143644511Y-78734912D01*
X143644498Y-78734919D01*
X143521584Y-78817048D01*
X143521580Y-78817051D01*
X143417051Y-78921580D01*
X143417048Y-78921584D01*
X143334919Y-79044498D01*
X143334914Y-79044507D01*
X143314561Y-79093646D01*
X143270720Y-79148049D01*
X143204426Y-79170114D01*
X143136727Y-79152835D01*
X143089116Y-79101698D01*
X143085439Y-79093646D01*
X143065085Y-79044507D01*
X143065080Y-79044498D01*
X142982951Y-78921584D01*
X142982948Y-78921580D01*
X142878419Y-78817051D01*
X142878415Y-78817048D01*
X142755501Y-78734919D01*
X142755488Y-78734912D01*
X142618917Y-78678343D01*
X142618907Y-78678340D01*
X142473920Y-78649500D01*
X142473918Y-78649500D01*
X142326082Y-78649500D01*
X142326080Y-78649500D01*
X142181092Y-78678340D01*
X142181082Y-78678343D01*
X142044511Y-78734912D01*
X142044498Y-78734919D01*
X141979124Y-78778602D01*
X141912447Y-78799480D01*
X141910233Y-78799500D01*
X133700098Y-78799500D01*
X133633059Y-78779815D01*
X133612417Y-78763181D01*
X133097052Y-78247816D01*
X132411370Y-77562135D01*
X167449500Y-77562135D01*
X167449500Y-79357870D01*
X167449501Y-79357873D01*
X167455908Y-79417483D01*
X167506202Y-79552328D01*
X167506206Y-79552335D01*
X167592452Y-79667544D01*
X167592455Y-79667547D01*
X167707664Y-79753793D01*
X167707671Y-79753797D01*
X167839082Y-79802810D01*
X167895016Y-79844681D01*
X167919433Y-79910145D01*
X167904582Y-79978418D01*
X167883431Y-80006673D01*
X167769889Y-80120215D01*
X167644951Y-80292179D01*
X167548444Y-80481585D01*
X167482753Y-80683760D01*
X167466272Y-80787820D01*
X167449500Y-80893713D01*
X167449500Y-81106287D01*
X167453460Y-81131290D01*
X167476750Y-81278340D01*
X167482754Y-81316243D01*
X167531072Y-81464951D01*
X167548444Y-81518414D01*
X167644951Y-81707820D01*
X167769890Y-81879786D01*
X167920213Y-82030109D01*
X168092179Y-82155048D01*
X168092181Y-82155049D01*
X168092184Y-82155051D01*
X168281588Y-82251557D01*
X168483757Y-82317246D01*
X168693713Y-82350500D01*
X168693714Y-82350500D01*
X168906286Y-82350500D01*
X168906287Y-82350500D01*
X169116243Y-82317246D01*
X169318412Y-82251557D01*
X169507816Y-82155051D01*
X169581406Y-82101585D01*
X169679786Y-82030109D01*
X169679788Y-82030106D01*
X169679792Y-82030104D01*
X169830104Y-81879792D01*
X169830106Y-81879788D01*
X169830109Y-81879786D01*
X169955048Y-81707820D01*
X169955047Y-81707820D01*
X169955051Y-81707816D01*
X170051557Y-81518412D01*
X170117246Y-81316243D01*
X170150500Y-81106287D01*
X170150500Y-80893713D01*
X170117246Y-80683757D01*
X170051557Y-80481588D01*
X169955051Y-80292184D01*
X169955049Y-80292181D01*
X169955048Y-80292179D01*
X169830109Y-80120213D01*
X169716569Y-80006673D01*
X169683084Y-79945350D01*
X169688068Y-79875658D01*
X169729940Y-79819725D01*
X169760915Y-79802810D01*
X169892331Y-79753796D01*
X170007546Y-79667546D01*
X170093796Y-79552331D01*
X170144091Y-79417483D01*
X170150500Y-79357873D01*
X170150499Y-77562128D01*
X170144091Y-77502517D01*
X170093796Y-77367669D01*
X170093795Y-77367668D01*
X170093793Y-77367664D01*
X170007547Y-77252455D01*
X170007544Y-77252452D01*
X169892335Y-77166206D01*
X169892328Y-77166202D01*
X169757482Y-77115908D01*
X169757483Y-77115908D01*
X169697883Y-77109501D01*
X169697881Y-77109500D01*
X169697873Y-77109500D01*
X169697864Y-77109500D01*
X167902129Y-77109500D01*
X167902123Y-77109501D01*
X167842516Y-77115908D01*
X167707671Y-77166202D01*
X167707664Y-77166206D01*
X167592455Y-77252452D01*
X167592452Y-77252455D01*
X167506206Y-77367664D01*
X167506202Y-77367671D01*
X167455908Y-77502517D01*
X167449501Y-77562116D01*
X167449501Y-77562123D01*
X167449500Y-77562135D01*
X132411370Y-77562135D01*
X131847589Y-76998354D01*
X131847588Y-76998352D01*
X131728717Y-76879481D01*
X131728716Y-76879480D01*
X131641904Y-76829360D01*
X131641904Y-76829359D01*
X131641900Y-76829358D01*
X131591785Y-76800423D01*
X131439057Y-76759499D01*
X131280943Y-76759499D01*
X131273347Y-76759499D01*
X131273331Y-76759500D01*
X125365425Y-76759500D01*
X125333403Y-76750097D01*
X125301134Y-76741531D01*
X125299682Y-76740195D01*
X125298386Y-76739815D01*
X125273865Y-76719123D01*
X125269184Y-76713998D01*
X125230104Y-76660208D01*
X125114188Y-76544292D01*
X125112302Y-76542227D01*
X125098141Y-76513248D01*
X125082696Y-76484962D01*
X125082903Y-76482063D01*
X125081627Y-76479452D01*
X125085380Y-76447426D01*
X125087680Y-76415270D01*
X125089421Y-76412943D01*
X125089760Y-76410057D01*
X125110231Y-76385146D01*
X125129552Y-76359337D01*
X125132977Y-76357466D01*
X125134120Y-76356076D01*
X125137545Y-76354972D01*
X125160529Y-76342422D01*
X125292086Y-76293354D01*
X125292093Y-76293350D01*
X125407187Y-76207190D01*
X125407190Y-76207187D01*
X125493350Y-76092093D01*
X125493354Y-76092086D01*
X125543596Y-75957379D01*
X125543598Y-75957372D01*
X125549999Y-75897844D01*
X125550000Y-75897827D01*
X125550000Y-75250000D01*
X124633012Y-75250000D01*
X124665925Y-75192993D01*
X124700000Y-75065826D01*
X124700000Y-74934174D01*
X124665925Y-74807007D01*
X124633012Y-74750000D01*
X125550000Y-74750000D01*
X125550000Y-74102172D01*
X125549999Y-74102155D01*
X125543598Y-74042627D01*
X125543596Y-74042620D01*
X125493354Y-73907913D01*
X125493350Y-73907906D01*
X125407190Y-73792812D01*
X125407187Y-73792809D01*
X125292093Y-73706649D01*
X125292086Y-73706645D01*
X125157379Y-73656403D01*
X125157372Y-73656401D01*
X125097844Y-73650000D01*
X124450000Y-73650000D01*
X124450000Y-74566988D01*
X124392993Y-74534075D01*
X124265826Y-74500000D01*
X124134174Y-74500000D01*
X124007007Y-74534075D01*
X123950000Y-74566988D01*
X123950000Y-73650000D01*
X123302155Y-73650000D01*
X123242627Y-73656401D01*
X123242620Y-73656403D01*
X123107913Y-73706645D01*
X123107906Y-73706649D01*
X122992812Y-73792809D01*
X122992809Y-73792812D01*
X122906649Y-73907906D01*
X122906645Y-73907913D01*
X122856403Y-74042620D01*
X122856401Y-74042627D01*
X122850000Y-74102155D01*
X122850000Y-74750000D01*
X123766988Y-74750000D01*
X123734075Y-74807007D01*
X123700000Y-74934174D01*
X123700000Y-75065826D01*
X123734075Y-75192993D01*
X123766988Y-75250000D01*
X122850000Y-75250000D01*
X122850000Y-75897844D01*
X122856401Y-75957372D01*
X122856403Y-75957379D01*
X122906645Y-76092086D01*
X122906649Y-76092093D01*
X122992809Y-76207187D01*
X122992812Y-76207190D01*
X123107906Y-76293350D01*
X123107913Y-76293354D01*
X123239470Y-76342422D01*
X123295404Y-76384293D01*
X123319821Y-76449758D01*
X123304969Y-76518031D01*
X123283819Y-76546285D01*
X123169889Y-76660215D01*
X123044951Y-76832179D01*
X122948444Y-77021585D01*
X122882753Y-77223760D01*
X122859961Y-77367664D01*
X122849500Y-77433713D01*
X121400500Y-77433713D01*
X121400500Y-70324500D01*
X121420185Y-70257461D01*
X121472989Y-70211706D01*
X121524500Y-70200500D01*
X174375500Y-70200500D01*
X174442539Y-70220185D01*
G37*
%TD.AperFunction*%
%TD*%
M02*
