M48
; DRILL file {KiCad 9.0.2} date 2025-05-19T22:02:46+0200
; FORMAT={-:-/ absolute / inch / decimal}
; #@! TF.CreationDate,2025-05-19T22:02:46+02:00
; #@! TF.GenerationSoftware,Kicad,Pcbnew,9.0.2
; #@! TF.FileFunction,Plated,1,2,PTH
FMAT,2
INCH
; #@! TA.AperFunction,Plated,PTH,ViaDrill
T1C0.0118
; #@! TA.AperFunction,Plated,PTH,ViaDrill
T2C0.0157
; #@! TA.AperFunction,Plated,PTH,ComponentDrill
T3C0.0394
; #@! TA.AperFunction,Plated,PTH,ComponentDrill
T4C0.0472
%
G90
G05
T1
X5.3304Y-3.9055
X5.3307Y-3.811
X5.3307Y-3.8583
X5.3622Y-3.8583
X5.4488Y-3.3701
X5.4567Y-3.5984
X5.4567Y-3.685
X5.4882Y-3.7165
X5.5Y-3.8071
X5.5039Y-3.5039
X5.5197Y-3.5984
X5.5197Y-3.685
X5.5354Y-3.4016
X5.5433Y-3.3071
X5.5669Y-3.2677
X5.5984Y-2.937
X5.5984Y-2.9764
X5.5984Y-3.0157
X5.5984Y-3.0551
X5.6063Y-3.126
X5.6693Y-3.126
X5.752Y-3.8071
X5.7717Y-3.4646
X5.8504Y-3.1575
X5.8583Y-3.2283
X5.8583Y-3.2913
X5.9134Y-3.0157
X5.9724Y-3.3937
X5.9843Y-3.0157
X6.0551Y-3.0157
T2
X5.8583Y-3.3307
X6.0866Y-3.1693
X6.0866Y-3.2677
T3
X4.8898Y-2.9528
X4.8898Y-3.0528
X4.8898Y-3.1528
X4.8898Y-3.2528
X4.8898Y-3.3528
X4.8898Y-3.4528
X4.8898Y-3.5528
X4.8898Y-3.6528
X4.8898Y-3.7528
X4.8898Y-3.8528
X6.6457Y-3.089
X6.6457Y-3.189
T4
X6.315Y-3.622
X6.315Y-3.7992
X6.6102Y-3.5965
X6.6102Y-3.8248
M30
