<?xml version="1.0" encoding="UTF-8" standalone="no"?>
<!-- Created with Inkscape (http://www.inkscape.org/) -->

<svg
   width="210mm"
   height="297mm"
   viewBox="0 0 210 297"
   version="1.1"
   id="svg1"
   sodipodi:docname="logo.svg"
   inkscape:version="1.4 (e7c3feb100, 2024-10-09)"
   xmlns:inkscape="http://www.inkscape.org/namespaces/inkscape"
   xmlns:sodipodi="http://sodipodi.sourceforge.net/DTD/sodipodi-0.dtd"
   xmlns="http://www.w3.org/2000/svg"
   xmlns:svg="http://www.w3.org/2000/svg">
  <sodipodi:namedview
     id="namedview1"
     pagecolor="#505050"
     bordercolor="#ffffff"
     borderopacity="1"
     inkscape:showpageshadow="0"
     inkscape:pageopacity="0"
     inkscape:pagecheckerboard="1"
     inkscape:deskcolor="#505050"
     inkscape:document-units="mm"
     inkscape:zoom="0.44720819"
     inkscape:cx="168.82517"
     inkscape:cy="196.77636"
     inkscape:window-width="1440"
     inkscape:window-height="747"
     inkscape:window-x="0"
     inkscape:window-y="32"
     inkscape:window-maximized="1"
     inkscape:current-layer="layer1" />
  <defs
     id="defs1" />
  <g
     inkscape:label="Layer 1"
     inkscape:groupmode="layer"
     id="layer1">
    <path
       d="M 2.524365,13.952682 H 4.75138 V 6.9626875 h 1.14569 c 0.836739,0 1.32591,0.3990605 1.32591,1.0684523 0,0.6050272 -0.360442,0.9783418 -1.01696,0.9783418 H 4.081988 V 10.901801 H 5.89707 c 2.188395,0 3.643035,-1.3001651 3.643035,-3.1796113 0,-1.7249712 -1.2358,-2.703313 -3.334085,-2.703313 H 2.524365 Z m 4.956073,0 h 2.677567 L 7.737897,10.129425 H 5.304915 Z m 6.874133,0.128729 c 0.772375,0 1.583369,-0.141602 2.38149,-0.411934 L 16.24689,12.163346 c -0.527789,0.180221 -1.029833,0.270331 -1.54475,0.270331 -1.248673,0 -1.827954,-0.540662 -1.827954,-1.840826 0,-0.9525964 0.334695,-1.4417673 0.965468,-1.4417673 0.579282,0 0.913978,0.3733147 0.913978,1.0427063 h -2.149778 v 1.222927 h 4.157953 c 0.05149,-0.321823 0.09011,-0.643646 0.09011,-0.978341 0,-1.8408278 -1.055579,-2.922153 -2.857787,-2.922153 -1.995303,0 -3.321214,1.3130378 -3.321214,3.295467 0,2.03392 1.390276,3.269721 3.681655,3.269721 z m 6.539437,-0.02575 c 0.43768,0 0.926851,-0.06437 1.428894,-0.205967 l -0.424806,-1.570496 c -0.167348,0.06437 -0.347569,0.09011 -0.514917,0.09011 -0.540662,0 -0.862485,-0.283205 -0.862485,-0.746629 V 5.8298705 h -2.188396 v 5.8571775 c 0,1.493258 0.92685,2.368617 2.56171,2.368617 z M 17.431193,9.3827963 h 4.544141 V 7.6449522 h -4.544141 z m 5.857185,4.5698857 h 2.227015 V 10.10368 L 25.026222,7.6449522 h -1.737844 z m 1.827955,-3.115246 c 0.347569,-0.733756 0.952596,-1.1585626 1.647733,-1.1585626 0.283205,0 0.643646,0.064365 0.901105,0.154475 L 28.167215,7.7994273 C 27.909756,7.6706981 27.523569,7.5934606 27.137381,7.5934606 c -0.810994,0 -1.557623,0.4376792 -2.021048,1.1843085 z m 6.784028,3.243975 c 2.111159,0 3.527181,-1.36453 3.527181,-3.39845 0,-1.9180648 -1.287293,-3.166738 -3.295468,-3.166738 -2.124032,0 -3.540053,1.3645294 -3.540053,3.411323 0,1.905192 1.287292,3.153865 3.30834,3.153865 z m 0.141603,-1.853701 c -0.74663,0 -1.184309,-0.540662 -1.184309,-1.441766 0,-0.888231 0.411933,-1.4160207 1.119944,-1.4160207 0.746629,0 1.184309,0.5535355 1.184309,1.4932587 0,0.862485 -0.411934,1.364528 -1.119944,1.364528 z m 4.724362,1.724972 h 3.179611 c 3.063754,0 5.084803,-1.840828 5.084803,-4.6471233 0,-2.6904402 -1.827955,-4.286682 -4.917455,-4.286682 h -3.346959 z m 2.188396,-1.918065 V 6.9369417 h 1.029833 c 1.712099,0 2.729059,0.9783418 2.729059,2.6260754 0,1.5962419 -0.888231,2.4715999 -2.510219,2.4715999 z m 6.462205,1.918065 h 2.38149 l 2.368617,-7.9812094 h -0.6179 l 2.484473,7.9812094 h 2.458728 L 51.441453,5.0188767 H 48.596538 Z M 47.9014,12.111854 h 4.093589 L 51.531564,10.10368 h -3.179611 z m 3.578672,-7.775242 c 0.759502,0 1.274419,-0.5149168 1.274419,-1.274419 0,-0.7723751 -0.514917,-1.2872918 -1.274419,-1.2872918 -0.759502,0 -1.274419,0.5149167 -1.274419,1.2872918 0,0.7595022 0.514917,1.274419 1.274419,1.274419 z m -3.21823,0 c 0.759502,0 1.274419,-0.5149168 1.274419,-1.274419 0,-0.7723751 -0.514917,-1.2872918 -1.274419,-1.2872918 -0.759502,0 -1.274419,0.5149167 -1.274419,1.2872918 0,0.7595022 0.514917,1.274419 1.274419,1.274419 z m 11.212312,9.744799 c 0.965469,0 2.07254,-0.257459 2.754805,-0.630773 l -0.489171,-1.609115 c -0.514917,0.180221 -1.171435,0.283204 -1.724971,0.283204 -1.789336,0 -2.819169,-1.055578 -2.819169,-2.7934224 0,-1.6348607 0.913977,-2.4716004 2.535965,-2.4716004 0.695137,0 1.506131,0.1287292 1.995302,0.3346959 l 0.6179,-1.7507171 C 61.48233,5.0703683 60.64559,4.8901475 59.757359,4.8901475 c -2.870661,0 -4.878837,1.8537002 -4.878837,4.6599967 0,2.7161848 1.879447,4.5312668 4.595632,4.5312668 z m 9.152645,-0.128729 h 2.98651 l -3.43707,-5.0719296 0.0386,0.4376793 3.19249,-4.299555 h -2.69044 l -3.089504,4.2609362 z m -5.123426,0 h 2.291376 V 5.0188767 h -2.291376 z"
       id="text1"
       style="font-weight:800;font-size:25.4px;line-height:1.25;font-family:Cantarell;-inkscape-font-specification:'Cantarell Ultra-Bold';text-align:center;text-anchor:middle;fill:#ffffff;stroke-width:0.134093"
       aria-label="RetroDÄCK" />
    <path
       d="m 11.687805,18.136367 h 0.992284 l 0.98692,-3.325493 h -0.257457 l 1.035194,3.325493 h 1.024466 L 14.198016,14.41396 h -1.185378 z m 1.035193,-0.767009 h 1.705657 l -0.193093,-0.836737 h -1.324834 z m 4.714692,0.767009 h 0.92792 v -1.52329 c 0,-0.718736 -0.348641,-1.137105 -0.944011,-1.137105 -0.375459,0 -0.702645,0.166275 -0.917193,0.472006 l 0.10191,0.552461 c 0.134093,-0.14482 0.284276,-0.219912 0.466642,-0.219912 0.252094,0 0.364732,0.139457 0.364732,0.43446 z m -1.673474,0 h 0.92792 v -2.016751 l -0.257458,-0.611461 h -0.670462 z m 4.162228,0.05364 c 0.380822,0 0.691917,-0.187729 0.88501,-0.509551 l -0.155547,-0.504188 c -0.09118,0.150184 -0.24673,0.241367 -0.434459,0.241367 -0.289641,0 -0.461279,-0.225276 -0.461279,-0.611462 0,-0.364732 0.166275,-0.57928 0.450551,-0.57928 0.193093,0 0.359368,0.09655 0.450551,0.257458 l 0.193093,-0.57928 c -0.166275,-0.300367 -0.445187,-0.45055 -0.809919,-0.45055 -0.734826,0 -1.228287,0.552461 -1.228287,1.389198 0,0.815282 0.466642,1.346288 1.110286,1.346288 z m 1.008376,-0.05364 h 0.568551 v -3.963773 h -0.890373 v 3.32013 z m 2.612124,0.05364 c 0.321822,0 0.659735,-0.059 0.992285,-0.171638 l -0.203821,-0.627553 c -0.219912,0.07509 -0.429096,0.112638 -0.643644,0.112638 -0.520279,0 -0.761645,-0.225275 -0.761645,-0.767009 0,-0.396914 0.139456,-0.600734 0.402277,-0.600734 0.241367,0 0.380823,0.155547 0.380823,0.434459 h -0.895738 v 0.509552 h 1.732475 c 0.02145,-0.134093 0.03754,-0.268185 0.03754,-0.407642 0,-0.767009 -0.439823,-1.217559 -1.190741,-1.217559 -0.831373,0 -1.383834,0.547097 -1.383834,1.373107 0,0.847464 0.579279,1.362379 1.534018,1.362379 z m 1.550107,-0.05364 h 0.92792 V 16.532621 L 25.82115,15.508155 h -0.724099 z m 0.761645,-1.298015 c 0.14482,-0.305731 0.396914,-0.482733 0.686554,-0.482733 0.118001,0 0.268185,0.02682 0.375459,0.06437 l 0.209184,-0.847465 c -0.107274,-0.05364 -0.268185,-0.08582 -0.429096,-0.08582 -0.337913,0 -0.649008,0.182366 -0.842101,0.49346 z m 2.526302,1.351652 c 0.793827,0 1.244378,-0.327185 1.244378,-0.895737 0,-1.003012 -1.405289,-0.697281 -1.405289,-0.997648 0,-0.09118 0.128729,-0.14482 0.386187,-0.14482 0.209183,0 0.466641,0.03754 0.729462,0.10191 l 0.177002,-0.670463 c -0.257457,-0.08046 -0.606098,-0.128728 -0.922556,-0.128728 -0.815282,0 -1.255105,0.311094 -1.255105,0.88501 0,1.013739 1.373106,0.659735 1.373106,0.981557 0,0.10191 -0.144819,0.171639 -0.375458,0.171639 -0.23064,0 -0.563189,-0.06437 -0.836738,-0.160911 l -0.198456,0.659735 c 0.300367,0.123365 0.702644,0.198456 1.083467,0.198456 z m 2.842765,-0.05364 h 0.92792 v -2.907125 h 0.386187 c 0.375459,0 0.627552,0.203821 0.627552,0.514915 0,0.300368 -0.209184,0.482733 -0.541734,0.482733 h -0.815281 v 0.815283 h 0.649007 c 1.008375,0 1.673474,-0.552461 1.673474,-1.389198 0,-0.777737 -0.568552,-1.239015 -1.517927,-1.239015 h -1.389198 z m 3.304039,0 h 0.927923 v -2.628212 h -0.927923 z m 0.466641,-2.98758 c 0.316461,0 0.531008,-0.214548 0.531008,-0.531006 0,-0.321822 -0.214547,-0.53637 -0.531008,-0.53637 -0.316456,0 -0.531005,0.214548 -0.531005,0.53637 0,0.316458 0.214549,0.531006 0.531005,0.531006 z m 2.048938,3.041217 c 0.793828,0 1.244381,-0.327185 1.244381,-0.895737 0,-1.003012 -1.405292,-0.697281 -1.405292,-0.997648 0,-0.09118 0.128729,-0.14482 0.386187,-0.14482 0.209185,0 0.466644,0.03754 0.729464,0.10191 l 0.177003,-0.670463 c -0.257459,-0.08046 -0.606102,-0.128728 -0.922558,-0.128728 -0.815281,0 -1.255104,0.311094 -1.255104,0.88501 0,1.013739 1.373104,0.659735 1.373104,0.981557 0,0.10191 -0.14482,0.171639 -0.375458,0.171639 -0.230638,0 -0.563185,-0.06437 -0.836735,-0.160911 l -0.198456,0.659735 c 0.300365,0.123365 0.702644,0.198456 1.083464,0.198456 z m 2.896397,-0.01073 c 0.182369,0 0.386187,-0.02682 0.595372,-0.08582 L 40.362148,17.43908 c -0.06973,0.02682 -0.144821,0.03754 -0.214547,0.03754 -0.225276,0 -0.359368,-0.118001 -0.359368,-0.311094 V 14.75187 h -0.911828 v 2.440483 c 0,0.622189 0.386188,0.986921 1.067373,0.986921 z m -1.442831,-1.947023 h 1.893383 v -0.724099 h -1.893383 z m 3.663404,1.957751 c 0.879646,0 1.469657,-0.568552 1.469657,-1.416017 0,-0.799191 -0.53637,-1.31947 -1.37311,-1.31947 -0.885008,0 -1.475013,0.568553 -1.475013,1.42138 0,0.793828 0.536369,1.314107 1.378466,1.314107 z m 0.059,-0.772373 c -0.311094,0 -0.493459,-0.225275 -0.493459,-0.600734 0,-0.370096 0.171636,-0.590007 0.466638,-0.590007 0.311094,0 0.493464,0.230639 0.493464,0.622189 0,0.359368 -0.171641,0.568552 -0.466643,0.568552 z m 2.789125,0.761645 c 0.198456,0 0.407641,-0.03754 0.584644,-0.10191 l -0.182365,-0.611462 c -0.05364,0.01609 -0.112638,0.02145 -0.14482,0.02145 -0.139459,0 -0.214547,-0.08582 -0.214547,-0.252094 V 14.17259 h -0.911831 v 3.17531 c 0,0.531006 0.316461,0.831373 0.868922,0.831373 z m 1.909475,-1.067376 h 1.60911 v -0.750917 h -1.60911 z m 3.191409,1.024467 h 2.628214 v -0.804553 h -1.534021 l 0.0054,0.193093 c 0.954735,-0.697281 1.432108,-1.36238 1.432108,-2.011388 0,-0.697281 -0.547099,-1.153195 -1.389201,-1.153195 -0.48273,0 -0.922553,0.150184 -1.281925,0.445187 l 0.236005,0.68119 c 0.300365,-0.209184 0.595373,-0.316458 0.863555,-0.316458 0.370097,0 0.606097,0.198457 0.606097,0.488096 0,0.461278 -0.595368,1.019103 -1.566199,1.823658 z m 4.564509,0.05364 c 0.944011,0 1.582295,-0.772373 1.582295,-1.936295 0,-1.137105 -0.627555,-1.893386 -1.555475,-1.893386 -0.949372,0 -1.587656,0.772372 -1.587656,1.930931 0,1.137104 0.627555,1.89875 1.560836,1.89875 z m 0.02144,-0.793828 c -0.380825,0 -0.627555,-0.455914 -0.627555,-1.137104 0,-0.665098 0.24673,-1.104922 0.611464,-1.104922 0.370091,0 0.622188,0.455915 0.622188,1.142468 0,0.659735 -0.24673,1.099558 -0.606097,1.099558 z m 1.968477,0.740191 H 59.296 v -0.804553 h -1.534021 l 0.0054,0.193093 c 0.954735,-0.697281 1.432108,-1.36238 1.432108,-2.011388 0,-0.697281 -0.5471,-1.153195 -1.389201,-1.153195 -0.48273,0 -0.922553,0.150184 -1.28192,0.445187 l 0.236,0.68119 c 0.30037,-0.209184 0.595373,-0.316458 0.863555,-0.316458 0.370096,0 0.606097,0.198457 0.606097,0.488096 0,0.461278 -0.595368,1.019103 -1.566199,1.823658 z m 4.17296,0.05364 c 0.981555,0 1.609109,-0.482733 1.609109,-1.287288 0,-0.708008 -0.504192,-1.104922 -1.405292,-1.104922 -0.230638,0 -0.348638,0.02682 -0.455914,0.09655 l 0.230638,0.284275 0.04293,-0.954738 h 1.389196 v -0.809923 h -2.295664 l -0.09655,2.183025 c 0.230638,-0.04291 0.52564,-0.07509 0.745555,-0.07509 0.557823,0 0.879646,0.177001 0.879646,0.477368 0,0.252094 -0.230639,0.386187 -0.649008,0.386187 -0.321823,0 -0.681191,-0.07509 -0.949373,-0.203821 l -0.252096,0.729463 c 0.359367,0.182366 0.767008,0.278913 1.206836,0.278913 z"
       id="text2"
       style="font-weight:800;font-size:10.5833px;line-height:1.25;font-family:Cantarell;-inkscape-font-specification:'Cantarell Ultra-Bold';text-align:center;text-anchor:middle;fill:#ffffff;stroke-width:0.134093"
       aria-label="Anders Pistol - 2025" />
  </g>
</svg>
