%TF.GenerationSoftware,KiCad,Pcbnew,9.0.2*%
%TF.CreationDate,2025-07-13T15:32:31+02:00*%
%TF.ProjectId,buttboard,62757474-626f-4617-9264-2e6b69636164,rev?*%
%TF.SameCoordinates,Original*%
%TF.FileFunction,Profile,NP*%
%FSLAX46Y46*%
G04 Gerber Fmt 4.6, Leading zero omitted, Abs format (unit mm)*
G04 Created by KiCad (PCBNEW 9.0.2) date 2025-07-13 15:32:31*
%MOMM*%
%LPD*%
G01*
G04 APERTURE LIST*
%TA.AperFunction,Profile*%
%ADD10C,0.100000*%
%TD*%
G04 APERTURE END LIST*
D10*
X112500000Y-57000000D02*
X192500000Y-57000000D01*
X168000000Y-129500000D02*
G75*
G02*
X170000000Y-131500000I0J-2000000D01*
G01*
X110500000Y-59000000D02*
G75*
G02*
X112500000Y-57000000I2000000J0D01*
G01*
X192500000Y-112500000D02*
X193500000Y-112500000D01*
X110500000Y-84000000D02*
X112500000Y-84000000D01*
X193500000Y-112500000D02*
G75*
G02*
X194500000Y-113500000I0J-1000000D01*
G01*
X136000000Y-131500000D02*
G75*
G02*
X138000000Y-129500000I2000000J0D01*
G01*
X136000000Y-134600000D02*
G75*
G02*
X134000000Y-136600000I-2000000J0D01*
G01*
X112500000Y-136600000D02*
G75*
G02*
X110500000Y-134600000I0J2000000D01*
G01*
X192500000Y-57000000D02*
G75*
G02*
X194500000Y-59000000I0J-2000000D01*
G01*
X112500000Y-84000000D02*
G75*
G02*
X112500000Y-94000000I0J-5000000D01*
G01*
X194500000Y-84000000D02*
X192500000Y-84000000D01*
X138000000Y-129500000D02*
X168000000Y-129500000D01*
X172000000Y-136600000D02*
G75*
G02*
X170000000Y-134600000I0J2000000D01*
G01*
X112500000Y-94000000D02*
X110500000Y-94000000D01*
X134000000Y-136600000D02*
X112500000Y-136600000D01*
X110500000Y-84000000D02*
X110500000Y-59000000D01*
X136000000Y-131500000D02*
X136000000Y-134600000D01*
X194500000Y-84000000D02*
X194500000Y-59000000D01*
X194500000Y-134600000D02*
G75*
G02*
X192500000Y-136600000I-2000000J0D01*
G01*
X192500000Y-94000000D02*
X192500000Y-112500000D01*
X192500000Y-94000000D02*
G75*
G02*
X192500000Y-84000000I0J5000000D01*
G01*
X194500000Y-113500000D02*
X194500000Y-134600000D01*
X110500000Y-94000000D02*
X110500000Y-134600000D01*
X170000000Y-131500000D02*
X170000000Y-134600000D01*
X172000000Y-136600000D02*
X192500000Y-136600000D01*
M02*
