%TF.GenerationSoftware,KiCad,Pcbnew,9.0.2*%
%TF.CreationDate,2025-07-13T15:32:31+02:00*%
%TF.ProjectId,buttboard,62757474-626f-4617-9264-2e6b69636164,rev?*%
%TF.SameCoordinates,Original*%
%TF.FileFunction,Copper,L2,Bot*%
%TF.FilePolarity,Positive*%
%FSLAX46Y46*%
G04 Gerber Fmt 4.6, Leading zero omitted, Abs format (unit mm)*
G04 Created by KiCad (PCBNEW 9.0.2) date 2025-07-13 15:32:31*
%MOMM*%
%LPD*%
G01*
G04 APERTURE LIST*
%TA.AperFunction,ComponentPad*%
%ADD10R,1.700000X1.700000*%
%TD*%
%TA.AperFunction,ComponentPad*%
%ADD11C,1.700000*%
%TD*%
%TA.AperFunction,ComponentPad*%
%ADD12C,2.000000*%
%TD*%
%TA.AperFunction,ViaPad*%
%ADD13C,0.500000*%
%TD*%
%TA.AperFunction,ViaPad*%
%ADD14C,0.800000*%
%TD*%
%TA.AperFunction,Conductor*%
%ADD15C,0.200000*%
%TD*%
%TA.AperFunction,Conductor*%
%ADD16C,0.300000*%
%TD*%
G04 APERTURE END LIST*
D10*
%TO.P,J1,1,Pin_1*%
%TO.N,GND*%
X147420000Y-99000000D03*
D11*
%TO.P,J1,2,Pin_2*%
%TO.N,TRACKBALL_INTERRUPT*%
X149960000Y-99000000D03*
%TO.P,J1,3,Pin_3*%
%TO.N,I2C_SCL*%
X152500000Y-99000000D03*
%TO.P,J1,4,Pin_4*%
%TO.N,I2C_SDA*%
X155040000Y-99000000D03*
%TO.P,J1,5,Pin_5*%
%TO.N,3V3*%
X157580000Y-99000000D03*
%TD*%
D12*
%TO.P,SW8,1,1*%
%TO.N,BTN_D*%
X170750000Y-85250000D03*
X177250000Y-85250000D03*
%TO.P,SW8,2,2*%
%TO.N,GND*%
X170750000Y-89750000D03*
X177250000Y-89750000D03*
%TD*%
%TO.P,SW9,1,1*%
%TO.N,BTN_SELECT*%
X121750000Y-126250000D03*
X128250000Y-126250000D03*
%TO.P,SW9,2,2*%
%TO.N,GND*%
X121750000Y-130750000D03*
X128250000Y-130750000D03*
%TD*%
%TO.P,SW4,1,1*%
%TO.N,BTN_DPAD_W*%
X116250000Y-73750000D03*
X122750000Y-73750000D03*
%TO.P,SW4,2,2*%
%TO.N,GND*%
X116250000Y-78250000D03*
X122750000Y-78250000D03*
%TD*%
%TO.P,SW5,1,1*%
%TO.N,BTN_A*%
X170750000Y-62250000D03*
X177250000Y-62250000D03*
%TO.P,SW5,2,2*%
%TO.N,GND*%
X170750000Y-66750000D03*
X177250000Y-66750000D03*
%TD*%
%TO.P,SW6,1,1*%
%TO.N,BTN_B*%
X159250000Y-73750000D03*
X165750000Y-73750000D03*
%TO.P,SW6,2,2*%
%TO.N,GND*%
X159250000Y-78250000D03*
X165750000Y-78250000D03*
%TD*%
%TO.P,SW7,1,1*%
%TO.N,BTN_C*%
X182250000Y-73750000D03*
X188750000Y-73750000D03*
%TO.P,SW7,2,2*%
%TO.N,GND*%
X182250000Y-78250000D03*
X188750000Y-78250000D03*
%TD*%
%TO.P,SW10,1,1*%
%TO.N,BTN_CANCEL*%
X176750000Y-126250000D03*
X183250000Y-126250000D03*
%TO.P,SW10,2,2*%
%TO.N,GND*%
X176750000Y-130750000D03*
X183250000Y-130750000D03*
%TD*%
%TO.P,SW1,1,1*%
%TO.N,BTN_DPAD_N*%
X127750000Y-62250000D03*
X134250000Y-62250000D03*
%TO.P,SW1,2,2*%
%TO.N,GND*%
X127750000Y-66750000D03*
X134250000Y-66750000D03*
%TD*%
%TO.P,SW3,1,1*%
%TO.N,BTN_DPAD_E*%
X139250000Y-73750000D03*
X145750000Y-73750000D03*
%TO.P,SW3,2,2*%
%TO.N,GND*%
X139250000Y-78250000D03*
X145750000Y-78250000D03*
%TD*%
%TO.P,SW2,1,1*%
%TO.N,BTN_DPAD_S*%
X127750000Y-85250000D03*
X134250000Y-85250000D03*
%TO.P,SW2,2,2*%
%TO.N,GND*%
X127750000Y-89750000D03*
X134250000Y-89750000D03*
%TD*%
D13*
%TO.N,GND*%
X126000000Y-115000000D03*
X126000000Y-112000000D03*
X123000000Y-112000000D03*
X123000000Y-115000000D03*
X138000000Y-123000000D03*
X138000000Y-121000000D03*
X138000000Y-119000000D03*
X140000000Y-119000000D03*
X140000000Y-121000000D03*
X140000000Y-123000000D03*
X169000000Y-119000000D03*
X169000000Y-121000000D03*
X169000000Y-123000000D03*
X167000000Y-119000000D03*
X167000000Y-121000000D03*
X167000000Y-123000000D03*
X138000000Y-101000000D03*
X135000000Y-101000000D03*
X138000000Y-98000000D03*
X135000000Y-98000000D03*
X138000000Y-95000000D03*
X135000000Y-95000000D03*
X164000000Y-91000000D03*
X162000000Y-89000000D03*
X164000000Y-87000000D03*
X162000000Y-85000000D03*
X153000000Y-83000000D03*
X153000000Y-80000000D03*
X153000000Y-77000000D03*
X153000000Y-74000000D03*
X153000000Y-71000000D03*
X153000000Y-68000000D03*
D14*
X178300000Y-109300000D03*
D13*
%TO.N,3V3*%
X176200000Y-99000000D03*
%TO.N,BTN_SELECT*%
X182600000Y-102800000D03*
%TO.N,BTN_CANCEL*%
X182600000Y-101749992D03*
%TO.N,BTN_A*%
X187200000Y-97400000D03*
%TO.N,BTN_B*%
X186600000Y-104200000D03*
%TO.N,BTN_DPAD_E*%
X174750000Y-106150000D03*
%TO.N,BTN_DPAD_W*%
X171800000Y-107800000D03*
%TD*%
D15*
%TO.N,BTN_B*%
X186600000Y-104200000D02*
X186600000Y-99554589D01*
X186600000Y-99554589D02*
X183600000Y-96554589D01*
X183600000Y-96554589D02*
X183600000Y-87657681D01*
X183600000Y-87657681D02*
X169692319Y-73750000D01*
X169692319Y-73750000D02*
X165750000Y-73750000D01*
%TO.N,BTN_A*%
X187200000Y-97400000D02*
X185200000Y-95400000D01*
X185200000Y-95400000D02*
X185200000Y-86800087D01*
X185200000Y-86800087D02*
X174000000Y-75600087D01*
X174000000Y-75600087D02*
X174000000Y-65500000D01*
X174000000Y-65500000D02*
X177250000Y-62250000D01*
%TO.N,BTN_DPAD_W*%
X171800000Y-107800000D02*
X133000000Y-107800000D01*
X133000000Y-107800000D02*
X120400000Y-95200000D01*
X120400000Y-95200000D02*
X120400000Y-76100000D01*
X120400000Y-76100000D02*
X122750000Y-73750000D01*
%TO.N,BTN_DPAD_E*%
X174750000Y-106150000D02*
X145750000Y-106150000D01*
X145750000Y-106150000D02*
X141800000Y-102200000D01*
X141800000Y-102200000D02*
X141800000Y-76300000D01*
X141800000Y-76300000D02*
X139250000Y-73750000D01*
%TO.N,BTN_SELECT*%
X182600000Y-102800000D02*
X171000000Y-114400000D01*
X171000000Y-114400000D02*
X132600000Y-114400000D01*
X132600000Y-114400000D02*
X128250000Y-118750000D01*
X128250000Y-118750000D02*
X128250000Y-126250000D01*
%TO.N,BTN_CANCEL*%
X182600000Y-101749992D02*
X182600000Y-101750000D01*
X182600000Y-101750000D02*
X183250000Y-102400000D01*
X183250000Y-102400000D02*
X183250000Y-126250000D01*
D16*
%TO.N,3V3*%
X176200000Y-99000000D02*
X157580000Y-99000000D01*
%TD*%
%TA.AperFunction,Conductor*%
%TO.N,GND*%
G36*
X192504042Y-57000765D02*
G01*
X192518399Y-57001705D01*
X192731615Y-57015680D01*
X192741094Y-57016671D01*
X192792679Y-57024088D01*
X192799143Y-57025195D01*
X192995789Y-57064310D01*
X193006496Y-57066941D01*
X193048767Y-57079353D01*
X193053614Y-57080887D01*
X193251989Y-57148226D01*
X193263618Y-57152842D01*
X193286842Y-57163448D01*
X193290139Y-57165013D01*
X193484204Y-57260715D01*
X193492460Y-57264787D01*
X193506508Y-57272897D01*
X193710464Y-57409177D01*
X193723328Y-57419048D01*
X193907749Y-57580781D01*
X193919218Y-57592250D01*
X194080951Y-57776671D01*
X194090825Y-57789539D01*
X194227102Y-57993492D01*
X194235212Y-58007539D01*
X194334968Y-58209824D01*
X194336550Y-58213156D01*
X194347154Y-58236375D01*
X194351779Y-58248028D01*
X194419097Y-58446340D01*
X194420655Y-58451264D01*
X194433053Y-58493488D01*
X194435693Y-58504232D01*
X194474796Y-58700818D01*
X194475917Y-58707362D01*
X194483325Y-58758885D01*
X194484321Y-58768422D01*
X194499234Y-58995941D01*
X194499500Y-59004051D01*
X194499500Y-83875500D01*
X194479815Y-83942539D01*
X194427011Y-83988294D01*
X194375500Y-83999500D01*
X192281669Y-83999500D01*
X191846679Y-84037557D01*
X191846675Y-84037557D01*
X191416672Y-84113379D01*
X191416655Y-84113383D01*
X190994894Y-84226392D01*
X190584565Y-84375740D01*
X190584550Y-84375746D01*
X190188835Y-84560272D01*
X190188819Y-84560280D01*
X189810682Y-84778598D01*
X189810660Y-84778612D01*
X189749429Y-84821486D01*
X189749426Y-84821488D01*
X189745752Y-84824059D01*
X189744127Y-84825031D01*
X189737819Y-84829613D01*
X189736902Y-84830256D01*
X189736865Y-84830283D01*
X189452982Y-85029061D01*
X189389686Y-85082172D01*
X189386356Y-85084965D01*
X189380980Y-85088872D01*
X189363486Y-85104155D01*
X189362473Y-85105006D01*
X189362466Y-85105012D01*
X189118497Y-85309728D01*
X189118484Y-85309740D01*
X189054406Y-85373817D01*
X189054405Y-85373816D01*
X189051431Y-85376789D01*
X189042945Y-85384204D01*
X189019578Y-85408643D01*
X189018550Y-85409672D01*
X189018507Y-85409717D01*
X188809729Y-85618496D01*
X188809716Y-85618510D01*
X188746260Y-85694132D01*
X188746261Y-85694133D01*
X188743666Y-85697225D01*
X188732745Y-85708648D01*
X188707155Y-85740735D01*
X188706137Y-85741950D01*
X188706135Y-85741951D01*
X188529059Y-85952985D01*
X188467674Y-86040648D01*
X188467675Y-86040649D01*
X188465455Y-86043819D01*
X188452876Y-86059593D01*
X188427632Y-86097835D01*
X188426616Y-86099287D01*
X188426614Y-86099288D01*
X188278606Y-86310669D01*
X188220894Y-86410627D01*
X188219033Y-86413849D01*
X188205593Y-86434211D01*
X188182475Y-86477170D01*
X188181537Y-86478796D01*
X188181536Y-86478797D01*
X188060280Y-86688819D01*
X188060276Y-86688826D01*
X188007876Y-86801198D01*
X188006365Y-86804436D01*
X187992885Y-86829488D01*
X187973119Y-86875730D01*
X187972251Y-86877594D01*
X187875742Y-87084558D01*
X187875741Y-87084561D01*
X187830325Y-87209333D01*
X187830326Y-87209334D01*
X187829151Y-87212560D01*
X187816466Y-87242240D01*
X187800798Y-87290461D01*
X187800040Y-87292544D01*
X187726401Y-87494868D01*
X187726391Y-87494902D01*
X187689694Y-87631847D01*
X187689695Y-87631848D01*
X187688846Y-87635015D01*
X187677757Y-87669145D01*
X187666576Y-87718127D01*
X187665969Y-87720397D01*
X187613383Y-87916654D01*
X187613380Y-87916668D01*
X187587149Y-88065427D01*
X187586607Y-88068496D01*
X187577873Y-88106766D01*
X187571289Y-88155364D01*
X187570853Y-88157842D01*
X187570851Y-88157855D01*
X187537557Y-88346675D01*
X187537557Y-88346677D01*
X187523556Y-88506705D01*
X187523556Y-88506706D01*
X187523298Y-88509653D01*
X187517619Y-88551578D01*
X187515498Y-88598783D01*
X187515266Y-88601446D01*
X187499500Y-88781666D01*
X187499500Y-88955021D01*
X187497480Y-89000000D01*
X187499500Y-89044978D01*
X187499500Y-89218332D01*
X187515266Y-89398549D01*
X187515498Y-89401206D01*
X187517619Y-89448422D01*
X187523298Y-89490348D01*
X187523555Y-89493282D01*
X187523556Y-89493293D01*
X187537557Y-89653322D01*
X187537557Y-89653324D01*
X187570852Y-89842146D01*
X187570852Y-89842147D01*
X187571286Y-89844614D01*
X187577873Y-89893234D01*
X187586601Y-89931476D01*
X187587141Y-89934536D01*
X187587146Y-89934557D01*
X187592037Y-89962292D01*
X187613381Y-90083337D01*
X187613383Y-90083344D01*
X187665972Y-90279612D01*
X187666573Y-90281856D01*
X187677757Y-90330855D01*
X187688856Y-90365014D01*
X187689693Y-90368138D01*
X187689693Y-90368139D01*
X187726392Y-90505105D01*
X187800042Y-90707460D01*
X187800793Y-90709525D01*
X187816466Y-90757760D01*
X187829151Y-90787439D01*
X187830322Y-90790655D01*
X187875737Y-90915428D01*
X187875746Y-90915449D01*
X187972255Y-91122413D01*
X187973111Y-91124250D01*
X187992885Y-91170512D01*
X188006366Y-91195564D01*
X188007877Y-91198804D01*
X188060272Y-91311164D01*
X188060280Y-91311180D01*
X188181529Y-91521190D01*
X188182474Y-91522826D01*
X188205593Y-91565789D01*
X188219039Y-91586159D01*
X188220889Y-91589363D01*
X188220898Y-91589378D01*
X188222974Y-91592973D01*
X188278603Y-91689326D01*
X188278615Y-91689343D01*
X188426637Y-91900742D01*
X188427620Y-91902146D01*
X188452876Y-91940407D01*
X188465466Y-91956194D01*
X188474292Y-91968799D01*
X188529057Y-92047013D01*
X188706114Y-92258020D01*
X188707114Y-92259212D01*
X188732745Y-92291352D01*
X188743676Y-92302785D01*
X188809723Y-92381496D01*
X188809734Y-92381509D01*
X189019512Y-92591287D01*
X189042945Y-92615796D01*
X189051462Y-92623237D01*
X189118493Y-92690268D01*
X189204841Y-92762723D01*
X189362471Y-92894991D01*
X189362472Y-92894991D01*
X189363423Y-92895789D01*
X189380980Y-92911128D01*
X189386365Y-92915040D01*
X189452988Y-92970943D01*
X189452993Y-92970946D01*
X189452994Y-92970948D01*
X189736834Y-93169694D01*
X189736837Y-93169696D01*
X189737729Y-93170321D01*
X189744127Y-93174969D01*
X189745763Y-93175946D01*
X189749444Y-93178524D01*
X189787096Y-93204888D01*
X189810674Y-93221397D01*
X190188826Y-93439723D01*
X190188835Y-93439727D01*
X190584550Y-93624253D01*
X190584555Y-93624255D01*
X190584568Y-93624261D01*
X190994888Y-93773605D01*
X190994889Y-93773605D01*
X190994894Y-93773607D01*
X191127398Y-93809110D01*
X191416663Y-93886619D01*
X191846682Y-93962443D01*
X192281671Y-94000499D01*
X192281672Y-94000500D01*
X192281673Y-94000500D01*
X192375500Y-94000500D01*
X192442539Y-94020185D01*
X192488294Y-94072989D01*
X192499500Y-94124500D01*
X192499500Y-112500207D01*
X192499793Y-112500500D01*
X192500207Y-112500500D01*
X193494588Y-112500500D01*
X193505394Y-112500972D01*
X193512947Y-112501632D01*
X193651564Y-112513760D01*
X193664907Y-112515665D01*
X193694247Y-112521501D01*
X193702109Y-112523334D01*
X193826922Y-112556777D01*
X193842275Y-112561989D01*
X193859224Y-112569009D01*
X193864134Y-112571169D01*
X193989918Y-112629823D01*
X194008633Y-112640629D01*
X194133582Y-112728119D01*
X194150140Y-112742013D01*
X194257986Y-112849859D01*
X194271880Y-112866417D01*
X194359370Y-112991366D01*
X194370177Y-113010084D01*
X194428809Y-113135819D01*
X194430989Y-113140774D01*
X194438009Y-113157723D01*
X194443222Y-113173080D01*
X194476659Y-113297869D01*
X194478501Y-113305769D01*
X194484330Y-113335071D01*
X194486241Y-113348456D01*
X194499028Y-113494605D01*
X194499500Y-113505413D01*
X194499500Y-134595948D01*
X194499234Y-134604058D01*
X194484321Y-134831576D01*
X194483325Y-134841113D01*
X194475917Y-134892636D01*
X194474796Y-134899180D01*
X194435693Y-135095766D01*
X194433053Y-135106510D01*
X194420655Y-135148734D01*
X194419097Y-135153658D01*
X194351779Y-135351970D01*
X194347154Y-135363623D01*
X194347153Y-135363626D01*
X194336542Y-135386859D01*
X194334961Y-135390187D01*
X194235214Y-135592456D01*
X194227104Y-135606504D01*
X194090825Y-135810460D01*
X194080951Y-135823328D01*
X193919218Y-136007749D01*
X193907749Y-136019218D01*
X193723328Y-136180951D01*
X193710460Y-136190825D01*
X193506504Y-136327104D01*
X193492456Y-136335214D01*
X193290187Y-136434961D01*
X193286859Y-136436542D01*
X193263626Y-136447153D01*
X193251970Y-136451779D01*
X193053658Y-136519097D01*
X193048734Y-136520655D01*
X193006510Y-136533053D01*
X192995766Y-136535693D01*
X192799180Y-136574796D01*
X192792636Y-136575917D01*
X192741113Y-136583325D01*
X192731576Y-136584321D01*
X192504058Y-136599234D01*
X192495948Y-136599500D01*
X172004052Y-136599500D01*
X171995942Y-136599234D01*
X171768422Y-136584321D01*
X171758885Y-136583325D01*
X171707362Y-136575917D01*
X171700818Y-136574796D01*
X171504232Y-136535693D01*
X171493488Y-136533053D01*
X171451264Y-136520655D01*
X171446340Y-136519097D01*
X171248028Y-136451779D01*
X171236375Y-136447154D01*
X171213156Y-136436550D01*
X171209824Y-136434968D01*
X171007539Y-136335212D01*
X170993492Y-136327102D01*
X170789539Y-136190825D01*
X170776671Y-136180951D01*
X170592250Y-136019218D01*
X170580781Y-136007749D01*
X170419048Y-135823328D01*
X170409174Y-135810460D01*
X170272897Y-135606507D01*
X170264787Y-135592460D01*
X170212630Y-135486697D01*
X170165013Y-135390139D01*
X170163448Y-135386842D01*
X170152841Y-135363615D01*
X170148226Y-135351989D01*
X170080887Y-135153614D01*
X170079353Y-135148767D01*
X170066941Y-135106496D01*
X170064310Y-135095789D01*
X170025195Y-134899143D01*
X170024088Y-134892679D01*
X170016671Y-134841094D01*
X170015680Y-134831615D01*
X170000765Y-134604042D01*
X170000500Y-134595933D01*
X170000500Y-131368886D01*
X170000499Y-131368872D01*
X169998960Y-131357188D01*
X169966270Y-131108884D01*
X169898398Y-130855581D01*
X169878347Y-130807173D01*
X169876293Y-130800179D01*
X169867230Y-130780337D01*
X169854665Y-130750000D01*
X169823404Y-130674527D01*
X169805766Y-130631947D01*
X175250000Y-130631947D01*
X175250000Y-130868052D01*
X175286934Y-131101247D01*
X175359897Y-131325802D01*
X175467087Y-131536174D01*
X175527338Y-131619104D01*
X175527340Y-131619105D01*
X176226212Y-130920233D01*
X176237482Y-130962292D01*
X176309890Y-131087708D01*
X176412292Y-131190110D01*
X176537708Y-131262518D01*
X176579765Y-131273787D01*
X175880893Y-131972658D01*
X175963828Y-132032914D01*
X176174197Y-132140102D01*
X176398752Y-132213065D01*
X176398751Y-132213065D01*
X176631948Y-132250000D01*
X176868052Y-132250000D01*
X177101247Y-132213065D01*
X177325802Y-132140102D01*
X177536163Y-132032918D01*
X177536169Y-132032914D01*
X177619104Y-131972658D01*
X177619105Y-131972658D01*
X176920233Y-131273787D01*
X176962292Y-131262518D01*
X177087708Y-131190110D01*
X177190110Y-131087708D01*
X177262518Y-130962292D01*
X177273787Y-130920233D01*
X177972658Y-131619105D01*
X177972658Y-131619104D01*
X178032914Y-131536169D01*
X178032918Y-131536163D01*
X178140102Y-131325802D01*
X178213065Y-131101247D01*
X178250000Y-130868052D01*
X178250000Y-130631947D01*
X181750000Y-130631947D01*
X181750000Y-130868052D01*
X181786934Y-131101247D01*
X181859897Y-131325802D01*
X181967087Y-131536174D01*
X182027338Y-131619104D01*
X182027340Y-131619105D01*
X182726212Y-130920233D01*
X182737482Y-130962292D01*
X182809890Y-131087708D01*
X182912292Y-131190110D01*
X183037708Y-131262518D01*
X183079765Y-131273787D01*
X182380893Y-131972658D01*
X182463828Y-132032914D01*
X182674197Y-132140102D01*
X182898752Y-132213065D01*
X182898751Y-132213065D01*
X183131948Y-132250000D01*
X183368052Y-132250000D01*
X183601247Y-132213065D01*
X183825802Y-132140102D01*
X184036163Y-132032918D01*
X184036169Y-132032914D01*
X184119104Y-131972658D01*
X184119105Y-131972658D01*
X183420233Y-131273787D01*
X183462292Y-131262518D01*
X183587708Y-131190110D01*
X183690110Y-131087708D01*
X183762518Y-130962292D01*
X183773787Y-130920234D01*
X184472658Y-131619105D01*
X184472658Y-131619104D01*
X184532914Y-131536169D01*
X184532918Y-131536163D01*
X184640102Y-131325802D01*
X184713065Y-131101247D01*
X184750000Y-130868052D01*
X184750000Y-130631947D01*
X184713065Y-130398752D01*
X184640102Y-130174197D01*
X184532914Y-129963828D01*
X184472658Y-129880894D01*
X184472658Y-129880893D01*
X183773787Y-130579765D01*
X183762518Y-130537708D01*
X183690110Y-130412292D01*
X183587708Y-130309890D01*
X183462292Y-130237482D01*
X183420234Y-130226212D01*
X184119105Y-129527340D01*
X184119104Y-129527338D01*
X184036174Y-129467087D01*
X183825802Y-129359897D01*
X183601247Y-129286934D01*
X183601248Y-129286934D01*
X183368052Y-129250000D01*
X183131948Y-129250000D01*
X182898752Y-129286934D01*
X182674197Y-129359897D01*
X182463830Y-129467084D01*
X182380894Y-129527340D01*
X183079766Y-130226212D01*
X183037708Y-130237482D01*
X182912292Y-130309890D01*
X182809890Y-130412292D01*
X182737482Y-130537708D01*
X182726212Y-130579765D01*
X182027340Y-129880894D01*
X181967084Y-129963830D01*
X181859897Y-130174197D01*
X181786934Y-130398752D01*
X181750000Y-130631947D01*
X178250000Y-130631947D01*
X178213065Y-130398752D01*
X178140102Y-130174197D01*
X178032914Y-129963828D01*
X177972658Y-129880894D01*
X177972658Y-129880893D01*
X177273787Y-130579765D01*
X177262518Y-130537708D01*
X177190110Y-130412292D01*
X177087708Y-130309890D01*
X176962292Y-130237482D01*
X176920234Y-130226212D01*
X177619105Y-129527340D01*
X177619104Y-129527339D01*
X177536174Y-129467087D01*
X177325802Y-129359897D01*
X177101247Y-129286934D01*
X177101248Y-129286934D01*
X176868052Y-129250000D01*
X176631948Y-129250000D01*
X176398752Y-129286934D01*
X176174197Y-129359897D01*
X175963830Y-129467084D01*
X175880894Y-129527340D01*
X176579766Y-130226212D01*
X176537708Y-130237482D01*
X176412292Y-130309890D01*
X176309890Y-130412292D01*
X176237482Y-130537708D01*
X176226212Y-130579766D01*
X175527340Y-129880894D01*
X175467084Y-129963830D01*
X175359897Y-130174197D01*
X175286934Y-130398752D01*
X175250000Y-130631947D01*
X169805766Y-130631947D01*
X169798045Y-130613307D01*
X169798037Y-130613291D01*
X169767055Y-130559630D01*
X169767054Y-130559629D01*
X169767049Y-130559620D01*
X169764098Y-130554508D01*
X169757600Y-130540278D01*
X169740703Y-130513986D01*
X169666924Y-130386197D01*
X169666916Y-130386187D01*
X169618703Y-130323355D01*
X169615553Y-130319250D01*
X169603127Y-130299914D01*
X169582063Y-130275605D01*
X169579825Y-130272688D01*
X169507284Y-130178151D01*
X169503330Y-130174197D01*
X169434888Y-130105755D01*
X169416020Y-130083980D01*
X169394244Y-130065111D01*
X169391115Y-130061982D01*
X169321851Y-129992718D01*
X169284201Y-129963828D01*
X169227318Y-129920179D01*
X169224387Y-129917930D01*
X169200086Y-129896873D01*
X169180757Y-129884451D01*
X169176652Y-129881301D01*
X169113811Y-129833082D01*
X169113809Y-129833080D01*
X169113803Y-129833076D01*
X169113798Y-129833073D01*
X169113795Y-129833071D01*
X168988585Y-129760781D01*
X168986011Y-129759295D01*
X168959722Y-129742400D01*
X168945481Y-129735896D01*
X168886697Y-129701957D01*
X168886695Y-129701956D01*
X168855803Y-129689160D01*
X168855801Y-129689159D01*
X168721708Y-129633615D01*
X168721708Y-129633614D01*
X168719626Y-129632751D01*
X168699821Y-129623707D01*
X168692838Y-129621656D01*
X168686697Y-129619113D01*
X168686687Y-129619110D01*
X168644428Y-129601605D01*
X168644421Y-129601603D01*
X168644419Y-129601602D01*
X168391116Y-129533730D01*
X168333339Y-129526123D01*
X168131127Y-129499500D01*
X168131120Y-129499500D01*
X168000207Y-129499500D01*
X138000500Y-129499500D01*
X138000000Y-129499500D01*
X137868880Y-129499500D01*
X137868872Y-129499500D01*
X137637772Y-129529926D01*
X137608884Y-129533730D01*
X137478631Y-129568631D01*
X137355577Y-129601603D01*
X137313301Y-129619113D01*
X137313300Y-129619112D01*
X137307144Y-129621661D01*
X137300179Y-129623707D01*
X137280404Y-129632737D01*
X137278330Y-129633597D01*
X137278291Y-129633615D01*
X137113304Y-129701956D01*
X137113301Y-129701957D01*
X137059623Y-129732946D01*
X137059624Y-129732947D01*
X137054503Y-129735903D01*
X137040278Y-129742400D01*
X137013989Y-129759294D01*
X137011422Y-129760777D01*
X136886197Y-129833076D01*
X136886187Y-129833082D01*
X136823349Y-129881300D01*
X136819239Y-129884453D01*
X136799914Y-129896873D01*
X136775629Y-129917915D01*
X136772690Y-129920171D01*
X136772679Y-129920181D01*
X136678141Y-129992724D01*
X136678139Y-129992726D01*
X136608881Y-130061983D01*
X136605732Y-130065131D01*
X136583980Y-130083980D01*
X136565131Y-130105732D01*
X136561983Y-130108881D01*
X136492726Y-130178139D01*
X136492724Y-130178141D01*
X136420181Y-130272679D01*
X136420180Y-130272678D01*
X136417913Y-130275631D01*
X136396873Y-130299914D01*
X136384453Y-130319239D01*
X136381300Y-130323349D01*
X136333082Y-130386187D01*
X136333076Y-130386197D01*
X136260777Y-130511422D01*
X136259294Y-130513990D01*
X136242400Y-130540278D01*
X136235904Y-130554500D01*
X136232949Y-130559620D01*
X136201957Y-130613301D01*
X136201956Y-130613304D01*
X136133615Y-130778291D01*
X136133614Y-130778290D01*
X136132741Y-130780395D01*
X136123707Y-130800179D01*
X136121661Y-130807144D01*
X136119114Y-130813295D01*
X136119113Y-130813301D01*
X136101603Y-130855577D01*
X136101602Y-130855581D01*
X136035777Y-131101247D01*
X136033730Y-131108885D01*
X135999500Y-131368872D01*
X135999500Y-134595948D01*
X135999234Y-134604058D01*
X135984321Y-134831576D01*
X135983325Y-134841113D01*
X135975917Y-134892636D01*
X135974796Y-134899180D01*
X135935693Y-135095766D01*
X135933053Y-135106510D01*
X135920655Y-135148734D01*
X135919097Y-135153658D01*
X135851779Y-135351970D01*
X135847154Y-135363623D01*
X135847153Y-135363626D01*
X135836542Y-135386859D01*
X135834961Y-135390187D01*
X135735214Y-135592456D01*
X135727104Y-135606504D01*
X135590825Y-135810460D01*
X135580951Y-135823328D01*
X135419218Y-136007749D01*
X135407749Y-136019218D01*
X135223328Y-136180951D01*
X135210460Y-136190825D01*
X135006504Y-136327104D01*
X134992456Y-136335214D01*
X134790187Y-136434961D01*
X134786859Y-136436542D01*
X134763626Y-136447153D01*
X134751970Y-136451779D01*
X134553658Y-136519097D01*
X134548734Y-136520655D01*
X134506510Y-136533053D01*
X134495766Y-136535693D01*
X134299180Y-136574796D01*
X134292636Y-136575917D01*
X134241113Y-136583325D01*
X134231576Y-136584321D01*
X134004058Y-136599234D01*
X133995948Y-136599500D01*
X112504052Y-136599500D01*
X112495942Y-136599234D01*
X112268422Y-136584321D01*
X112258885Y-136583325D01*
X112207362Y-136575917D01*
X112200818Y-136574796D01*
X112004232Y-136535693D01*
X111993488Y-136533053D01*
X111951264Y-136520655D01*
X111946340Y-136519097D01*
X111748028Y-136451779D01*
X111736375Y-136447154D01*
X111713156Y-136436550D01*
X111709824Y-136434968D01*
X111507539Y-136335212D01*
X111493492Y-136327102D01*
X111289539Y-136190825D01*
X111276671Y-136180951D01*
X111092250Y-136019218D01*
X111080781Y-136007749D01*
X110919048Y-135823328D01*
X110909174Y-135810460D01*
X110772897Y-135606507D01*
X110764787Y-135592460D01*
X110712630Y-135486697D01*
X110665013Y-135390139D01*
X110663448Y-135386842D01*
X110652841Y-135363615D01*
X110648226Y-135351989D01*
X110580887Y-135153614D01*
X110579353Y-135148767D01*
X110566941Y-135106496D01*
X110564310Y-135095789D01*
X110525195Y-134899143D01*
X110524088Y-134892679D01*
X110516671Y-134841094D01*
X110515680Y-134831615D01*
X110500765Y-134604042D01*
X110500500Y-134595933D01*
X110500500Y-130631947D01*
X120250000Y-130631947D01*
X120250000Y-130868052D01*
X120286934Y-131101247D01*
X120359897Y-131325802D01*
X120467087Y-131536174D01*
X120527338Y-131619104D01*
X120527340Y-131619105D01*
X121226212Y-130920233D01*
X121237482Y-130962292D01*
X121309890Y-131087708D01*
X121412292Y-131190110D01*
X121537708Y-131262518D01*
X121579765Y-131273787D01*
X120880893Y-131972658D01*
X120963828Y-132032914D01*
X121174197Y-132140102D01*
X121398752Y-132213065D01*
X121398751Y-132213065D01*
X121631948Y-132250000D01*
X121868052Y-132250000D01*
X122101247Y-132213065D01*
X122325802Y-132140102D01*
X122536163Y-132032918D01*
X122536169Y-132032914D01*
X122619104Y-131972658D01*
X122619105Y-131972658D01*
X121920233Y-131273787D01*
X121962292Y-131262518D01*
X122087708Y-131190110D01*
X122190110Y-131087708D01*
X122262518Y-130962292D01*
X122273787Y-130920233D01*
X122972658Y-131619105D01*
X122972658Y-131619104D01*
X123032914Y-131536169D01*
X123032918Y-131536163D01*
X123140102Y-131325802D01*
X123213065Y-131101247D01*
X123250000Y-130868052D01*
X123250000Y-130631947D01*
X126750000Y-130631947D01*
X126750000Y-130868052D01*
X126786934Y-131101247D01*
X126859897Y-131325802D01*
X126967087Y-131536174D01*
X127027338Y-131619104D01*
X127027340Y-131619105D01*
X127726212Y-130920233D01*
X127737482Y-130962292D01*
X127809890Y-131087708D01*
X127912292Y-131190110D01*
X128037708Y-131262518D01*
X128079765Y-131273787D01*
X127380893Y-131972658D01*
X127463828Y-132032914D01*
X127674197Y-132140102D01*
X127898752Y-132213065D01*
X127898751Y-132213065D01*
X128131948Y-132250000D01*
X128368052Y-132250000D01*
X128601247Y-132213065D01*
X128825802Y-132140102D01*
X129036163Y-132032918D01*
X129036169Y-132032914D01*
X129119104Y-131972658D01*
X129119105Y-131972658D01*
X128420233Y-131273787D01*
X128462292Y-131262518D01*
X128587708Y-131190110D01*
X128690110Y-131087708D01*
X128762518Y-130962292D01*
X128773787Y-130920234D01*
X129472658Y-131619105D01*
X129472658Y-131619104D01*
X129532914Y-131536169D01*
X129532918Y-131536163D01*
X129640102Y-131325802D01*
X129713065Y-131101247D01*
X129750000Y-130868052D01*
X129750000Y-130631947D01*
X129713065Y-130398752D01*
X129640102Y-130174197D01*
X129532914Y-129963828D01*
X129472658Y-129880894D01*
X129472658Y-129880893D01*
X128773787Y-130579765D01*
X128762518Y-130537708D01*
X128690110Y-130412292D01*
X128587708Y-130309890D01*
X128462292Y-130237482D01*
X128420234Y-130226212D01*
X129119105Y-129527340D01*
X129119104Y-129527338D01*
X129036174Y-129467087D01*
X128825802Y-129359897D01*
X128601247Y-129286934D01*
X128601248Y-129286934D01*
X128368052Y-129250000D01*
X128131948Y-129250000D01*
X127898752Y-129286934D01*
X127674197Y-129359897D01*
X127463830Y-129467084D01*
X127380894Y-129527340D01*
X128079766Y-130226212D01*
X128037708Y-130237482D01*
X127912292Y-130309890D01*
X127809890Y-130412292D01*
X127737482Y-130537708D01*
X127726212Y-130579766D01*
X127027340Y-129880894D01*
X126967084Y-129963830D01*
X126859897Y-130174197D01*
X126786934Y-130398752D01*
X126750000Y-130631947D01*
X123250000Y-130631947D01*
X123213065Y-130398752D01*
X123140102Y-130174197D01*
X123032914Y-129963828D01*
X122972658Y-129880894D01*
X122972658Y-129880893D01*
X122273787Y-130579765D01*
X122262518Y-130537708D01*
X122190110Y-130412292D01*
X122087708Y-130309890D01*
X121962292Y-130237482D01*
X121920234Y-130226212D01*
X122619105Y-129527340D01*
X122619104Y-129527339D01*
X122536174Y-129467087D01*
X122325802Y-129359897D01*
X122101247Y-129286934D01*
X122101248Y-129286934D01*
X121868052Y-129250000D01*
X121631948Y-129250000D01*
X121398752Y-129286934D01*
X121174197Y-129359897D01*
X120963830Y-129467084D01*
X120880894Y-129527340D01*
X121579766Y-130226212D01*
X121537708Y-130237482D01*
X121412292Y-130309890D01*
X121309890Y-130412292D01*
X121237482Y-130537708D01*
X121226212Y-130579766D01*
X120527340Y-129880894D01*
X120467084Y-129963830D01*
X120359897Y-130174197D01*
X120286934Y-130398752D01*
X120250000Y-130631947D01*
X110500500Y-130631947D01*
X110500500Y-126131902D01*
X120249500Y-126131902D01*
X120249500Y-126368097D01*
X120286446Y-126601368D01*
X120359433Y-126825996D01*
X120466657Y-127036433D01*
X120605483Y-127227510D01*
X120772490Y-127394517D01*
X120963567Y-127533343D01*
X121062991Y-127584002D01*
X121174003Y-127640566D01*
X121174005Y-127640566D01*
X121174008Y-127640568D01*
X121294412Y-127679689D01*
X121398631Y-127713553D01*
X121631903Y-127750500D01*
X121631908Y-127750500D01*
X121868097Y-127750500D01*
X122101368Y-127713553D01*
X122325992Y-127640568D01*
X122536433Y-127533343D01*
X122727510Y-127394517D01*
X122894517Y-127227510D01*
X123033343Y-127036433D01*
X123140568Y-126825992D01*
X123213553Y-126601368D01*
X123244082Y-126408615D01*
X123250500Y-126368097D01*
X123250500Y-126131902D01*
X126749500Y-126131902D01*
X126749500Y-126368097D01*
X126786446Y-126601368D01*
X126859433Y-126825996D01*
X126966657Y-127036433D01*
X127105483Y-127227510D01*
X127272490Y-127394517D01*
X127463567Y-127533343D01*
X127562991Y-127584002D01*
X127674003Y-127640566D01*
X127674005Y-127640566D01*
X127674008Y-127640568D01*
X127794412Y-127679689D01*
X127898631Y-127713553D01*
X128131903Y-127750500D01*
X128131908Y-127750500D01*
X128368097Y-127750500D01*
X128601368Y-127713553D01*
X128825992Y-127640568D01*
X129036433Y-127533343D01*
X129227510Y-127394517D01*
X129394517Y-127227510D01*
X129533343Y-127036433D01*
X129640568Y-126825992D01*
X129713553Y-126601368D01*
X129744082Y-126408615D01*
X129750500Y-126368097D01*
X129750500Y-126131902D01*
X129713553Y-125898631D01*
X129679689Y-125794412D01*
X129640568Y-125674008D01*
X129640566Y-125674005D01*
X129640566Y-125674003D01*
X129533342Y-125463566D01*
X129394517Y-125272490D01*
X129227510Y-125105483D01*
X129036433Y-124966657D01*
X128916255Y-124905423D01*
X128914315Y-124904346D01*
X128899384Y-124889205D01*
X151309500Y-124889205D01*
X151309500Y-125110794D01*
X151309501Y-125110810D01*
X151338424Y-125330504D01*
X151395780Y-125544559D01*
X151480581Y-125749286D01*
X151480585Y-125749296D01*
X151591384Y-125941206D01*
X151726286Y-126117014D01*
X151726292Y-126117021D01*
X151882978Y-126273707D01*
X151882985Y-126273713D01*
X152058793Y-126408615D01*
X152250703Y-126519414D01*
X152250704Y-126519414D01*
X152250707Y-126519416D01*
X152455441Y-126604220D01*
X152669492Y-126661575D01*
X152889199Y-126690500D01*
X152889206Y-126690500D01*
X153110794Y-126690500D01*
X153110801Y-126690500D01*
X153330508Y-126661575D01*
X153544559Y-126604220D01*
X153749293Y-126519416D01*
X153941207Y-126408615D01*
X154117016Y-126273712D01*
X154258826Y-126131902D01*
X175249500Y-126131902D01*
X175249500Y-126368097D01*
X175286446Y-126601368D01*
X175359433Y-126825996D01*
X175466657Y-127036433D01*
X175605483Y-127227510D01*
X175772490Y-127394517D01*
X175963567Y-127533343D01*
X176062991Y-127584002D01*
X176174003Y-127640566D01*
X176174005Y-127640566D01*
X176174008Y-127640568D01*
X176294412Y-127679689D01*
X176398631Y-127713553D01*
X176631903Y-127750500D01*
X176631908Y-127750500D01*
X176868097Y-127750500D01*
X177101368Y-127713553D01*
X177325992Y-127640568D01*
X177536433Y-127533343D01*
X177727510Y-127394517D01*
X177894517Y-127227510D01*
X178033343Y-127036433D01*
X178140568Y-126825992D01*
X178213553Y-126601368D01*
X178244082Y-126408615D01*
X178250500Y-126368097D01*
X178250500Y-126131902D01*
X178213553Y-125898631D01*
X178179689Y-125794412D01*
X178140568Y-125674008D01*
X178140566Y-125674005D01*
X178140566Y-125674003D01*
X178033342Y-125463566D01*
X177894517Y-125272490D01*
X177727510Y-125105483D01*
X177536433Y-124966657D01*
X177536429Y-124966655D01*
X177325996Y-124859433D01*
X177101368Y-124786446D01*
X176868097Y-124749500D01*
X176868092Y-124749500D01*
X176631908Y-124749500D01*
X176631903Y-124749500D01*
X176398631Y-124786446D01*
X176174003Y-124859433D01*
X175963566Y-124966657D01*
X175854550Y-125045862D01*
X175772490Y-125105483D01*
X175772488Y-125105485D01*
X175772487Y-125105485D01*
X175605485Y-125272487D01*
X175605485Y-125272488D01*
X175605483Y-125272490D01*
X175563333Y-125330504D01*
X175466657Y-125463566D01*
X175359433Y-125674003D01*
X175286446Y-125898631D01*
X175249500Y-126131902D01*
X154258826Y-126131902D01*
X154273712Y-126117016D01*
X154408615Y-125941207D01*
X154519416Y-125749293D01*
X154604220Y-125544559D01*
X154661575Y-125330508D01*
X154690500Y-125110801D01*
X154690500Y-124889199D01*
X154661575Y-124669492D01*
X154604220Y-124455441D01*
X154519416Y-124250707D01*
X154408615Y-124058793D01*
X154273712Y-123882984D01*
X154273707Y-123882978D01*
X154117021Y-123726292D01*
X154117014Y-123726286D01*
X153941206Y-123591384D01*
X153749296Y-123480585D01*
X153749286Y-123480581D01*
X153544559Y-123395780D01*
X153330504Y-123338424D01*
X153110810Y-123309501D01*
X153110807Y-123309500D01*
X153110801Y-123309500D01*
X152889199Y-123309500D01*
X152889193Y-123309500D01*
X152889189Y-123309501D01*
X152669495Y-123338424D01*
X152455440Y-123395780D01*
X152250713Y-123480581D01*
X152250703Y-123480585D01*
X152058793Y-123591384D01*
X151882985Y-123726286D01*
X151882978Y-123726292D01*
X151726292Y-123882978D01*
X151726286Y-123882985D01*
X151591384Y-124058793D01*
X151480585Y-124250703D01*
X151480581Y-124250713D01*
X151395780Y-124455440D01*
X151338424Y-124669495D01*
X151309501Y-124889189D01*
X151309500Y-124889205D01*
X128899384Y-124889205D01*
X128891269Y-124880976D01*
X128867409Y-124858441D01*
X128866789Y-124856152D01*
X128865255Y-124854596D01*
X128861370Y-124836116D01*
X128850500Y-124795931D01*
X128850500Y-119050097D01*
X128870185Y-118983058D01*
X128886819Y-118962416D01*
X132812416Y-115036819D01*
X132873739Y-115003334D01*
X132900097Y-115000500D01*
X170913331Y-115000500D01*
X170913347Y-115000501D01*
X170920943Y-115000501D01*
X171079054Y-115000501D01*
X171079057Y-115000501D01*
X171231785Y-114959577D01*
X171281904Y-114930639D01*
X171368716Y-114880520D01*
X171480520Y-114768716D01*
X171480520Y-114768714D01*
X171490728Y-114758507D01*
X171490729Y-114758504D01*
X182437821Y-103811413D01*
X182499142Y-103777930D01*
X182568834Y-103782914D01*
X182624767Y-103824786D01*
X182649184Y-103890250D01*
X182649500Y-103899096D01*
X182649500Y-124795931D01*
X182629815Y-124862970D01*
X182581796Y-124906415D01*
X182463568Y-124966655D01*
X182329896Y-125063774D01*
X182272490Y-125105483D01*
X182272488Y-125105485D01*
X182272487Y-125105485D01*
X182105485Y-125272487D01*
X182105485Y-125272488D01*
X182105483Y-125272490D01*
X182063333Y-125330504D01*
X181966657Y-125463566D01*
X181859433Y-125674003D01*
X181786446Y-125898631D01*
X181749500Y-126131902D01*
X181749500Y-126368097D01*
X181786446Y-126601368D01*
X181859433Y-126825996D01*
X181966657Y-127036433D01*
X182105483Y-127227510D01*
X182272490Y-127394517D01*
X182463567Y-127533343D01*
X182562991Y-127584002D01*
X182674003Y-127640566D01*
X182674005Y-127640566D01*
X182674008Y-127640568D01*
X182794412Y-127679689D01*
X182898631Y-127713553D01*
X183131903Y-127750500D01*
X183131908Y-127750500D01*
X183368097Y-127750500D01*
X183601368Y-127713553D01*
X183825992Y-127640568D01*
X184036433Y-127533343D01*
X184227510Y-127394517D01*
X184394517Y-127227510D01*
X184533343Y-127036433D01*
X184640568Y-126825992D01*
X184713553Y-126601368D01*
X184744082Y-126408615D01*
X184750500Y-126368097D01*
X184750500Y-126131902D01*
X184713553Y-125898631D01*
X184679689Y-125794412D01*
X184640568Y-125674008D01*
X184640566Y-125674005D01*
X184640566Y-125674003D01*
X184533342Y-125463566D01*
X184394517Y-125272490D01*
X184227510Y-125105483D01*
X184131971Y-125036070D01*
X184036431Y-124966655D01*
X183918204Y-124906415D01*
X183867409Y-124858441D01*
X183850500Y-124795931D01*
X183850500Y-116889205D01*
X187809500Y-116889205D01*
X187809500Y-117110794D01*
X187809501Y-117110810D01*
X187838424Y-117330504D01*
X187895780Y-117544559D01*
X187980581Y-117749286D01*
X187980585Y-117749296D01*
X188091384Y-117941206D01*
X188226286Y-118117014D01*
X188226292Y-118117021D01*
X188382978Y-118273707D01*
X188382985Y-118273713D01*
X188558791Y-118408614D01*
X188750703Y-118519414D01*
X188750704Y-118519414D01*
X188750707Y-118519416D01*
X188955441Y-118604220D01*
X189169492Y-118661575D01*
X189389199Y-118690500D01*
X189389206Y-118690500D01*
X189610794Y-118690500D01*
X189610801Y-118690500D01*
X189830508Y-118661575D01*
X190044559Y-118604220D01*
X190249293Y-118519416D01*
X190441207Y-118408615D01*
X190441208Y-118408614D01*
X190441209Y-118408614D01*
X190529111Y-118341163D01*
X190617016Y-118273712D01*
X190773712Y-118117016D01*
X190908615Y-117941207D01*
X191019416Y-117749293D01*
X191104220Y-117544559D01*
X191161575Y-117330508D01*
X191190500Y-117110801D01*
X191190500Y-116889199D01*
X191161575Y-116669492D01*
X191104220Y-116455441D01*
X191019416Y-116250707D01*
X190908615Y-116058793D01*
X190773712Y-115882984D01*
X190773707Y-115882978D01*
X190617021Y-115726292D01*
X190617014Y-115726286D01*
X190441206Y-115591384D01*
X190249296Y-115480585D01*
X190249286Y-115480581D01*
X190044559Y-115395780D01*
X189830504Y-115338424D01*
X189610810Y-115309501D01*
X189610807Y-115309500D01*
X189610801Y-115309500D01*
X189389199Y-115309500D01*
X189389193Y-115309500D01*
X189389189Y-115309501D01*
X189169495Y-115338424D01*
X188955440Y-115395780D01*
X188750713Y-115480581D01*
X188750703Y-115480585D01*
X188558793Y-115591384D01*
X188382985Y-115726286D01*
X188382978Y-115726292D01*
X188226292Y-115882978D01*
X188226286Y-115882985D01*
X188091384Y-116058793D01*
X187980585Y-116250703D01*
X187980581Y-116250713D01*
X187895780Y-116455440D01*
X187838424Y-116669495D01*
X187809501Y-116889189D01*
X187809500Y-116889205D01*
X183850500Y-116889205D01*
X183850500Y-102489059D01*
X183850501Y-102489046D01*
X183850501Y-102320945D01*
X183850501Y-102320943D01*
X183809577Y-102168215D01*
X183773361Y-102105487D01*
X183773361Y-102105486D01*
X183730524Y-102031290D01*
X183730521Y-102031286D01*
X183730520Y-102031284D01*
X183618716Y-101919480D01*
X183618715Y-101919479D01*
X183614385Y-101915149D01*
X183614374Y-101915139D01*
X183370936Y-101671701D01*
X183337451Y-101610378D01*
X183337027Y-101608348D01*
X183321658Y-101531079D01*
X183321656Y-101531074D01*
X183265087Y-101394503D01*
X183265080Y-101394490D01*
X183182951Y-101271576D01*
X183182948Y-101271572D01*
X183078419Y-101167043D01*
X183078415Y-101167040D01*
X182955501Y-101084911D01*
X182955488Y-101084904D01*
X182818917Y-101028335D01*
X182818907Y-101028332D01*
X182673920Y-100999492D01*
X182673918Y-100999492D01*
X182526082Y-100999492D01*
X182526080Y-100999492D01*
X182381092Y-101028332D01*
X182381082Y-101028335D01*
X182244511Y-101084904D01*
X182244498Y-101084911D01*
X182121584Y-101167040D01*
X182121580Y-101167043D01*
X182017051Y-101271572D01*
X182017048Y-101271576D01*
X181934919Y-101394490D01*
X181934912Y-101394503D01*
X181878343Y-101531074D01*
X181878340Y-101531084D01*
X181849500Y-101676071D01*
X181849500Y-101676074D01*
X181849500Y-101823910D01*
X181849500Y-101823912D01*
X181849499Y-101823912D01*
X181878340Y-101968899D01*
X181878343Y-101968909D01*
X181934912Y-102105480D01*
X181934919Y-102105493D01*
X182002146Y-102206105D01*
X182023024Y-102272783D01*
X182004539Y-102340163D01*
X182002146Y-102343887D01*
X181934919Y-102444498D01*
X181934912Y-102444511D01*
X181878342Y-102581084D01*
X181878340Y-102581092D01*
X181863000Y-102658210D01*
X181830615Y-102720121D01*
X181829064Y-102721699D01*
X170787584Y-113763181D01*
X170726261Y-113796666D01*
X170699903Y-113799500D01*
X132686669Y-113799500D01*
X132686653Y-113799499D01*
X132679057Y-113799499D01*
X132520943Y-113799499D01*
X132413587Y-113828265D01*
X132368210Y-113840424D01*
X132368209Y-113840425D01*
X132318096Y-113869359D01*
X132318095Y-113869360D01*
X132274689Y-113894420D01*
X132231285Y-113919479D01*
X132231282Y-113919481D01*
X127883752Y-118267011D01*
X127883743Y-118267020D01*
X127881286Y-118269478D01*
X127881284Y-118269480D01*
X127769480Y-118381284D01*
X127753701Y-118408615D01*
X127690423Y-118518215D01*
X127649499Y-118670943D01*
X127649499Y-118670945D01*
X127649499Y-118839046D01*
X127649500Y-118839059D01*
X127649500Y-124795931D01*
X127629815Y-124862970D01*
X127581796Y-124906415D01*
X127463568Y-124966655D01*
X127329896Y-125063774D01*
X127272490Y-125105483D01*
X127272488Y-125105485D01*
X127272487Y-125105485D01*
X127105485Y-125272487D01*
X127105485Y-125272488D01*
X127105483Y-125272490D01*
X127063333Y-125330504D01*
X126966657Y-125463566D01*
X126859433Y-125674003D01*
X126786446Y-125898631D01*
X126749500Y-126131902D01*
X123250500Y-126131902D01*
X123213553Y-125898631D01*
X123179689Y-125794412D01*
X123140568Y-125674008D01*
X123140566Y-125674005D01*
X123140566Y-125674003D01*
X123033342Y-125463566D01*
X122894517Y-125272490D01*
X122727510Y-125105483D01*
X122536433Y-124966657D01*
X122536429Y-124966655D01*
X122325996Y-124859433D01*
X122101368Y-124786446D01*
X121868097Y-124749500D01*
X121868092Y-124749500D01*
X121631908Y-124749500D01*
X121631903Y-124749500D01*
X121398631Y-124786446D01*
X121174003Y-124859433D01*
X120963566Y-124966657D01*
X120854550Y-125045862D01*
X120772490Y-125105483D01*
X120772488Y-125105485D01*
X120772487Y-125105485D01*
X120605485Y-125272487D01*
X120605485Y-125272488D01*
X120605483Y-125272490D01*
X120563333Y-125330504D01*
X120466657Y-125463566D01*
X120359433Y-125674003D01*
X120286446Y-125898631D01*
X120249500Y-126131902D01*
X110500500Y-126131902D01*
X110500500Y-116889205D01*
X114309500Y-116889205D01*
X114309500Y-117110794D01*
X114309501Y-117110810D01*
X114338424Y-117330504D01*
X114395780Y-117544559D01*
X114480581Y-117749286D01*
X114480585Y-117749296D01*
X114591384Y-117941206D01*
X114726286Y-118117014D01*
X114726292Y-118117021D01*
X114882978Y-118273707D01*
X114882985Y-118273713D01*
X115058791Y-118408614D01*
X115250703Y-118519414D01*
X115250704Y-118519414D01*
X115250707Y-118519416D01*
X115455441Y-118604220D01*
X115669492Y-118661575D01*
X115889199Y-118690500D01*
X115889206Y-118690500D01*
X116110794Y-118690500D01*
X116110801Y-118690500D01*
X116330508Y-118661575D01*
X116544559Y-118604220D01*
X116749293Y-118519416D01*
X116941207Y-118408615D01*
X116941208Y-118408614D01*
X116941209Y-118408614D01*
X117029111Y-118341163D01*
X117117016Y-118273712D01*
X117273712Y-118117016D01*
X117408615Y-117941207D01*
X117519416Y-117749293D01*
X117604220Y-117544559D01*
X117661575Y-117330508D01*
X117690500Y-117110801D01*
X117690500Y-116889199D01*
X117661575Y-116669492D01*
X117604220Y-116455441D01*
X117519416Y-116250707D01*
X117408615Y-116058793D01*
X117273712Y-115882984D01*
X117273707Y-115882978D01*
X117117021Y-115726292D01*
X117117014Y-115726286D01*
X116941206Y-115591384D01*
X116749296Y-115480585D01*
X116749286Y-115480581D01*
X116544559Y-115395780D01*
X116330504Y-115338424D01*
X116110810Y-115309501D01*
X116110807Y-115309500D01*
X116110801Y-115309500D01*
X115889199Y-115309500D01*
X115889193Y-115309500D01*
X115889189Y-115309501D01*
X115669495Y-115338424D01*
X115455440Y-115395780D01*
X115250713Y-115480581D01*
X115250703Y-115480585D01*
X115058793Y-115591384D01*
X114882985Y-115726286D01*
X114882978Y-115726292D01*
X114726292Y-115882978D01*
X114726286Y-115882985D01*
X114591384Y-116058793D01*
X114480585Y-116250703D01*
X114480581Y-116250713D01*
X114395780Y-116455440D01*
X114338424Y-116669495D01*
X114309501Y-116889189D01*
X114309500Y-116889205D01*
X110500500Y-116889205D01*
X110500500Y-95279054D01*
X119799498Y-95279054D01*
X119840422Y-95431783D01*
X119867715Y-95479055D01*
X119867717Y-95479058D01*
X119919479Y-95568714D01*
X119919481Y-95568717D01*
X120038349Y-95687585D01*
X120038355Y-95687590D01*
X132515139Y-108164374D01*
X132515149Y-108164385D01*
X132519479Y-108168715D01*
X132519480Y-108168716D01*
X132631284Y-108280520D01*
X132718095Y-108330639D01*
X132718097Y-108330641D01*
X132756151Y-108352611D01*
X132768215Y-108359577D01*
X132920943Y-108400501D01*
X132920946Y-108400501D01*
X133086653Y-108400501D01*
X133086669Y-108400500D01*
X171310233Y-108400500D01*
X171377272Y-108420185D01*
X171379124Y-108421398D01*
X171444498Y-108465080D01*
X171444511Y-108465087D01*
X171581082Y-108521656D01*
X171581087Y-108521658D01*
X171581091Y-108521658D01*
X171581092Y-108521659D01*
X171726079Y-108550500D01*
X171726082Y-108550500D01*
X171873920Y-108550500D01*
X171971462Y-108531096D01*
X172018913Y-108521658D01*
X172155495Y-108465084D01*
X172278416Y-108382951D01*
X172382951Y-108278416D01*
X172465084Y-108155495D01*
X172521658Y-108018913D01*
X172550500Y-107873918D01*
X172550500Y-107726082D01*
X172550500Y-107726079D01*
X172521659Y-107581092D01*
X172521658Y-107581091D01*
X172521658Y-107581087D01*
X172521656Y-107581082D01*
X172465087Y-107444511D01*
X172465080Y-107444498D01*
X172382951Y-107321584D01*
X172382948Y-107321580D01*
X172278419Y-107217051D01*
X172278415Y-107217048D01*
X172155501Y-107134919D01*
X172155488Y-107134912D01*
X172018917Y-107078343D01*
X172018907Y-107078340D01*
X171873920Y-107049500D01*
X171873918Y-107049500D01*
X171726082Y-107049500D01*
X171726080Y-107049500D01*
X171581092Y-107078340D01*
X171581082Y-107078343D01*
X171444511Y-107134912D01*
X171444498Y-107134919D01*
X171379124Y-107178602D01*
X171312447Y-107199480D01*
X171310233Y-107199500D01*
X133300097Y-107199500D01*
X133233058Y-107179815D01*
X133212416Y-107163181D01*
X121036819Y-94987584D01*
X121003334Y-94926261D01*
X121000500Y-94899903D01*
X121000500Y-89631947D01*
X126250000Y-89631947D01*
X126250000Y-89868052D01*
X126286934Y-90101247D01*
X126359897Y-90325802D01*
X126467087Y-90536174D01*
X126527338Y-90619104D01*
X126527340Y-90619105D01*
X127226212Y-89920233D01*
X127237482Y-89962292D01*
X127309890Y-90087708D01*
X127412292Y-90190110D01*
X127537708Y-90262518D01*
X127579765Y-90273787D01*
X126880893Y-90972658D01*
X126963828Y-91032914D01*
X127174197Y-91140102D01*
X127398752Y-91213065D01*
X127398751Y-91213065D01*
X127631948Y-91250000D01*
X127868052Y-91250000D01*
X128101247Y-91213065D01*
X128325802Y-91140102D01*
X128536163Y-91032918D01*
X128536169Y-91032914D01*
X128619104Y-90972658D01*
X128619105Y-90972658D01*
X127920233Y-90273787D01*
X127962292Y-90262518D01*
X128087708Y-90190110D01*
X128190110Y-90087708D01*
X128262518Y-89962292D01*
X128273787Y-89920234D01*
X128972658Y-90619105D01*
X128972658Y-90619104D01*
X129032914Y-90536169D01*
X129032918Y-90536163D01*
X129140102Y-90325802D01*
X129213065Y-90101247D01*
X129250000Y-89868052D01*
X129250000Y-89631947D01*
X132750000Y-89631947D01*
X132750000Y-89868052D01*
X132786934Y-90101247D01*
X132859897Y-90325802D01*
X132967087Y-90536174D01*
X133027338Y-90619104D01*
X133027340Y-90619105D01*
X133726212Y-89920233D01*
X133737482Y-89962292D01*
X133809890Y-90087708D01*
X133912292Y-90190110D01*
X134037708Y-90262518D01*
X134079765Y-90273787D01*
X133380893Y-90972658D01*
X133463828Y-91032914D01*
X133674197Y-91140102D01*
X133898752Y-91213065D01*
X133898751Y-91213065D01*
X134131948Y-91250000D01*
X134368052Y-91250000D01*
X134601247Y-91213065D01*
X134825802Y-91140102D01*
X135036163Y-91032918D01*
X135036169Y-91032914D01*
X135119104Y-90972658D01*
X135119105Y-90972658D01*
X134420233Y-90273787D01*
X134462292Y-90262518D01*
X134587708Y-90190110D01*
X134690110Y-90087708D01*
X134762518Y-89962292D01*
X134773787Y-89920234D01*
X135472658Y-90619105D01*
X135472658Y-90619104D01*
X135532914Y-90536169D01*
X135532918Y-90536163D01*
X135640102Y-90325802D01*
X135713065Y-90101247D01*
X135750000Y-89868052D01*
X135750000Y-89631947D01*
X135713065Y-89398752D01*
X135640102Y-89174197D01*
X135532914Y-88963828D01*
X135472658Y-88880894D01*
X135472658Y-88880893D01*
X134773787Y-89579765D01*
X134762518Y-89537708D01*
X134690110Y-89412292D01*
X134587708Y-89309890D01*
X134462292Y-89237482D01*
X134420234Y-89226212D01*
X135119105Y-88527340D01*
X135119104Y-88527338D01*
X135036174Y-88467087D01*
X134825802Y-88359897D01*
X134601247Y-88286934D01*
X134601248Y-88286934D01*
X134368052Y-88250000D01*
X134131948Y-88250000D01*
X133898752Y-88286934D01*
X133674197Y-88359897D01*
X133463830Y-88467084D01*
X133380894Y-88527340D01*
X134079766Y-89226212D01*
X134037708Y-89237482D01*
X133912292Y-89309890D01*
X133809890Y-89412292D01*
X133737482Y-89537708D01*
X133726212Y-89579766D01*
X133027340Y-88880894D01*
X132967084Y-88963830D01*
X132859897Y-89174197D01*
X132786934Y-89398752D01*
X132750000Y-89631947D01*
X129250000Y-89631947D01*
X129213065Y-89398752D01*
X129140102Y-89174197D01*
X129032914Y-88963828D01*
X128972658Y-88880894D01*
X128972658Y-88880893D01*
X128273787Y-89579765D01*
X128262518Y-89537708D01*
X128190110Y-89412292D01*
X128087708Y-89309890D01*
X127962292Y-89237482D01*
X127920234Y-89226212D01*
X128619105Y-88527340D01*
X128619104Y-88527339D01*
X128536174Y-88467087D01*
X128325802Y-88359897D01*
X128101247Y-88286934D01*
X128101248Y-88286934D01*
X127868052Y-88250000D01*
X127631948Y-88250000D01*
X127398752Y-88286934D01*
X127174197Y-88359897D01*
X126963830Y-88467084D01*
X126880894Y-88527340D01*
X127579766Y-89226212D01*
X127537708Y-89237482D01*
X127412292Y-89309890D01*
X127309890Y-89412292D01*
X127237482Y-89537708D01*
X127226212Y-89579766D01*
X126527340Y-88880894D01*
X126467084Y-88963830D01*
X126359897Y-89174197D01*
X126286934Y-89398752D01*
X126250000Y-89631947D01*
X121000500Y-89631947D01*
X121000500Y-85131902D01*
X126249500Y-85131902D01*
X126249500Y-85368097D01*
X126286446Y-85601368D01*
X126359433Y-85825996D01*
X126466657Y-86036433D01*
X126605483Y-86227510D01*
X126772490Y-86394517D01*
X126963567Y-86533343D01*
X127032174Y-86568300D01*
X127174003Y-86640566D01*
X127174005Y-86640566D01*
X127174008Y-86640568D01*
X127294412Y-86679689D01*
X127398631Y-86713553D01*
X127631903Y-86750500D01*
X127631908Y-86750500D01*
X127868097Y-86750500D01*
X128101368Y-86713553D01*
X128325992Y-86640568D01*
X128536433Y-86533343D01*
X128727510Y-86394517D01*
X128894517Y-86227510D01*
X129033343Y-86036433D01*
X129140568Y-85825992D01*
X129213553Y-85601368D01*
X129235180Y-85464820D01*
X129250500Y-85368097D01*
X129250500Y-85131902D01*
X132749500Y-85131902D01*
X132749500Y-85368097D01*
X132786446Y-85601368D01*
X132859433Y-85825996D01*
X132966657Y-86036433D01*
X133105483Y-86227510D01*
X133272490Y-86394517D01*
X133463567Y-86533343D01*
X133532174Y-86568300D01*
X133674003Y-86640566D01*
X133674005Y-86640566D01*
X133674008Y-86640568D01*
X133794412Y-86679689D01*
X133898631Y-86713553D01*
X134131903Y-86750500D01*
X134131908Y-86750500D01*
X134368097Y-86750500D01*
X134601368Y-86713553D01*
X134825992Y-86640568D01*
X135036433Y-86533343D01*
X135227510Y-86394517D01*
X135394517Y-86227510D01*
X135533343Y-86036433D01*
X135640568Y-85825992D01*
X135713553Y-85601368D01*
X135735180Y-85464820D01*
X135750500Y-85368097D01*
X135750500Y-85131902D01*
X135713553Y-84898631D01*
X135640566Y-84674003D01*
X135533342Y-84463566D01*
X135394517Y-84272490D01*
X135227510Y-84105483D01*
X135036433Y-83966657D01*
X134989099Y-83942539D01*
X134825996Y-83859433D01*
X134601368Y-83786446D01*
X134368097Y-83749500D01*
X134368092Y-83749500D01*
X134131908Y-83749500D01*
X134131903Y-83749500D01*
X133898631Y-83786446D01*
X133674003Y-83859433D01*
X133463566Y-83966657D01*
X133365982Y-84037557D01*
X133272490Y-84105483D01*
X133272488Y-84105485D01*
X133272487Y-84105485D01*
X133105485Y-84272487D01*
X133105485Y-84272488D01*
X133105483Y-84272490D01*
X133084038Y-84302007D01*
X132966657Y-84463566D01*
X132859433Y-84674003D01*
X132786446Y-84898631D01*
X132749500Y-85131902D01*
X129250500Y-85131902D01*
X129213553Y-84898631D01*
X129140566Y-84674003D01*
X129033342Y-84463566D01*
X128894517Y-84272490D01*
X128727510Y-84105483D01*
X128536433Y-83966657D01*
X128489099Y-83942539D01*
X128325996Y-83859433D01*
X128101368Y-83786446D01*
X127868097Y-83749500D01*
X127868092Y-83749500D01*
X127631908Y-83749500D01*
X127631903Y-83749500D01*
X127398631Y-83786446D01*
X127174003Y-83859433D01*
X126963566Y-83966657D01*
X126865982Y-84037557D01*
X126772490Y-84105483D01*
X126772488Y-84105485D01*
X126772487Y-84105485D01*
X126605485Y-84272487D01*
X126605485Y-84272488D01*
X126605483Y-84272490D01*
X126584038Y-84302007D01*
X126466657Y-84463566D01*
X126359433Y-84674003D01*
X126286446Y-84898631D01*
X126249500Y-85131902D01*
X121000500Y-85131902D01*
X121000500Y-78131947D01*
X121250000Y-78131947D01*
X121250000Y-78368052D01*
X121286934Y-78601247D01*
X121359897Y-78825802D01*
X121467087Y-79036174D01*
X121527338Y-79119104D01*
X121527340Y-79119105D01*
X122226212Y-78420233D01*
X122237482Y-78462292D01*
X122309890Y-78587708D01*
X122412292Y-78690110D01*
X122537708Y-78762518D01*
X122579765Y-78773787D01*
X121880893Y-79472658D01*
X121963828Y-79532914D01*
X122174197Y-79640102D01*
X122398752Y-79713065D01*
X122398751Y-79713065D01*
X122631948Y-79750000D01*
X122868052Y-79750000D01*
X123101247Y-79713065D01*
X123325802Y-79640102D01*
X123536163Y-79532918D01*
X123536169Y-79532914D01*
X123619104Y-79472658D01*
X123619105Y-79472658D01*
X122920233Y-78773787D01*
X122962292Y-78762518D01*
X123087708Y-78690110D01*
X123190110Y-78587708D01*
X123262518Y-78462292D01*
X123273787Y-78420234D01*
X123972658Y-79119105D01*
X123972658Y-79119104D01*
X124032914Y-79036169D01*
X124032918Y-79036163D01*
X124140102Y-78825802D01*
X124213065Y-78601247D01*
X124250000Y-78368052D01*
X124250000Y-78131947D01*
X137750000Y-78131947D01*
X137750000Y-78368052D01*
X137786934Y-78601247D01*
X137859897Y-78825802D01*
X137967087Y-79036174D01*
X138027338Y-79119104D01*
X138027340Y-79119105D01*
X138726212Y-78420233D01*
X138737482Y-78462292D01*
X138809890Y-78587708D01*
X138912292Y-78690110D01*
X139037708Y-78762518D01*
X139079765Y-78773787D01*
X138380893Y-79472658D01*
X138463828Y-79532914D01*
X138674197Y-79640102D01*
X138898752Y-79713065D01*
X138898751Y-79713065D01*
X139131948Y-79750000D01*
X139368052Y-79750000D01*
X139601247Y-79713065D01*
X139825802Y-79640102D01*
X140036163Y-79532918D01*
X140036169Y-79532914D01*
X140119104Y-79472658D01*
X140119105Y-79472658D01*
X139420233Y-78773787D01*
X139462292Y-78762518D01*
X139587708Y-78690110D01*
X139690110Y-78587708D01*
X139762518Y-78462292D01*
X139773787Y-78420233D01*
X140472658Y-79119105D01*
X140472658Y-79119104D01*
X140532914Y-79036169D01*
X140532918Y-79036163D01*
X140640102Y-78825802D01*
X140713065Y-78601247D01*
X140750000Y-78368052D01*
X140750000Y-78131947D01*
X140713065Y-77898752D01*
X140640102Y-77674197D01*
X140532914Y-77463828D01*
X140472658Y-77380894D01*
X140472658Y-77380893D01*
X139773787Y-78079765D01*
X139762518Y-78037708D01*
X139690110Y-77912292D01*
X139587708Y-77809890D01*
X139462292Y-77737482D01*
X139420234Y-77726212D01*
X140119105Y-77027340D01*
X140119104Y-77027338D01*
X140036174Y-76967087D01*
X139825802Y-76859897D01*
X139601247Y-76786934D01*
X139601248Y-76786934D01*
X139368052Y-76750000D01*
X139131948Y-76750000D01*
X138898752Y-76786934D01*
X138674197Y-76859897D01*
X138463830Y-76967084D01*
X138380894Y-77027340D01*
X139079766Y-77726212D01*
X139037708Y-77737482D01*
X138912292Y-77809890D01*
X138809890Y-77912292D01*
X138737482Y-78037708D01*
X138726212Y-78079766D01*
X138027340Y-77380894D01*
X137967084Y-77463830D01*
X137859897Y-77674197D01*
X137786934Y-77898752D01*
X137750000Y-78131947D01*
X124250000Y-78131947D01*
X124213065Y-77898752D01*
X124140102Y-77674197D01*
X124032914Y-77463828D01*
X123972658Y-77380894D01*
X123972658Y-77380893D01*
X123273787Y-78079765D01*
X123262518Y-78037708D01*
X123190110Y-77912292D01*
X123087708Y-77809890D01*
X122962292Y-77737482D01*
X122920234Y-77726212D01*
X123619105Y-77027340D01*
X123619104Y-77027339D01*
X123536174Y-76967087D01*
X123325802Y-76859897D01*
X123101247Y-76786934D01*
X123101248Y-76786934D01*
X122868052Y-76750000D01*
X122631948Y-76750000D01*
X122398752Y-76786934D01*
X122174197Y-76859897D01*
X121963830Y-76967084D01*
X121880894Y-77027340D01*
X122579766Y-77726212D01*
X122537708Y-77737482D01*
X122412292Y-77809890D01*
X122309890Y-77912292D01*
X122237482Y-78037708D01*
X122226212Y-78079766D01*
X121527340Y-77380894D01*
X121467084Y-77463830D01*
X121359897Y-77674197D01*
X121286934Y-77898752D01*
X121250000Y-78131947D01*
X121000500Y-78131947D01*
X121000500Y-76400096D01*
X121020185Y-76333057D01*
X121036814Y-76312419D01*
X122146437Y-75202796D01*
X122207758Y-75169313D01*
X122272433Y-75172547D01*
X122398632Y-75213553D01*
X122486110Y-75227408D01*
X122631903Y-75250500D01*
X122631908Y-75250500D01*
X122868097Y-75250500D01*
X123101368Y-75213553D01*
X123134468Y-75202798D01*
X123325992Y-75140568D01*
X123536433Y-75033343D01*
X123727510Y-74894517D01*
X123894517Y-74727510D01*
X124033343Y-74536433D01*
X124140568Y-74325992D01*
X124213553Y-74101368D01*
X124213554Y-74101362D01*
X124250500Y-73868097D01*
X124250500Y-73631902D01*
X137749500Y-73631902D01*
X137749500Y-73868097D01*
X137786446Y-74101368D01*
X137859433Y-74325996D01*
X137966657Y-74536433D01*
X138105483Y-74727510D01*
X138272490Y-74894517D01*
X138463567Y-75033343D01*
X138562991Y-75084002D01*
X138674003Y-75140566D01*
X138674005Y-75140566D01*
X138674008Y-75140568D01*
X138762476Y-75169313D01*
X138898631Y-75213553D01*
X139131903Y-75250500D01*
X139131908Y-75250500D01*
X139368097Y-75250500D01*
X139474126Y-75233705D01*
X139601368Y-75213553D01*
X139727566Y-75172547D01*
X139797404Y-75170553D01*
X139853563Y-75202798D01*
X141163181Y-76512416D01*
X141196666Y-76573739D01*
X141199500Y-76600097D01*
X141199500Y-102113330D01*
X141199499Y-102113348D01*
X141199499Y-102279054D01*
X141199498Y-102279054D01*
X141240423Y-102431785D01*
X141247767Y-102444505D01*
X141319477Y-102568712D01*
X141319481Y-102568717D01*
X141438349Y-102687585D01*
X141438354Y-102687589D01*
X145381284Y-106630520D01*
X145381286Y-106630521D01*
X145381290Y-106630524D01*
X145518209Y-106709573D01*
X145518216Y-106709577D01*
X145670943Y-106750501D01*
X145670945Y-106750501D01*
X145836654Y-106750501D01*
X145836670Y-106750500D01*
X174260233Y-106750500D01*
X174327272Y-106770185D01*
X174329124Y-106771398D01*
X174394498Y-106815080D01*
X174394511Y-106815087D01*
X174531082Y-106871656D01*
X174531087Y-106871658D01*
X174531091Y-106871658D01*
X174531092Y-106871659D01*
X174676079Y-106900500D01*
X174676082Y-106900500D01*
X174823920Y-106900500D01*
X174921462Y-106881096D01*
X174968913Y-106871658D01*
X175105495Y-106815084D01*
X175228416Y-106732951D01*
X175332951Y-106628416D01*
X175415084Y-106505495D01*
X175471658Y-106368913D01*
X175500500Y-106223918D01*
X175500500Y-106076082D01*
X175500500Y-106076079D01*
X175471659Y-105931092D01*
X175471658Y-105931091D01*
X175471658Y-105931087D01*
X175471656Y-105931082D01*
X175415087Y-105794511D01*
X175415080Y-105794498D01*
X175332951Y-105671584D01*
X175332948Y-105671580D01*
X175228419Y-105567051D01*
X175228415Y-105567048D01*
X175105501Y-105484919D01*
X175105488Y-105484912D01*
X174968917Y-105428343D01*
X174968907Y-105428340D01*
X174823920Y-105399500D01*
X174823918Y-105399500D01*
X174676082Y-105399500D01*
X174676080Y-105399500D01*
X174531092Y-105428340D01*
X174531082Y-105428343D01*
X174394511Y-105484912D01*
X174394498Y-105484919D01*
X174329124Y-105528602D01*
X174262447Y-105549480D01*
X174260233Y-105549500D01*
X146050098Y-105549500D01*
X145983059Y-105529815D01*
X145962417Y-105513181D01*
X142436819Y-101987583D01*
X142403334Y-101926260D01*
X142400500Y-101899902D01*
X142400500Y-98102155D01*
X146070000Y-98102155D01*
X146070000Y-98750000D01*
X146986988Y-98750000D01*
X146954075Y-98807007D01*
X146920000Y-98934174D01*
X146920000Y-99065826D01*
X146954075Y-99192993D01*
X146986988Y-99250000D01*
X146070000Y-99250000D01*
X146070000Y-99897844D01*
X146076401Y-99957372D01*
X146076403Y-99957379D01*
X146126645Y-100092086D01*
X146126649Y-100092093D01*
X146212809Y-100207187D01*
X146212812Y-100207190D01*
X146327906Y-100293350D01*
X146327913Y-100293354D01*
X146462620Y-100343596D01*
X146462627Y-100343598D01*
X146522155Y-100349999D01*
X146522172Y-100350000D01*
X147170000Y-100350000D01*
X147170000Y-99433012D01*
X147227007Y-99465925D01*
X147354174Y-99500000D01*
X147485826Y-99500000D01*
X147612993Y-99465925D01*
X147670000Y-99433012D01*
X147670000Y-100350000D01*
X148317828Y-100350000D01*
X148317844Y-100349999D01*
X148377372Y-100343598D01*
X148377379Y-100343596D01*
X148512086Y-100293354D01*
X148512093Y-100293350D01*
X148627187Y-100207190D01*
X148627190Y-100207187D01*
X148713350Y-100092093D01*
X148713354Y-100092086D01*
X148762422Y-99960529D01*
X148804293Y-99904595D01*
X148869757Y-99880178D01*
X148938030Y-99895030D01*
X148966285Y-99916181D01*
X149080213Y-100030109D01*
X149252179Y-100155048D01*
X149252181Y-100155049D01*
X149252184Y-100155051D01*
X149441588Y-100251557D01*
X149643757Y-100317246D01*
X149853713Y-100350500D01*
X149853714Y-100350500D01*
X150066286Y-100350500D01*
X150066287Y-100350500D01*
X150276243Y-100317246D01*
X150478412Y-100251557D01*
X150667816Y-100155051D01*
X150754471Y-100092093D01*
X150839786Y-100030109D01*
X150839788Y-100030106D01*
X150839792Y-100030104D01*
X150990104Y-99879792D01*
X150990106Y-99879788D01*
X150990109Y-99879786D01*
X151115048Y-99707820D01*
X151115047Y-99707820D01*
X151115051Y-99707816D01*
X151119514Y-99699054D01*
X151167488Y-99648259D01*
X151235308Y-99631463D01*
X151301444Y-99653999D01*
X151340486Y-99699056D01*
X151344951Y-99707820D01*
X151469890Y-99879786D01*
X151620213Y-100030109D01*
X151792179Y-100155048D01*
X151792181Y-100155049D01*
X151792184Y-100155051D01*
X151981588Y-100251557D01*
X152183757Y-100317246D01*
X152393713Y-100350500D01*
X152393714Y-100350500D01*
X152606286Y-100350500D01*
X152606287Y-100350500D01*
X152816243Y-100317246D01*
X153018412Y-100251557D01*
X153207816Y-100155051D01*
X153294471Y-100092093D01*
X153379786Y-100030109D01*
X153379788Y-100030106D01*
X153379792Y-100030104D01*
X153530104Y-99879792D01*
X153530106Y-99879788D01*
X153530109Y-99879786D01*
X153655048Y-99707820D01*
X153655047Y-99707820D01*
X153655051Y-99707816D01*
X153659514Y-99699054D01*
X153707488Y-99648259D01*
X153775308Y-99631463D01*
X153841444Y-99653999D01*
X153880486Y-99699056D01*
X153884951Y-99707820D01*
X154009890Y-99879786D01*
X154160213Y-100030109D01*
X154332179Y-100155048D01*
X154332181Y-100155049D01*
X154332184Y-100155051D01*
X154521588Y-100251557D01*
X154723757Y-100317246D01*
X154933713Y-100350500D01*
X154933714Y-100350500D01*
X155146286Y-100350500D01*
X155146287Y-100350500D01*
X155356243Y-100317246D01*
X155558412Y-100251557D01*
X155747816Y-100155051D01*
X155834471Y-100092093D01*
X155919786Y-100030109D01*
X155919788Y-100030106D01*
X155919792Y-100030104D01*
X156070104Y-99879792D01*
X156070106Y-99879788D01*
X156070109Y-99879786D01*
X156195048Y-99707820D01*
X156195047Y-99707820D01*
X156195051Y-99707816D01*
X156199514Y-99699054D01*
X156247488Y-99648259D01*
X156315308Y-99631463D01*
X156381444Y-99653999D01*
X156420486Y-99699056D01*
X156424951Y-99707820D01*
X156549890Y-99879786D01*
X156700213Y-100030109D01*
X156872179Y-100155048D01*
X156872181Y-100155049D01*
X156872184Y-100155051D01*
X157061588Y-100251557D01*
X157263757Y-100317246D01*
X157473713Y-100350500D01*
X157473714Y-100350500D01*
X157686286Y-100350500D01*
X157686287Y-100350500D01*
X157896243Y-100317246D01*
X158098412Y-100251557D01*
X158287816Y-100155051D01*
X158374471Y-100092093D01*
X158459786Y-100030109D01*
X158459788Y-100030106D01*
X158459792Y-100030104D01*
X158610104Y-99879792D01*
X158610106Y-99879788D01*
X158610109Y-99879786D01*
X158737915Y-99703875D01*
X158739259Y-99704851D01*
X158785705Y-99662834D01*
X158839618Y-99650500D01*
X175786160Y-99650500D01*
X175838520Y-99663614D01*
X175838878Y-99662753D01*
X175844504Y-99665083D01*
X175844505Y-99665084D01*
X175981087Y-99721658D01*
X175981091Y-99721658D01*
X175981092Y-99721659D01*
X176126079Y-99750500D01*
X176126082Y-99750500D01*
X176273920Y-99750500D01*
X176371462Y-99731096D01*
X176418913Y-99721658D01*
X176555495Y-99665084D01*
X176678416Y-99582951D01*
X176782951Y-99478416D01*
X176865084Y-99355495D01*
X176921658Y-99218913D01*
X176931096Y-99171462D01*
X176950500Y-99073920D01*
X176950500Y-98926079D01*
X176921659Y-98781092D01*
X176921658Y-98781091D01*
X176921658Y-98781087D01*
X176921656Y-98781082D01*
X176865087Y-98644511D01*
X176865080Y-98644498D01*
X176782951Y-98521584D01*
X176782948Y-98521580D01*
X176678419Y-98417051D01*
X176678415Y-98417048D01*
X176555501Y-98334919D01*
X176555488Y-98334912D01*
X176418917Y-98278343D01*
X176418907Y-98278340D01*
X176273920Y-98249500D01*
X176273918Y-98249500D01*
X176126082Y-98249500D01*
X176126080Y-98249500D01*
X175981092Y-98278340D01*
X175981086Y-98278342D01*
X175838878Y-98337247D01*
X175838520Y-98336385D01*
X175786160Y-98349500D01*
X158839618Y-98349500D01*
X158772579Y-98329815D01*
X158738900Y-98295408D01*
X158737915Y-98296125D01*
X158610109Y-98120213D01*
X158459786Y-97969890D01*
X158287820Y-97844951D01*
X158098414Y-97748444D01*
X158098413Y-97748443D01*
X158098412Y-97748443D01*
X157896243Y-97682754D01*
X157896241Y-97682753D01*
X157896240Y-97682753D01*
X157734957Y-97657208D01*
X157686287Y-97649500D01*
X157473713Y-97649500D01*
X157425042Y-97657208D01*
X157263760Y-97682753D01*
X157061585Y-97748444D01*
X156872179Y-97844951D01*
X156700213Y-97969890D01*
X156549890Y-98120213D01*
X156424949Y-98292182D01*
X156420484Y-98300946D01*
X156372509Y-98351742D01*
X156304688Y-98368536D01*
X156238553Y-98345998D01*
X156199516Y-98300946D01*
X156195050Y-98292182D01*
X156070109Y-98120213D01*
X155919786Y-97969890D01*
X155747820Y-97844951D01*
X155558414Y-97748444D01*
X155558413Y-97748443D01*
X155558412Y-97748443D01*
X155356243Y-97682754D01*
X155356241Y-97682753D01*
X155356240Y-97682753D01*
X155194957Y-97657208D01*
X155146287Y-97649500D01*
X154933713Y-97649500D01*
X154885042Y-97657208D01*
X154723760Y-97682753D01*
X154521585Y-97748444D01*
X154332179Y-97844951D01*
X154160213Y-97969890D01*
X154009890Y-98120213D01*
X153884949Y-98292182D01*
X153880484Y-98300946D01*
X153832509Y-98351742D01*
X153764688Y-98368536D01*
X153698553Y-98345998D01*
X153659516Y-98300946D01*
X153655050Y-98292182D01*
X153530109Y-98120213D01*
X153379786Y-97969890D01*
X153207820Y-97844951D01*
X153018414Y-97748444D01*
X153018413Y-97748443D01*
X153018412Y-97748443D01*
X152816243Y-97682754D01*
X152816241Y-97682753D01*
X152816240Y-97682753D01*
X152654957Y-97657208D01*
X152606287Y-97649500D01*
X152393713Y-97649500D01*
X152345042Y-97657208D01*
X152183760Y-97682753D01*
X151981585Y-97748444D01*
X151792179Y-97844951D01*
X151620213Y-97969890D01*
X151469890Y-98120213D01*
X151344949Y-98292182D01*
X151340484Y-98300946D01*
X151292509Y-98351742D01*
X151224688Y-98368536D01*
X151158553Y-98345998D01*
X151119516Y-98300946D01*
X151115050Y-98292182D01*
X150990109Y-98120213D01*
X150839786Y-97969890D01*
X150667820Y-97844951D01*
X150478414Y-97748444D01*
X150478413Y-97748443D01*
X150478412Y-97748443D01*
X150276243Y-97682754D01*
X150276241Y-97682753D01*
X150276240Y-97682753D01*
X150114957Y-97657208D01*
X150066287Y-97649500D01*
X149853713Y-97649500D01*
X149805042Y-97657208D01*
X149643760Y-97682753D01*
X149441585Y-97748444D01*
X149252179Y-97844951D01*
X149080215Y-97969889D01*
X148966285Y-98083819D01*
X148904962Y-98117303D01*
X148835270Y-98112319D01*
X148779337Y-98070447D01*
X148762422Y-98039470D01*
X148713354Y-97907913D01*
X148713350Y-97907906D01*
X148627190Y-97792812D01*
X148627187Y-97792809D01*
X148512093Y-97706649D01*
X148512086Y-97706645D01*
X148377379Y-97656403D01*
X148377372Y-97656401D01*
X148317844Y-97650000D01*
X147670000Y-97650000D01*
X147670000Y-98566988D01*
X147612993Y-98534075D01*
X147485826Y-98500000D01*
X147354174Y-98500000D01*
X147227007Y-98534075D01*
X147170000Y-98566988D01*
X147170000Y-97650000D01*
X146522155Y-97650000D01*
X146462627Y-97656401D01*
X146462620Y-97656403D01*
X146327913Y-97706645D01*
X146327906Y-97706649D01*
X146212812Y-97792809D01*
X146212809Y-97792812D01*
X146126649Y-97907906D01*
X146126645Y-97907913D01*
X146076403Y-98042620D01*
X146076401Y-98042627D01*
X146070000Y-98102155D01*
X142400500Y-98102155D01*
X142400500Y-88889205D01*
X151309500Y-88889205D01*
X151309500Y-89110794D01*
X151309501Y-89110810D01*
X151338424Y-89330504D01*
X151395780Y-89544559D01*
X151480581Y-89749286D01*
X151480585Y-89749296D01*
X151591384Y-89941206D01*
X151726286Y-90117014D01*
X151726292Y-90117021D01*
X151882978Y-90273707D01*
X151882985Y-90273713D01*
X152058793Y-90408615D01*
X152250703Y-90519414D01*
X152250704Y-90519414D01*
X152250707Y-90519416D01*
X152455441Y-90604220D01*
X152669492Y-90661575D01*
X152889199Y-90690500D01*
X152889206Y-90690500D01*
X153110794Y-90690500D01*
X153110801Y-90690500D01*
X153330508Y-90661575D01*
X153544559Y-90604220D01*
X153749293Y-90519416D01*
X153941207Y-90408615D01*
X154117016Y-90273712D01*
X154273712Y-90117016D01*
X154408615Y-89941207D01*
X154519416Y-89749293D01*
X154568023Y-89631947D01*
X169250000Y-89631947D01*
X169250000Y-89868052D01*
X169286934Y-90101247D01*
X169359897Y-90325802D01*
X169467087Y-90536174D01*
X169527338Y-90619104D01*
X169527340Y-90619105D01*
X170226212Y-89920233D01*
X170237482Y-89962292D01*
X170309890Y-90087708D01*
X170412292Y-90190110D01*
X170537708Y-90262518D01*
X170579765Y-90273787D01*
X169880893Y-90972658D01*
X169963828Y-91032914D01*
X170174197Y-91140102D01*
X170398752Y-91213065D01*
X170398751Y-91213065D01*
X170631948Y-91250000D01*
X170868052Y-91250000D01*
X171101247Y-91213065D01*
X171325802Y-91140102D01*
X171536163Y-91032918D01*
X171536169Y-91032914D01*
X171619104Y-90972658D01*
X171619105Y-90972658D01*
X170920233Y-90273787D01*
X170962292Y-90262518D01*
X171087708Y-90190110D01*
X171190110Y-90087708D01*
X171262518Y-89962292D01*
X171273787Y-89920234D01*
X171972658Y-90619105D01*
X171972658Y-90619104D01*
X172032914Y-90536169D01*
X172032918Y-90536163D01*
X172140102Y-90325802D01*
X172213065Y-90101247D01*
X172250000Y-89868052D01*
X172250000Y-89631947D01*
X175750000Y-89631947D01*
X175750000Y-89868052D01*
X175786934Y-90101247D01*
X175859897Y-90325802D01*
X175967087Y-90536174D01*
X176027338Y-90619104D01*
X176027340Y-90619105D01*
X176726212Y-89920233D01*
X176737482Y-89962292D01*
X176809890Y-90087708D01*
X176912292Y-90190110D01*
X177037708Y-90262518D01*
X177079765Y-90273787D01*
X176380893Y-90972658D01*
X176463828Y-91032914D01*
X176674197Y-91140102D01*
X176898752Y-91213065D01*
X176898751Y-91213065D01*
X177131948Y-91250000D01*
X177368052Y-91250000D01*
X177601247Y-91213065D01*
X177825802Y-91140102D01*
X178036163Y-91032918D01*
X178036169Y-91032914D01*
X178119104Y-90972658D01*
X178119105Y-90972658D01*
X177420233Y-90273787D01*
X177462292Y-90262518D01*
X177587708Y-90190110D01*
X177690110Y-90087708D01*
X177762518Y-89962292D01*
X177773787Y-89920234D01*
X178472658Y-90619105D01*
X178472658Y-90619104D01*
X178532914Y-90536169D01*
X178532918Y-90536163D01*
X178640102Y-90325802D01*
X178713065Y-90101247D01*
X178750000Y-89868052D01*
X178750000Y-89631947D01*
X178713065Y-89398752D01*
X178640102Y-89174197D01*
X178532914Y-88963828D01*
X178472658Y-88880894D01*
X178472658Y-88880893D01*
X177773787Y-89579765D01*
X177762518Y-89537708D01*
X177690110Y-89412292D01*
X177587708Y-89309890D01*
X177462292Y-89237482D01*
X177420234Y-89226212D01*
X178119105Y-88527340D01*
X178119104Y-88527338D01*
X178036174Y-88467087D01*
X177825802Y-88359897D01*
X177601247Y-88286934D01*
X177601248Y-88286934D01*
X177368052Y-88250000D01*
X177131948Y-88250000D01*
X176898752Y-88286934D01*
X176674197Y-88359897D01*
X176463830Y-88467084D01*
X176380894Y-88527340D01*
X177079766Y-89226212D01*
X177037708Y-89237482D01*
X176912292Y-89309890D01*
X176809890Y-89412292D01*
X176737482Y-89537708D01*
X176726212Y-89579765D01*
X176027340Y-88880894D01*
X175967084Y-88963830D01*
X175859897Y-89174197D01*
X175786934Y-89398752D01*
X175750000Y-89631947D01*
X172250000Y-89631947D01*
X172213065Y-89398752D01*
X172140102Y-89174197D01*
X172032914Y-88963828D01*
X171972658Y-88880894D01*
X171972658Y-88880893D01*
X171273787Y-89579765D01*
X171262518Y-89537708D01*
X171190110Y-89412292D01*
X171087708Y-89309890D01*
X170962292Y-89237482D01*
X170920234Y-89226212D01*
X171619105Y-88527340D01*
X171619104Y-88527339D01*
X171536174Y-88467087D01*
X171325802Y-88359897D01*
X171101247Y-88286934D01*
X171101248Y-88286934D01*
X170868052Y-88250000D01*
X170631948Y-88250000D01*
X170398752Y-88286934D01*
X170174197Y-88359897D01*
X169963830Y-88467084D01*
X169880894Y-88527340D01*
X170579766Y-89226212D01*
X170537708Y-89237482D01*
X170412292Y-89309890D01*
X170309890Y-89412292D01*
X170237482Y-89537708D01*
X170226212Y-89579765D01*
X169527340Y-88880894D01*
X169467084Y-88963830D01*
X169359897Y-89174197D01*
X169286934Y-89398752D01*
X169250000Y-89631947D01*
X154568023Y-89631947D01*
X154604220Y-89544559D01*
X154661575Y-89330508D01*
X154690500Y-89110801D01*
X154690500Y-88889199D01*
X154661575Y-88669492D01*
X154604220Y-88455441D01*
X154519416Y-88250707D01*
X154408615Y-88058793D01*
X154273713Y-87882985D01*
X154273707Y-87882978D01*
X154117021Y-87726292D01*
X154117014Y-87726286D01*
X153941206Y-87591384D01*
X153749296Y-87480585D01*
X153749286Y-87480581D01*
X153544559Y-87395780D01*
X153330504Y-87338424D01*
X153110810Y-87309501D01*
X153110807Y-87309500D01*
X153110801Y-87309500D01*
X152889199Y-87309500D01*
X152889193Y-87309500D01*
X152889189Y-87309501D01*
X152669495Y-87338424D01*
X152455440Y-87395780D01*
X152250713Y-87480581D01*
X152250703Y-87480585D01*
X152058793Y-87591384D01*
X151882985Y-87726286D01*
X151882978Y-87726292D01*
X151726292Y-87882978D01*
X151726286Y-87882985D01*
X151591384Y-88058793D01*
X151480585Y-88250703D01*
X151480581Y-88250713D01*
X151395780Y-88455440D01*
X151338424Y-88669495D01*
X151309501Y-88889189D01*
X151309500Y-88889205D01*
X142400500Y-88889205D01*
X142400500Y-85131902D01*
X169249500Y-85131902D01*
X169249500Y-85368097D01*
X169286446Y-85601368D01*
X169359433Y-85825996D01*
X169466657Y-86036433D01*
X169605483Y-86227510D01*
X169772490Y-86394517D01*
X169963567Y-86533343D01*
X170032174Y-86568300D01*
X170174003Y-86640566D01*
X170174005Y-86640566D01*
X170174008Y-86640568D01*
X170294412Y-86679689D01*
X170398631Y-86713553D01*
X170631903Y-86750500D01*
X170631908Y-86750500D01*
X170868097Y-86750500D01*
X171101368Y-86713553D01*
X171325992Y-86640568D01*
X171536433Y-86533343D01*
X171727510Y-86394517D01*
X171894517Y-86227510D01*
X172033343Y-86036433D01*
X172140568Y-85825992D01*
X172213553Y-85601368D01*
X172235180Y-85464820D01*
X172250500Y-85368097D01*
X172250500Y-85131902D01*
X175749500Y-85131902D01*
X175749500Y-85368097D01*
X175786446Y-85601368D01*
X175859433Y-85825996D01*
X175966657Y-86036433D01*
X176105483Y-86227510D01*
X176272490Y-86394517D01*
X176463567Y-86533343D01*
X176532174Y-86568300D01*
X176674003Y-86640566D01*
X176674005Y-86640566D01*
X176674008Y-86640568D01*
X176794412Y-86679689D01*
X176898631Y-86713553D01*
X177131903Y-86750500D01*
X177131908Y-86750500D01*
X177368097Y-86750500D01*
X177601368Y-86713553D01*
X177825992Y-86640568D01*
X178036433Y-86533343D01*
X178227510Y-86394517D01*
X178394517Y-86227510D01*
X178533343Y-86036433D01*
X178640568Y-85825992D01*
X178713553Y-85601368D01*
X178735180Y-85464820D01*
X178750500Y-85368097D01*
X178750500Y-85131902D01*
X178713553Y-84898631D01*
X178640566Y-84674003D01*
X178533342Y-84463566D01*
X178394517Y-84272490D01*
X178227510Y-84105483D01*
X178036433Y-83966657D01*
X177989099Y-83942539D01*
X177825996Y-83859433D01*
X177601368Y-83786446D01*
X177368097Y-83749500D01*
X177368092Y-83749500D01*
X177131908Y-83749500D01*
X177131903Y-83749500D01*
X176898631Y-83786446D01*
X176674003Y-83859433D01*
X176463566Y-83966657D01*
X176365982Y-84037557D01*
X176272490Y-84105483D01*
X176272488Y-84105485D01*
X176272487Y-84105485D01*
X176105485Y-84272487D01*
X176105485Y-84272488D01*
X176105483Y-84272490D01*
X176084038Y-84302007D01*
X175966657Y-84463566D01*
X175859433Y-84674003D01*
X175786446Y-84898631D01*
X175749500Y-85131902D01*
X172250500Y-85131902D01*
X172213553Y-84898631D01*
X172140566Y-84674003D01*
X172033342Y-84463566D01*
X171894517Y-84272490D01*
X171727510Y-84105483D01*
X171536433Y-83966657D01*
X171489099Y-83942539D01*
X171325996Y-83859433D01*
X171101368Y-83786446D01*
X170868097Y-83749500D01*
X170868092Y-83749500D01*
X170631908Y-83749500D01*
X170631903Y-83749500D01*
X170398631Y-83786446D01*
X170174003Y-83859433D01*
X169963566Y-83966657D01*
X169865982Y-84037557D01*
X169772490Y-84105483D01*
X169772488Y-84105485D01*
X169772487Y-84105485D01*
X169605485Y-84272487D01*
X169605485Y-84272488D01*
X169605483Y-84272490D01*
X169584038Y-84302007D01*
X169466657Y-84463566D01*
X169359433Y-84674003D01*
X169286446Y-84898631D01*
X169249500Y-85131902D01*
X142400500Y-85131902D01*
X142400500Y-78131947D01*
X144250000Y-78131947D01*
X144250000Y-78368052D01*
X144286934Y-78601247D01*
X144359897Y-78825802D01*
X144467087Y-79036174D01*
X144527338Y-79119104D01*
X144527340Y-79119105D01*
X145226212Y-78420233D01*
X145237482Y-78462292D01*
X145309890Y-78587708D01*
X145412292Y-78690110D01*
X145537708Y-78762518D01*
X145579765Y-78773787D01*
X144880893Y-79472658D01*
X144963828Y-79532914D01*
X145174197Y-79640102D01*
X145398752Y-79713065D01*
X145398751Y-79713065D01*
X145631948Y-79750000D01*
X145868052Y-79750000D01*
X146101247Y-79713065D01*
X146325802Y-79640102D01*
X146536163Y-79532918D01*
X146536169Y-79532914D01*
X146619104Y-79472658D01*
X146619105Y-79472658D01*
X145920233Y-78773787D01*
X145962292Y-78762518D01*
X146087708Y-78690110D01*
X146190110Y-78587708D01*
X146262518Y-78462292D01*
X146273787Y-78420234D01*
X146972658Y-79119105D01*
X146972658Y-79119104D01*
X147032914Y-79036169D01*
X147032918Y-79036163D01*
X147140102Y-78825802D01*
X147213065Y-78601247D01*
X147250000Y-78368052D01*
X147250000Y-78131947D01*
X157750000Y-78131947D01*
X157750000Y-78368052D01*
X157786934Y-78601247D01*
X157859897Y-78825802D01*
X157967087Y-79036174D01*
X158027338Y-79119104D01*
X158027340Y-79119105D01*
X158726212Y-78420233D01*
X158737482Y-78462292D01*
X158809890Y-78587708D01*
X158912292Y-78690110D01*
X159037708Y-78762518D01*
X159079765Y-78773787D01*
X158380893Y-79472658D01*
X158463828Y-79532914D01*
X158674197Y-79640102D01*
X158898752Y-79713065D01*
X158898751Y-79713065D01*
X159131948Y-79750000D01*
X159368052Y-79750000D01*
X159601247Y-79713065D01*
X159825802Y-79640102D01*
X160036163Y-79532918D01*
X160036169Y-79532914D01*
X160119104Y-79472658D01*
X160119105Y-79472658D01*
X159420233Y-78773787D01*
X159462292Y-78762518D01*
X159587708Y-78690110D01*
X159690110Y-78587708D01*
X159762518Y-78462292D01*
X159773787Y-78420234D01*
X160472658Y-79119105D01*
X160472658Y-79119104D01*
X160532914Y-79036169D01*
X160532918Y-79036163D01*
X160640102Y-78825802D01*
X160713065Y-78601247D01*
X160750000Y-78368052D01*
X160750000Y-78131947D01*
X164250000Y-78131947D01*
X164250000Y-78368052D01*
X164286934Y-78601247D01*
X164359897Y-78825802D01*
X164467087Y-79036174D01*
X164527338Y-79119104D01*
X164527340Y-79119105D01*
X165226212Y-78420233D01*
X165237482Y-78462292D01*
X165309890Y-78587708D01*
X165412292Y-78690110D01*
X165537708Y-78762518D01*
X165579765Y-78773787D01*
X164880893Y-79472658D01*
X164963828Y-79532914D01*
X165174197Y-79640102D01*
X165398752Y-79713065D01*
X165398751Y-79713065D01*
X165631948Y-79750000D01*
X165868052Y-79750000D01*
X166101247Y-79713065D01*
X166325802Y-79640102D01*
X166536163Y-79532918D01*
X166536169Y-79532914D01*
X166619104Y-79472658D01*
X166619105Y-79472658D01*
X165920233Y-78773787D01*
X165962292Y-78762518D01*
X166087708Y-78690110D01*
X166190110Y-78587708D01*
X166262518Y-78462292D01*
X166273787Y-78420234D01*
X166972658Y-79119105D01*
X166972658Y-79119104D01*
X167032914Y-79036169D01*
X167032918Y-79036163D01*
X167140102Y-78825802D01*
X167213065Y-78601247D01*
X167250000Y-78368052D01*
X167250000Y-78131947D01*
X167213065Y-77898752D01*
X167140102Y-77674197D01*
X167032914Y-77463828D01*
X166972658Y-77380894D01*
X166972658Y-77380893D01*
X166273787Y-78079765D01*
X166262518Y-78037708D01*
X166190110Y-77912292D01*
X166087708Y-77809890D01*
X165962292Y-77737482D01*
X165920234Y-77726212D01*
X166619105Y-77027340D01*
X166619104Y-77027338D01*
X166536174Y-76967087D01*
X166325802Y-76859897D01*
X166101247Y-76786934D01*
X166101248Y-76786934D01*
X165868052Y-76750000D01*
X165631948Y-76750000D01*
X165398752Y-76786934D01*
X165174197Y-76859897D01*
X164963830Y-76967084D01*
X164880894Y-77027340D01*
X165579766Y-77726212D01*
X165537708Y-77737482D01*
X165412292Y-77809890D01*
X165309890Y-77912292D01*
X165237482Y-78037708D01*
X165226212Y-78079765D01*
X164527340Y-77380894D01*
X164467084Y-77463830D01*
X164359897Y-77674197D01*
X164286934Y-77898752D01*
X164250000Y-78131947D01*
X160750000Y-78131947D01*
X160713065Y-77898752D01*
X160640102Y-77674197D01*
X160532914Y-77463828D01*
X160472658Y-77380894D01*
X160472658Y-77380893D01*
X159773787Y-78079765D01*
X159762518Y-78037708D01*
X159690110Y-77912292D01*
X159587708Y-77809890D01*
X159462292Y-77737482D01*
X159420234Y-77726212D01*
X160119105Y-77027340D01*
X160119104Y-77027339D01*
X160036174Y-76967087D01*
X159825802Y-76859897D01*
X159601247Y-76786934D01*
X159601248Y-76786934D01*
X159368052Y-76750000D01*
X159131948Y-76750000D01*
X158898752Y-76786934D01*
X158674197Y-76859897D01*
X158463830Y-76967084D01*
X158380894Y-77027340D01*
X159079766Y-77726212D01*
X159037708Y-77737482D01*
X158912292Y-77809890D01*
X158809890Y-77912292D01*
X158737482Y-78037708D01*
X158726212Y-78079766D01*
X158027340Y-77380894D01*
X157967084Y-77463830D01*
X157859897Y-77674197D01*
X157786934Y-77898752D01*
X157750000Y-78131947D01*
X147250000Y-78131947D01*
X147213065Y-77898752D01*
X147140102Y-77674197D01*
X147032914Y-77463828D01*
X146972658Y-77380894D01*
X146972658Y-77380893D01*
X146273787Y-78079765D01*
X146262518Y-78037708D01*
X146190110Y-77912292D01*
X146087708Y-77809890D01*
X145962292Y-77737482D01*
X145920234Y-77726212D01*
X146619105Y-77027340D01*
X146619104Y-77027339D01*
X146536174Y-76967087D01*
X146325802Y-76859897D01*
X146101247Y-76786934D01*
X146101248Y-76786934D01*
X145868052Y-76750000D01*
X145631948Y-76750000D01*
X145398752Y-76786934D01*
X145174197Y-76859897D01*
X144963830Y-76967084D01*
X144880894Y-77027340D01*
X145579766Y-77726212D01*
X145537708Y-77737482D01*
X145412292Y-77809890D01*
X145309890Y-77912292D01*
X145237482Y-78037708D01*
X145226212Y-78079766D01*
X144527340Y-77380894D01*
X144467084Y-77463830D01*
X144359897Y-77674197D01*
X144286934Y-77898752D01*
X144250000Y-78131947D01*
X142400500Y-78131947D01*
X142400500Y-76389060D01*
X142400501Y-76389047D01*
X142400501Y-76220944D01*
X142389277Y-76179057D01*
X142359577Y-76068216D01*
X142359573Y-76068209D01*
X142280524Y-75931290D01*
X142280518Y-75931282D01*
X141498303Y-75149067D01*
X140702797Y-74353562D01*
X140669313Y-74292240D01*
X140672547Y-74227566D01*
X140713553Y-74101368D01*
X140733705Y-73974126D01*
X140750500Y-73868097D01*
X140750500Y-73631902D01*
X144249500Y-73631902D01*
X144249500Y-73868097D01*
X144286446Y-74101368D01*
X144359433Y-74325996D01*
X144466657Y-74536433D01*
X144605483Y-74727510D01*
X144772490Y-74894517D01*
X144963567Y-75033343D01*
X145062991Y-75084002D01*
X145174003Y-75140566D01*
X145174005Y-75140566D01*
X145174008Y-75140568D01*
X145262476Y-75169313D01*
X145398631Y-75213553D01*
X145631903Y-75250500D01*
X145631908Y-75250500D01*
X145868097Y-75250500D01*
X146101368Y-75213553D01*
X146134468Y-75202798D01*
X146325992Y-75140568D01*
X146536433Y-75033343D01*
X146727510Y-74894517D01*
X146894517Y-74727510D01*
X147033343Y-74536433D01*
X147140568Y-74325992D01*
X147213553Y-74101368D01*
X147213554Y-74101362D01*
X147250500Y-73868097D01*
X147250500Y-73631902D01*
X157749500Y-73631902D01*
X157749500Y-73868097D01*
X157786446Y-74101368D01*
X157859433Y-74325996D01*
X157966657Y-74536433D01*
X158105483Y-74727510D01*
X158272490Y-74894517D01*
X158463567Y-75033343D01*
X158562991Y-75084002D01*
X158674003Y-75140566D01*
X158674005Y-75140566D01*
X158674008Y-75140568D01*
X158762476Y-75169313D01*
X158898631Y-75213553D01*
X159131903Y-75250500D01*
X159131908Y-75250500D01*
X159368097Y-75250500D01*
X159601368Y-75213553D01*
X159634468Y-75202798D01*
X159825992Y-75140568D01*
X160036433Y-75033343D01*
X160227510Y-74894517D01*
X160394517Y-74727510D01*
X160533343Y-74536433D01*
X160640568Y-74325992D01*
X160713553Y-74101368D01*
X160713554Y-74101362D01*
X160750500Y-73868097D01*
X160750500Y-73631902D01*
X164249500Y-73631902D01*
X164249500Y-73868097D01*
X164286446Y-74101368D01*
X164359433Y-74325996D01*
X164466657Y-74536433D01*
X164605483Y-74727510D01*
X164772490Y-74894517D01*
X164963567Y-75033343D01*
X165062991Y-75084002D01*
X165174003Y-75140566D01*
X165174005Y-75140566D01*
X165174008Y-75140568D01*
X165262476Y-75169313D01*
X165398631Y-75213553D01*
X165631903Y-75250500D01*
X165631908Y-75250500D01*
X165868097Y-75250500D01*
X166101368Y-75213553D01*
X166134468Y-75202798D01*
X166325992Y-75140568D01*
X166536433Y-75033343D01*
X166727510Y-74894517D01*
X166894517Y-74727510D01*
X167033343Y-74536433D01*
X167093583Y-74418204D01*
X167141558Y-74367409D01*
X167204068Y-74350500D01*
X169392222Y-74350500D01*
X169459261Y-74370185D01*
X169479903Y-74386819D01*
X182963181Y-87870097D01*
X182996666Y-87931420D01*
X182999500Y-87957778D01*
X182999500Y-96467919D01*
X182999499Y-96467937D01*
X182999499Y-96633643D01*
X182999498Y-96633643D01*
X183040424Y-96786378D01*
X183040425Y-96786379D01*
X183061877Y-96823534D01*
X183061878Y-96823535D01*
X183119477Y-96923301D01*
X183119481Y-96923306D01*
X183238349Y-97042174D01*
X183238355Y-97042179D01*
X185963181Y-99767005D01*
X185996666Y-99828328D01*
X185999500Y-99854686D01*
X185999500Y-103710232D01*
X185979815Y-103777271D01*
X185978603Y-103779122D01*
X185934914Y-103844508D01*
X185878343Y-103981082D01*
X185878340Y-103981092D01*
X185849500Y-104126079D01*
X185849500Y-104126082D01*
X185849500Y-104273918D01*
X185849500Y-104273920D01*
X185849499Y-104273920D01*
X185878340Y-104418907D01*
X185878343Y-104418917D01*
X185934912Y-104555488D01*
X185934919Y-104555501D01*
X186017048Y-104678415D01*
X186017051Y-104678419D01*
X186121580Y-104782948D01*
X186121584Y-104782951D01*
X186244498Y-104865080D01*
X186244511Y-104865087D01*
X186381082Y-104921656D01*
X186381087Y-104921658D01*
X186381091Y-104921658D01*
X186381092Y-104921659D01*
X186526079Y-104950500D01*
X186526082Y-104950500D01*
X186673920Y-104950500D01*
X186771462Y-104931096D01*
X186818913Y-104921658D01*
X186955495Y-104865084D01*
X187078416Y-104782951D01*
X187182951Y-104678416D01*
X187265084Y-104555495D01*
X187321658Y-104418913D01*
X187350500Y-104273918D01*
X187350500Y-104126082D01*
X187350500Y-104126079D01*
X187321659Y-103981092D01*
X187321658Y-103981091D01*
X187321658Y-103981087D01*
X187265084Y-103844505D01*
X187221396Y-103779121D01*
X187200520Y-103712444D01*
X187200500Y-103710232D01*
X187200500Y-99643649D01*
X187200501Y-99643636D01*
X187200501Y-99475533D01*
X187200501Y-99475532D01*
X187159577Y-99322805D01*
X187159573Y-99322798D01*
X187080524Y-99185879D01*
X187080518Y-99185871D01*
X184236819Y-96342172D01*
X184203334Y-96280849D01*
X184200500Y-96254491D01*
X184200500Y-87578626D01*
X184200500Y-87578624D01*
X184159577Y-87425897D01*
X184159577Y-87425896D01*
X184138232Y-87388926D01*
X184109075Y-87338424D01*
X184109074Y-87338423D01*
X184092376Y-87309500D01*
X184080520Y-87288965D01*
X183968716Y-87177161D01*
X183968715Y-87177160D01*
X183964385Y-87172830D01*
X183964374Y-87172820D01*
X172470695Y-75679141D01*
X173399498Y-75679141D01*
X173413470Y-75731284D01*
X173440423Y-75831872D01*
X173461403Y-75868210D01*
X173469358Y-75881987D01*
X173469359Y-75881991D01*
X173469360Y-75881991D01*
X173519479Y-75968801D01*
X173519481Y-75968804D01*
X173638349Y-76087672D01*
X173638355Y-76087677D01*
X184563181Y-87012503D01*
X184596666Y-87073826D01*
X184599500Y-87100184D01*
X184599500Y-95313330D01*
X184599499Y-95313348D01*
X184599499Y-95479054D01*
X184599498Y-95479054D01*
X184640423Y-95631786D01*
X184640424Y-95631787D01*
X184668560Y-95680520D01*
X184719480Y-95768716D01*
X184719482Y-95768718D01*
X184838349Y-95887585D01*
X184838355Y-95887590D01*
X186429064Y-97478299D01*
X186462549Y-97539622D01*
X186463000Y-97541788D01*
X186478340Y-97618907D01*
X186478343Y-97618917D01*
X186534912Y-97755488D01*
X186534919Y-97755501D01*
X186617048Y-97878415D01*
X186617051Y-97878419D01*
X186721580Y-97982948D01*
X186721584Y-97982951D01*
X186844498Y-98065080D01*
X186844511Y-98065087D01*
X186970573Y-98117303D01*
X186981087Y-98121658D01*
X186981091Y-98121658D01*
X186981092Y-98121659D01*
X187126079Y-98150500D01*
X187126082Y-98150500D01*
X187273920Y-98150500D01*
X187371462Y-98131096D01*
X187418913Y-98121658D01*
X187555495Y-98065084D01*
X187678416Y-97982951D01*
X187782951Y-97878416D01*
X187865084Y-97755495D01*
X187921658Y-97618913D01*
X187931096Y-97571462D01*
X187950500Y-97473920D01*
X187950500Y-97326079D01*
X187921659Y-97181092D01*
X187921658Y-97181091D01*
X187921658Y-97181087D01*
X187921656Y-97181082D01*
X187865087Y-97044511D01*
X187865080Y-97044498D01*
X187782951Y-96921584D01*
X187782948Y-96921580D01*
X187678419Y-96817051D01*
X187678415Y-96817048D01*
X187555501Y-96734919D01*
X187555488Y-96734912D01*
X187418917Y-96678343D01*
X187418907Y-96678340D01*
X187341788Y-96663000D01*
X187279877Y-96630615D01*
X187278299Y-96629064D01*
X185836819Y-95187584D01*
X185803334Y-95126261D01*
X185800500Y-95099903D01*
X185800500Y-86889146D01*
X185800501Y-86889133D01*
X185800501Y-86721032D01*
X185800501Y-86721030D01*
X185759577Y-86568302D01*
X185720287Y-86500250D01*
X185680520Y-86431371D01*
X185568716Y-86319567D01*
X185568715Y-86319566D01*
X185564385Y-86315236D01*
X185564374Y-86315226D01*
X177381095Y-78131947D01*
X180750000Y-78131947D01*
X180750000Y-78368052D01*
X180786934Y-78601247D01*
X180859897Y-78825802D01*
X180967087Y-79036174D01*
X181027338Y-79119104D01*
X181027340Y-79119105D01*
X181726212Y-78420233D01*
X181737482Y-78462292D01*
X181809890Y-78587708D01*
X181912292Y-78690110D01*
X182037708Y-78762518D01*
X182079765Y-78773787D01*
X181380893Y-79472658D01*
X181463828Y-79532914D01*
X181674197Y-79640102D01*
X181898752Y-79713065D01*
X181898751Y-79713065D01*
X182131948Y-79750000D01*
X182368052Y-79750000D01*
X182601247Y-79713065D01*
X182825802Y-79640102D01*
X183036163Y-79532918D01*
X183036169Y-79532914D01*
X183119104Y-79472658D01*
X183119105Y-79472658D01*
X182420233Y-78773787D01*
X182462292Y-78762518D01*
X182587708Y-78690110D01*
X182690110Y-78587708D01*
X182762518Y-78462292D01*
X182773787Y-78420233D01*
X183472658Y-79119105D01*
X183472658Y-79119104D01*
X183532914Y-79036169D01*
X183532918Y-79036163D01*
X183640102Y-78825802D01*
X183713065Y-78601247D01*
X183750000Y-78368052D01*
X183750000Y-78131947D01*
X187250000Y-78131947D01*
X187250000Y-78368052D01*
X187286934Y-78601247D01*
X187359897Y-78825802D01*
X187467087Y-79036174D01*
X187527338Y-79119104D01*
X187527340Y-79119105D01*
X188226212Y-78420233D01*
X188237482Y-78462292D01*
X188309890Y-78587708D01*
X188412292Y-78690110D01*
X188537708Y-78762518D01*
X188579765Y-78773787D01*
X187880893Y-79472658D01*
X187963828Y-79532914D01*
X188174197Y-79640102D01*
X188398752Y-79713065D01*
X188398751Y-79713065D01*
X188631948Y-79750000D01*
X188868052Y-79750000D01*
X189101247Y-79713065D01*
X189325802Y-79640102D01*
X189536163Y-79532918D01*
X189536169Y-79532914D01*
X189619104Y-79472658D01*
X189619105Y-79472658D01*
X188920233Y-78773787D01*
X188962292Y-78762518D01*
X189087708Y-78690110D01*
X189190110Y-78587708D01*
X189262518Y-78462292D01*
X189273787Y-78420234D01*
X189972658Y-79119105D01*
X189972658Y-79119104D01*
X190032914Y-79036169D01*
X190032918Y-79036163D01*
X190140102Y-78825802D01*
X190213065Y-78601247D01*
X190250000Y-78368052D01*
X190250000Y-78131947D01*
X190213065Y-77898752D01*
X190140102Y-77674197D01*
X190032914Y-77463828D01*
X189972658Y-77380894D01*
X189972658Y-77380893D01*
X189273787Y-78079765D01*
X189262518Y-78037708D01*
X189190110Y-77912292D01*
X189087708Y-77809890D01*
X188962292Y-77737482D01*
X188920234Y-77726212D01*
X189619105Y-77027340D01*
X189619104Y-77027338D01*
X189536174Y-76967087D01*
X189325802Y-76859897D01*
X189101247Y-76786934D01*
X189101248Y-76786934D01*
X188868052Y-76750000D01*
X188631948Y-76750000D01*
X188398752Y-76786934D01*
X188174197Y-76859897D01*
X187963830Y-76967084D01*
X187880894Y-77027340D01*
X188579766Y-77726212D01*
X188537708Y-77737482D01*
X188412292Y-77809890D01*
X188309890Y-77912292D01*
X188237482Y-78037708D01*
X188226212Y-78079766D01*
X187527340Y-77380894D01*
X187467084Y-77463830D01*
X187359897Y-77674197D01*
X187286934Y-77898752D01*
X187250000Y-78131947D01*
X183750000Y-78131947D01*
X183713065Y-77898752D01*
X183640102Y-77674197D01*
X183532914Y-77463828D01*
X183472658Y-77380894D01*
X183472658Y-77380893D01*
X182773787Y-78079765D01*
X182762518Y-78037708D01*
X182690110Y-77912292D01*
X182587708Y-77809890D01*
X182462292Y-77737482D01*
X182420234Y-77726212D01*
X183119105Y-77027340D01*
X183119104Y-77027339D01*
X183036174Y-76967087D01*
X182825802Y-76859897D01*
X182601247Y-76786934D01*
X182601248Y-76786934D01*
X182368052Y-76750000D01*
X182131948Y-76750000D01*
X181898752Y-76786934D01*
X181674197Y-76859897D01*
X181463830Y-76967084D01*
X181380894Y-77027340D01*
X182079766Y-77726212D01*
X182037708Y-77737482D01*
X181912292Y-77809890D01*
X181809890Y-77912292D01*
X181737482Y-78037708D01*
X181726212Y-78079766D01*
X181027340Y-77380894D01*
X180967084Y-77463830D01*
X180859897Y-77674197D01*
X180786934Y-77898752D01*
X180750000Y-78131947D01*
X177381095Y-78131947D01*
X174636819Y-75387671D01*
X174603334Y-75326348D01*
X174600500Y-75299990D01*
X174600500Y-73631902D01*
X180749500Y-73631902D01*
X180749500Y-73868097D01*
X180786446Y-74101368D01*
X180859433Y-74325996D01*
X180966657Y-74536433D01*
X181105483Y-74727510D01*
X181272490Y-74894517D01*
X181463567Y-75033343D01*
X181562991Y-75084002D01*
X181674003Y-75140566D01*
X181674005Y-75140566D01*
X181674008Y-75140568D01*
X181762476Y-75169313D01*
X181898631Y-75213553D01*
X182131903Y-75250500D01*
X182131908Y-75250500D01*
X182368097Y-75250500D01*
X182601368Y-75213553D01*
X182634468Y-75202798D01*
X182825992Y-75140568D01*
X183036433Y-75033343D01*
X183227510Y-74894517D01*
X183394517Y-74727510D01*
X183533343Y-74536433D01*
X183640568Y-74325992D01*
X183713553Y-74101368D01*
X183713554Y-74101362D01*
X183750500Y-73868097D01*
X183750500Y-73631902D01*
X187249500Y-73631902D01*
X187249500Y-73868097D01*
X187286446Y-74101368D01*
X187359433Y-74325996D01*
X187466657Y-74536433D01*
X187605483Y-74727510D01*
X187772490Y-74894517D01*
X187963567Y-75033343D01*
X188062991Y-75084002D01*
X188174003Y-75140566D01*
X188174005Y-75140566D01*
X188174008Y-75140568D01*
X188262476Y-75169313D01*
X188398631Y-75213553D01*
X188631903Y-75250500D01*
X188631908Y-75250500D01*
X188868097Y-75250500D01*
X189101368Y-75213553D01*
X189134468Y-75202798D01*
X189325992Y-75140568D01*
X189536433Y-75033343D01*
X189727510Y-74894517D01*
X189894517Y-74727510D01*
X190033343Y-74536433D01*
X190140568Y-74325992D01*
X190213553Y-74101368D01*
X190213554Y-74101362D01*
X190250500Y-73868097D01*
X190250500Y-73631902D01*
X190213553Y-73398631D01*
X190171589Y-73269480D01*
X190140568Y-73174008D01*
X190140566Y-73174005D01*
X190140566Y-73174003D01*
X190033342Y-72963566D01*
X189894517Y-72772490D01*
X189727510Y-72605483D01*
X189536433Y-72466657D01*
X189325996Y-72359433D01*
X189101368Y-72286446D01*
X188868097Y-72249500D01*
X188868092Y-72249500D01*
X188631908Y-72249500D01*
X188631903Y-72249500D01*
X188398631Y-72286446D01*
X188174003Y-72359433D01*
X187963566Y-72466657D01*
X187854550Y-72545862D01*
X187772490Y-72605483D01*
X187772488Y-72605485D01*
X187772487Y-72605485D01*
X187605485Y-72772487D01*
X187605485Y-72772488D01*
X187605483Y-72772490D01*
X187545862Y-72854550D01*
X187466657Y-72963566D01*
X187359433Y-73174003D01*
X187286446Y-73398631D01*
X187249500Y-73631902D01*
X183750500Y-73631902D01*
X183713553Y-73398631D01*
X183671589Y-73269480D01*
X183640568Y-73174008D01*
X183640566Y-73174005D01*
X183640566Y-73174003D01*
X183533342Y-72963566D01*
X183394517Y-72772490D01*
X183227510Y-72605483D01*
X183036433Y-72466657D01*
X182825996Y-72359433D01*
X182601368Y-72286446D01*
X182368097Y-72249500D01*
X182368092Y-72249500D01*
X182131908Y-72249500D01*
X182131903Y-72249500D01*
X181898631Y-72286446D01*
X181674003Y-72359433D01*
X181463566Y-72466657D01*
X181354550Y-72545862D01*
X181272490Y-72605483D01*
X181272488Y-72605485D01*
X181272487Y-72605485D01*
X181105485Y-72772487D01*
X181105485Y-72772488D01*
X181105483Y-72772490D01*
X181045862Y-72854550D01*
X180966657Y-72963566D01*
X180859433Y-73174003D01*
X180786446Y-73398631D01*
X180749500Y-73631902D01*
X174600500Y-73631902D01*
X174600500Y-66631947D01*
X175750000Y-66631947D01*
X175750000Y-66868052D01*
X175786934Y-67101247D01*
X175859897Y-67325802D01*
X175967087Y-67536174D01*
X176027338Y-67619104D01*
X176027340Y-67619105D01*
X176726212Y-66920233D01*
X176737482Y-66962292D01*
X176809890Y-67087708D01*
X176912292Y-67190110D01*
X177037708Y-67262518D01*
X177079765Y-67273787D01*
X176380893Y-67972658D01*
X176463828Y-68032914D01*
X176674197Y-68140102D01*
X176898752Y-68213065D01*
X176898751Y-68213065D01*
X177131948Y-68250000D01*
X177368052Y-68250000D01*
X177601247Y-68213065D01*
X177825802Y-68140102D01*
X178036163Y-68032918D01*
X178036169Y-68032914D01*
X178119104Y-67972658D01*
X178119105Y-67972658D01*
X177420233Y-67273787D01*
X177462292Y-67262518D01*
X177587708Y-67190110D01*
X177690110Y-67087708D01*
X177762518Y-66962292D01*
X177773787Y-66920233D01*
X178472658Y-67619105D01*
X178472658Y-67619104D01*
X178532914Y-67536169D01*
X178532918Y-67536163D01*
X178640102Y-67325802D01*
X178713065Y-67101247D01*
X178750000Y-66868052D01*
X178750000Y-66631947D01*
X178713065Y-66398752D01*
X178640102Y-66174197D01*
X178532914Y-65963828D01*
X178472658Y-65880894D01*
X178472658Y-65880893D01*
X177773787Y-66579765D01*
X177762518Y-66537708D01*
X177690110Y-66412292D01*
X177587708Y-66309890D01*
X177462292Y-66237482D01*
X177420234Y-66226212D01*
X178119105Y-65527340D01*
X178119104Y-65527338D01*
X178036174Y-65467087D01*
X177825802Y-65359897D01*
X177601247Y-65286934D01*
X177601248Y-65286934D01*
X177368052Y-65250000D01*
X177131948Y-65250000D01*
X176898752Y-65286934D01*
X176674197Y-65359897D01*
X176463830Y-65467084D01*
X176380894Y-65527340D01*
X177079766Y-66226212D01*
X177037708Y-66237482D01*
X176912292Y-66309890D01*
X176809890Y-66412292D01*
X176737482Y-66537708D01*
X176726212Y-66579765D01*
X176027340Y-65880894D01*
X175967084Y-65963830D01*
X175859897Y-66174197D01*
X175786934Y-66398752D01*
X175750000Y-66631947D01*
X174600500Y-66631947D01*
X174600500Y-65800096D01*
X174620185Y-65733057D01*
X174636814Y-65712420D01*
X176646437Y-63702796D01*
X176707758Y-63669313D01*
X176772433Y-63672547D01*
X176898632Y-63713553D01*
X176986110Y-63727408D01*
X177131903Y-63750500D01*
X177131908Y-63750500D01*
X177368097Y-63750500D01*
X177601368Y-63713553D01*
X177634468Y-63702798D01*
X177825992Y-63640568D01*
X178036433Y-63533343D01*
X178227510Y-63394517D01*
X178394517Y-63227510D01*
X178533343Y-63036433D01*
X178640568Y-62825992D01*
X178713553Y-62601368D01*
X178747158Y-62389199D01*
X187809500Y-62389199D01*
X187809500Y-62610801D01*
X187838425Y-62830508D01*
X187844603Y-62853563D01*
X187895780Y-63044559D01*
X187980581Y-63249286D01*
X187980585Y-63249296D01*
X188091384Y-63441206D01*
X188226286Y-63617014D01*
X188226292Y-63617021D01*
X188382978Y-63773707D01*
X188382985Y-63773713D01*
X188558793Y-63908615D01*
X188750703Y-64019414D01*
X188750704Y-64019414D01*
X188750707Y-64019416D01*
X188955441Y-64104220D01*
X189169492Y-64161575D01*
X189389199Y-64190500D01*
X189389206Y-64190500D01*
X189610794Y-64190500D01*
X189610801Y-64190500D01*
X189830508Y-64161575D01*
X190044559Y-64104220D01*
X190249293Y-64019416D01*
X190441207Y-63908615D01*
X190617016Y-63773712D01*
X190773712Y-63617016D01*
X190908615Y-63441207D01*
X191019416Y-63249293D01*
X191104220Y-63044559D01*
X191161575Y-62830508D01*
X191190500Y-62610801D01*
X191190500Y-62389199D01*
X191161575Y-62169492D01*
X191104220Y-61955441D01*
X191019416Y-61750707D01*
X190908615Y-61558793D01*
X190773712Y-61382984D01*
X190773707Y-61382978D01*
X190617021Y-61226292D01*
X190617014Y-61226286D01*
X190441206Y-61091384D01*
X190249296Y-60980585D01*
X190249286Y-60980581D01*
X190044559Y-60895780D01*
X189830508Y-60838425D01*
X189830507Y-60838424D01*
X189830504Y-60838424D01*
X189610810Y-60809501D01*
X189610807Y-60809500D01*
X189610801Y-60809500D01*
X189389199Y-60809500D01*
X189389193Y-60809500D01*
X189389189Y-60809501D01*
X189169495Y-60838424D01*
X188955440Y-60895780D01*
X188750713Y-60980581D01*
X188750703Y-60980585D01*
X188558793Y-61091384D01*
X188382985Y-61226286D01*
X188382978Y-61226292D01*
X188226292Y-61382978D01*
X188226286Y-61382985D01*
X188091384Y-61558793D01*
X187980585Y-61750703D01*
X187980581Y-61750713D01*
X187895780Y-61955440D01*
X187838424Y-62169495D01*
X187812278Y-62368097D01*
X187809500Y-62389199D01*
X178747158Y-62389199D01*
X178750500Y-62368097D01*
X178750500Y-62131902D01*
X178713553Y-61898631D01*
X178640566Y-61674003D01*
X178533342Y-61463566D01*
X178394517Y-61272490D01*
X178227510Y-61105483D01*
X178036433Y-60966657D01*
X177825996Y-60859433D01*
X177601368Y-60786446D01*
X177368097Y-60749500D01*
X177368092Y-60749500D01*
X177131908Y-60749500D01*
X177131903Y-60749500D01*
X176898631Y-60786446D01*
X176674003Y-60859433D01*
X176463566Y-60966657D01*
X176354550Y-61045862D01*
X176272490Y-61105483D01*
X176272488Y-61105485D01*
X176272487Y-61105485D01*
X176105485Y-61272487D01*
X176105485Y-61272488D01*
X176105483Y-61272490D01*
X176045862Y-61354550D01*
X175966657Y-61463566D01*
X175859433Y-61674003D01*
X175786446Y-61898631D01*
X175749500Y-62131902D01*
X175749500Y-62368097D01*
X175786447Y-62601369D01*
X175786447Y-62601372D01*
X175827450Y-62727564D01*
X175829445Y-62797405D01*
X175797200Y-62853563D01*
X173631286Y-65019478D01*
X173519481Y-65131282D01*
X173519479Y-65131285D01*
X173469361Y-65218094D01*
X173469359Y-65218096D01*
X173440425Y-65268209D01*
X173440424Y-65268210D01*
X173440423Y-65268215D01*
X173399499Y-65420943D01*
X173399499Y-65579057D01*
X173399499Y-65579059D01*
X173399500Y-65589053D01*
X173399500Y-75513417D01*
X173399499Y-75513435D01*
X173399499Y-75679141D01*
X173399498Y-75679141D01*
X172470695Y-75679141D01*
X170179909Y-73388355D01*
X170179907Y-73388352D01*
X170061036Y-73269481D01*
X170061035Y-73269480D01*
X169974223Y-73219360D01*
X169974223Y-73219359D01*
X169974219Y-73219358D01*
X169924104Y-73190423D01*
X169771376Y-73149499D01*
X169613262Y-73149499D01*
X169605666Y-73149499D01*
X169605650Y-73149500D01*
X167204068Y-73149500D01*
X167137029Y-73129815D01*
X167093583Y-73081795D01*
X167033342Y-72963566D01*
X166894517Y-72772490D01*
X166727510Y-72605483D01*
X166536433Y-72466657D01*
X166325996Y-72359433D01*
X166101368Y-72286446D01*
X165868097Y-72249500D01*
X165868092Y-72249500D01*
X165631908Y-72249500D01*
X165631903Y-72249500D01*
X165398631Y-72286446D01*
X165174003Y-72359433D01*
X164963566Y-72466657D01*
X164854550Y-72545862D01*
X164772490Y-72605483D01*
X164772488Y-72605485D01*
X164772487Y-72605485D01*
X164605485Y-72772487D01*
X164605485Y-72772488D01*
X164605483Y-72772490D01*
X164545862Y-72854550D01*
X164466657Y-72963566D01*
X164359433Y-73174003D01*
X164286446Y-73398631D01*
X164249500Y-73631902D01*
X160750500Y-73631902D01*
X160713553Y-73398631D01*
X160671589Y-73269480D01*
X160640568Y-73174008D01*
X160640566Y-73174005D01*
X160640566Y-73174003D01*
X160533342Y-72963566D01*
X160394517Y-72772490D01*
X160227510Y-72605483D01*
X160036433Y-72466657D01*
X159825996Y-72359433D01*
X159601368Y-72286446D01*
X159368097Y-72249500D01*
X159368092Y-72249500D01*
X159131908Y-72249500D01*
X159131903Y-72249500D01*
X158898631Y-72286446D01*
X158674003Y-72359433D01*
X158463566Y-72466657D01*
X158354550Y-72545862D01*
X158272490Y-72605483D01*
X158272488Y-72605485D01*
X158272487Y-72605485D01*
X158105485Y-72772487D01*
X158105485Y-72772488D01*
X158105483Y-72772490D01*
X158045862Y-72854550D01*
X157966657Y-72963566D01*
X157859433Y-73174003D01*
X157786446Y-73398631D01*
X157749500Y-73631902D01*
X147250500Y-73631902D01*
X147213553Y-73398631D01*
X147171589Y-73269480D01*
X147140568Y-73174008D01*
X147140566Y-73174005D01*
X147140566Y-73174003D01*
X147033342Y-72963566D01*
X146894517Y-72772490D01*
X146727510Y-72605483D01*
X146536433Y-72466657D01*
X146325996Y-72359433D01*
X146101368Y-72286446D01*
X145868097Y-72249500D01*
X145868092Y-72249500D01*
X145631908Y-72249500D01*
X145631903Y-72249500D01*
X145398631Y-72286446D01*
X145174003Y-72359433D01*
X144963566Y-72466657D01*
X144854550Y-72545862D01*
X144772490Y-72605483D01*
X144772488Y-72605485D01*
X144772487Y-72605485D01*
X144605485Y-72772487D01*
X144605485Y-72772488D01*
X144605483Y-72772490D01*
X144545862Y-72854550D01*
X144466657Y-72963566D01*
X144359433Y-73174003D01*
X144286446Y-73398631D01*
X144249500Y-73631902D01*
X140750500Y-73631902D01*
X140713553Y-73398631D01*
X140671589Y-73269480D01*
X140640568Y-73174008D01*
X140640566Y-73174005D01*
X140640566Y-73174003D01*
X140533342Y-72963566D01*
X140394517Y-72772490D01*
X140227510Y-72605483D01*
X140036433Y-72466657D01*
X139825996Y-72359433D01*
X139601368Y-72286446D01*
X139368097Y-72249500D01*
X139368092Y-72249500D01*
X139131908Y-72249500D01*
X139131903Y-72249500D01*
X138898631Y-72286446D01*
X138674003Y-72359433D01*
X138463566Y-72466657D01*
X138354550Y-72545862D01*
X138272490Y-72605483D01*
X138272488Y-72605485D01*
X138272487Y-72605485D01*
X138105485Y-72772487D01*
X138105485Y-72772488D01*
X138105483Y-72772490D01*
X138045862Y-72854550D01*
X137966657Y-72963566D01*
X137859433Y-73174003D01*
X137786446Y-73398631D01*
X137749500Y-73631902D01*
X124250500Y-73631902D01*
X124213553Y-73398631D01*
X124171589Y-73269480D01*
X124140568Y-73174008D01*
X124140566Y-73174005D01*
X124140566Y-73174003D01*
X124033342Y-72963566D01*
X123894517Y-72772490D01*
X123727510Y-72605483D01*
X123536433Y-72466657D01*
X123325996Y-72359433D01*
X123101368Y-72286446D01*
X122868097Y-72249500D01*
X122868092Y-72249500D01*
X122631908Y-72249500D01*
X122631903Y-72249500D01*
X122398631Y-72286446D01*
X122174003Y-72359433D01*
X121963566Y-72466657D01*
X121854550Y-72545862D01*
X121772490Y-72605483D01*
X121772488Y-72605485D01*
X121772487Y-72605485D01*
X121605485Y-72772487D01*
X121605485Y-72772488D01*
X121605483Y-72772490D01*
X121545862Y-72854550D01*
X121466657Y-72963566D01*
X121359433Y-73174003D01*
X121286446Y-73398631D01*
X121249500Y-73631902D01*
X121249500Y-73868097D01*
X121286447Y-74101369D01*
X121286447Y-74101372D01*
X121327450Y-74227564D01*
X121329445Y-74297405D01*
X121297200Y-74353563D01*
X120031286Y-75619478D01*
X119919481Y-75731282D01*
X119919479Y-75731285D01*
X119869361Y-75818094D01*
X119869359Y-75818096D01*
X119840425Y-75868209D01*
X119840424Y-75868210D01*
X119824544Y-75927472D01*
X119799499Y-76020943D01*
X119799499Y-76179057D01*
X119799499Y-76179059D01*
X119799500Y-76189053D01*
X119799500Y-95113330D01*
X119799499Y-95113348D01*
X119799499Y-95279054D01*
X119799498Y-95279054D01*
X110500500Y-95279054D01*
X110500500Y-94124500D01*
X110520185Y-94057461D01*
X110572989Y-94011706D01*
X110624500Y-94000500D01*
X112718328Y-94000500D01*
X112718328Y-94000499D01*
X113153318Y-93962443D01*
X113583337Y-93886619D01*
X114005112Y-93773605D01*
X114415432Y-93624261D01*
X114811174Y-93439723D01*
X115189326Y-93221397D01*
X115254237Y-93175946D01*
X115255873Y-93174969D01*
X115262270Y-93170321D01*
X115547012Y-92970943D01*
X115613632Y-92915042D01*
X115619020Y-92911128D01*
X115636547Y-92895813D01*
X115881507Y-92690268D01*
X115948543Y-92623231D01*
X115957055Y-92615796D01*
X115980463Y-92591311D01*
X116190268Y-92381507D01*
X116256328Y-92302779D01*
X116267255Y-92291352D01*
X116292860Y-92259241D01*
X116470943Y-92047012D01*
X116534540Y-91956185D01*
X116547124Y-91940407D01*
X116572379Y-91902145D01*
X116721397Y-91689326D01*
X116780964Y-91586151D01*
X116794407Y-91565789D01*
X116817525Y-91522826D01*
X116939723Y-91311174D01*
X116993633Y-91195563D01*
X117007115Y-91170512D01*
X117026887Y-91124250D01*
X117124261Y-90915432D01*
X117124263Y-90915424D01*
X117124266Y-90915420D01*
X117169671Y-90790668D01*
X117170838Y-90787460D01*
X117183534Y-90757760D01*
X117199213Y-90709500D01*
X117273605Y-90505112D01*
X117273607Y-90505104D01*
X117273609Y-90505099D01*
X117299461Y-90408615D01*
X117311145Y-90365009D01*
X117322243Y-90330855D01*
X117333428Y-90281847D01*
X117386619Y-90083337D01*
X117413391Y-89931500D01*
X117422127Y-89893234D01*
X117428712Y-89844614D01*
X117462443Y-89653318D01*
X117476700Y-89490357D01*
X117482381Y-89448422D01*
X117484502Y-89401182D01*
X117500500Y-89218327D01*
X117500500Y-89044978D01*
X117502520Y-89000000D01*
X117500500Y-88955021D01*
X117500500Y-88781672D01*
X117500499Y-88781671D01*
X117484502Y-88598822D01*
X117482381Y-88551578D01*
X117476700Y-88509648D01*
X117462443Y-88346682D01*
X117428712Y-88155389D01*
X117422127Y-88106766D01*
X117413387Y-88068473D01*
X117412850Y-88065428D01*
X117412850Y-88065427D01*
X117411680Y-88058793D01*
X117386619Y-87916663D01*
X117333429Y-87718157D01*
X117322243Y-87669145D01*
X117311143Y-87634983D01*
X117273605Y-87494888D01*
X117199216Y-87290505D01*
X117183534Y-87242240D01*
X117170835Y-87212530D01*
X117124261Y-87084568D01*
X117026892Y-86875761D01*
X117007115Y-86829488D01*
X116993631Y-86804433D01*
X116939723Y-86688826D01*
X116817531Y-86477184D01*
X116794407Y-86434211D01*
X116780959Y-86413839D01*
X116721397Y-86310674D01*
X116572393Y-86097875D01*
X116547124Y-86059593D01*
X116534535Y-86043807D01*
X116470943Y-85952988D01*
X116470942Y-85952986D01*
X116360707Y-85821614D01*
X116292893Y-85740797D01*
X116267255Y-85708648D01*
X116256324Y-85697215D01*
X116253743Y-85694139D01*
X116253742Y-85694138D01*
X116190282Y-85618510D01*
X116190268Y-85618493D01*
X115980487Y-85408712D01*
X115957055Y-85384204D01*
X115948537Y-85376762D01*
X115881509Y-85309734D01*
X115637523Y-85105004D01*
X115637523Y-85105003D01*
X115636524Y-85104165D01*
X115619020Y-85088872D01*
X115613631Y-85084957D01*
X115610311Y-85082171D01*
X115610308Y-85082169D01*
X115547013Y-85029057D01*
X115360689Y-84898592D01*
X115263094Y-84830256D01*
X115262268Y-84829677D01*
X115255873Y-84825031D01*
X115254239Y-84824055D01*
X115250571Y-84821486D01*
X115250563Y-84821481D01*
X115189343Y-84778615D01*
X115189326Y-84778603D01*
X115008162Y-84674008D01*
X114811180Y-84560280D01*
X114811164Y-84560272D01*
X114415449Y-84375746D01*
X114415434Y-84375740D01*
X114415432Y-84375739D01*
X114212855Y-84302007D01*
X114005105Y-84226392D01*
X113583344Y-84113383D01*
X113583347Y-84113383D01*
X113583337Y-84113381D01*
X113583331Y-84113379D01*
X113583327Y-84113379D01*
X113153322Y-84037557D01*
X112718330Y-83999500D01*
X112718327Y-83999500D01*
X112500207Y-83999500D01*
X110624500Y-83999500D01*
X110557461Y-83979815D01*
X110511706Y-83927011D01*
X110500500Y-83875500D01*
X110500500Y-78131947D01*
X114750000Y-78131947D01*
X114750000Y-78368052D01*
X114786934Y-78601247D01*
X114859897Y-78825802D01*
X114967087Y-79036174D01*
X115027338Y-79119104D01*
X115027340Y-79119105D01*
X115726212Y-78420233D01*
X115737482Y-78462292D01*
X115809890Y-78587708D01*
X115912292Y-78690110D01*
X116037708Y-78762518D01*
X116079765Y-78773787D01*
X115380893Y-79472658D01*
X115463828Y-79532914D01*
X115674197Y-79640102D01*
X115898752Y-79713065D01*
X115898751Y-79713065D01*
X116131948Y-79750000D01*
X116368052Y-79750000D01*
X116601247Y-79713065D01*
X116825802Y-79640102D01*
X117036163Y-79532918D01*
X117036169Y-79532914D01*
X117119104Y-79472658D01*
X117119105Y-79472658D01*
X116420233Y-78773787D01*
X116462292Y-78762518D01*
X116587708Y-78690110D01*
X116690110Y-78587708D01*
X116762518Y-78462292D01*
X116773787Y-78420234D01*
X117472658Y-79119105D01*
X117472658Y-79119104D01*
X117532914Y-79036169D01*
X117532918Y-79036163D01*
X117640102Y-78825802D01*
X117713065Y-78601247D01*
X117750000Y-78368052D01*
X117750000Y-78131947D01*
X117713065Y-77898752D01*
X117640102Y-77674197D01*
X117532914Y-77463828D01*
X117472658Y-77380894D01*
X117472658Y-77380893D01*
X116773787Y-78079765D01*
X116762518Y-78037708D01*
X116690110Y-77912292D01*
X116587708Y-77809890D01*
X116462292Y-77737482D01*
X116420234Y-77726212D01*
X117119105Y-77027340D01*
X117119104Y-77027338D01*
X117036174Y-76967087D01*
X116825802Y-76859897D01*
X116601247Y-76786934D01*
X116601248Y-76786934D01*
X116368052Y-76750000D01*
X116131948Y-76750000D01*
X115898752Y-76786934D01*
X115674197Y-76859897D01*
X115463830Y-76967084D01*
X115380894Y-77027340D01*
X116079766Y-77726212D01*
X116037708Y-77737482D01*
X115912292Y-77809890D01*
X115809890Y-77912292D01*
X115737482Y-78037708D01*
X115726212Y-78079766D01*
X115027340Y-77380894D01*
X114967084Y-77463830D01*
X114859897Y-77674197D01*
X114786934Y-77898752D01*
X114750000Y-78131947D01*
X110500500Y-78131947D01*
X110500500Y-73631902D01*
X114749500Y-73631902D01*
X114749500Y-73868097D01*
X114786446Y-74101368D01*
X114859433Y-74325996D01*
X114966657Y-74536433D01*
X115105483Y-74727510D01*
X115272490Y-74894517D01*
X115463567Y-75033343D01*
X115562991Y-75084002D01*
X115674003Y-75140566D01*
X115674005Y-75140566D01*
X115674008Y-75140568D01*
X115762476Y-75169313D01*
X115898631Y-75213553D01*
X116131903Y-75250500D01*
X116131908Y-75250500D01*
X116368097Y-75250500D01*
X116601368Y-75213553D01*
X116634468Y-75202798D01*
X116825992Y-75140568D01*
X117036433Y-75033343D01*
X117227510Y-74894517D01*
X117394517Y-74727510D01*
X117533343Y-74536433D01*
X117640568Y-74325992D01*
X117713553Y-74101368D01*
X117713554Y-74101362D01*
X117750500Y-73868097D01*
X117750500Y-73631902D01*
X117713553Y-73398631D01*
X117671589Y-73269480D01*
X117640568Y-73174008D01*
X117640566Y-73174005D01*
X117640566Y-73174003D01*
X117533342Y-72963566D01*
X117394517Y-72772490D01*
X117227510Y-72605483D01*
X117036433Y-72466657D01*
X116825996Y-72359433D01*
X116601368Y-72286446D01*
X116368097Y-72249500D01*
X116368092Y-72249500D01*
X116131908Y-72249500D01*
X116131903Y-72249500D01*
X115898631Y-72286446D01*
X115674003Y-72359433D01*
X115463566Y-72466657D01*
X115354550Y-72545862D01*
X115272490Y-72605483D01*
X115272488Y-72605485D01*
X115272487Y-72605485D01*
X115105485Y-72772487D01*
X115105485Y-72772488D01*
X115105483Y-72772490D01*
X115045862Y-72854550D01*
X114966657Y-72963566D01*
X114859433Y-73174003D01*
X114786446Y-73398631D01*
X114749500Y-73631902D01*
X110500500Y-73631902D01*
X110500500Y-66631947D01*
X126250000Y-66631947D01*
X126250000Y-66868052D01*
X126286934Y-67101247D01*
X126359897Y-67325802D01*
X126467087Y-67536174D01*
X126527338Y-67619104D01*
X126527340Y-67619105D01*
X127226212Y-66920233D01*
X127237482Y-66962292D01*
X127309890Y-67087708D01*
X127412292Y-67190110D01*
X127537708Y-67262518D01*
X127579765Y-67273787D01*
X126880893Y-67972658D01*
X126963828Y-68032914D01*
X127174197Y-68140102D01*
X127398752Y-68213065D01*
X127398751Y-68213065D01*
X127631948Y-68250000D01*
X127868052Y-68250000D01*
X128101247Y-68213065D01*
X128325802Y-68140102D01*
X128536163Y-68032918D01*
X128536169Y-68032914D01*
X128619104Y-67972658D01*
X128619105Y-67972658D01*
X127920233Y-67273787D01*
X127962292Y-67262518D01*
X128087708Y-67190110D01*
X128190110Y-67087708D01*
X128262518Y-66962292D01*
X128273787Y-66920234D01*
X128972658Y-67619105D01*
X128972658Y-67619104D01*
X129032914Y-67536169D01*
X129032918Y-67536163D01*
X129140102Y-67325802D01*
X129213065Y-67101247D01*
X129250000Y-66868052D01*
X129250000Y-66631947D01*
X132750000Y-66631947D01*
X132750000Y-66868052D01*
X132786934Y-67101247D01*
X132859897Y-67325802D01*
X132967087Y-67536174D01*
X133027338Y-67619104D01*
X133027340Y-67619105D01*
X133726212Y-66920233D01*
X133737482Y-66962292D01*
X133809890Y-67087708D01*
X133912292Y-67190110D01*
X134037708Y-67262518D01*
X134079765Y-67273787D01*
X133380893Y-67972658D01*
X133463828Y-68032914D01*
X133674197Y-68140102D01*
X133898752Y-68213065D01*
X133898751Y-68213065D01*
X134131948Y-68250000D01*
X134368052Y-68250000D01*
X134601247Y-68213065D01*
X134825802Y-68140102D01*
X135036163Y-68032918D01*
X135036169Y-68032914D01*
X135119104Y-67972658D01*
X135119105Y-67972658D01*
X134420233Y-67273787D01*
X134462292Y-67262518D01*
X134587708Y-67190110D01*
X134690110Y-67087708D01*
X134762518Y-66962292D01*
X134773787Y-66920234D01*
X135472658Y-67619105D01*
X135472658Y-67619104D01*
X135532914Y-67536169D01*
X135532918Y-67536163D01*
X135640102Y-67325802D01*
X135713065Y-67101247D01*
X135750000Y-66868052D01*
X135750000Y-66631947D01*
X169250000Y-66631947D01*
X169250000Y-66868052D01*
X169286934Y-67101247D01*
X169359897Y-67325802D01*
X169467087Y-67536174D01*
X169527338Y-67619104D01*
X169527340Y-67619105D01*
X170226212Y-66920233D01*
X170237482Y-66962292D01*
X170309890Y-67087708D01*
X170412292Y-67190110D01*
X170537708Y-67262518D01*
X170579765Y-67273787D01*
X169880893Y-67972658D01*
X169963828Y-68032914D01*
X170174197Y-68140102D01*
X170398752Y-68213065D01*
X170398751Y-68213065D01*
X170631948Y-68250000D01*
X170868052Y-68250000D01*
X171101247Y-68213065D01*
X171325802Y-68140102D01*
X171536163Y-68032918D01*
X171536169Y-68032914D01*
X171619104Y-67972658D01*
X171619105Y-67972658D01*
X170920233Y-67273787D01*
X170962292Y-67262518D01*
X171087708Y-67190110D01*
X171190110Y-67087708D01*
X171262518Y-66962292D01*
X171273787Y-66920234D01*
X171972658Y-67619105D01*
X171972658Y-67619104D01*
X172032914Y-67536169D01*
X172032918Y-67536163D01*
X172140102Y-67325802D01*
X172213065Y-67101247D01*
X172250000Y-66868052D01*
X172250000Y-66631947D01*
X172213065Y-66398752D01*
X172140102Y-66174197D01*
X172032914Y-65963828D01*
X171972658Y-65880894D01*
X171972658Y-65880893D01*
X171273787Y-66579765D01*
X171262518Y-66537708D01*
X171190110Y-66412292D01*
X171087708Y-66309890D01*
X170962292Y-66237482D01*
X170920234Y-66226212D01*
X171619105Y-65527340D01*
X171619104Y-65527338D01*
X171599552Y-65513133D01*
X171536174Y-65467087D01*
X171325802Y-65359897D01*
X171101247Y-65286934D01*
X171101248Y-65286934D01*
X170868052Y-65250000D01*
X170631948Y-65250000D01*
X170398752Y-65286934D01*
X170174197Y-65359897D01*
X169963830Y-65467084D01*
X169880894Y-65527340D01*
X170579766Y-66226212D01*
X170537708Y-66237482D01*
X170412292Y-66309890D01*
X170309890Y-66412292D01*
X170237482Y-66537708D01*
X170226212Y-66579765D01*
X169527340Y-65880894D01*
X169467084Y-65963830D01*
X169359897Y-66174197D01*
X169286934Y-66398752D01*
X169250000Y-66631947D01*
X135750000Y-66631947D01*
X135713065Y-66398752D01*
X135640102Y-66174197D01*
X135532914Y-65963828D01*
X135472658Y-65880894D01*
X135472658Y-65880893D01*
X134773787Y-66579765D01*
X134762518Y-66537708D01*
X134690110Y-66412292D01*
X134587708Y-66309890D01*
X134462292Y-66237482D01*
X134420234Y-66226212D01*
X135119105Y-65527340D01*
X135119104Y-65527339D01*
X135036174Y-65467087D01*
X134825802Y-65359897D01*
X134601247Y-65286934D01*
X134601248Y-65286934D01*
X134368052Y-65250000D01*
X134131948Y-65250000D01*
X133898752Y-65286934D01*
X133674197Y-65359897D01*
X133463830Y-65467084D01*
X133380894Y-65527340D01*
X134079766Y-66226212D01*
X134037708Y-66237482D01*
X133912292Y-66309890D01*
X133809890Y-66412292D01*
X133737482Y-66537708D01*
X133726212Y-66579766D01*
X133027340Y-65880894D01*
X132967084Y-65963830D01*
X132859897Y-66174197D01*
X132786934Y-66398752D01*
X132750000Y-66631947D01*
X129250000Y-66631947D01*
X129213065Y-66398752D01*
X129140102Y-66174197D01*
X129032914Y-65963828D01*
X128972658Y-65880894D01*
X128972658Y-65880893D01*
X128273787Y-66579765D01*
X128262518Y-66537708D01*
X128190110Y-66412292D01*
X128087708Y-66309890D01*
X127962292Y-66237482D01*
X127920234Y-66226212D01*
X128619105Y-65527340D01*
X128619104Y-65527339D01*
X128536174Y-65467087D01*
X128325802Y-65359897D01*
X128101247Y-65286934D01*
X128101248Y-65286934D01*
X127868052Y-65250000D01*
X127631948Y-65250000D01*
X127398752Y-65286934D01*
X127174197Y-65359897D01*
X126963830Y-65467084D01*
X126880894Y-65527340D01*
X127579766Y-66226212D01*
X127537708Y-66237482D01*
X127412292Y-66309890D01*
X127309890Y-66412292D01*
X127237482Y-66537708D01*
X127226212Y-66579766D01*
X126527340Y-65880894D01*
X126467084Y-65963830D01*
X126359897Y-66174197D01*
X126286934Y-66398752D01*
X126250000Y-66631947D01*
X110500500Y-66631947D01*
X110500500Y-62389199D01*
X114309500Y-62389199D01*
X114309500Y-62610801D01*
X114338425Y-62830508D01*
X114344603Y-62853563D01*
X114395780Y-63044559D01*
X114480581Y-63249286D01*
X114480585Y-63249296D01*
X114591384Y-63441206D01*
X114726286Y-63617014D01*
X114726292Y-63617021D01*
X114882978Y-63773707D01*
X114882985Y-63773713D01*
X115058793Y-63908615D01*
X115250703Y-64019414D01*
X115250704Y-64019414D01*
X115250707Y-64019416D01*
X115455441Y-64104220D01*
X115669492Y-64161575D01*
X115889199Y-64190500D01*
X115889206Y-64190500D01*
X116110794Y-64190500D01*
X116110801Y-64190500D01*
X116330508Y-64161575D01*
X116544559Y-64104220D01*
X116749293Y-64019416D01*
X116941207Y-63908615D01*
X117117016Y-63773712D01*
X117273712Y-63617016D01*
X117408615Y-63441207D01*
X117519416Y-63249293D01*
X117604220Y-63044559D01*
X117661575Y-62830508D01*
X117690500Y-62610801D01*
X117690500Y-62389199D01*
X117661575Y-62169492D01*
X117651503Y-62131902D01*
X126249500Y-62131902D01*
X126249500Y-62368097D01*
X126286446Y-62601368D01*
X126359433Y-62825996D01*
X126466657Y-63036433D01*
X126605483Y-63227510D01*
X126772490Y-63394517D01*
X126963567Y-63533343D01*
X127062991Y-63584002D01*
X127174003Y-63640566D01*
X127174005Y-63640566D01*
X127174008Y-63640568D01*
X127262476Y-63669313D01*
X127398631Y-63713553D01*
X127631903Y-63750500D01*
X127631908Y-63750500D01*
X127868097Y-63750500D01*
X128101368Y-63713553D01*
X128134468Y-63702798D01*
X128325992Y-63640568D01*
X128536433Y-63533343D01*
X128727510Y-63394517D01*
X128894517Y-63227510D01*
X129033343Y-63036433D01*
X129140568Y-62825992D01*
X129213553Y-62601368D01*
X129250500Y-62368097D01*
X129250500Y-62131902D01*
X132749500Y-62131902D01*
X132749500Y-62368097D01*
X132786446Y-62601368D01*
X132859433Y-62825996D01*
X132966657Y-63036433D01*
X133105483Y-63227510D01*
X133272490Y-63394517D01*
X133463567Y-63533343D01*
X133562991Y-63584002D01*
X133674003Y-63640566D01*
X133674005Y-63640566D01*
X133674008Y-63640568D01*
X133762476Y-63669313D01*
X133898631Y-63713553D01*
X134131903Y-63750500D01*
X134131908Y-63750500D01*
X134368097Y-63750500D01*
X134601368Y-63713553D01*
X134634468Y-63702798D01*
X134825992Y-63640568D01*
X135036433Y-63533343D01*
X135227510Y-63394517D01*
X135394517Y-63227510D01*
X135533343Y-63036433D01*
X135640568Y-62825992D01*
X135713553Y-62601368D01*
X135747158Y-62389199D01*
X151309500Y-62389199D01*
X151309500Y-62610801D01*
X151338425Y-62830508D01*
X151344603Y-62853563D01*
X151395780Y-63044559D01*
X151480581Y-63249286D01*
X151480585Y-63249296D01*
X151591384Y-63441206D01*
X151726286Y-63617014D01*
X151726292Y-63617021D01*
X151882978Y-63773707D01*
X151882985Y-63773713D01*
X152058793Y-63908615D01*
X152250703Y-64019414D01*
X152250704Y-64019414D01*
X152250707Y-64019416D01*
X152455441Y-64104220D01*
X152669492Y-64161575D01*
X152889199Y-64190500D01*
X152889206Y-64190500D01*
X153110794Y-64190500D01*
X153110801Y-64190500D01*
X153330508Y-64161575D01*
X153544559Y-64104220D01*
X153749293Y-64019416D01*
X153941207Y-63908615D01*
X154117016Y-63773712D01*
X154273712Y-63617016D01*
X154408615Y-63441207D01*
X154519416Y-63249293D01*
X154604220Y-63044559D01*
X154661575Y-62830508D01*
X154690500Y-62610801D01*
X154690500Y-62389199D01*
X154661575Y-62169492D01*
X154651503Y-62131902D01*
X169249500Y-62131902D01*
X169249500Y-62368097D01*
X169286446Y-62601368D01*
X169359433Y-62825996D01*
X169466657Y-63036433D01*
X169605483Y-63227510D01*
X169772490Y-63394517D01*
X169963567Y-63533343D01*
X170062991Y-63584002D01*
X170174003Y-63640566D01*
X170174005Y-63640566D01*
X170174008Y-63640568D01*
X170262476Y-63669313D01*
X170398631Y-63713553D01*
X170631903Y-63750500D01*
X170631908Y-63750500D01*
X170868097Y-63750500D01*
X171101368Y-63713553D01*
X171134468Y-63702798D01*
X171325992Y-63640568D01*
X171536433Y-63533343D01*
X171727510Y-63394517D01*
X171894517Y-63227510D01*
X172033343Y-63036433D01*
X172140568Y-62825992D01*
X172213553Y-62601368D01*
X172250500Y-62368097D01*
X172250500Y-62131902D01*
X172213553Y-61898631D01*
X172140566Y-61674003D01*
X172033342Y-61463566D01*
X171894517Y-61272490D01*
X171727510Y-61105483D01*
X171536433Y-60966657D01*
X171325996Y-60859433D01*
X171101368Y-60786446D01*
X170868097Y-60749500D01*
X170868092Y-60749500D01*
X170631908Y-60749500D01*
X170631903Y-60749500D01*
X170398631Y-60786446D01*
X170174003Y-60859433D01*
X169963566Y-60966657D01*
X169854550Y-61045862D01*
X169772490Y-61105483D01*
X169772488Y-61105485D01*
X169772487Y-61105485D01*
X169605485Y-61272487D01*
X169605485Y-61272488D01*
X169605483Y-61272490D01*
X169545862Y-61354550D01*
X169466657Y-61463566D01*
X169359433Y-61674003D01*
X169286446Y-61898631D01*
X169249500Y-62131902D01*
X154651503Y-62131902D01*
X154604220Y-61955441D01*
X154519416Y-61750707D01*
X154408615Y-61558793D01*
X154273712Y-61382984D01*
X154273707Y-61382978D01*
X154117021Y-61226292D01*
X154117014Y-61226286D01*
X153941206Y-61091384D01*
X153749296Y-60980585D01*
X153749286Y-60980581D01*
X153544559Y-60895780D01*
X153330508Y-60838425D01*
X153330507Y-60838424D01*
X153330504Y-60838424D01*
X153110810Y-60809501D01*
X153110807Y-60809500D01*
X153110801Y-60809500D01*
X152889199Y-60809500D01*
X152889193Y-60809500D01*
X152889189Y-60809501D01*
X152669495Y-60838424D01*
X152455440Y-60895780D01*
X152250713Y-60980581D01*
X152250703Y-60980585D01*
X152058793Y-61091384D01*
X151882985Y-61226286D01*
X151882978Y-61226292D01*
X151726292Y-61382978D01*
X151726286Y-61382985D01*
X151591384Y-61558793D01*
X151480585Y-61750703D01*
X151480581Y-61750713D01*
X151395780Y-61955440D01*
X151338424Y-62169495D01*
X151312278Y-62368097D01*
X151309500Y-62389199D01*
X135747158Y-62389199D01*
X135750500Y-62368097D01*
X135750500Y-62131902D01*
X135713553Y-61898631D01*
X135640566Y-61674003D01*
X135533342Y-61463566D01*
X135394517Y-61272490D01*
X135227510Y-61105483D01*
X135036433Y-60966657D01*
X134825996Y-60859433D01*
X134601368Y-60786446D01*
X134368097Y-60749500D01*
X134368092Y-60749500D01*
X134131908Y-60749500D01*
X134131903Y-60749500D01*
X133898631Y-60786446D01*
X133674003Y-60859433D01*
X133463566Y-60966657D01*
X133354550Y-61045862D01*
X133272490Y-61105483D01*
X133272488Y-61105485D01*
X133272487Y-61105485D01*
X133105485Y-61272487D01*
X133105485Y-61272488D01*
X133105483Y-61272490D01*
X133045862Y-61354550D01*
X132966657Y-61463566D01*
X132859433Y-61674003D01*
X132786446Y-61898631D01*
X132749500Y-62131902D01*
X129250500Y-62131902D01*
X129213553Y-61898631D01*
X129140566Y-61674003D01*
X129033342Y-61463566D01*
X128894517Y-61272490D01*
X128727510Y-61105483D01*
X128536433Y-60966657D01*
X128325996Y-60859433D01*
X128101368Y-60786446D01*
X127868097Y-60749500D01*
X127868092Y-60749500D01*
X127631908Y-60749500D01*
X127631903Y-60749500D01*
X127398631Y-60786446D01*
X127174003Y-60859433D01*
X126963566Y-60966657D01*
X126854550Y-61045862D01*
X126772490Y-61105483D01*
X126772488Y-61105485D01*
X126772487Y-61105485D01*
X126605485Y-61272487D01*
X126605485Y-61272488D01*
X126605483Y-61272490D01*
X126545862Y-61354550D01*
X126466657Y-61463566D01*
X126359433Y-61674003D01*
X126286446Y-61898631D01*
X126249500Y-62131902D01*
X117651503Y-62131902D01*
X117604220Y-61955441D01*
X117519416Y-61750707D01*
X117408615Y-61558793D01*
X117273712Y-61382984D01*
X117273707Y-61382978D01*
X117117021Y-61226292D01*
X117117014Y-61226286D01*
X116941206Y-61091384D01*
X116749296Y-60980585D01*
X116749286Y-60980581D01*
X116544559Y-60895780D01*
X116330508Y-60838425D01*
X116330507Y-60838424D01*
X116330504Y-60838424D01*
X116110810Y-60809501D01*
X116110807Y-60809500D01*
X116110801Y-60809500D01*
X115889199Y-60809500D01*
X115889193Y-60809500D01*
X115889189Y-60809501D01*
X115669495Y-60838424D01*
X115455440Y-60895780D01*
X115250713Y-60980581D01*
X115250703Y-60980585D01*
X115058793Y-61091384D01*
X114882985Y-61226286D01*
X114882978Y-61226292D01*
X114726292Y-61382978D01*
X114726286Y-61382985D01*
X114591384Y-61558793D01*
X114480585Y-61750703D01*
X114480581Y-61750713D01*
X114395780Y-61955440D01*
X114338424Y-62169495D01*
X114312278Y-62368097D01*
X114309500Y-62389199D01*
X110500500Y-62389199D01*
X110500500Y-59004066D01*
X110500765Y-58995957D01*
X110500858Y-58994536D01*
X110515681Y-58768378D01*
X110516670Y-58758911D01*
X110524090Y-58707308D01*
X110525193Y-58700868D01*
X110564312Y-58504200D01*
X110566938Y-58493513D01*
X110579361Y-58451205D01*
X110580877Y-58446412D01*
X110648231Y-58247996D01*
X110652834Y-58236397D01*
X110663477Y-58213093D01*
X110664987Y-58209913D01*
X110764790Y-58007533D01*
X110772893Y-57993498D01*
X110909182Y-57789527D01*
X110919039Y-57776681D01*
X111080786Y-57592244D01*
X111092244Y-57580786D01*
X111276681Y-57419039D01*
X111289527Y-57409182D01*
X111493498Y-57272893D01*
X111507533Y-57264790D01*
X111709913Y-57164987D01*
X111713093Y-57163477D01*
X111736397Y-57152834D01*
X111747996Y-57148231D01*
X111946412Y-57080877D01*
X111951205Y-57079361D01*
X111993513Y-57066938D01*
X112004200Y-57064312D01*
X112200868Y-57025193D01*
X112207308Y-57024090D01*
X112258911Y-57016670D01*
X112268378Y-57015681D01*
X112483057Y-57001610D01*
X112495958Y-57000765D01*
X112504067Y-57000500D01*
X192495933Y-57000500D01*
X192504042Y-57000765D01*
G37*
%TD.AperFunction*%
%TD*%
M02*
