%TF.GenerationSoftware,KiCad,Pcbnew,9.0.2*%
%TF.CreationDate,2025-07-13T15:32:31+02:00*%
%TF.ProjectId,buttboard,62757474-626f-4617-9264-2e6b69636164,rev?*%
%TF.SameCoordinates,Original*%
%TF.FileFunction,Soldermask,Bot*%
%TF.FilePolarity,Negative*%
%FSLAX46Y46*%
G04 Gerber Fmt 4.6, Leading zero omitted, Abs format (unit mm)*
G04 Created by KiCad (PCBNEW 9.0.2) date 2025-07-13 15:32:31*
%MOMM*%
%LPD*%
G01*
G04 APERTURE LIST*
%ADD10R,1.700000X1.700000*%
%ADD11C,1.700000*%
%ADD12C,2.000000*%
%ADD13C,3.000000*%
G04 APERTURE END LIST*
D10*
%TO.C,J1*%
X147420000Y-99000000D03*
D11*
X149960000Y-99000000D03*
X152500000Y-99000000D03*
X155040000Y-99000000D03*
X157580000Y-99000000D03*
%TD*%
D12*
%TO.C,SW8*%
X170750000Y-85250000D03*
X177250000Y-85250000D03*
X170750000Y-89750000D03*
X177250000Y-89750000D03*
%TD*%
D13*
%TO.C,H11*%
X153000000Y-125000000D03*
%TD*%
D12*
%TO.C,SW9*%
X121750000Y-126250000D03*
X128250000Y-126250000D03*
X121750000Y-130750000D03*
X128250000Y-130750000D03*
%TD*%
%TO.C,SW4*%
X116250000Y-73750000D03*
X122750000Y-73750000D03*
X116250000Y-78250000D03*
X122750000Y-78250000D03*
%TD*%
D13*
%TO.C,H8*%
X116000000Y-117000000D03*
%TD*%
D12*
%TO.C,SW5*%
X170750000Y-62250000D03*
X177250000Y-62250000D03*
X170750000Y-66750000D03*
X177250000Y-66750000D03*
%TD*%
%TO.C,SW6*%
X159250000Y-73750000D03*
X165750000Y-73750000D03*
X159250000Y-78250000D03*
X165750000Y-78250000D03*
%TD*%
%TO.C,SW7*%
X182250000Y-73750000D03*
X188750000Y-73750000D03*
X182250000Y-78250000D03*
X188750000Y-78250000D03*
%TD*%
%TO.C,SW10*%
X176750000Y-126250000D03*
X183250000Y-126250000D03*
X176750000Y-130750000D03*
X183250000Y-130750000D03*
%TD*%
D13*
%TO.C,H9*%
X189500000Y-117000000D03*
%TD*%
%TO.C,H7*%
X153000000Y-62500000D03*
%TD*%
D12*
%TO.C,SW1*%
X127750000Y-62250000D03*
X134250000Y-62250000D03*
X127750000Y-66750000D03*
X134250000Y-66750000D03*
%TD*%
D13*
%TO.C,H5*%
X116000000Y-62500000D03*
%TD*%
D12*
%TO.C,SW3*%
X139250000Y-73750000D03*
X145750000Y-73750000D03*
X139250000Y-78250000D03*
X145750000Y-78250000D03*
%TD*%
D13*
%TO.C,H10*%
X153000000Y-89000000D03*
%TD*%
D12*
%TO.C,SW2*%
X127750000Y-85250000D03*
X134250000Y-85250000D03*
X127750000Y-89750000D03*
X134250000Y-89750000D03*
%TD*%
D13*
%TO.C,H6*%
X189500000Y-62500000D03*
%TD*%
M02*
