%TF.GenerationSoftware,KiCad,Pcbnew,9.0.2*%
%TF.CreationDate,2025-07-13T15:32:31+02:00*%
%TF.ProjectId,buttboard,62757474-626f-4617-9264-2e6b69636164,rev?*%
%TF.SameCoordinates,Original*%
%TF.FileFunction,Legend,Top*%
%TF.FilePolarity,Positive*%
%FSLAX46Y46*%
G04 Gerber Fmt 4.6, Leading zero omitted, Abs format (unit mm)*
G04 Created by KiCad (PCBNEW 9.0.2) date 2025-07-13 15:32:31*
%MOMM*%
%LPD*%
G01*
G04 APERTURE LIST*
%ADD10C,0.150000*%
%ADD11C,0.152400*%
%ADD12C,0.120000*%
%ADD13C,0.000000*%
%ADD14R,0.800000X0.300000*%
%ADD15R,3.049999X1.300000*%
%ADD16R,1.700000X1.700000*%
%ADD17C,1.700000*%
%ADD18C,2.000000*%
%ADD19C,3.000000*%
G04 APERTURE END LIST*
D10*
X115249931Y-106695238D02*
X114773740Y-107028571D01*
X115249931Y-107266666D02*
X114249931Y-107266666D01*
X114249931Y-107266666D02*
X114249931Y-106885714D01*
X114249931Y-106885714D02*
X114297550Y-106790476D01*
X114297550Y-106790476D02*
X114345169Y-106742857D01*
X114345169Y-106742857D02*
X114440407Y-106695238D01*
X114440407Y-106695238D02*
X114583264Y-106695238D01*
X114583264Y-106695238D02*
X114678502Y-106742857D01*
X114678502Y-106742857D02*
X114726121Y-106790476D01*
X114726121Y-106790476D02*
X114773740Y-106885714D01*
X114773740Y-106885714D02*
X114773740Y-107266666D01*
X115202312Y-105885714D02*
X115249931Y-105980952D01*
X115249931Y-105980952D02*
X115249931Y-106171428D01*
X115249931Y-106171428D02*
X115202312Y-106266666D01*
X115202312Y-106266666D02*
X115107073Y-106314285D01*
X115107073Y-106314285D02*
X114726121Y-106314285D01*
X114726121Y-106314285D02*
X114630883Y-106266666D01*
X114630883Y-106266666D02*
X114583264Y-106171428D01*
X114583264Y-106171428D02*
X114583264Y-105980952D01*
X114583264Y-105980952D02*
X114630883Y-105885714D01*
X114630883Y-105885714D02*
X114726121Y-105838095D01*
X114726121Y-105838095D02*
X114821359Y-105838095D01*
X114821359Y-105838095D02*
X114916597Y-106314285D01*
X114583264Y-105552380D02*
X114583264Y-105171428D01*
X114249931Y-105409523D02*
X115107073Y-105409523D01*
X115107073Y-105409523D02*
X115202312Y-105361904D01*
X115202312Y-105361904D02*
X115249931Y-105266666D01*
X115249931Y-105266666D02*
X115249931Y-105171428D01*
X115249931Y-104838094D02*
X114583264Y-104838094D01*
X114773740Y-104838094D02*
X114678502Y-104790475D01*
X114678502Y-104790475D02*
X114630883Y-104742856D01*
X114630883Y-104742856D02*
X114583264Y-104647618D01*
X114583264Y-104647618D02*
X114583264Y-104552380D01*
X115249931Y-104076189D02*
X115202312Y-104171427D01*
X115202312Y-104171427D02*
X115154692Y-104219046D01*
X115154692Y-104219046D02*
X115059454Y-104266665D01*
X115059454Y-104266665D02*
X114773740Y-104266665D01*
X114773740Y-104266665D02*
X114678502Y-104219046D01*
X114678502Y-104219046D02*
X114630883Y-104171427D01*
X114630883Y-104171427D02*
X114583264Y-104076189D01*
X114583264Y-104076189D02*
X114583264Y-103933332D01*
X114583264Y-103933332D02*
X114630883Y-103838094D01*
X114630883Y-103838094D02*
X114678502Y-103790475D01*
X114678502Y-103790475D02*
X114773740Y-103742856D01*
X114773740Y-103742856D02*
X115059454Y-103742856D01*
X115059454Y-103742856D02*
X115154692Y-103790475D01*
X115154692Y-103790475D02*
X115202312Y-103838094D01*
X115202312Y-103838094D02*
X115249931Y-103933332D01*
X115249931Y-103933332D02*
X115249931Y-104076189D01*
X115249931Y-103314284D02*
X114249931Y-103314284D01*
X114249931Y-103314284D02*
X114249931Y-103076189D01*
X114249931Y-103076189D02*
X114297550Y-102933332D01*
X114297550Y-102933332D02*
X114392788Y-102838094D01*
X114392788Y-102838094D02*
X114488026Y-102790475D01*
X114488026Y-102790475D02*
X114678502Y-102742856D01*
X114678502Y-102742856D02*
X114821359Y-102742856D01*
X114821359Y-102742856D02*
X115011835Y-102790475D01*
X115011835Y-102790475D02*
X115107073Y-102838094D01*
X115107073Y-102838094D02*
X115202312Y-102933332D01*
X115202312Y-102933332D02*
X115249931Y-103076189D01*
X115249931Y-103076189D02*
X115249931Y-103314284D01*
X114964216Y-102361903D02*
X114964216Y-101885713D01*
X115249931Y-102457141D02*
X114249931Y-102123808D01*
X114249931Y-102123808D02*
X115249931Y-101790475D01*
X113916597Y-102314284D02*
X113964216Y-102266665D01*
X113964216Y-102266665D02*
X114011835Y-102314284D01*
X114011835Y-102314284D02*
X113964216Y-102361903D01*
X113964216Y-102361903D02*
X113916597Y-102314284D01*
X113916597Y-102314284D02*
X114011835Y-102314284D01*
X113916597Y-101933332D02*
X113964216Y-101885713D01*
X113964216Y-101885713D02*
X114011835Y-101933332D01*
X114011835Y-101933332D02*
X113964216Y-101980951D01*
X113964216Y-101980951D02*
X113916597Y-101933332D01*
X113916597Y-101933332D02*
X114011835Y-101933332D01*
X115154692Y-100885713D02*
X115202312Y-100933332D01*
X115202312Y-100933332D02*
X115249931Y-101076189D01*
X115249931Y-101076189D02*
X115249931Y-101171427D01*
X115249931Y-101171427D02*
X115202312Y-101314284D01*
X115202312Y-101314284D02*
X115107073Y-101409522D01*
X115107073Y-101409522D02*
X115011835Y-101457141D01*
X115011835Y-101457141D02*
X114821359Y-101504760D01*
X114821359Y-101504760D02*
X114678502Y-101504760D01*
X114678502Y-101504760D02*
X114488026Y-101457141D01*
X114488026Y-101457141D02*
X114392788Y-101409522D01*
X114392788Y-101409522D02*
X114297550Y-101314284D01*
X114297550Y-101314284D02*
X114249931Y-101171427D01*
X114249931Y-101171427D02*
X114249931Y-101076189D01*
X114249931Y-101076189D02*
X114297550Y-100933332D01*
X114297550Y-100933332D02*
X114345169Y-100885713D01*
X115249931Y-100457141D02*
X114249931Y-100457141D01*
X115249931Y-99885713D02*
X114678502Y-100314284D01*
X114249931Y-99885713D02*
X114821359Y-100457141D01*
X115955113Y-110695238D02*
X115907494Y-110647619D01*
X115907494Y-110647619D02*
X115859875Y-110552381D01*
X115859875Y-110552381D02*
X115859875Y-110314286D01*
X115859875Y-110314286D02*
X115907494Y-110219048D01*
X115907494Y-110219048D02*
X115955113Y-110171429D01*
X115955113Y-110171429D02*
X116050351Y-110123810D01*
X116050351Y-110123810D02*
X116145589Y-110123810D01*
X116145589Y-110123810D02*
X116288446Y-110171429D01*
X116288446Y-110171429D02*
X116859875Y-110742857D01*
X116859875Y-110742857D02*
X116859875Y-110123810D01*
X115859875Y-109504762D02*
X115859875Y-109409524D01*
X115859875Y-109409524D02*
X115907494Y-109314286D01*
X115907494Y-109314286D02*
X115955113Y-109266667D01*
X115955113Y-109266667D02*
X116050351Y-109219048D01*
X116050351Y-109219048D02*
X116240827Y-109171429D01*
X116240827Y-109171429D02*
X116478922Y-109171429D01*
X116478922Y-109171429D02*
X116669398Y-109219048D01*
X116669398Y-109219048D02*
X116764636Y-109266667D01*
X116764636Y-109266667D02*
X116812256Y-109314286D01*
X116812256Y-109314286D02*
X116859875Y-109409524D01*
X116859875Y-109409524D02*
X116859875Y-109504762D01*
X116859875Y-109504762D02*
X116812256Y-109600000D01*
X116812256Y-109600000D02*
X116764636Y-109647619D01*
X116764636Y-109647619D02*
X116669398Y-109695238D01*
X116669398Y-109695238D02*
X116478922Y-109742857D01*
X116478922Y-109742857D02*
X116240827Y-109742857D01*
X116240827Y-109742857D02*
X116050351Y-109695238D01*
X116050351Y-109695238D02*
X115955113Y-109647619D01*
X115955113Y-109647619D02*
X115907494Y-109600000D01*
X115907494Y-109600000D02*
X115859875Y-109504762D01*
X115955113Y-108790476D02*
X115907494Y-108742857D01*
X115907494Y-108742857D02*
X115859875Y-108647619D01*
X115859875Y-108647619D02*
X115859875Y-108409524D01*
X115859875Y-108409524D02*
X115907494Y-108314286D01*
X115907494Y-108314286D02*
X115955113Y-108266667D01*
X115955113Y-108266667D02*
X116050351Y-108219048D01*
X116050351Y-108219048D02*
X116145589Y-108219048D01*
X116145589Y-108219048D02*
X116288446Y-108266667D01*
X116288446Y-108266667D02*
X116859875Y-108838095D01*
X116859875Y-108838095D02*
X116859875Y-108219048D01*
X115859875Y-107314286D02*
X115859875Y-107790476D01*
X115859875Y-107790476D02*
X116336065Y-107838095D01*
X116336065Y-107838095D02*
X116288446Y-107790476D01*
X116288446Y-107790476D02*
X116240827Y-107695238D01*
X116240827Y-107695238D02*
X116240827Y-107457143D01*
X116240827Y-107457143D02*
X116288446Y-107361905D01*
X116288446Y-107361905D02*
X116336065Y-107314286D01*
X116336065Y-107314286D02*
X116431303Y-107266667D01*
X116431303Y-107266667D02*
X116669398Y-107266667D01*
X116669398Y-107266667D02*
X116764636Y-107314286D01*
X116764636Y-107314286D02*
X116812256Y-107361905D01*
X116812256Y-107361905D02*
X116859875Y-107457143D01*
X116859875Y-107457143D02*
X116859875Y-107695238D01*
X116859875Y-107695238D02*
X116812256Y-107790476D01*
X116812256Y-107790476D02*
X116764636Y-107838095D01*
X116574160Y-106123809D02*
X116574160Y-105647619D01*
X116859875Y-106219047D02*
X115859875Y-105885714D01*
X115859875Y-105885714D02*
X116859875Y-105552381D01*
X116193208Y-105219047D02*
X116859875Y-105219047D01*
X116288446Y-105219047D02*
X116240827Y-105171428D01*
X116240827Y-105171428D02*
X116193208Y-105076190D01*
X116193208Y-105076190D02*
X116193208Y-104933333D01*
X116193208Y-104933333D02*
X116240827Y-104838095D01*
X116240827Y-104838095D02*
X116336065Y-104790476D01*
X116336065Y-104790476D02*
X116859875Y-104790476D01*
X116859875Y-103885714D02*
X115859875Y-103885714D01*
X116812256Y-103885714D02*
X116859875Y-103980952D01*
X116859875Y-103980952D02*
X116859875Y-104171428D01*
X116859875Y-104171428D02*
X116812256Y-104266666D01*
X116812256Y-104266666D02*
X116764636Y-104314285D01*
X116764636Y-104314285D02*
X116669398Y-104361904D01*
X116669398Y-104361904D02*
X116383684Y-104361904D01*
X116383684Y-104361904D02*
X116288446Y-104314285D01*
X116288446Y-104314285D02*
X116240827Y-104266666D01*
X116240827Y-104266666D02*
X116193208Y-104171428D01*
X116193208Y-104171428D02*
X116193208Y-103980952D01*
X116193208Y-103980952D02*
X116240827Y-103885714D01*
X116812256Y-103028571D02*
X116859875Y-103123809D01*
X116859875Y-103123809D02*
X116859875Y-103314285D01*
X116859875Y-103314285D02*
X116812256Y-103409523D01*
X116812256Y-103409523D02*
X116717017Y-103457142D01*
X116717017Y-103457142D02*
X116336065Y-103457142D01*
X116336065Y-103457142D02*
X116240827Y-103409523D01*
X116240827Y-103409523D02*
X116193208Y-103314285D01*
X116193208Y-103314285D02*
X116193208Y-103123809D01*
X116193208Y-103123809D02*
X116240827Y-103028571D01*
X116240827Y-103028571D02*
X116336065Y-102980952D01*
X116336065Y-102980952D02*
X116431303Y-102980952D01*
X116431303Y-102980952D02*
X116526541Y-103457142D01*
X116859875Y-102552380D02*
X116193208Y-102552380D01*
X116383684Y-102552380D02*
X116288446Y-102504761D01*
X116288446Y-102504761D02*
X116240827Y-102457142D01*
X116240827Y-102457142D02*
X116193208Y-102361904D01*
X116193208Y-102361904D02*
X116193208Y-102266666D01*
X116812256Y-101980951D02*
X116859875Y-101885713D01*
X116859875Y-101885713D02*
X116859875Y-101695237D01*
X116859875Y-101695237D02*
X116812256Y-101599999D01*
X116812256Y-101599999D02*
X116717017Y-101552380D01*
X116717017Y-101552380D02*
X116669398Y-101552380D01*
X116669398Y-101552380D02*
X116574160Y-101599999D01*
X116574160Y-101599999D02*
X116526541Y-101695237D01*
X116526541Y-101695237D02*
X116526541Y-101838094D01*
X116526541Y-101838094D02*
X116478922Y-101933332D01*
X116478922Y-101933332D02*
X116383684Y-101980951D01*
X116383684Y-101980951D02*
X116336065Y-101980951D01*
X116336065Y-101980951D02*
X116240827Y-101933332D01*
X116240827Y-101933332D02*
X116193208Y-101838094D01*
X116193208Y-101838094D02*
X116193208Y-101695237D01*
X116193208Y-101695237D02*
X116240827Y-101599999D01*
X116859875Y-100361903D02*
X115859875Y-100361903D01*
X115859875Y-100361903D02*
X115859875Y-99980951D01*
X115859875Y-99980951D02*
X115907494Y-99885713D01*
X115907494Y-99885713D02*
X115955113Y-99838094D01*
X115955113Y-99838094D02*
X116050351Y-99790475D01*
X116050351Y-99790475D02*
X116193208Y-99790475D01*
X116193208Y-99790475D02*
X116288446Y-99838094D01*
X116288446Y-99838094D02*
X116336065Y-99885713D01*
X116336065Y-99885713D02*
X116383684Y-99980951D01*
X116383684Y-99980951D02*
X116383684Y-100361903D01*
X116859875Y-99361903D02*
X116193208Y-99361903D01*
X115859875Y-99361903D02*
X115907494Y-99409522D01*
X115907494Y-99409522D02*
X115955113Y-99361903D01*
X115955113Y-99361903D02*
X115907494Y-99314284D01*
X115907494Y-99314284D02*
X115859875Y-99361903D01*
X115859875Y-99361903D02*
X115955113Y-99361903D01*
X116812256Y-98933332D02*
X116859875Y-98838094D01*
X116859875Y-98838094D02*
X116859875Y-98647618D01*
X116859875Y-98647618D02*
X116812256Y-98552380D01*
X116812256Y-98552380D02*
X116717017Y-98504761D01*
X116717017Y-98504761D02*
X116669398Y-98504761D01*
X116669398Y-98504761D02*
X116574160Y-98552380D01*
X116574160Y-98552380D02*
X116526541Y-98647618D01*
X116526541Y-98647618D02*
X116526541Y-98790475D01*
X116526541Y-98790475D02*
X116478922Y-98885713D01*
X116478922Y-98885713D02*
X116383684Y-98933332D01*
X116383684Y-98933332D02*
X116336065Y-98933332D01*
X116336065Y-98933332D02*
X116240827Y-98885713D01*
X116240827Y-98885713D02*
X116193208Y-98790475D01*
X116193208Y-98790475D02*
X116193208Y-98647618D01*
X116193208Y-98647618D02*
X116240827Y-98552380D01*
X116193208Y-98219046D02*
X116193208Y-97838094D01*
X115859875Y-98076189D02*
X116717017Y-98076189D01*
X116717017Y-98076189D02*
X116812256Y-98028570D01*
X116812256Y-98028570D02*
X116859875Y-97933332D01*
X116859875Y-97933332D02*
X116859875Y-97838094D01*
X116859875Y-97361903D02*
X116812256Y-97457141D01*
X116812256Y-97457141D02*
X116764636Y-97504760D01*
X116764636Y-97504760D02*
X116669398Y-97552379D01*
X116669398Y-97552379D02*
X116383684Y-97552379D01*
X116383684Y-97552379D02*
X116288446Y-97504760D01*
X116288446Y-97504760D02*
X116240827Y-97457141D01*
X116240827Y-97457141D02*
X116193208Y-97361903D01*
X116193208Y-97361903D02*
X116193208Y-97219046D01*
X116193208Y-97219046D02*
X116240827Y-97123808D01*
X116240827Y-97123808D02*
X116288446Y-97076189D01*
X116288446Y-97076189D02*
X116383684Y-97028570D01*
X116383684Y-97028570D02*
X116669398Y-97028570D01*
X116669398Y-97028570D02*
X116764636Y-97076189D01*
X116764636Y-97076189D02*
X116812256Y-97123808D01*
X116812256Y-97123808D02*
X116859875Y-97219046D01*
X116859875Y-97219046D02*
X116859875Y-97361903D01*
X116859875Y-96457141D02*
X116812256Y-96552379D01*
X116812256Y-96552379D02*
X116717017Y-96599998D01*
X116717017Y-96599998D02*
X115859875Y-96599998D01*
X118469819Y-104957143D02*
X117993628Y-105290476D01*
X118469819Y-105528571D02*
X117469819Y-105528571D01*
X117469819Y-105528571D02*
X117469819Y-105147619D01*
X117469819Y-105147619D02*
X117517438Y-105052381D01*
X117517438Y-105052381D02*
X117565057Y-105004762D01*
X117565057Y-105004762D02*
X117660295Y-104957143D01*
X117660295Y-104957143D02*
X117803152Y-104957143D01*
X117803152Y-104957143D02*
X117898390Y-105004762D01*
X117898390Y-105004762D02*
X117946009Y-105052381D01*
X117946009Y-105052381D02*
X117993628Y-105147619D01*
X117993628Y-105147619D02*
X117993628Y-105528571D01*
X118422200Y-104147619D02*
X118469819Y-104242857D01*
X118469819Y-104242857D02*
X118469819Y-104433333D01*
X118469819Y-104433333D02*
X118422200Y-104528571D01*
X118422200Y-104528571D02*
X118326961Y-104576190D01*
X118326961Y-104576190D02*
X117946009Y-104576190D01*
X117946009Y-104576190D02*
X117850771Y-104528571D01*
X117850771Y-104528571D02*
X117803152Y-104433333D01*
X117803152Y-104433333D02*
X117803152Y-104242857D01*
X117803152Y-104242857D02*
X117850771Y-104147619D01*
X117850771Y-104147619D02*
X117946009Y-104100000D01*
X117946009Y-104100000D02*
X118041247Y-104100000D01*
X118041247Y-104100000D02*
X118136485Y-104576190D01*
X117803152Y-103766666D02*
X118469819Y-103528571D01*
X118469819Y-103528571D02*
X117803152Y-103290476D01*
X118469819Y-101623809D02*
X118469819Y-102195237D01*
X118469819Y-101909523D02*
X117469819Y-101909523D01*
X117469819Y-101909523D02*
X117612676Y-102004761D01*
X117612676Y-102004761D02*
X117707914Y-102099999D01*
X117707914Y-102099999D02*
X117755533Y-102195237D01*
X168000000Y-64500000D02*
G75*
G02*
X180000000Y-64500000I6000000J0D01*
G01*
X180000000Y-87500000D02*
G75*
G02*
X168000000Y-87500000I-6000000J0D01*
G01*
X168000000Y-70000000D02*
X168000000Y-64500000D01*
X185500000Y-70000000D02*
G75*
G02*
X185500000Y-82000000I0J-6000000D01*
G01*
X125000000Y-70000000D02*
X125000000Y-64500000D01*
X137000000Y-82000000D02*
X142500000Y-82000000D01*
X180000000Y-82000000D02*
X185500000Y-82000000D01*
X180000000Y-64500000D02*
X180000000Y-70000000D01*
X137000000Y-70000000D02*
X142500000Y-70000000D01*
X142500000Y-70000000D02*
G75*
G02*
X142500000Y-82000000I0J-6000000D01*
G01*
X168000000Y-87500000D02*
X168000000Y-82000000D01*
X125000000Y-64500000D02*
G75*
G02*
X137000000Y-64500000I6000000J0D01*
G01*
X119500000Y-82000000D02*
G75*
G02*
X119500000Y-70000000I0J6000000D01*
G01*
X125000000Y-87500000D02*
X125000000Y-82000000D01*
X137000000Y-64500000D02*
X137000000Y-70000000D01*
X119500000Y-70000000D02*
X125000000Y-70000000D01*
X137000000Y-87500000D02*
X137000000Y-82000000D01*
X119500000Y-82000000D02*
X125000000Y-82000000D01*
X162500000Y-82000000D02*
X168000000Y-82000000D01*
X137000000Y-87500000D02*
G75*
G02*
X125000000Y-87500000I-6000000J0D01*
G01*
X180000000Y-87500000D02*
X180000000Y-82000000D01*
X162500000Y-70000000D02*
X168000000Y-70000000D01*
X180000000Y-70000000D02*
X185500000Y-70000000D01*
X145500000Y-104500000D02*
X159500000Y-104500000D01*
X159500000Y-118500000D01*
X145500000Y-118500000D01*
X145500000Y-104500000D01*
X162500000Y-82000000D02*
G75*
G02*
X162500000Y-70000000I0J6000000D01*
G01*
X144494819Y-99333333D02*
X145209104Y-99333333D01*
X145209104Y-99333333D02*
X145351961Y-99380952D01*
X145351961Y-99380952D02*
X145447200Y-99476190D01*
X145447200Y-99476190D02*
X145494819Y-99619047D01*
X145494819Y-99619047D02*
X145494819Y-99714285D01*
X145494819Y-98333333D02*
X145494819Y-98904761D01*
X145494819Y-98619047D02*
X144494819Y-98619047D01*
X144494819Y-98619047D02*
X144637676Y-98714285D01*
X144637676Y-98714285D02*
X144732914Y-98809523D01*
X144732914Y-98809523D02*
X144780533Y-98904761D01*
X172666667Y-83657200D02*
X172809524Y-83704819D01*
X172809524Y-83704819D02*
X173047619Y-83704819D01*
X173047619Y-83704819D02*
X173142857Y-83657200D01*
X173142857Y-83657200D02*
X173190476Y-83609580D01*
X173190476Y-83609580D02*
X173238095Y-83514342D01*
X173238095Y-83514342D02*
X173238095Y-83419104D01*
X173238095Y-83419104D02*
X173190476Y-83323866D01*
X173190476Y-83323866D02*
X173142857Y-83276247D01*
X173142857Y-83276247D02*
X173047619Y-83228628D01*
X173047619Y-83228628D02*
X172857143Y-83181009D01*
X172857143Y-83181009D02*
X172761905Y-83133390D01*
X172761905Y-83133390D02*
X172714286Y-83085771D01*
X172714286Y-83085771D02*
X172666667Y-82990533D01*
X172666667Y-82990533D02*
X172666667Y-82895295D01*
X172666667Y-82895295D02*
X172714286Y-82800057D01*
X172714286Y-82800057D02*
X172761905Y-82752438D01*
X172761905Y-82752438D02*
X172857143Y-82704819D01*
X172857143Y-82704819D02*
X173095238Y-82704819D01*
X173095238Y-82704819D02*
X173238095Y-82752438D01*
X173571429Y-82704819D02*
X173809524Y-83704819D01*
X173809524Y-83704819D02*
X174000000Y-82990533D01*
X174000000Y-82990533D02*
X174190476Y-83704819D01*
X174190476Y-83704819D02*
X174428572Y-82704819D01*
X174952381Y-83133390D02*
X174857143Y-83085771D01*
X174857143Y-83085771D02*
X174809524Y-83038152D01*
X174809524Y-83038152D02*
X174761905Y-82942914D01*
X174761905Y-82942914D02*
X174761905Y-82895295D01*
X174761905Y-82895295D02*
X174809524Y-82800057D01*
X174809524Y-82800057D02*
X174857143Y-82752438D01*
X174857143Y-82752438D02*
X174952381Y-82704819D01*
X174952381Y-82704819D02*
X175142857Y-82704819D01*
X175142857Y-82704819D02*
X175238095Y-82752438D01*
X175238095Y-82752438D02*
X175285714Y-82800057D01*
X175285714Y-82800057D02*
X175333333Y-82895295D01*
X175333333Y-82895295D02*
X175333333Y-82942914D01*
X175333333Y-82942914D02*
X175285714Y-83038152D01*
X175285714Y-83038152D02*
X175238095Y-83085771D01*
X175238095Y-83085771D02*
X175142857Y-83133390D01*
X175142857Y-83133390D02*
X174952381Y-83133390D01*
X174952381Y-83133390D02*
X174857143Y-83181009D01*
X174857143Y-83181009D02*
X174809524Y-83228628D01*
X174809524Y-83228628D02*
X174761905Y-83323866D01*
X174761905Y-83323866D02*
X174761905Y-83514342D01*
X174761905Y-83514342D02*
X174809524Y-83609580D01*
X174809524Y-83609580D02*
X174857143Y-83657200D01*
X174857143Y-83657200D02*
X174952381Y-83704819D01*
X174952381Y-83704819D02*
X175142857Y-83704819D01*
X175142857Y-83704819D02*
X175238095Y-83657200D01*
X175238095Y-83657200D02*
X175285714Y-83609580D01*
X175285714Y-83609580D02*
X175333333Y-83514342D01*
X175333333Y-83514342D02*
X175333333Y-83323866D01*
X175333333Y-83323866D02*
X175285714Y-83228628D01*
X175285714Y-83228628D02*
X175238095Y-83181009D01*
X175238095Y-83181009D02*
X175142857Y-83133390D01*
X123666667Y-124657200D02*
X123809524Y-124704819D01*
X123809524Y-124704819D02*
X124047619Y-124704819D01*
X124047619Y-124704819D02*
X124142857Y-124657200D01*
X124142857Y-124657200D02*
X124190476Y-124609580D01*
X124190476Y-124609580D02*
X124238095Y-124514342D01*
X124238095Y-124514342D02*
X124238095Y-124419104D01*
X124238095Y-124419104D02*
X124190476Y-124323866D01*
X124190476Y-124323866D02*
X124142857Y-124276247D01*
X124142857Y-124276247D02*
X124047619Y-124228628D01*
X124047619Y-124228628D02*
X123857143Y-124181009D01*
X123857143Y-124181009D02*
X123761905Y-124133390D01*
X123761905Y-124133390D02*
X123714286Y-124085771D01*
X123714286Y-124085771D02*
X123666667Y-123990533D01*
X123666667Y-123990533D02*
X123666667Y-123895295D01*
X123666667Y-123895295D02*
X123714286Y-123800057D01*
X123714286Y-123800057D02*
X123761905Y-123752438D01*
X123761905Y-123752438D02*
X123857143Y-123704819D01*
X123857143Y-123704819D02*
X124095238Y-123704819D01*
X124095238Y-123704819D02*
X124238095Y-123752438D01*
X124571429Y-123704819D02*
X124809524Y-124704819D01*
X124809524Y-124704819D02*
X125000000Y-123990533D01*
X125000000Y-123990533D02*
X125190476Y-124704819D01*
X125190476Y-124704819D02*
X125428572Y-123704819D01*
X125857143Y-124704819D02*
X126047619Y-124704819D01*
X126047619Y-124704819D02*
X126142857Y-124657200D01*
X126142857Y-124657200D02*
X126190476Y-124609580D01*
X126190476Y-124609580D02*
X126285714Y-124466723D01*
X126285714Y-124466723D02*
X126333333Y-124276247D01*
X126333333Y-124276247D02*
X126333333Y-123895295D01*
X126333333Y-123895295D02*
X126285714Y-123800057D01*
X126285714Y-123800057D02*
X126238095Y-123752438D01*
X126238095Y-123752438D02*
X126142857Y-123704819D01*
X126142857Y-123704819D02*
X125952381Y-123704819D01*
X125952381Y-123704819D02*
X125857143Y-123752438D01*
X125857143Y-123752438D02*
X125809524Y-123800057D01*
X125809524Y-123800057D02*
X125761905Y-123895295D01*
X125761905Y-123895295D02*
X125761905Y-124133390D01*
X125761905Y-124133390D02*
X125809524Y-124228628D01*
X125809524Y-124228628D02*
X125857143Y-124276247D01*
X125857143Y-124276247D02*
X125952381Y-124323866D01*
X125952381Y-124323866D02*
X126142857Y-124323866D01*
X126142857Y-124323866D02*
X126238095Y-124276247D01*
X126238095Y-124276247D02*
X126285714Y-124228628D01*
X126285714Y-124228628D02*
X126333333Y-124133390D01*
X118166667Y-72157200D02*
X118309524Y-72204819D01*
X118309524Y-72204819D02*
X118547619Y-72204819D01*
X118547619Y-72204819D02*
X118642857Y-72157200D01*
X118642857Y-72157200D02*
X118690476Y-72109580D01*
X118690476Y-72109580D02*
X118738095Y-72014342D01*
X118738095Y-72014342D02*
X118738095Y-71919104D01*
X118738095Y-71919104D02*
X118690476Y-71823866D01*
X118690476Y-71823866D02*
X118642857Y-71776247D01*
X118642857Y-71776247D02*
X118547619Y-71728628D01*
X118547619Y-71728628D02*
X118357143Y-71681009D01*
X118357143Y-71681009D02*
X118261905Y-71633390D01*
X118261905Y-71633390D02*
X118214286Y-71585771D01*
X118214286Y-71585771D02*
X118166667Y-71490533D01*
X118166667Y-71490533D02*
X118166667Y-71395295D01*
X118166667Y-71395295D02*
X118214286Y-71300057D01*
X118214286Y-71300057D02*
X118261905Y-71252438D01*
X118261905Y-71252438D02*
X118357143Y-71204819D01*
X118357143Y-71204819D02*
X118595238Y-71204819D01*
X118595238Y-71204819D02*
X118738095Y-71252438D01*
X119071429Y-71204819D02*
X119309524Y-72204819D01*
X119309524Y-72204819D02*
X119500000Y-71490533D01*
X119500000Y-71490533D02*
X119690476Y-72204819D01*
X119690476Y-72204819D02*
X119928572Y-71204819D01*
X120738095Y-71538152D02*
X120738095Y-72204819D01*
X120500000Y-71157200D02*
X120261905Y-71871485D01*
X120261905Y-71871485D02*
X120880952Y-71871485D01*
X172666667Y-60657200D02*
X172809524Y-60704819D01*
X172809524Y-60704819D02*
X173047619Y-60704819D01*
X173047619Y-60704819D02*
X173142857Y-60657200D01*
X173142857Y-60657200D02*
X173190476Y-60609580D01*
X173190476Y-60609580D02*
X173238095Y-60514342D01*
X173238095Y-60514342D02*
X173238095Y-60419104D01*
X173238095Y-60419104D02*
X173190476Y-60323866D01*
X173190476Y-60323866D02*
X173142857Y-60276247D01*
X173142857Y-60276247D02*
X173047619Y-60228628D01*
X173047619Y-60228628D02*
X172857143Y-60181009D01*
X172857143Y-60181009D02*
X172761905Y-60133390D01*
X172761905Y-60133390D02*
X172714286Y-60085771D01*
X172714286Y-60085771D02*
X172666667Y-59990533D01*
X172666667Y-59990533D02*
X172666667Y-59895295D01*
X172666667Y-59895295D02*
X172714286Y-59800057D01*
X172714286Y-59800057D02*
X172761905Y-59752438D01*
X172761905Y-59752438D02*
X172857143Y-59704819D01*
X172857143Y-59704819D02*
X173095238Y-59704819D01*
X173095238Y-59704819D02*
X173238095Y-59752438D01*
X173571429Y-59704819D02*
X173809524Y-60704819D01*
X173809524Y-60704819D02*
X174000000Y-59990533D01*
X174000000Y-59990533D02*
X174190476Y-60704819D01*
X174190476Y-60704819D02*
X174428572Y-59704819D01*
X175285714Y-59704819D02*
X174809524Y-59704819D01*
X174809524Y-59704819D02*
X174761905Y-60181009D01*
X174761905Y-60181009D02*
X174809524Y-60133390D01*
X174809524Y-60133390D02*
X174904762Y-60085771D01*
X174904762Y-60085771D02*
X175142857Y-60085771D01*
X175142857Y-60085771D02*
X175238095Y-60133390D01*
X175238095Y-60133390D02*
X175285714Y-60181009D01*
X175285714Y-60181009D02*
X175333333Y-60276247D01*
X175333333Y-60276247D02*
X175333333Y-60514342D01*
X175333333Y-60514342D02*
X175285714Y-60609580D01*
X175285714Y-60609580D02*
X175238095Y-60657200D01*
X175238095Y-60657200D02*
X175142857Y-60704819D01*
X175142857Y-60704819D02*
X174904762Y-60704819D01*
X174904762Y-60704819D02*
X174809524Y-60657200D01*
X174809524Y-60657200D02*
X174761905Y-60609580D01*
X161166667Y-72157200D02*
X161309524Y-72204819D01*
X161309524Y-72204819D02*
X161547619Y-72204819D01*
X161547619Y-72204819D02*
X161642857Y-72157200D01*
X161642857Y-72157200D02*
X161690476Y-72109580D01*
X161690476Y-72109580D02*
X161738095Y-72014342D01*
X161738095Y-72014342D02*
X161738095Y-71919104D01*
X161738095Y-71919104D02*
X161690476Y-71823866D01*
X161690476Y-71823866D02*
X161642857Y-71776247D01*
X161642857Y-71776247D02*
X161547619Y-71728628D01*
X161547619Y-71728628D02*
X161357143Y-71681009D01*
X161357143Y-71681009D02*
X161261905Y-71633390D01*
X161261905Y-71633390D02*
X161214286Y-71585771D01*
X161214286Y-71585771D02*
X161166667Y-71490533D01*
X161166667Y-71490533D02*
X161166667Y-71395295D01*
X161166667Y-71395295D02*
X161214286Y-71300057D01*
X161214286Y-71300057D02*
X161261905Y-71252438D01*
X161261905Y-71252438D02*
X161357143Y-71204819D01*
X161357143Y-71204819D02*
X161595238Y-71204819D01*
X161595238Y-71204819D02*
X161738095Y-71252438D01*
X162071429Y-71204819D02*
X162309524Y-72204819D01*
X162309524Y-72204819D02*
X162500000Y-71490533D01*
X162500000Y-71490533D02*
X162690476Y-72204819D01*
X162690476Y-72204819D02*
X162928572Y-71204819D01*
X163738095Y-71204819D02*
X163547619Y-71204819D01*
X163547619Y-71204819D02*
X163452381Y-71252438D01*
X163452381Y-71252438D02*
X163404762Y-71300057D01*
X163404762Y-71300057D02*
X163309524Y-71442914D01*
X163309524Y-71442914D02*
X163261905Y-71633390D01*
X163261905Y-71633390D02*
X163261905Y-72014342D01*
X163261905Y-72014342D02*
X163309524Y-72109580D01*
X163309524Y-72109580D02*
X163357143Y-72157200D01*
X163357143Y-72157200D02*
X163452381Y-72204819D01*
X163452381Y-72204819D02*
X163642857Y-72204819D01*
X163642857Y-72204819D02*
X163738095Y-72157200D01*
X163738095Y-72157200D02*
X163785714Y-72109580D01*
X163785714Y-72109580D02*
X163833333Y-72014342D01*
X163833333Y-72014342D02*
X163833333Y-71776247D01*
X163833333Y-71776247D02*
X163785714Y-71681009D01*
X163785714Y-71681009D02*
X163738095Y-71633390D01*
X163738095Y-71633390D02*
X163642857Y-71585771D01*
X163642857Y-71585771D02*
X163452381Y-71585771D01*
X163452381Y-71585771D02*
X163357143Y-71633390D01*
X163357143Y-71633390D02*
X163309524Y-71681009D01*
X163309524Y-71681009D02*
X163261905Y-71776247D01*
X184166667Y-72157200D02*
X184309524Y-72204819D01*
X184309524Y-72204819D02*
X184547619Y-72204819D01*
X184547619Y-72204819D02*
X184642857Y-72157200D01*
X184642857Y-72157200D02*
X184690476Y-72109580D01*
X184690476Y-72109580D02*
X184738095Y-72014342D01*
X184738095Y-72014342D02*
X184738095Y-71919104D01*
X184738095Y-71919104D02*
X184690476Y-71823866D01*
X184690476Y-71823866D02*
X184642857Y-71776247D01*
X184642857Y-71776247D02*
X184547619Y-71728628D01*
X184547619Y-71728628D02*
X184357143Y-71681009D01*
X184357143Y-71681009D02*
X184261905Y-71633390D01*
X184261905Y-71633390D02*
X184214286Y-71585771D01*
X184214286Y-71585771D02*
X184166667Y-71490533D01*
X184166667Y-71490533D02*
X184166667Y-71395295D01*
X184166667Y-71395295D02*
X184214286Y-71300057D01*
X184214286Y-71300057D02*
X184261905Y-71252438D01*
X184261905Y-71252438D02*
X184357143Y-71204819D01*
X184357143Y-71204819D02*
X184595238Y-71204819D01*
X184595238Y-71204819D02*
X184738095Y-71252438D01*
X185071429Y-71204819D02*
X185309524Y-72204819D01*
X185309524Y-72204819D02*
X185500000Y-71490533D01*
X185500000Y-71490533D02*
X185690476Y-72204819D01*
X185690476Y-72204819D02*
X185928572Y-71204819D01*
X186214286Y-71204819D02*
X186880952Y-71204819D01*
X186880952Y-71204819D02*
X186452381Y-72204819D01*
X178190476Y-124657200D02*
X178333333Y-124704819D01*
X178333333Y-124704819D02*
X178571428Y-124704819D01*
X178571428Y-124704819D02*
X178666666Y-124657200D01*
X178666666Y-124657200D02*
X178714285Y-124609580D01*
X178714285Y-124609580D02*
X178761904Y-124514342D01*
X178761904Y-124514342D02*
X178761904Y-124419104D01*
X178761904Y-124419104D02*
X178714285Y-124323866D01*
X178714285Y-124323866D02*
X178666666Y-124276247D01*
X178666666Y-124276247D02*
X178571428Y-124228628D01*
X178571428Y-124228628D02*
X178380952Y-124181009D01*
X178380952Y-124181009D02*
X178285714Y-124133390D01*
X178285714Y-124133390D02*
X178238095Y-124085771D01*
X178238095Y-124085771D02*
X178190476Y-123990533D01*
X178190476Y-123990533D02*
X178190476Y-123895295D01*
X178190476Y-123895295D02*
X178238095Y-123800057D01*
X178238095Y-123800057D02*
X178285714Y-123752438D01*
X178285714Y-123752438D02*
X178380952Y-123704819D01*
X178380952Y-123704819D02*
X178619047Y-123704819D01*
X178619047Y-123704819D02*
X178761904Y-123752438D01*
X179095238Y-123704819D02*
X179333333Y-124704819D01*
X179333333Y-124704819D02*
X179523809Y-123990533D01*
X179523809Y-123990533D02*
X179714285Y-124704819D01*
X179714285Y-124704819D02*
X179952381Y-123704819D01*
X180857142Y-124704819D02*
X180285714Y-124704819D01*
X180571428Y-124704819D02*
X180571428Y-123704819D01*
X180571428Y-123704819D02*
X180476190Y-123847676D01*
X180476190Y-123847676D02*
X180380952Y-123942914D01*
X180380952Y-123942914D02*
X180285714Y-123990533D01*
X181476190Y-123704819D02*
X181571428Y-123704819D01*
X181571428Y-123704819D02*
X181666666Y-123752438D01*
X181666666Y-123752438D02*
X181714285Y-123800057D01*
X181714285Y-123800057D02*
X181761904Y-123895295D01*
X181761904Y-123895295D02*
X181809523Y-124085771D01*
X181809523Y-124085771D02*
X181809523Y-124323866D01*
X181809523Y-124323866D02*
X181761904Y-124514342D01*
X181761904Y-124514342D02*
X181714285Y-124609580D01*
X181714285Y-124609580D02*
X181666666Y-124657200D01*
X181666666Y-124657200D02*
X181571428Y-124704819D01*
X181571428Y-124704819D02*
X181476190Y-124704819D01*
X181476190Y-124704819D02*
X181380952Y-124657200D01*
X181380952Y-124657200D02*
X181333333Y-124609580D01*
X181333333Y-124609580D02*
X181285714Y-124514342D01*
X181285714Y-124514342D02*
X181238095Y-124323866D01*
X181238095Y-124323866D02*
X181238095Y-124085771D01*
X181238095Y-124085771D02*
X181285714Y-123895295D01*
X181285714Y-123895295D02*
X181333333Y-123800057D01*
X181333333Y-123800057D02*
X181380952Y-123752438D01*
X181380952Y-123752438D02*
X181476190Y-123704819D01*
X129666667Y-60657200D02*
X129809524Y-60704819D01*
X129809524Y-60704819D02*
X130047619Y-60704819D01*
X130047619Y-60704819D02*
X130142857Y-60657200D01*
X130142857Y-60657200D02*
X130190476Y-60609580D01*
X130190476Y-60609580D02*
X130238095Y-60514342D01*
X130238095Y-60514342D02*
X130238095Y-60419104D01*
X130238095Y-60419104D02*
X130190476Y-60323866D01*
X130190476Y-60323866D02*
X130142857Y-60276247D01*
X130142857Y-60276247D02*
X130047619Y-60228628D01*
X130047619Y-60228628D02*
X129857143Y-60181009D01*
X129857143Y-60181009D02*
X129761905Y-60133390D01*
X129761905Y-60133390D02*
X129714286Y-60085771D01*
X129714286Y-60085771D02*
X129666667Y-59990533D01*
X129666667Y-59990533D02*
X129666667Y-59895295D01*
X129666667Y-59895295D02*
X129714286Y-59800057D01*
X129714286Y-59800057D02*
X129761905Y-59752438D01*
X129761905Y-59752438D02*
X129857143Y-59704819D01*
X129857143Y-59704819D02*
X130095238Y-59704819D01*
X130095238Y-59704819D02*
X130238095Y-59752438D01*
X130571429Y-59704819D02*
X130809524Y-60704819D01*
X130809524Y-60704819D02*
X131000000Y-59990533D01*
X131000000Y-59990533D02*
X131190476Y-60704819D01*
X131190476Y-60704819D02*
X131428572Y-59704819D01*
X132333333Y-60704819D02*
X131761905Y-60704819D01*
X132047619Y-60704819D02*
X132047619Y-59704819D01*
X132047619Y-59704819D02*
X131952381Y-59847676D01*
X131952381Y-59847676D02*
X131857143Y-59942914D01*
X131857143Y-59942914D02*
X131761905Y-59990533D01*
X141166667Y-72157200D02*
X141309524Y-72204819D01*
X141309524Y-72204819D02*
X141547619Y-72204819D01*
X141547619Y-72204819D02*
X141642857Y-72157200D01*
X141642857Y-72157200D02*
X141690476Y-72109580D01*
X141690476Y-72109580D02*
X141738095Y-72014342D01*
X141738095Y-72014342D02*
X141738095Y-71919104D01*
X141738095Y-71919104D02*
X141690476Y-71823866D01*
X141690476Y-71823866D02*
X141642857Y-71776247D01*
X141642857Y-71776247D02*
X141547619Y-71728628D01*
X141547619Y-71728628D02*
X141357143Y-71681009D01*
X141357143Y-71681009D02*
X141261905Y-71633390D01*
X141261905Y-71633390D02*
X141214286Y-71585771D01*
X141214286Y-71585771D02*
X141166667Y-71490533D01*
X141166667Y-71490533D02*
X141166667Y-71395295D01*
X141166667Y-71395295D02*
X141214286Y-71300057D01*
X141214286Y-71300057D02*
X141261905Y-71252438D01*
X141261905Y-71252438D02*
X141357143Y-71204819D01*
X141357143Y-71204819D02*
X141595238Y-71204819D01*
X141595238Y-71204819D02*
X141738095Y-71252438D01*
X142071429Y-71204819D02*
X142309524Y-72204819D01*
X142309524Y-72204819D02*
X142500000Y-71490533D01*
X142500000Y-71490533D02*
X142690476Y-72204819D01*
X142690476Y-72204819D02*
X142928572Y-71204819D01*
X143214286Y-71204819D02*
X143833333Y-71204819D01*
X143833333Y-71204819D02*
X143500000Y-71585771D01*
X143500000Y-71585771D02*
X143642857Y-71585771D01*
X143642857Y-71585771D02*
X143738095Y-71633390D01*
X143738095Y-71633390D02*
X143785714Y-71681009D01*
X143785714Y-71681009D02*
X143833333Y-71776247D01*
X143833333Y-71776247D02*
X143833333Y-72014342D01*
X143833333Y-72014342D02*
X143785714Y-72109580D01*
X143785714Y-72109580D02*
X143738095Y-72157200D01*
X143738095Y-72157200D02*
X143642857Y-72204819D01*
X143642857Y-72204819D02*
X143357143Y-72204819D01*
X143357143Y-72204819D02*
X143261905Y-72157200D01*
X143261905Y-72157200D02*
X143214286Y-72109580D01*
X129666667Y-83657200D02*
X129809524Y-83704819D01*
X129809524Y-83704819D02*
X130047619Y-83704819D01*
X130047619Y-83704819D02*
X130142857Y-83657200D01*
X130142857Y-83657200D02*
X130190476Y-83609580D01*
X130190476Y-83609580D02*
X130238095Y-83514342D01*
X130238095Y-83514342D02*
X130238095Y-83419104D01*
X130238095Y-83419104D02*
X130190476Y-83323866D01*
X130190476Y-83323866D02*
X130142857Y-83276247D01*
X130142857Y-83276247D02*
X130047619Y-83228628D01*
X130047619Y-83228628D02*
X129857143Y-83181009D01*
X129857143Y-83181009D02*
X129761905Y-83133390D01*
X129761905Y-83133390D02*
X129714286Y-83085771D01*
X129714286Y-83085771D02*
X129666667Y-82990533D01*
X129666667Y-82990533D02*
X129666667Y-82895295D01*
X129666667Y-82895295D02*
X129714286Y-82800057D01*
X129714286Y-82800057D02*
X129761905Y-82752438D01*
X129761905Y-82752438D02*
X129857143Y-82704819D01*
X129857143Y-82704819D02*
X130095238Y-82704819D01*
X130095238Y-82704819D02*
X130238095Y-82752438D01*
X130571429Y-82704819D02*
X130809524Y-83704819D01*
X130809524Y-83704819D02*
X131000000Y-82990533D01*
X131000000Y-82990533D02*
X131190476Y-83704819D01*
X131190476Y-83704819D02*
X131428572Y-82704819D01*
X131761905Y-82800057D02*
X131809524Y-82752438D01*
X131809524Y-82752438D02*
X131904762Y-82704819D01*
X131904762Y-82704819D02*
X132142857Y-82704819D01*
X132142857Y-82704819D02*
X132238095Y-82752438D01*
X132238095Y-82752438D02*
X132285714Y-82800057D01*
X132285714Y-82800057D02*
X132333333Y-82895295D01*
X132333333Y-82895295D02*
X132333333Y-82990533D01*
X132333333Y-82990533D02*
X132285714Y-83133390D01*
X132285714Y-83133390D02*
X131714286Y-83704819D01*
X131714286Y-83704819D02*
X132333333Y-83704819D01*
D11*
%TO.C,J5*%
X178068000Y-107763986D02*
X178068000Y-105731986D01*
X178068000Y-105731986D02*
X179261800Y-106747986D01*
X178068000Y-107763986D02*
X179261800Y-106747986D01*
X183017500Y-110049986D02*
X185000000Y-110049986D01*
X185000000Y-110049986D02*
X185000000Y-95950014D01*
X185000000Y-95950014D02*
X183017500Y-95950014D01*
X180000000Y-95950014D02*
X180000000Y-98782492D01*
X180000000Y-107217492D02*
X180000000Y-110049986D01*
D12*
%TO.C,J1*%
X146040000Y-100380000D02*
X146040000Y-99000000D01*
X147420000Y-100380000D02*
X146040000Y-100380000D01*
X148690000Y-97620000D02*
X158960000Y-97620000D01*
X148690000Y-100380000D02*
X148690000Y-97620000D01*
X148690000Y-100380000D02*
X158960000Y-100380000D01*
X158960000Y-100380000D02*
X158960000Y-97620000D01*
%TO.C,SW8*%
X170500000Y-86750000D02*
X170500000Y-88250000D01*
X171750000Y-90750000D02*
X176250000Y-90750000D01*
X176250000Y-84250000D02*
X171750000Y-84250000D01*
X177500000Y-88250000D02*
X177500000Y-86750000D01*
%TO.C,SW9*%
X121500000Y-127750000D02*
X121500000Y-129250000D01*
X122750000Y-131750000D02*
X127250000Y-131750000D01*
X127250000Y-125250000D02*
X122750000Y-125250000D01*
X128500000Y-129250000D02*
X128500000Y-127750000D01*
%TO.C,SW4*%
X116000000Y-75250000D02*
X116000000Y-76750000D01*
X117250000Y-79250000D02*
X121750000Y-79250000D01*
X121750000Y-72750000D02*
X117250000Y-72750000D01*
X123000000Y-76750000D02*
X123000000Y-75250000D01*
%TO.C,SW5*%
X170500000Y-63750000D02*
X170500000Y-65250000D01*
X171750000Y-67750000D02*
X176250000Y-67750000D01*
X176250000Y-61250000D02*
X171750000Y-61250000D01*
X177500000Y-65250000D02*
X177500000Y-63750000D01*
%TO.C,SW6*%
X159000000Y-75250000D02*
X159000000Y-76750000D01*
X160250000Y-79250000D02*
X164750000Y-79250000D01*
X164750000Y-72750000D02*
X160250000Y-72750000D01*
X166000000Y-76750000D02*
X166000000Y-75250000D01*
%TO.C,SW7*%
X182000000Y-75250000D02*
X182000000Y-76750000D01*
X183250000Y-79250000D02*
X187750000Y-79250000D01*
X187750000Y-72750000D02*
X183250000Y-72750000D01*
X189000000Y-76750000D02*
X189000000Y-75250000D01*
%TO.C,SW10*%
X176500000Y-127750000D02*
X176500000Y-129250000D01*
X177750000Y-131750000D02*
X182250000Y-131750000D01*
X182250000Y-125250000D02*
X177750000Y-125250000D01*
X183500000Y-129250000D02*
X183500000Y-127750000D01*
%TO.C,SW1*%
X127500000Y-63750000D02*
X127500000Y-65250000D01*
X128750000Y-67750000D02*
X133250000Y-67750000D01*
X133250000Y-61250000D02*
X128750000Y-61250000D01*
X134500000Y-65250000D02*
X134500000Y-63750000D01*
%TO.C,SW3*%
X139000000Y-75250000D02*
X139000000Y-76750000D01*
X140250000Y-79250000D02*
X144750000Y-79250000D01*
X144750000Y-72750000D02*
X140250000Y-72750000D01*
X146000000Y-76750000D02*
X146000000Y-75250000D01*
%TO.C,SW2*%
X127500000Y-86750000D02*
X127500000Y-88250000D01*
X128750000Y-90750000D02*
X133250000Y-90750000D01*
X133250000Y-84250000D02*
X128750000Y-84250000D01*
X134500000Y-88250000D02*
X134500000Y-86750000D01*
%TD*%
%LPC*%
D13*
%TO.C,J5*%
G36*
X182700000Y-110400000D02*
G01*
X180500000Y-110400000D01*
X180500000Y-109300000D01*
X182700000Y-109300000D01*
X182700000Y-110400000D01*
G37*
G36*
X182700000Y-96700000D02*
G01*
X180500000Y-96700000D01*
X180500000Y-95600000D01*
X182700000Y-95600000D01*
X182700000Y-96700000D01*
G37*
%TD*%
D14*
%TO.C,J5*%
X180100000Y-106749992D03*
X180100000Y-106249994D03*
X180100000Y-105749992D03*
X180100000Y-105249993D03*
X180100000Y-104749991D03*
X180100000Y-104249992D03*
X180100000Y-103749993D03*
X180100000Y-103249992D03*
X180100000Y-102749993D03*
X180100000Y-102249991D03*
X180100000Y-101749992D03*
X180100000Y-101249993D03*
X180100000Y-100749992D03*
X180100000Y-100249993D03*
X180100000Y-99749991D03*
X180100000Y-99249992D03*
D15*
X182025000Y-108649992D03*
X182025000Y-97350008D03*
%TD*%
D16*
%TO.C,J1*%
X147420000Y-99000000D03*
D17*
X149960000Y-99000000D03*
X152500000Y-99000000D03*
X155040000Y-99000000D03*
X157580000Y-99000000D03*
%TD*%
D18*
%TO.C,SW8*%
X170750000Y-85250000D03*
X177250000Y-85250000D03*
X170750000Y-89750000D03*
X177250000Y-89750000D03*
%TD*%
D19*
%TO.C,H11*%
X153000000Y-125000000D03*
%TD*%
D18*
%TO.C,SW9*%
X121750000Y-126250000D03*
X128250000Y-126250000D03*
X121750000Y-130750000D03*
X128250000Y-130750000D03*
%TD*%
%TO.C,SW4*%
X116250000Y-73750000D03*
X122750000Y-73750000D03*
X116250000Y-78250000D03*
X122750000Y-78250000D03*
%TD*%
D19*
%TO.C,H8*%
X116000000Y-117000000D03*
%TD*%
D18*
%TO.C,SW5*%
X170750000Y-62250000D03*
X177250000Y-62250000D03*
X170750000Y-66750000D03*
X177250000Y-66750000D03*
%TD*%
%TO.C,SW6*%
X159250000Y-73750000D03*
X165750000Y-73750000D03*
X159250000Y-78250000D03*
X165750000Y-78250000D03*
%TD*%
%TO.C,SW7*%
X182250000Y-73750000D03*
X188750000Y-73750000D03*
X182250000Y-78250000D03*
X188750000Y-78250000D03*
%TD*%
%TO.C,SW10*%
X176750000Y-126250000D03*
X183250000Y-126250000D03*
X176750000Y-130750000D03*
X183250000Y-130750000D03*
%TD*%
D19*
%TO.C,H9*%
X189500000Y-117000000D03*
%TD*%
%TO.C,H7*%
X153000000Y-62500000D03*
%TD*%
D18*
%TO.C,SW1*%
X127750000Y-62250000D03*
X134250000Y-62250000D03*
X127750000Y-66750000D03*
X134250000Y-66750000D03*
%TD*%
D19*
%TO.C,H5*%
X116000000Y-62500000D03*
%TD*%
D18*
%TO.C,SW3*%
X139250000Y-73750000D03*
X145750000Y-73750000D03*
X139250000Y-78250000D03*
X145750000Y-78250000D03*
%TD*%
D19*
%TO.C,H10*%
X153000000Y-89000000D03*
%TD*%
D18*
%TO.C,SW2*%
X127750000Y-85250000D03*
X134250000Y-85250000D03*
X127750000Y-89750000D03*
X134250000Y-89750000D03*
%TD*%
D19*
%TO.C,H6*%
X189500000Y-62500000D03*
%TD*%
%LPD*%
M02*
