M48
; DRILL file {KiCad 9.0.2} date 2025-07-13T15:32:31+0200
; FORMAT={-:-/ absolute / inch / decimal}
; #@! TF.CreationDate,2025-07-13T15:32:31+02:00
; #@! TF.GenerationSoftware,Kicad,Pcbnew,9.0.2
; #@! TF.FileFunction,Plated,1,2,PTH
FMAT,2
INCH
; #@! TA.AperFunction,Plated,PTH,ViaDrill
T1C0.0118
; #@! TA.AperFunction,Plated,PTH,ViaDrill
T2C0.0157
; #@! TA.AperFunction,Plated,PTH,ComponentDrill
T3C0.0394
; #@! TA.AperFunction,Plated,PTH,ComponentDrill
T4C0.0433
%
G90
G05
T1
X4.8425Y-4.4094
X4.8425Y-4.5276
X4.9606Y-4.4094
X4.9606Y-4.5276
X5.315Y-3.7402
X5.315Y-3.8583
X5.315Y-3.9764
X5.4331Y-3.7402
X5.4331Y-3.8583
X5.4331Y-3.9764
X5.4331Y-4.685
X5.4331Y-4.7638
X5.4331Y-4.8425
X5.5118Y-4.685
X5.5118Y-4.7638
X5.5118Y-4.8425
X6.0236Y-2.6772
X6.0236Y-2.7953
X6.0236Y-2.9134
X6.0236Y-3.0315
X6.0236Y-3.1496
X6.0236Y-3.2677
X6.378Y-3.3465
X6.378Y-3.5039
X6.4567Y-3.4252
X6.4567Y-3.5827
X6.5748Y-4.685
X6.5748Y-4.7638
X6.5748Y-4.8425
X6.6535Y-4.685
X6.6535Y-4.7638
X6.6535Y-4.8425
X6.7638Y-4.2441
X6.8799Y-4.1791
X6.937Y-3.8976
X7.189Y-4.0059
X7.189Y-4.0472
X7.3465Y-4.1024
X7.3701Y-3.8346
T2
X7.0197Y-4.3031
T3
X5.8039Y-3.8976
X5.9039Y-3.8976
X6.0039Y-3.8976
X6.1039Y-3.8976
X6.2039Y-3.8976
T4
X4.5768Y-2.9035
X4.5768Y-3.0807
X4.7933Y-4.9705
X4.7933Y-5.1476
X4.8327Y-2.9035
X4.8327Y-3.0807
X5.0295Y-2.4508
X5.0295Y-2.628
X5.0295Y-3.3563
X5.0295Y-3.5335
X5.0492Y-4.9705
X5.0492Y-5.1476
X5.2854Y-2.4508
X5.2854Y-2.628
X5.2854Y-3.3563
X5.2854Y-3.5335
X5.4823Y-2.9035
X5.4823Y-3.0807
X5.7382Y-2.9035
X5.7382Y-3.0807
X6.2697Y-2.9035
X6.2697Y-3.0807
X6.5256Y-2.9035
X6.5256Y-3.0807
X6.7224Y-2.4508
X6.7224Y-2.628
X6.7224Y-3.3563
X6.7224Y-3.5335
X6.9587Y-4.9705
X6.9587Y-5.1476
X6.9783Y-2.4508
X6.9783Y-2.628
X6.9783Y-3.3563
X6.9783Y-3.5335
X7.1752Y-2.9035
X7.1752Y-3.0807
X7.2146Y-4.9705
X7.2146Y-5.1476
X7.4311Y-2.9035
X7.4311Y-3.0807
M30
